<svg xmlns="http://www.w3.org/2000/svg" viewBox="0 0 367.87 278.84"><defs><style>.cls-1{fill:#fff;}.cls-2{fill:#006838;}.cls-3{fill:#084925;}.cls-4{fill:#009444;}.cls-5{fill:#8dc63f;}.cls-6{fill:#d7df23;}.cls-7{fill:#f9ed32;}</style></defs><title>achiever</title><g id="Layer_2" data-name="Layer 2"><g id="Layer_7" data-name="Layer 7"><polygon class="cls-1" points="132.53 276.74 60.77 137.55 65.24 134.5 61.87 129.55 55.05 134.19 26.16 88.82 31.61 85.11 31.07 84.33 16.49 94.26 2.92 74.32 14.98 66.11 12.04 61.8 90.76 8.2 93.7 12.5 105.39 4.54 118.97 24.48 105.07 33.94 105.6 34.72 110.63 31.3 128.59 60.22 128.59 2.1 238.63 2.1 238.63 62.58 257.25 32.7 262.27 36.12 262.8 35.34 248.91 25.88 262.48 5.94 274.17 13.9 277.11 9.6 309.29 31.51 315.54 35.69 315.5 35.74 317.12 36.84 318.63 37.75 326.73 43.16 326.63 43.32 355.83 63.2 352.89 67.51 364.95 75.72 351.38 95.66 336.8 85.73 336.26 86.51 341.71 90.22 312.82 135.59 306 130.95 301.77 137.17 304.5 139.07 239.25 276.74 132.53 276.74"/><path class="cls-1" d="M236.54,4.2V69.93l21.34-34.25L262.82,39l2.9-4.25-13.9-9.46L263,8.86l11.69,8,2.93-4.31,30.45,20.74,4.5,3,0,0,4.82,3.28.05-.08,6.35,4.25-.09.14,29.18,19.87L350,68.06,362,76.28,350.82,92.74l-14.58-9.93-2.9,4.25,5.5,3.74-26.63,41.83L305.45,128l-6.58,9.67,3,2.08L237.92,274.64H133.81L63.49,138.24l4.67-3.18-5.74-8.43-6.77,4.61L29,89.41l5.5-3.74-2.9-4.25L17,91.34,5.84,74.88,17.9,66.66,15,62.36,43.88,42.66,64.23,28.81l26-17.69,2.93,4.31,11.69-8L116,23.92l-13.9,9.46,2.9,4.25L110,34.27l20.69,33.31V4.2H236.54M130.48,75l.21-.14v-5.6l-2.81,1.92,2.6,3.82m106.91,1.4,2.6-3.82-3.46-2.36v5.6l.85.58M240.74,0H126.49V52.86L113.56,32.05l-.59-1,5.44-3.7L121.88,25l-2.36-3.47L108.31,5.1l-2.36-3.47L102.47,4l-8.22,5.6-.57-.84L91.32,5.28,87.85,7.64l-26,17.69L41.51,39.19,12.6,58.88,9.13,61.25l2.36,3.47.57.84L3.47,71.41,0,73.77l2.36,3.47L13.58,93.71l2.36,3.47,3.47-2.36L25,91l.44.69L52.11,133.5l2.33,3.65L58,134.71l3.29-2.24,1,1.48-1.2.81-3.07,2.09,1.7,3.31,70.32,136.4,1.17,2.28H240.57l1.14-2.4,63.93-134.86,1.52-3.21-2.48-1.74,1.88-2.76,3.29,2.24,3.58,2.44,2.33-3.65,26.63-41.83.44-.69,5.64,3.84,3.47,2.36,2.36-3.47,11.21-16.46,2.36-3.47-3.47-2.36L355.81,67l.57-.84,2.36-3.47-3.47-2.36L329.53,42.75l.11-.17-3.49-2.33L319.79,36l-3.49-2.33v0l-1.34-.92-4.5-3L280,9l-3.47-2.36-2.36,3.47-.57.84-8.22-5.6L261.93,3,259.56,6.5,248.35,23,246,26.43l3.47,2.36,5.44,3.71-.59.95L240.74,55.24V0Z"/><rect class="cls-2" x="134.58" y="8.09" width="98.07" height="91.5"/><path class="cls-3" d="M228.76,12V95.7H138.47V12h90.29m7.78-7.78H130.69v99.27H236.54V4.2Z"/><rect class="cls-2" x="240.39" y="33.35" width="85.32" height="103.56" transform="translate(469.08 314.82) rotate(-145.75)"/><rect class="cls-3" x="248.15" y="62.86" width="97.96" height="4.38" transform="translate(506.1 286.06) rotate(-145.75)"/><rect class="cls-3" x="243.65" y="70.29" width="97.96" height="4.38" transform="translate(493.7 297.09) rotate(-145.75)"/><rect class="cls-3" x="239" y="78.25" width="97.54" height="4.38" transform="translate(480.36 308.9) rotate(-145.75)"/><rect class="cls-3" x="233.8" y="85.88" width="97.96" height="4.38" transform="translate(466.94 320.02) rotate(-145.75)"/><rect class="cls-3" x="229.19" y="93.54" width="97.43" height="4.38" transform="matrix(-0.83, -0.56, 0.56, -0.83, 453.71, 331.27)"/><rect class="cls-3" x="223.98" y="101.07" width="97.96" height="4.38" transform="translate(440.46 342.25) rotate(-145.75)"/><polygon class="cls-3" points="263.04 8.86 274.73 16.82 277.66 12.51 352.91 63.76 349.98 68.06 362.04 76.28 350.82 92.74 251.82 25.32 263.04 8.86"/><rect class="cls-4" x="42.16" y="31.95" width="85.32" height="103.56" transform="translate(-32.42 62.27) rotate(-34.25)"/><rect class="cls-2" x="21.76" y="61.46" width="97.96" height="4.38" transform="translate(-23.55 50.86) rotate(-34.25)"/><rect class="cls-2" x="26.27" y="68.89" width="97.96" height="4.38" transform="translate(-26.96 54.68) rotate(-34.25)"/><rect class="cls-2" x="31.33" y="76.85" width="97.54" height="4.38" transform="translate(-30.59 58.79) rotate(-34.25)"/><rect class="cls-2" x="36.11" y="84.48" width="97.96" height="4.38" transform="translate(-34.02 62.93) rotate(-34.25)"/><rect class="cls-2" x="41.26" y="92.14" width="97.43" height="4.38" transform="translate(-37.49 67) rotate(-34.25)"/><rect class="cls-2" x="45.93" y="99.67" width="97.96" height="4.38" transform="translate(-40.87 71.09) rotate(-34.25)"/><polygon class="cls-2" points="104.84 7.46 93.14 15.42 90.21 11.11 14.96 62.35 17.9 66.66 5.84 74.88 17.05 91.34 116.05 23.92 104.84 7.46"/><polygon class="cls-2" points="237.92 274.64 133.81 274.64 63.49 138.24 141.19 85.37 222.83 84.58 301.84 139.78 237.92 274.64"/><polygon class="cls-4" points="241.18 236.23 184.33 257.44 129.32 236.23 112.81 181.44 129.32 131.95 182.5 110.74 241.18 131.95 255.84 179.67 241.18 236.23"/><polygon class="cls-5" points="223.84 220.32 184.16 235.12 145.75 220.32 134.23 182.06 145.75 147.51 182.88 132.71 223.84 147.51 234.08 180.83 223.84 220.32"/><polygon class="cls-6" points="189.99 189.89 183.67 192.25 177.56 189.89 175.72 183.8 177.56 178.29 183.47 175.93 189.99 178.29 191.63 183.6 189.99 189.89"/><path class="cls-5" d="M191,42c1.2-.8,3.63-2.38,3.63-2.38s-.43-3.06-.44-3.31c-1.24-.39-3.73-1.12-3.73-1.12l-1.7-2.76s1.17-2.67,1.78-4c-.14-.23-1.88-2.26-2.12-2.57-1.44.39-4.32,1.2-4.32,1.2a23.61,23.61,0,0,1-2.37-1.51c-.23-1.45-.29-2.83-.5-4.29-.69-.26-2.23-.88-3.1-1.3,0,0-3.28,3.64-3.28,3.64s-2.6.11-2.67,0C171.1,22.47,170,21.24,169,20c0,0-3,1.21-3,1.21s-.42,2.91-.66,4.36a19.49,19.49,0,0,1-2.13,1.55L158.6,25.9l-2.16,2.56,1.77,3.95a20.89,20.89,0,0,1-1.2,2.66c-1.39.44-4.18,1.27-4.18,1.27s-.78,3.07-.78,3.12c1.32.87,2.64,1.73,3.95,2.61a9.94,9.94,0,0,1,.39,2.87q-1.38,1.67-2.81,3.3a30.59,30.59,0,0,0,1.47,3.08c1.43,0,2.87,0,4.3,0a22.4,22.4,0,0,1,1.88,2.12s-.38,2.94-.58,4.42c.14.21,2.63,1.62,2.85,1.8.78-.51,4-2.42,4-2.42l2.52.94s1.22,2.62,1.82,3.93c.23.05,3,0,3.37,0q.91-2,1.85-4a22,22,0,0,1,2.79-.78l3.66,2.32c.22-.23,2.51-1.6,2.83-1.87q-.31-2.16-.59-4.33a9.2,9.2,0,0,1,1.91-2.15c1.42,0,2.84,0,4.26,0,.16-.42,1.44-3.13,1.44-3.13s-1.89-2.19-2.81-3.3A11.62,11.62,0,0,1,191,42Zm-16.8,6.16-7.58-7.58,7.58-7.58,7.58,7.58Z"/><path class="cls-5" d="M213.1,70.35c-1.45,0-2.89.1-4.34.17a17.43,17.43,0,0,0-1.78,2c0,1.45,0,2.89.09,4.34a21.12,21.12,0,0,1-3.21,1.28c-.85-1-2.33-2.87-2.64-3.17a.07.07,0,0,0-.08,0c-.3.12-3.4-.08-3.55.07-.78.74-2.63,2.42-2.63,2.42s-3-1.69-3-1.8c.26-1.37.81-4.24.8-4.17s-2.12-2.43-2.21-2.53c-1.2-.17-2.7-.47-3.92-.72,0-.46-.28-3.26-.16-3.32.56-.35,3.58-1.27,3.74-1.47a21.12,21.12,0,0,0,.87-3.27c-.66-1.27-2.07-4-2-3.82,0,0,2.3-2.52,2.34-2.5l3.94,1.7a11.61,11.61,0,0,0,2.42-.7l2-4.26s3.33.38,3.44.42c.36,1.34.74,2.68,1.1,4,0,.06,2.48,1.37,2.52,1.4,1.37-.36,2.74-.7,4.12-1a18.26,18.26,0,0,1,2.06,2.57c-.72,1-1.58,2.07-2.31,3.06,0,0,.35,3.84.37,3.75,1.12.8,2.2,1.66,3.3,2.5A28.51,28.51,0,0,1,213.1,70.35Zm-12.61-9.81a54.31,54.31,0,0,0-4,3.92c.91,1,4,4.13,4,4.13s2.81-2.72,4-4C202.88,62.9,201.76,61.72,200.48,60.54Z"/><path class="cls-4" d="M201.15,74.91a.07.07,0,0,1,.08,0c.31.3,1.79,2.17,2.64,3.17a21.12,21.12,0,0,0,3.21-1.28c0-1.45-.08-2.89-.09-4.34a17.43,17.43,0,0,1,1.78-2c1.44-.07,2.89-.13,4.34-.17a28.51,28.51,0,0,0,1.37-3.1c-1.1-.84-2.18-1.69-3.3-2.5,0,.08-.38-3.74-.37-3.75.72-1,1.58-2.06,2.31-3.06A18.26,18.26,0,0,0,211,55.37l-1.88.46-6.61,6.75,1.94,2c-1.24,1.26-4,4-4,4l-1.89-1.92-6,6.16L192,75.61c0,.11,3,1.8,3,1.8s1.85-1.68,2.63-2.42C197.74,74.84,200.84,75,201.15,74.91Z"/><path class="cls-4" d="M191,42c1.2-.8,3.63-2.38,3.63-2.38s-.43-3.06-.44-3.31c-1.24-.39-3.73-1.12-3.73-1.12l-1.7-2.76s1.17-2.67,1.78-4c-.14-.23-1.88-2.26-2.12-2.57l-3.78,1-8.12,8.42,5.26,5.26-7.58,7.58-5.12-5.12-8.83,9.16c.49.57,1,1.2,1,1.2s-.38,2.94-.58,4.42c.14.21,2.63,1.62,2.85,1.8.78-.51,4-2.42,4-2.42l2.52.94s1.22,2.62,1.82,3.93c.23.05,3,0,3.37,0q.91-2,1.85-4a22,22,0,0,1,2.79-.78l3.66,2.32c.22-.23,2.51-1.6,2.83-1.87q-.31-2.16-.59-4.33a9.2,9.2,0,0,1,1.91-2.15c1.42,0,2.84,0,4.26,0,.16-.42,1.44-3.13,1.44-3.13s-1.89-2.19-2.81-3.3A11.62,11.62,0,0,1,191,42Z"/><polygon class="cls-4" points="73.99 140.34 151.69 87.47 225.94 86.75 222.83 84.58 141.19 85.37 63.49 138.24 133.81 274.64 143.23 274.64 73.99 140.34"/><polygon class="cls-5" points="120.52 184.94 137.02 135.45 182.67 117.13 182.5 110.74 129.32 131.95 112.81 181.44 129.32 236.23 136.84 239.13 120.52 184.94"/><polygon class="cls-6" points="139.13 184.16 150.65 149.62 183.02 136.73 182.88 132.71 145.75 147.51 134.23 182.06 145.75 220.32 150.58 222.18 139.13 184.16"/><polygon class="cls-7" points="178.79 190.31 176.94 184.15 178.78 178.64 183.45 176.85 183.47 175.93 177.56 178.29 175.72 183.8 177.56 189.89 178.79 190.31"/></g></g></svg>