<svg xmlns="http://www.w3.org/2000/svg" viewBox="0 0 185.62 305.86"><defs><style>.cls-1{fill:#6c0d20;}.cls-2{fill:#be1e2d;}.cls-3{fill:#ef484a;}.cls-4{fill:#a7a9ac;}.cls-5{fill:#bcbec0;stroke:#e6e7e8;stroke-miterlimit:10;stroke-width:13.41px;}.cls-6{fill:#939598;}.cls-7{fill:#d1d3d4;}.cls-8{fill:#fff;}</style></defs><title>activator</title><g id="Layer_2" data-name="Layer 2"><g id="Layer_11" data-name="Layer 11"><rect class="cls-1" x="2.45" y="10.5" width="180.72" height="283.64"/><polygon class="cls-2" points="166.63 285.57 93.73 303.34 18.95 285.57 18.95 22.76 93.12 2.54 166.63 22.76 166.63 285.57"/><polygon class="cls-3" points="26.91 25.82 101.08 5.6 166.63 23.63 166.63 22.76 93.12 2.54 18.95 22.76 18.95 285.57 26.91 287.46 26.91 25.82"/><polygon class="cls-4" points="174.15 146.42 152.94 201.21 92.77 227.8 35.22 203.97 11.38 146.42 35.22 88.87 92.77 65.03 150.06 88.62 174.15 146.42"/><rect class="cls-5" x="58.98" y="114.08" width="71.17" height="71.17" transform="translate(133.53 -23.03) rotate(45)"/><rect class="cls-6" x="86.52" y="141.63" width="16.08" height="16.08" transform="translate(133.53 -23.03) rotate(45)"/><polygon class="cls-7" points="18.74 150.71 42.57 93.16 100.12 69.32 150.7 90.14 150.06 88.62 92.77 65.03 35.22 88.87 11.38 146.42 35.22 203.97 41.95 206.75 18.74 150.71"/><path class="cls-2" d="M115.8,83.16l-6.64-15.92-15.79-6.5L77.53,67.31,71,83.16s16,50.29,23.75,71.9l.12.33.49-1.48C98.1,145.33,115.8,83.16,115.8,83.16Z"/><path class="cls-8" d="M71.88,247.39c7.26,0,12.38,5.3,12.38,12.53s-5.12,12.53-12.38,12.53-12.38-5.3-12.38-12.53S64.61,247.39,71.88,247.39Zm0,3.78c-4.9,0-8,3.74-8,8.75s3.12,8.75,8,8.75,8-3.78,8-8.75S76.74,251.17,71.88,251.17Z"/><path class="cls-8" d="M88.37,247.79H105v3.74H92.61v6.28h12.09v3.74H92.61V272H88.37Z"/><path class="cls-8" d="M108.78,247.79h16.6v3.74H113v6.28h12.09v3.74H113V272h-4.25Z"/><path class="cls-8" d="M79.23,24.4c7.26,0,12.38,5.3,12.38,12.53S86.49,49.45,79.23,49.45s-12.38-5.3-12.38-12.53S72,24.4,79.23,24.4Zm0,3.78c-4.9,0-8,3.74-8,8.75s3.12,8.75,8,8.75,8-3.78,8-8.75S84.1,28.17,79.23,28.17Z"/><path class="cls-8" d="M100,31.37V49H95.72V24.8h4.36L112.46,42V24.8h4.25V49h-4.1Z"/><path class="cls-3" d="M82.17,93.66l12.07,2.19,15.36-4.39,5.88-9.05-6.33-15.18-15.79-6.5L77.53,67.31,71,83.16l.08.27Z"/><path class="cls-8" d="M93.12,2.54l29,8h61.09V294.15H131.44l-37.71,9.19L55,294.15H2.45V10.5H63.9l29.22-8m0-2.54-.65.18L63.57,8.05H0V296.6H54.76l38.4,9.12.57.14.57-.14,37.42-9.12h53.89V8.05H122.41L93.77.18,93.12,0Z"/></g></g></svg>