<svg xmlns="http://www.w3.org/2000/svg" viewBox="0 0 119.69 360.26"><defs><style>.cls-1{fill:#d98c28;}.cls-2{fill:#fff;}.cls-3{fill:#ffc729;}.cls-4{fill:#fae51e;}</style></defs><title>adapt</title><g id="Layer_2" data-name="Layer 2"><g id="Layer_7" data-name="Layer 7"><path class="cls-1" d="M1.78,101.5l34.61-35V1.29l1.27,0h80.77V22.45H60.22v43.2L95.69,101.5,52.36,145.28V126.67L77.28,101.5,57.35,81.36a10.59,10.59,0,0,1-8.51,4.7,10.6,10.6,0,0,1-8.6-4.82l-20,20.25,25.11,25.38v18.61Z"/><path class="cls-2" d="M117.16,2.53V21.18H59v45l35,35.32L53.63,142.2v-15L79.06,101.5,57.13,79.34c-1.83,3.3-4.86,5.46-8.29,5.46s-6.55-2.21-8.37-5.58L18.42,101.5,44,127.39v15L3.57,101.5,37.66,67V2.53h79.5M119.69,0H35.12V66L1.76,99.71,0,101.5l1.76,1.78,40.48,40.9,4.34,4.38V126.35l-.73-.74L22,101.5,40.13,83.16a11.16,11.16,0,0,0,17.32.1l18,18.23L51.83,125.41l-.73.74v22.21L55.43,144l40.28-40.7,1.76-1.78-1.76-1.78L61.49,65.13V23.72h58.21V0Z"/><polygon class="cls-3" points="37.66 2.53 37.66 2.56 37.66 21.18 37.61 67.18 58.95 41.52 58.95 21.18 75.69 21.18 91.6 2.54 37.66 2.53"/><path class="cls-3" d="M49.65,358.52a30.07,30.07,0,1,1,30.07-30.07A30.1,30.1,0,0,1,49.65,358.52Z"/><path class="cls-2" d="M49.65,300.13a28.33,28.33,0,1,1-28.33,28.33,28.33,28.33,0,0,1,28.33-28.33m0-3.48a31.81,31.81,0,1,0,31.81,31.81,31.85,31.85,0,0,0-31.81-31.81Z"/><path class="cls-4" d="M46.72,300.28a28.33,28.33,0,0,0-5.67,55.17Z"/><rect class="cls-3" x="22.31" y="161.52" width="51.05" height="51.05" transform="translate(-40.49 15.37) rotate(-12.88)"/><path class="cls-2" d="M65.72,158.56l10.6,46.37-46.37,10.6-10.6-46.37,46.37-10.6m2.62-4.17-3.4.78-46.37,10.6-3.4.78.78,3.4,10.6,46.37.78,3.4,3.4-.78,46.37-10.6,3.4-.78-.78-3.4-10.6-46.37-.78-3.4Z"/><polygon class="cls-4" points="64.76 158.78 19.35 169.16 29.95 215.53 59.63 208.74 64.76 158.78"/><polygon class="cls-3" points="11.13 261.46 70.86 223.14 75.42 294.66 11.13 261.46"/><path class="cls-2" d="M69.31,226.21l4.17,65.5L14.61,261.3l54.7-35.09m3.1-6.13-5,3.2-54.7,35.09-5.08,3.26L13,264.39,71.89,294.8l5.47,2.82L77,291.48,72.79,226l-.38-5.91Z"/><polygon class="cls-4" points="50.67 279.92 55.26 235.22 14.61 261.3 50.67 279.92"/></g></g></svg>