<svg xmlns="http://www.w3.org/2000/svg" viewBox="0 0 427.83 220.96"><defs><style>.cls-1{fill:#fff;}.cls-2{fill:#27aae1;}.cls-3{fill:#112e35;}.cls-4{fill:#1b85c7;}.cls-5{fill:#be1e2d;}.cls-6{fill:#ffc626;}.cls-7{fill:#199bd7;}.cls-8{fill:#0a69b3;}.cls-9{fill:#d7df23;}</style></defs><title>analytical</title><g id="Layer_2" data-name="Layer 2"><g id="Layer_7" data-name="Layer 7"><path class="cls-1" d="M391,4l32.83,22.12V176.71l-31.4,20.7-365.93.71L4,185.82,4.55,65.9l23-12.3,175,.05,20.92-37.52L242.55,4H391m1.22-4H241.39l-1,.62L221.32,12.76l-.85.54-.49.88L200.19,49.65,27.56,49.6h-1l-.88.47-23,12.3L.56,63.5v2.39L0,185.8v2.38l2.09,1.14,22.48,12.3.9.49h1l365.93-.71h1.2l1-.66L426,180l1.8-1.19V24l-1.76-1.19L393.23.68l-1-.68Z"/><polygon class="cls-2" points="391 4 242.55 4 223.46 16.13 202.54 53.65 27.56 53.6 4.55 65.9 4.01 185.82 26.49 198.12 392.42 197.4 423.83 176.71 423.83 167.43 423.83 53.72 423.83 26.12 391 4"/><rect class="cls-3" x="38.97" y="87.17" width="138.82" height="74.17"/><path class="cls-4" d="M321.67,176.73l-53.46-21.38-15.88-54.71L268.3,51,320,29.57l56.78,21.3L391,99l-14.09,56.35Zm-42.87-31,42.95,17.18,44.35-17.17,11.62-46.48L366.26,60.64,320.21,43.38,278.7,60.55l-12.95,40.29Z"/><rect class="cls-5" x="201.99" y="88.46" width="21.89" height="21.89" transform="translate(132.66 -121.45) rotate(45)"/><rect class="cls-6" x="202.35" y="135.56" width="21.89" height="21.89" transform="translate(166.07 -107.91) rotate(45)"/><polygon class="cls-7" points="242.55 4 223.46 16.13 217.61 26.63 389.62 197.41 392.42 197.4 423.83 176.71 423.83 167.43 423.83 53.72 423.83 26.12 391 4 242.55 4"/><polygon class="cls-8" points="376.76 50.86 319.98 29.57 268.3 50.95 262 70.86 272.17 80.9 274.4 73.96 278.7 60.55 320.21 43.38 366.26 60.64 377.71 99.28 366.09 145.76 352.15 151.16 345.77 153.69 355.54 163.73 376.94 155.34 391.02 98.99 376.76 50.86"/><rect class="cls-1" x="280.04" y="102.29" width="85.6" height="118.67"/><rect class="cls-8" x="277.55" y="91.3" width="89.76" height="11.64"/><rect class="cls-9" x="44.84" y="115.2" width="28.26" height="9.97"/><rect class="cls-9" x="44.84" y="103.77" width="28.26" height="8.93"/><rect class="cls-9" x="44.84" y="127.87" width="28.26" height="8.31"/><rect class="cls-9" x="44.84" y="93.52" width="28.26" height="7.2"/><rect class="cls-9" x="44.84" y="149.48" width="28.26" height="8.1"/><rect class="cls-9" x="44.84" y="138.78" width="28.26" height="8.21"/><rect class="cls-9" x="111.33" y="115.2" width="28.26" height="9.97"/><rect class="cls-9" x="111.33" y="103.77" width="28.26" height="8.93"/><rect class="cls-9" x="111.33" y="127.87" width="28.26" height="8.31"/><rect class="cls-9" x="111.33" y="149.48" width="28.26" height="8.1"/><rect class="cls-9" x="111.33" y="138.78" width="28.26" height="8.21"/><rect class="cls-9" x="77.36" y="114.89" width="28.26" height="9.97"/><rect class="cls-9" x="77.36" y="127.56" width="28.26" height="8.31"/><rect class="cls-9" x="77.36" y="149.17" width="28.26" height="8.1"/><rect class="cls-9" x="77.36" y="138.47" width="28.26" height="8.21"/><rect class="cls-9" x="144.68" y="149.17" width="28.26" height="8.1"/><rect class="cls-9" x="144.68" y="138.47" width="28.26" height="8.21"/></g></g></svg>