<svg xmlns="http://www.w3.org/2000/svg" viewBox="0 0 152.99 318.79"><defs><style>.cls-1{fill:#009444;}.cls-2{fill:#fff;}.cls-3{fill:#3bb54a;}.cls-4{fill:#8dc63f;}.cls-5{fill:#39b54a;}</style></defs><title>arranger</title><g id="Layer_2" data-name="Layer 2"><g id="Layer_13" data-name="Layer 13"><path class="cls-1" d="M12.69,119.55,53.88,78.36V1.53l1.5,0h96.11v25H82.22V77.33l42.22,42.22L72.89,171.11V149.19l29.64-29.64L78.81,95.84a12,12,0,0,1-20.36-.13L34.61,119.55l29.88,29.88v21.92Z"/><path class="cls-2" d="M150,3V25H80.72V78l41.6,41.6L74.39,167.49V149.81l30.26-30.26L78.56,93.46c-2.18,3.88-5.78,6.43-9.87,6.43s-7.79-2.61-10-6.57L32.48,119.55,63,150.05v17.68L14.81,119.55,55.38,79V3H150m3-3H52.38V77.74L12.69,117.43l-2.12,2.12,2.12,2.12,48.17,48.17L66,175V148.81l-.88-.88L36.73,119.55,58.32,98a13.33,13.33,0,0,0,20.61.12l21.48,21.48L72.27,147.69l-.88.88v26.16l5.12-5.12,47.94-47.94,2.12-2.12-2.12-2.12L83.72,76.71V28H153V0Z"/><rect class="cls-3" x="47.06" y="185.98" width="43.35" height="43.35"/><path class="cls-2" d="M88.91,187.48v40.35H48.56V187.48H88.91m3-3H45.56v46.35H91.91V184.48Z"/><rect class="cls-3" x="25.15" y="230.11" width="43.35" height="43.35"/><path class="cls-2" d="M67,231.61V272H26.65V231.61H67m3-3H23.65V275H70V228.61Z"/><rect class="cls-3" x="1.5" y="273.94" width="43.35" height="43.35"/><path class="cls-2" d="M43.35,275.44v40.35H3V275.44H43.35m3-3H0v46.35H46.35V272.44Z"/><rect class="cls-3" x="44.98" y="273.94" width="43.35" height="43.35"/><path class="cls-2" d="M86.83,275.44v40.35H46.48V275.44H86.83m3-3H43.48v46.35H89.83V272.44Z"/><rect class="cls-3" x="88.81" y="273.94" width="43.35" height="43.35"/><path class="cls-2" d="M130.66,275.44v40.35H90.31V275.44h40.35m3-3H87.31v46.35h46.35V272.44Z"/><rect class="cls-3" x="68.98" y="230.11" width="43.35" height="43.35"/><path class="cls-2" d="M110.83,231.61V272H70.48V231.61h40.35m3-3H67.48V275h46.35V228.61Z"/><polygon class="cls-4" points="88.91 187.48 48.56 187.48 48.56 227.83 62.13 227.83 88.91 187.73 88.91 187.48"/><polygon class="cls-5" points="55.38 3 55.38 3.03 55.38 24.96 55.32 79.13 80.72 48.91 80.72 24.96 100.63 24.96 119.57 3.01 55.38 3"/><polygon class="cls-4" points="3 275.44 3 315.79 4.03 315.79 30.98 275.44 3 275.44"/><polygon class="cls-4" points="26.65 231.61 26.65 271.96 33.31 271.96 60.27 231.61 26.65 231.61"/></g></g></svg>