<svg xmlns="http://www.w3.org/2000/svg" viewBox="0 0 280.67 319.83"><defs><style>.cls-1{fill:#fff;}.cls-2{fill:#006938;}.cls-3{fill:#3bb54a;}.cls-4{fill:#0c1911;}.cls-5{fill:#0f2d19;}.cls-6{fill:#009444;}.cls-7{fill:#122d1b;}.cls-8{fill:#e6e7e8;}.cls-9{fill:#a7a9ac;}.cls-10{fill:#ef484a;}.cls-11{fill:#be1e2d;}</style></defs><title>belief</title><g id="Layer_2" data-name="Layer 2"><g id="Layer_7_copy" data-name="Layer 7 copy"><path class="cls-1" d="M51.52,17.11l12.7,9.12.25,11.2L56.92,50.34,42.51,51.52,31.2,43,31,28.7l6.92-10.17,13.65-1.42M56.06,0,28.52,2.87,14.33,23.73l.47,27.67L37.6,68.52l29.25-2.39L81.13,41.74,80.58,17.6,56.06,0Z"/><rect class="cls-2" x="62.33" y="52.74" width="18.18" height="44.31" transform="translate(-28.96 49.73) rotate(-32.29)"/><path class="cls-1" d="M66.78,53.48l22,34.81-12.72,8-22-34.81,12.72-8m1-4.33-2.65,1.68-12.72,8-2.65,1.68,1.68,2.65L73.41,98l1.68,2.65L77.73,99l12.72-8,2.65-1.68-1.68-2.65-22-34.81-1.68-2.65Z"/><polygon class="cls-2" points="22 246.15 1.69 151.41 66.71 67.31 180.5 45.87 249.04 108.39 278.94 212.6 208.04 300.17 100.06 318.16 22 246.15"/><path class="cls-1" d="M180,47.56l67.64,61.7,29.54,103-70,86.47L100.56,316.49,23.43,245.34,3.37,151.8,67.58,68.74,180,47.56m1-3.37-1.54.29L67,65.66l-1.17.22-.73.94L.89,149.88,0,151l.31,1.42L20.36,246l.21,1,.73.67,77.13,71.15,1.13,1,1.51-.25,106.64-17.77,1.17-.2.75-.92,70-86.47,1-1.27-.45-1.57-29.54-103-.24-.85-.66-.6-67.64-61.7L181,44.19Z"/><polygon class="cls-3" points="180.02 47.56 67.58 68.74 3.37 151.8 23.43 245.34 100.56 316.49 102.02 316.25 190.16 56.81 180.02 47.56"/><polygon class="cls-4" points="235.11 201.87 184.51 262.89 108.69 276.47 54.81 227.77 41.64 162.84 88.11 104.26 168.06 88.24 215.33 130.45 235.11 201.87"/><polygon class="cls-5" points="168.07 88.26 88.09 104.26 41.64 162.79 54.81 227.8 108.81 276.61 115.89 275.13 176.84 96.06 168.07 88.26"/><path class="cls-4" d="M148.87,148.48l16.87,15.07L173,189.71,154.51,212l-27.72,5L107.14,199.2l-4.74-23.39,17-21.42,29.49-5.91m1.84-6.77-34.82,7L95.67,174.2l5.73,28.27,23.46,21.2,33-5.91,22-26.57-8.62-31.09-20.58-18.38Z"/><polygon class="cls-6" points="88.11 104.26 86.91 105.77 94.64 118.88 97.2 117.37 89.34 104.02 88.11 104.26"/><polygon class="cls-6" points="168.06 88.24 166 88.65 161.59 100.87 164.34 101.64 168.88 88.97 168.06 88.24"/><polygon class="cls-6" points="213.71 129.01 197.87 138.36 199.27 140.73 215.53 131.17 215.33 130.45 213.71 129.01"/><polygon class="cls-6" points="220.43 199.76 219.92 202.56 233.34 204.01 235.11 201.87 234.96 201.32 220.43 199.76"/><polygon class="cls-6" points="183.13 263.13 184.51 262.89 185.63 261.53 178.49 249.42 175.93 250.93 183.13 263.13"/><polygon class="cls-6" points="57.71 166.23 58.37 163.45 43.12 160.97 41.64 162.84 41.81 163.67 57.71 166.23"/><polygon class="cls-6" points="55.6 228.48 70.37 219.76 68.97 217.38 54.44 225.96 54.81 227.77 55.6 228.48"/><polygon class="cls-6" points="115.34 260.18 108.54 276.33 108.69 276.47 111.83 275.9 118.04 261.08 115.34 260.18"/><polygon class="cls-6" points="58.03 150.7 59.49 148.15 54.75 146.31 52.86 148.69 58.03 150.7"/><polygon class="cls-6" points="78 125.09 79.92 122.86 76 119.52 74.17 121.83 78 125.09"/><polygon class="cls-6" points="68.36 137.79 70.03 135.38 65.57 132.68 63.74 134.98 68.36 137.79"/><polygon class="cls-6" points="57.42 210.64 56.42 208.04 51.33 210.62 51.91 213.44 57.42 210.64"/><polygon class="cls-6" points="45.44 181.56 51.06 180.61 50.62 177.86 44.88 178.83 45.44 181.56"/><polygon class="cls-6" points="54.35 195.26 53.59 192.6 48.04 194.38 48.59 197.11 54.35 195.26"/><polygon class="cls-6" points="91.68 261.09 93.81 263.02 97.13 257.57 94.73 256.06 91.68 261.09"/><polygon class="cls-6" points="67.59 239.32 69.66 241.19 74.05 237.32 72.09 235.37 67.59 239.32"/><polygon class="cls-6" points="79.37 249.96 81.43 251.83 85.44 247.14 83.24 245.43 79.37 249.96"/><polygon class="cls-6" points="147.03 92.45 146.35 97.44 149.29 97.38 150.04 91.85 147.03 92.45"/><polygon class="cls-6" points="108.69 100.14 109.71 105.18 112.59 104.58 111.57 99.56 108.69 100.14"/><polygon class="cls-6" points="128.04 96.26 128.25 101.48 131.17 101.19 130.95 95.68 128.04 96.26"/><polygon class="cls-6" points="131 272.47 131.69 267.42 128.75 267.47 128 273.01 131 272.47"/><polygon class="cls-6" points="165.36 266.32 164.31 261.2 161.44 261.8 162.46 266.84 165.36 266.32"/><polygon class="cls-6" points="148.88 269.27 148.66 264.04 145.75 264.33 145.97 269.79 148.88 269.27"/><polygon class="cls-6" points="203.27 119.68 198.62 122.84 200.42 124.97 205.4 121.59 203.27 119.68"/><polygon class="cls-6" points="175.45 102.48 177.65 104.19 181.09 99.87 179.01 98.01 175.45 102.48"/><polygon class="cls-6" points="190.97 108.7 186.79 112.64 188.76 114.59 193.04 110.55 190.97 108.7"/><polygon class="cls-6" points="218.16 214.09 216.69 216.64 221.36 218.45 223.32 216.09 218.16 214.09"/><polygon class="cls-6" points="194.73 242.54 192.81 244.77 196.75 248.12 198.63 245.85 194.73 242.54"/><polygon class="cls-6" points="206.58 227.81 204.92 230.22 209.36 232.92 211.24 230.65 206.58 227.81"/><polygon class="cls-6" points="229.72 182.4 228.95 179.6 223.37 179.83 223.56 182.65 229.72 182.4"/><polygon class="cls-6" points="214.5 149.69 215.25 152.35 220.84 150.35 220.1 147.67 214.5 149.69"/><polygon class="cls-6" points="218.54 163.91 218.97 166.66 225.02 165.43 224.27 162.73 218.54 163.91"/><path class="cls-3" d="M51.07,19,62.4,27.1l.23,10L55.88,48.63,43,49.68,32.93,42.1l-.22-12.79,6.18-9.08L51.07,19m4-15.26L30.54,6.26,17.87,24.88l.42,24.69L38.64,64.85l26.1-2.13L77.48,40.95,77,19.4,55.11,3.7Z"/><polygon class="cls-7" points="150.71 141.72 115.9 148.69 95.67 174.2 101.4 202.47 124.86 223.68 133.96 222.05 136.24 215.35 127.15 217 107.11 199.24 102.48 175.72 119.29 154.58 148.91 148.47 156.6 155.52 158.83 148.97 150.71 141.72 150.71 141.72"/><polygon class="cls-8" points="133.69 176.42 140.56 177.59 138.65 185.14 96.62 204.97 133.69 176.42"/><polygon class="cls-9" points="133.37 176.83 131.27 183.48 138.85 185.24 175.73 156.97 133.37 176.83"/><polygon class="cls-10" points="143.93 180.82 142.32 190.25 131.97 187.64 104.76 129.97 143.93 180.82"/><polygon class="cls-11" points="143.37 180.4 134.25 177.5 131.82 187.91 170.62 238.52 143.37 180.4"/></g></g></svg>