<svg xmlns="http://www.w3.org/2000/svg" viewBox="0 0 339.86 245.24"><defs><style>.cls-1{fill:#6c0d20;}.cls-2{fill:#fff;}.cls-3{fill:#941b1e;}.cls-4{fill:#be1e2d;}.cls-5{fill:#ef484a;}.cls-6{fill:#231f20;}.cls-7{fill:#d1d3d4;}.cls-8{fill:#39b54a;}.cls-9{fill:#ed1c24;}.cls-10{fill:#414042;}.cls-11{fill:#951c1f;}.cls-12{fill:#f15a29;}.cls-12,.cls-13,.cls-14,.cls-15,.cls-16,.cls-17{stroke:#f1f2f2;stroke-miterlimit:10;stroke-width:0.75px;}.cls-13{fill:#8dc63f;}.cls-14{fill:#d7df23;}.cls-15{fill:#f7941d;}.cls-16{fill:#f9ed32;}.cls-17{fill:#fbb040;}</style></defs><title>command</title><g id="Layer_2" data-name="Layer 2"><g id="Layer_7" data-name="Layer 7"><rect class="cls-1" x="1.27" y="1.27" width="337.32" height="242.7"/><path class="cls-2" d="M337.32,2.54V242.7H2.54V2.54H337.32M339.86,0H0V245.24H339.86V0Z"/><polygon class="cls-3" points="203.13 2.54 2.54 2.54 2.54 242.7 120.42 242.7 203.13 2.54"/><rect class="cls-4" x="9.41" y="9.94" width="321.04" height="226.18"/><rect class="cls-4" x="9.41" y="9.94" width="321.04" height="226.18"/><polygon class="cls-5" points="200.58 9.94 9.41 9.94 9.41 236.12 122.69 236.12 200.58 9.94"/><rect class="cls-6" x="144.37" y="49.94" width="7.62" height="164.81"/><rect class="cls-6" x="189.5" y="49.94" width="7.62" height="164.81"/><rect class="cls-7" x="186.97" y="133.3" width="13.55" height="23.71"/><rect class="cls-6" x="240.18" y="37.34" width="26.25" height="26.25" transform="translate(38.51 193.9) rotate(-45)"/><rect class="cls-8" x="220.13" y="173.77" width="14.23" height="14.23" transform="translate(-61.34 213.67) rotate(-45)"/><path class="cls-6" d="M227.25,173.06l7.82,7.82-7.82,7.82-7.82-7.82,7.82-7.82m0-4.49L225,170.82l-7.82,7.82-2.25,2.25,2.25,2.25,7.82,7.82,2.25,2.25,2.25-2.25,7.82-7.82,2.25-2.25-2.25-2.25-7.82-7.82-2.25-2.25Z"/><rect class="cls-9" x="220.23" y="203.38" width="14.23" height="14.23" transform="translate(-82.25 222.42) rotate(-45)"/><path class="cls-6" d="M227.35,202.68l7.82,7.82-7.82,7.82-7.82-7.82,7.82-7.82m0-4.49-2.25,2.25-7.82,7.82L215,210.5l2.25,2.25,7.82,7.82,2.25,2.25,2.25-2.25,7.82-7.82,2.25-2.25-2.25-2.25-7.82-7.82-2.25-2.25Z"/><rect class="cls-6" x="284.22" y="80.95" width="26.25" height="26.25" transform="translate(20.57 237.81) rotate(-45)"/><rect class="cls-6" x="239.84" y="121.39" width="26.25" height="26.25" transform="translate(-21.03 218.27) rotate(-45)"/><polygon class="cls-10" points="43.3 165.56 26.85 103.16 75.33 89.22 123.66 103.14 109 165.56 43.3 165.56"/><path class="cls-11" d="M75.33,91.53,121,104.69l-13.77,58.64H45L29.55,104.69,75.33,91.53m0-4.63-1.23.35L28.32,100.42l-4.18,1.2,1.11,4.2,15.46,58.64.87,3.31h69.18l.81-3.43,13.77-58.64,1-4.12-4.06-1.17L76.56,87.26l-1.23-.35Z"/><polygon class="cls-2" points="254.93 33.52 253.31 31.9 251.97 33.25 251.97 43.12 254.93 43.12 254.93 33.52"/><rect class="cls-2" x="302.29" y="92.94" width="2.96" height="10.99" transform="translate(19.37 243.63) rotate(-45)"/><rect class="cls-2" x="246.31" y="123.14" width="2.96" height="9.68" transform="translate(-17.92 212.7) rotate(-45)"/><rect class="cls-2" x="74.13" y="95.62" width="2.54" height="12.7"/><rect class="cls-2" x="37.93" y="105.18" width="2.47" height="11.04" transform="translate(-26.67 13.47) rotate(-14.62)"/><rect class="cls-2" x="45.72" y="106.2" width="1.19" height="5.29" transform="translate(-25.89 15.15) rotate(-14.57)"/><rect class="cls-2" x="53.02" y="103.98" width="1.19" height="5.29" transform="translate(-24.64 16.52) rotate(-14.28)"/><rect class="cls-2" x="60.88" y="101.52" width="1.19" height="5.29" transform="translate(-18.75 13.65) rotate(-11)"/><rect class="cls-2" x="67.95" y="100.01" width="1.19" height="5.29" transform="translate(-4.46 3.12) rotate(-2.53)"/><polygon class="cls-6" points="66.07 163.34 107.24 163.34 121.01 104.69 94.48 97.05 66.07 163.34"/><rect class="cls-2" x="110.39" y="105.18" width="2.47" height="11.04" transform="translate(191.7 246) rotate(-165.38)"/><rect class="cls-2" x="104.68" y="105.78" width="1.19" height="5.29" transform="translate(179.88 239.85) rotate(-165.43)"/><rect class="cls-2" x="97.37" y="103.56" width="1.19" height="5.29" transform="translate(166.71 233.29) rotate(-165.72)"/><rect class="cls-2" x="89.51" y="101.09" width="1.19" height="5.29" transform="translate(158.76 222.78) rotate(-169)"/><rect class="cls-2" x="82.45" y="99.59" width="1.19" height="5.29" transform="translate(161.5 208.03) rotate(-177.47)"/><rect class="cls-12" x="26.93" y="31.08" width="8.54" height="18.57"/><rect class="cls-13" x="110.34" y="31.08" width="12.06" height="18.57"/><rect class="cls-14" x="91.25" y="31.08" width="14.57" height="18.57"/><rect class="cls-15" x="39.99" y="31.08" width="11.56" height="18.57"/><rect class="cls-16" x="74.16" y="31.08" width="12.56" height="18.57"/><rect class="cls-17" x="56.07" y="31.08" width="13.57" height="18.57"/><polygon class="cls-5" points="75.17 151.72 80.77 154.06 82.9 147.62 61.23 113.4 75.17 151.72"/><polygon class="cls-10" points="151.99 151.03 151.99 49.94 144.37 49.94 144.37 173.16 151.99 151.03"/><rect class="cls-2" x="141.24" y="64.71" width="13.55" height="23.71"/><rect class="cls-10" x="34.23" y="182.7" width="80.79" height="27.07"/><path class="cls-2" d="M112.8,184.92v22.62H36.46V184.92H112.8m4.45-4.45H32V212h85.24V180.48Z"/></g></g></svg>