<svg xmlns="http://www.w3.org/2000/svg" viewBox="0 0 169.16 378"><defs><style>.cls-1{fill:#fff;}.cls-2{fill:#ef484a;}.cls-3{fill:#f1f2f2;}.cls-4{fill:#be1e2d;}.cls-5{fill:#231f20;}.cls-6{fill:#6c0d20;}.cls-7{fill:#941b1e;}.cls-8{fill:#9bdbf8;}.cls-9{fill:#414042;}.cls-10{fill:#b4e3f8;}.cls-11{fill:#58595b;}.cls-12{fill:#53101d;}</style></defs><title>communication</title><g id="Layer_2" data-name="Layer 2"><g id="Layer_7" data-name="Layer 7"><path class="cls-1" d="M161.07,27.43V44.08h-1v94h5.49L165,157.58l-1,35.41h3.21v10h-2.6v2h2.6v14.46h-2.6v2h2.6v12h-2.1v2.49h2.1v10.26h-4.77L158.58,376l-138.63-.5-.53-18-.51-17.45L14.29,183l-.75-25.43L13,138.13h8.48V118.19H49.37v19.95h88.27v-94h-1V27.43h24.43m2-2H134.64V46.08h1v90.06H51.36V116.19H19.45v19.95H10.91l.06,2.05.57,19.45.75,25.43,4.62,157.08.51,17.45.53,18,.06,1.93h1.93l138.63.5h1.94l.06-1.94,3.75-127.93h4.83V191H166l1-33.35.57-19.45.06-2.05h-5.54V46.08h1V25.43Z"/><polygon class="cls-1" points="113.2 76.3 118.68 43.88 113.2 12.97 58.34 0 5.98 12.97 0 44.88 5.98 76.3 59.84 89.76 73.89 86.22 68.38 105.98 82.58 102.36 78.35 115.46 92.81 96.01 80.78 97.24 88.24 82.6 113.2 76.3"/><rect class="cls-2" x="27.2" y="40.54" width="8.69" height="8.69" transform="translate(22.12 98.92) rotate(-135)"/><polygon class="cls-3" points="58.88 0.13 42.8 85.5 59.84 89.76 73.89 86.22 68.38 105.98 82.58 102.36 78.35 115.46 92.81 96.01 80.78 97.24 88.24 82.6 113.2 76.3 118.68 43.88 113.2 12.97 58.88 0.13"/><rect class="cls-4" x="55.5" y="40.54" width="8.69" height="8.69" transform="translate(-14.21 55.46) rotate(-45)"/><rect class="cls-4" x="84.09" y="39.97" width="8.69" height="8.69" transform="translate(-5.43 75.51) rotate(-45)"/><rect class="cls-5" x="137.63" y="27.43" width="22.44" height="118.68"/><polygon class="cls-4" points="158.58 376 19.95 375.5 12.97 138.13 165.56 138.13 158.58 376"/><polygon class="cls-6" points="13.54 157.58 164.99 157.58 165.56 138.13 12.97 138.13 13.54 157.58"/><polygon class="cls-6" points="19.42 357.55 19.95 375.5 158.58 376 159.12 357.55 19.42 357.55"/><polygon class="cls-2" points="165.56 138.13 12.97 138.13 19.95 375.5 20.53 375.5 165.55 138.37 165.56 138.13"/><polygon class="cls-6" points="18.91 340.1 36.9 340.1 33.41 183.01 14.29 183.01 18.91 340.1"/><rect class="cls-6" x="48.9" y="175.38" width="81.21" height="75.61"/><polygon class="cls-7" points="48.9 250.99 96.68 250.99 130.12 196.31 130.12 175.38 48.9 175.38 48.9 250.99"/><polygon class="cls-6" points="164.24 183.01 145.11 183.01 141.62 340.1 159.63 340.1 164.24 183.01"/><rect class="cls-8" x="53.36" y="179.52" width="72.31" height="67.32"/><rect class="cls-9" x="54.59" y="296.8" width="6.56" height="6.56" transform="translate(-195.24 128.81) rotate(-45)"/><rect class="cls-5" x="77.34" y="296.8" width="6.56" height="6.56" transform="translate(-188.57 144.9) rotate(-45)"/><rect class="cls-5" x="98.7" y="296.8" width="6.56" height="6.56" transform="translate(-182.32 160.01) rotate(-45)"/><rect class="cls-5" x="120.29" y="296.37" width="6.56" height="6.56" transform="translate(-175.69 175.14) rotate(-45)"/><rect class="cls-9" x="66.62" y="279.97" width="6.56" height="6.56" transform="translate(-179.81 132.39) rotate(-45)"/><rect class="cls-5" x="87.98" y="279.97" width="6.56" height="6.56" transform="translate(-173.56 147.49) rotate(-45)"/><rect class="cls-5" x="109.56" y="279.54" width="6.56" height="6.56" transform="translate(-166.93 162.63) rotate(-45)"/><rect class="cls-5" x="68.37" y="315.25" width="6.56" height="6.56" transform="translate(-204.25 143.96) rotate(-45)"/><rect class="cls-5" x="89.73" y="315.25" width="6.56" height="6.56" transform="translate(-197.99 159.06) rotate(-45)"/><rect class="cls-5" x="111.32" y="314.82" width="6.56" height="6.56" transform="translate(-191.37 174.2) rotate(-45)"/><rect class="cls-4" x="136.64" y="27.43" width="24.44" height="16.66"/><rect class="cls-9" x="21.44" y="118.19" width="27.93" height="25.43"/><rect class="cls-5" x="35.41" y="118.19" width="13.96" height="25.43"/><rect class="cls-9" x="137.63" y="27.43" width="11.91" height="118.68"/><polygon class="cls-7" points="165.56 138.13 12.97 138.13 13.54 157.58 153.8 157.58 165.55 138.37 165.56 138.13"/><polygon class="cls-7" points="19.42 357.55 19.95 375.5 20.53 375.5 31.51 357.55 19.42 357.55"/><polygon class="cls-7" points="18.91 340.1 36.9 340.1 33.41 183.01 14.29 183.01 18.91 340.1"/><polygon class="cls-10" points="53.36 246.84 99.22 246.84 125.67 203.59 125.67 179.52 53.36 179.52 53.36 246.84"/><rect class="cls-2" x="136.64" y="27.43" width="12.97" height="16.66"/><rect class="cls-11" x="26.43" y="119.18" width="3.49" height="15.46"/><rect class="cls-9" x="40.39" y="119.18" width="3.49" height="15.46"/><polygon class="cls-12" points="165.06 235.87 165.06 233.38 167.16 233.38 167.16 221.41 164.56 221.41 164.56 219.42 167.16 219.42 167.16 204.96 164.56 204.96 164.56 202.96 167.16 202.96 167.16 192.99 156.09 192.99 156.09 246.13 167.16 246.13 167.16 235.87 165.06 235.87"/></g></g></svg>