<svg xmlns="http://www.w3.org/2000/svg" viewBox="0 0 309.35 338.26"><defs><style>.cls-1{fill:#ef484a;}.cls-2{fill:#fff;}.cls-3{fill:#be202e;}.cls-4{fill:#a7a9ac;}.cls-5{fill:#d1d3d4;}.cls-6{fill:#4e121d;}.cls-7{fill:#6c0e21;}.cls-8{fill:#414042;}.cls-9{fill:#58595b;}.cls-10{fill:#231f20;}.cls-11{fill:#3bb54a;}</style></defs><title>competition</title><g id="Layer_2" data-name="Layer 2"><g id="Layer_7_copy" data-name="Layer 7 copy"><rect class="cls-1" x="1.13" y="287.33" width="230.92" height="49.8"/><path class="cls-2" d="M230.92,288.46V336H2.26V288.46H230.92m2.26-2.26H0v52.06H233.19V286.2Z"/><polygon class="cls-3" points="105.97 335.99 230.92 335.99 230.92 288.46 117.1 288.46 105.97 335.99"/><polygon class="cls-4" points="185.15 215.44 185.15 245.45 192.27 261.08 197.77 261.08 204.48 245.45 204.48 215.44 185.15 215.44"/><polygon class="cls-5" points="187.84 216.25 187.81 246.09 194.28 261.08 196.62 261.08 189.99 245.72 189.99 216.25 187.84 216.25"/><polygon class="cls-4" points="30.18 104.36 29.73 245.45 36.84 261.08 42.34 261.08 49.05 245.45 49.8 104.36 30.18 104.36"/><polygon class="cls-5" points="33.45 104.11 32.38 246.09 38.85 261.08 41.19 261.08 34.56 245.72 35.46 104.11 33.45 104.11"/><rect class="cls-6" x="177.86" y="214.68" width="32.92" height="12.06"/><rect class="cls-3" x="156.9" y="160.95" width="75.67" height="36.19"/><polygon class="cls-7" points="222.7 215.23 167.32 215.23 156.9 197.14 232.56 197.14 222.7 215.23"/><rect class="cls-1" x="10.45" y="28.93" width="59.76" height="78.09" transform="translate(80.38 136.12) rotate(-179.75)"/><polygon class="cls-8" points="203.07 254.75 199.48 262.93 190.4 262.93 186.72 254.75 173.14 254.75 173.14 257.23 175.31 257.23 187.12 269.31 187.38 269.31 187.38 292.75 187.46 292.75 194.95 302.83 202.91 292.75 203 292.75 203 269.27 214.86 257.59 217.1 257.59 217.1 254.75 203.07 254.75"/><polygon class="cls-9" points="195.18 269.85 195.26 269.85 194.37 262.93 190.4 262.93 186.72 254.75 173.14 254.75 173.14 257.23 175.31 257.23 187.12 269.31 187.38 269.31 187.38 292.75 187.46 292.75 194.95 302.83 195.18 302.55 195.18 269.85"/><rect class="cls-10" x="186.63" y="269.4" width="17.31" height="1.88"/><rect class="cls-10" x="186.63" y="276.38" width="17.31" height="1.88" transform="translate(-74.13 71.26) rotate(-17.44)"/><rect class="cls-10" x="186.63" y="283.22" width="17.31" height="1.88" transform="translate(-76.18 71.58) rotate(-17.44)"/><rect class="cls-10" x="186.76" y="289.53" width="17.31" height="1.88" transform="translate(-78.06 71.91) rotate(-17.44)"/><rect class="cls-8" x="186.63" y="269.4" width="8.53" height="1.88"/><polygon class="cls-8" points="195.16 276.37 186.75 279.02 187.31 280.81 195.16 278.34 195.16 276.37"/><polygon class="cls-8" points="195.16 283.22 186.75 285.86 187.31 287.65 195.16 285.19 195.16 283.22"/><polygon class="cls-8" points="195.16 289.57 186.88 292.17 187.44 293.96 195.16 291.54 195.16 289.57"/><polygon class="cls-7" points="193.24 214.68 177.86 214.68 177.86 226.75 188.08 226.75 193.24 214.68"/><polygon class="cls-1" points="216.24 160.95 156.9 160.95 156.9 197.14 200.75 197.14 216.24 160.95"/><polygon class="cls-3" points="200.75 197.14 156.9 197.14 167.32 215.23 193 215.23 200.75 197.14"/><polygon class="cls-3" points="307.08 96.81 273.88 88.57 272.38 81.72 194.66 68.9 193.91 35.7 270.87 29.66 307.08 35.7 307.08 96.81"/><polygon class="cls-7" points="227.11 57.58 226.21 74.11 272.38 81.72 272.38 57.58 227.11 57.58"/><polygon class="cls-1" points="240.69 167.74 149.39 167.74 145.62 130.77 159.96 10.05 227.11 2.5 242.2 129.26 240.69 167.74"/><rect class="cls-1" x="10.58" y="130.12" width="59.76" height="17.62" transform="translate(80.33 278.03) rotate(-179.75)"/><polygon class="cls-3" points="70.38 29.06 62.23 10.93 18.49 10.74 10.62 28.8 30.93 28.89 30.93 90.53 36.34 96.81 45.4 96.94 50.55 90.28 50.55 28.97 70.38 29.06"/><path class="cls-2" d="M18.49,10.74l43.74.19,8.15,18.13v77.58l-5.31,11.8,5.31,11.8-.08,17.62-20.74-.09-.52,97.67-6.71,15.63h-5.5l-7.11-15.63L30,147.69l-19.49-.08L10.62,130l5-11.55L10.74,106.9,10.62,28.8l7.87-18.06M17,8.47l-.6,1.37L8.55,27.9l-.19.43v.47l.12,78.09v.46l.18.42,4.53,10.65L8.55,129.08l-.19.43V130L8.28,147.6v2.26h2.26l17.23.07-.31,95.5v.49l.2.45L34.78,262l.6,1.33h8.45l.59-1.37,6.71-15.63.18-.42v-.46l.5-95.41,18.48.08h2.26v-2.26l.08-17.62v-.49l-.2-.45-4.89-10.87,4.89-10.87.2-.44V28.57l-.2-.44L64.3,10l-.6-1.33H62.24L18.5,8.48Z"/><polygon class="cls-8" points="47.9 254.4 44.31 262.57 35.23 262.57 31.54 254.4 17.97 254.39 17.97 256.88 20.14 256.88 31.95 268.95 32.2 268.95 32.2 292.4 32.29 292.4 39.78 302.48 47.74 292.4 47.83 292.4 47.83 268.91 59.69 257.23 61.92 257.23 61.92 254.39 47.9 254.4"/><polygon class="cls-9" points="40 269.49 40.09 269.49 39.2 262.57 35.23 262.57 31.54 254.4 17.97 254.39 17.97 256.88 20.14 256.88 31.95 268.95 32.2 268.95 32.2 292.4 32.29 292.4 39.78 302.48 40 302.19 40 269.49"/><rect class="cls-10" x="31.46" y="269.04" width="17.31" height="1.88"/><rect class="cls-10" x="31.46" y="276.02" width="17.31" height="1.88" transform="translate(-81.15 24.75) rotate(-17.44)"/><rect class="cls-10" x="31.46" y="282.87" width="17.31" height="1.88" transform="translate(-83.2 25.06) rotate(-17.44)"/><rect class="cls-10" x="31.59" y="289.18" width="17.31" height="1.88" transform="translate(-85.08 25.39) rotate(-17.44)"/><rect class="cls-8" x="31.46" y="269.04" width="8.53" height="1.88"/><polygon class="cls-8" points="39.99 276.02 31.57 278.66 32.14 280.45 39.99 277.99 39.99 276.02"/><polygon class="cls-8" points="39.99 282.86 31.57 285.51 32.14 287.3 39.99 284.83 39.99 282.86"/><polygon class="cls-8" points="39.99 289.21 31.71 291.81 32.27 293.61 39.99 291.18 39.99 289.21"/><path class="cls-2" d="M61.92,254.39v2.84H59.69L47.83,268.91V269h.94v1.88h-.94v2.63l.26-.08.56,1.79-.82.26v4.88l.26-.08.56,1.79-.82.26v4.38l.39-.12.56,1.79-1,.3v3.68h-.09L40,302.19h0l-.22.28L33,293.37l-.74.23-.56-1.79.5-.16v-4.38l-.07,0-.56-1.79.63-.2v-4.88l-.07,0-.56-1.79.63-.2v-7.54h-.75V269h.75V269h-.25L20.14,256.88H18v-2.49H31.54l3.69,8.18h9.08l3.6-8.18h14m-45.46-1.51v5.5h3l10.44,10.68v3.37h.75v4.92l-1,.32.45,1.44.56,1.79v3.3l-1,.32.45,1.44.56,1.79v2.81l-.88.28.45,1.44.56,1.79.45,1.44,1.16-.36,6.12,8.24L39.74,305,41,303.41l.22-.28,7.28-9.22h.87v-4.08l1.34-.42L50.23,288l-.56-1.79-.33-1v-1.66l1.21-.38-.45-1.44-.56-1.79-.19-.61v-2.63l1.21-.38-.45-1.44L49.53,273l-.18-.59h.93v-3.82l10-9.87h3.13v-5.86H46.92l-.4.9-3.2,7.28H36.2l-3.28-7.29-.4-.89H16.46Z"/><polygon class="cls-3" points="240.69 167.74 242.14 130.77 145.62 130.77 149.39 167.74 240.69 167.74"/><polygon class="cls-3" points="227.11 2.5 159.96 10.05 157.91 27.31 215.03 22.12 221.07 57.58 233.66 57.58 227.11 2.5"/><polygon class="cls-3" points="202.63 5.25 177.26 167.74 240.69 167.74 242.2 129.26 227.11 2.5 202.63 5.25"/><polygon class="cls-7" points="227.11 2.5 202.63 5.25 199.78 23.5 215.03 22.12 221.07 57.58 233.66 57.58 227.11 2.5"/><polygon class="cls-7" points="177.26 167.74 240.69 167.74 242.14 130.77 183.03 130.77 177.26 167.74"/><path class="cls-2" d="M227.11,2.5l3.61,30.31,40.15-3.15,36.22,6V96.81l-33.21-8.25-1.5-6.84-36.56-6,6.38,53.57-.06,1.51-1.45,37h-8.12v29.4l-9.87,18.09H210.78v11.51h-6.3v18.71l-6.71,15.63h-5.5l-7.11-15.63V226.74h-7.29V215.23H167.32L156.9,197.14v-29.4h-7.51l-3.77-37L157.91,27.31,160,10l42.67-4.79L227.11,2.5m2-2.5-2.23.25L202.38,3,159.7,7.8l-1.78.2-.21,1.78L155.66,27,143.37,130.5l0,.25,0,.25,3.77,37,.21,2h7.29v27.74l.3.52,10.42,18.09.65,1.13h9.59V229h7.29v16.93l.2.45L190.21,262l.6,1.33h8.45l.59-1.37,6.71-15.63.18-.43V229H213V217.49h11l.64-1.18,9.87-18.09.28-.51V170h8l.09-2.17,1.45-37,.06-1.51v-.18l0-.18-6-50.58,32.07,5.29,1.17,5.35.3,1.37,1.36.34L306.54,99l2.81.7V33.78l-1.89-.32-36.22-6-.27,0-.28,0-38,3L229.35,2.23,229.09,0Z"/><path class="cls-2" d="M217.1,254.74v2.84h-2.24L203,269.27v.13h.94v1.88H203v2.63l.26-.08.56,1.79-.82.26v4.88l.26-.08.56,1.79-.82.26v4.38l.39-.12.56,1.79-1,.3v3.68h-.09l-8,10.08-6.76-9.11-.74.23-.56-1.79.5-.16v-4.38l-.07,0h0l-.56-1.79.63-.2v-4.88l-.07,0h0l-.56-1.79.63-.2v-7.54h-.75V269.4h.75v-.09h-.25l-11.81-12.08h-2.17v-2.49h13.57l3.69,8.18h9.08l3.6-8.18h14m-45.46-1.51v5.5h3l10.44,10.68v3.37h.75v4.92l-1,.32.45,1.44.56,1.79v3.3l-1,.32.45,1.44.56,1.79v2.81l-.88.28.45,1.44.56,1.79.45,1.44,1.16-.36,6.12,8.24,1.17,1.58,1.22-1.55,7.51-9.51h.87v-4.08l1.34-.42-.45-1.44-.56-1.79-.33-1v-1.66l1.21-.38-.45-1.44-.56-1.79-.19-.61V277l1.21-.38-.45-1.44-.56-1.79-.18-.59h.93V269l10-9.87h3.13v-5.86H202.09l-.4.9-3.2,7.28h-7.12l-3.28-7.29-.4-.89H171.63Z"/><polygon class="cls-11" points="40.31 107.02 70.05 107.15 70.38 29.06 44.28 28.95 40.31 107.02"/><polygon class="cls-3" points="40.31 106.9 70.42 106.75 70.38 28.93 44.28 28.82 40.31 106.9"/><polygon class="cls-7" points="45.21 10.86 40.82 96.88 45.4 96.94 50.55 90.28 50.55 28.97 70.38 29.06 62.23 10.93 45.21 10.86"/><polygon class="cls-7" points="44.28 29.95 70.38 30.06 62.23 11.93 45.21 11.86 44.28 29.95"/><polygon class="cls-3" points="70.38 106.64 10.62 106.9 15.65 118.44 10.62 129.99 70.38 130.24 65.08 118.44 70.38 106.64"/><polygon class="cls-3" points="38.23 147.73 70.31 147.87 70.38 130.24 39.13 130.11 38.23 147.73"/><polygon class="cls-7" points="40.32 106.77 39.13 130.11 70.38 130.24 65.08 118.44 70.38 106.64 40.32 106.77"/><polygon class="cls-6" points="243.71 76.99 250.25 78.07 250.25 66.89 243.71 66.89 243.71 76.99"/><polygon class="cls-6" points="257.29 79.23 263.83 80.31 263.83 67.39 257.29 67.39 257.29 79.23"/></g></g></svg>