<svg xmlns="http://www.w3.org/2000/svg" viewBox="0 0 170.25 327.25"><defs><style>.cls-1{isolation:isolate;}.cls-2{fill:#fff;}.cls-3,.cls-7{mix-blend-mode:multiply;}.cls-10,.cls-4{opacity:0.75;}.cls-5{fill:#a7a9ac;}.cls-10,.cls-6,.cls-7{fill:#d98c28;}.cls-8{fill:#ffc729;}.cls-9{fill:#fae51e;}</style></defs><title>connect</title><g class="cls-1"><g id="Layer_2" data-name="Layer 2"><g id="Layer_7" data-name="Layer 7"><path class="cls-2" d="M53.53,265.25a7,7,0,0,1,6.95,6.95V317.3a7,7,0,0,1-6.95,6.95h-.25a7,7,0,0,1-6.95-6.95V272.2a7,7,0,0,1,6.95-6.95h.25m0-3h-.25a10,10,0,0,0-9.95,9.95V317.3a10,10,0,0,0,9.95,9.95h.25a10,10,0,0,0,9.95-9.95V272.2a10,10,0,0,0-9.95-9.95Z"/><path class="cls-2" d="M118.6,265.25a6.93,6.93,0,0,1,6.93,6.93v45.14a6.93,6.93,0,0,1-6.93,6.93h-.28a6.93,6.93,0,0,1-6.93-6.93V272.18a6.93,6.93,0,0,1,6.93-6.93h.28m0-3h-.28a9.94,9.94,0,0,0-9.93,9.93v45.14a9.94,9.94,0,0,0,9.93,9.93h.28a9.94,9.94,0,0,0,9.93-9.93V272.18a9.94,9.94,0,0,0-9.93-9.93Z"/><path class="cls-2" d="M167.25,3V22H94.34V149.25h-19V22h0V3h91.92m3-3H72.33V152.25h25V25h72.92V0Z"/><g class="cls-3"><path class="cls-2" d="M167.25,16.33V22H94.34V149.25H88.67V35.33h0v-19h78.59m3-3H85.67V152.25H97.34V25h72.92V13.33Z"/></g><path class="cls-2" d="M104.59,59.75v62.5H64.84V59.75h39.75m3-3H61.84v68.5h45.75V56.75Z"/><path class="cls-2" d="M130.67,118.58l20,29.67,5.67,92H12l5.67-92,20-29.67h93m1.6-3H36.07l-.89,1.32-20,29.67-.46.68-.05.82L9,240.07l-.2,3.18H159.53l-.2-3.18-5.67-92-.05-.82-.46-.68-20-29.67-.89-1.32Z"/><path class="cls-2" d="M130.67,118.58l20,29.67,5.67,92H59.79L129.9,118.58h.77m1.6-3h-4.1l-.87,1.5L57.19,238.75l-2.59,4.5H159.53l-.2-3.18-5.67-92-.05-.82-.46-.68-20-29.67-.89-1.32Z"/><path class="cls-2" d="M166,227.24v45H3v-45H166m3-3H0v51H169v-51Z"/><g class="cls-4"><path class="cls-2" d="M166,227.24v45H41.36l25.93-45H166m3-3H65.55l-.87,1.5-25.93,45-2.59,4.5H169v-51Z"/></g><g class="cls-4"><path class="cls-2" d="M104.59,59.75v59.11l-39.25.39,38.34-59.5h.91m3-3H102l-.89,1.37-38.34,59.5-3,4.68,5.57-.06,39.25-.39,3,0V56.75Z"/></g><rect class="cls-5" x="46.34" y="265.25" width="14.14" height="59" rx="6.95" ry="6.95"/><rect class="cls-5" x="111.39" y="265.25" width="14.14" height="59" rx="6.93" ry="6.93"/><polygon class="cls-6" points="167.25 3 75.33 3 75.33 22 75.34 22 75.34 149.25 94.34 149.25 94.34 22 167.25 22 167.25 3"/><polygon class="cls-7" points="167.25 16.33 88.67 16.33 88.67 35.33 88.67 35.33 88.67 149.25 94.34 149.25 94.34 22 167.25 22 167.25 16.33"/><rect class="cls-8" x="64.84" y="59.75" width="39.75" height="62.5"/><polygon class="cls-9" points="150.67 148.25 130.67 118.58 84.34 118.58 84 118.58 37.67 118.58 17.67 148.25 12 240.25 84 240.25 84.34 240.25 156.34 240.25 150.67 148.25"/><polygon class="cls-8" points="130.67 118.58 129.9 118.58 59.79 240.25 84 240.25 84.34 240.25 156.34 240.25 150.67 148.25 130.67 118.58"/><rect class="cls-8" x="3" y="227.24" width="163" height="44.99"/><polygon class="cls-10" points="41.36 272.23 166 272.23 166 227.24 67.29 227.24 41.36 272.23"/><polygon class="cls-10" points="65.34 119.25 104.59 118.86 104.59 59.75 103.68 59.75 65.34 119.25"/></g></g></g></svg>