<svg xmlns="http://www.w3.org/2000/svg" viewBox="0 0 383.58 314.51"><defs><style>.cls-1{fill:#fff;}.cls-2{fill:#40b64b;}.cls-3{fill:#90c742;}.cls-4{fill:#016534;}.cls-5{fill:#8dc63f;}.cls-6{fill:#3bb54a;}.cls-7{fill:#054924;}</style></defs><title>consistency</title><g id="Layer_2" data-name="Layer 2"><g id="Layer_7" data-name="Layer 7"><path class="cls-1" d="M193.07,3.3l2.43,2.43,13,13L195.31,31.9,193.22,34,318.67,63.7a.39.39,0,0,0,0-.13h.19l0,.19,2.28.45-2.28-.44c.51,2.14,1.29,4.2,2,6.29q14.75,45.69,29.51,91.37l21,65h9.29l-7,29.6L315,285.58,258.36,256.5l-7.16-30.12h9.18q1.31-3.72,2.64-7.44,27.72-77.34,55.44-154.67a2.06,2.06,0,0,0,.22-.53L194.07,47.11l16.6,234.19,13.92.06,4.39,12.8.8,2.32v0h18.85l6.17,14.57-126.72,1.06,7.33-15.55h16.13l0-.09.86-2.32,4.85-13.07,16.38.06L192.11,46.67,70.5,12.67c.43,1.31.82,2.46,1.19,3.61L92.06,79.36l22.14,68.59q4.53,14,9.07,28.05h9.11l-7,29.6L66.73,235.2,10.12,206.12,3,176h8.93c.45-1.23.91-2.46,1.36-3.69Q41.7,92.88,70.19,13.46l.3-.79-3-.58L192.85,33.92,177.65,18.72,193.07,3.3M15.52,176H119.7c0-.15-.09-.34-.17-.59q-2.18-6.75-4.36-13.49l-23.58-73L72.06,28.47c-.55-1.71-1.11-3.41-1.73-5.3-.18.47-.28.72-.37,1q-2,5.66-4.07,11.32L15.67,175.55c-.07.18-.11.32-.15.45m248.42,50.38H367.79l0-.11q-7.7-23.82-15.4-47.64Q343.7,151.84,335.06,125L321.6,83.34c-1-3-2-6.08-3-9.26-.19.45-.33.76-.44,1.07L263.93,226.37M193.07,0l-1.65,1.65L176,17.07l-1.65,1.65L176,20.37l10,10L67.91,9.78l-.85,4.6.29.06L59.71,35.75Q35.37,103.63,11,171.52c-.25.69-.5,1.38-.76,2.07l0,.07H0l.68,2.88,7.16,30.12.25,1,1,.49,56.61,29.08,1.06.54,1.06-.54,58.68-29.6,1-.49.25-1.06,7-29.6.68-2.87H125l-1.38-4.26-7.17-22.17-11.94-37L94.28,78.64,74.08,16.1,189.62,48.41,171.5,278.81l-14.21-.06h-1.63l-.57,1.53-4.85,13.07-.33.89h-16l-.63,1.34L126,311.14l-1.59,3.36,3.72,0,126.72-1.06,3.5,0L257,310.17l-6.17-14.57-.6-1.43H231.45l-.27-.78-4.39-12.8-.54-1.57h-1.66l-11.75,0L196.6,49.81,315.47,65.66l-35.73,99.69-18.93,52.8q-1.06,2.94-2.09,5.89H248.24l.68,2.88L256.09,257l.25,1,1,.49,56.61,29.08,1.06.54,1.06-.54,58.68-29.6,1-.49.25-1.06,7-29.6.68-2.87H373L352.59,160.7l-10-31q-9.75-30.19-19.5-60.38c-.19-.59-.39-1.18-.59-1.76-.45-1.34-.88-2.61-1.22-3.9l.34-1.75-.8-.16-.12-.52h-2.32L197.83,32.68l12.3-12.3,1.65-1.65-1.65-1.65-13-13-2.43-2.43L193.07,0ZM18.83,173.66l8.1-22.6L68.1,36.25l2.12-5.89L89.35,89.62l10.65,33,12.94,40.06,2,6.18,1.57,4.84H18.83ZM267.25,224l6-16.62L318.45,81.21l.92,2.85,13.46,41.7,6.89,21.37,10.4,32.22q5.26,16.29,10.53,32.58L364.58,224H267.25Z"/><path class="cls-2" d="M318.76,63.42c.32,1,1.4,4.47,2.1,6.62q14.75,45.69,29.51,91.37,11.12,34.42,22.22,68.84a3.81,3.81,0,0,1,.09.45H258.85c1.39-3.92,2.75-7.85,4.16-11.77C281.49,167.38,299.87,116,318.34,64.47A6.32,6.32,0,0,1,318.76,63.42Zm-.17,10.66c-.19.45-.33.76-.44,1.07L263.91,226.43c-.38,1.06-.38,1.06.79,1.06h96.75c2,0,3.93,0,5.89,0,.7,0,.82-.21.56-.8a4.29,4.29,0,0,1-.14-.44q-7.7-23.82-15.4-47.64Q343.7,151.84,335.06,125L321.6,83.34C320.62,80.3,319.62,77.26,318.58,74.08Z"/><path class="cls-3" d="M10.52,180.06c.75-2.63,1.77-5.16,2.69-7.73Q41.67,92.9,70.16,13.48l.3-.81c.44,1.32.82,2.47,1.19,3.63L92,79.38,114.17,148q5,15.48,10,31c.12.38.25.75.38,1.13ZM70.31,23.19c-.18.47-.28.72-.37,1q-2,5.66-4.07,11.32L15.64,175.57c-.36,1-.36,1,.77,1H118.67c1.19,0,1.2,0,.83-1.15q-2.18-6.75-4.36-13.49l-23.58-73L72,28.49C71.48,26.79,70.92,25.08,70.31,23.19Z"/><polygon class="cls-4" points="318.93 63.76 193.12 33.96 70.04 12.54 193.31 47.01 318.93 63.76"/><rect class="cls-5" x="182.17" y="7.82" width="21.8" height="21.8" transform="translate(43.31 142) rotate(-45)"/><polygon class="cls-5" points="210.84 283.83 173.45 283.83 193.12 33.77 210.84 283.83"/><polygon class="cls-6" points="190.36 283.83 205 283.83 210.82 283.45 193.78 43.15 190.36 283.83"/><polygon class="cls-6" points="125.41 205.6 66.73 235.2 10.12 206.12 2.96 176 132.38 176 125.41 205.6"/><polygon class="cls-4" points="248.63 296.52 229.78 296.53 224.58 281.36 157.28 281.09 151.54 296.58 135.41 296.59 128.08 312.14 254.8 311.08 248.63 296.52"/><polygon class="cls-5" points="10.12 206.12 66.73 235.2 71.42 232.83 39.72 201.97 37.47 176 2.96 176 10.12 206.12"/><polygon class="cls-4" points="373.65 255.98 314.97 285.58 258.36 256.5 251.2 226.38 380.63 226.38 373.65 255.98"/><polygon class="cls-6" points="258.36 256.5 314.97 285.58 319.67 283.21 287.96 252.34 285.7 226.38 251.2 226.38 258.36 256.5"/><polygon class="cls-6" points="191.04 281.23 157.28 281.09 151.54 296.58 135.41 296.59 128.08 312.14 190.92 311.61 191.04 281.23"/><polygon class="cls-7" points="151.57 296.49 229.76 296.49 228.97 294.16 152.43 294.16 151.57 296.49"/><polygon class="cls-4" points="151.57 296.49 190.98 296.49 190.99 294.16 152.43 294.16 151.57 296.49"/><rect class="cls-6" x="186.09" y="9.64" width="18.63" height="18.36" transform="translate(43.93 143.68) rotate(-45)"/></g></g></svg>