<svg xmlns="http://www.w3.org/2000/svg" viewBox="0 0 285 272.29"><defs><style>.cls-1{isolation:isolate;}.cls-2{fill:#f26b36;}.cls-3{fill:#fff;}.cls-4{fill:#d2df43;}.cls-5{fill:#ed1c24;}.cls-6{fill:#8dc63f;}.cls-7{fill:#27aae1;}.cls-8{fill:#0a84c6;}.cls-9{fill:#262f68;}.cls-10,.cls-11,.cls-12,.cls-13{fill:none;stroke:#fff;}.cls-10,.cls-13{stroke-width:0.5px;}.cls-11{stroke-width:0.39px;}.cls-12{stroke-width:0.48px;}.cls-13{opacity:0.14;mix-blend-mode:multiply;}.cls-14{fill:#0b6ab3;}</style></defs><title>context</title><g class="cls-1"><g id="Layer_2" data-name="Layer 2"><g id="Layer_7" data-name="Layer 7"><polygon class="cls-2" points="108.3 91.6 95.88 39.33 129.38 4.06 164.67 38.48 150.73 91.6 108.3 91.6"/><path class="cls-3" d="M129.44,7.22,162.2,39.16,149,89.39H110L98.31,40,129.44,7.22m-.12-6.3-3.09,3.25L95.1,36.93l-1.65,1.74L94,41l11.74,49.41.81,3.4h45.89l.87-3.3,13.18-50.22.65-2.49L165.29,36,132.53,4,129.32.91Z"/><polygon class="cls-4" points="184.08 90.69 171.66 38.41 205.16 3.15 240.45 37.56 226.51 90.69 184.08 90.69"/><path class="cls-3" d="M205.22,6.3,238,38.25,224.8,88.47h-39L174.09,39.07,205.22,6.3M205.1,0,202,3.25,170.88,36l-1.65,1.74.55,2.33L181.52,89.5l.81,3.4h45.89l.87-3.3,13.18-50.22.65-2.49-1.85-1.8L208.31,3.13,205.1,0Z"/><polygon class="cls-5" points="144.85 80.26 114.54 80.26 105.41 41.83 129.62 16.35 155.1 41.19 144.85 80.26"/><polygon class="cls-6" points="220.63 79.34 190.32 79.34 181.19 40.92 205.4 15.43 230.88 40.28 220.63 79.34"/><polygon class="cls-7" points="2.21 270.07 2.21 111.54 38.85 111.54 63.85 77.13 282.79 77.13 282.79 269.94 65.64 269.94 65.64 270.07 2.21 270.07"/><path class="cls-3" d="M280.57,79.34V267.73H63.42v.13h-59V113.76H40.37v-.53L65,79.34h215.6M285,74.91H62.72l-1.33,1.83L37.73,109.33H0v163H67.85v-.13H285V74.91Z"/><polygon class="cls-8" points="4.43 267.54 4.43 267.86 63.42 267.86 63.42 267.73 280.57 267.73 280.57 79.34 228.01 79.34 4.43 267.54"/><rect class="cls-9" x="73.9" y="110.3" width="179.96" height="128.06"/><rect class="cls-10" x="158.65" y="161.05" width="6.81" height="42.59"/><rect class="cls-10" x="158.34" y="159.57" width="6.58" height="1.62"/><rect class="cls-10" x="169.53" y="155.41" width="7.11" height="1.63"/><rect class="cls-10" x="164.52" y="150.48" width="5.87" height="53.43"/><rect class="cls-10" x="170.32" y="156.98" width="5.87" height="47.2"/><polygon class="cls-10" points="198.38 209.73 198.38 207.15 188.06 207.15 188.06 209.73 190.15 209.73 190.15 224.76 188.06 224.76 188.06 227.34 198.38 227.34 198.38 224.76 196.22 224.76 196.22 209.73 198.38 209.73"/><polygon class="cls-10" points="218.27 209.73 218.27 207.15 207.94 207.15 207.94 209.73 210.04 209.73 210.04 224.76 207.94 224.76 207.94 227.34 218.27 227.34 218.27 224.76 216.11 224.76 216.11 209.73 218.27 209.73"/><rect class="cls-10" x="197.32" y="225.67" width="11.84" height="1.67"/><rect class="cls-10" x="171.96" y="211.02" width="13.51" height="5.01"/><polygon class="cls-11" points="133.36 123.66 130.81 123.66 130.04 120.42 132.07 118.28 134.22 120.37 133.36 123.66"/><rect class="cls-10" x="150.53" y="131.87" width="3.18" height="14.7"/><rect class="cls-10" x="147.14" y="135.5" width="2.66" height="11.08"/><polygon class="cls-10" points="192.26 164.03 192.26 168.58 186.11 168.58 186.11 163.72 186.11 128.9 187.5 127.85 190.08 128.9 190.08 164.03 192.26 164.03"/><path class="cls-10" d="M190.08,128.92l-1.61-2.85-3.33-1.82L182,125.89l-1.72,3v84.62h5.16V130l2.16-1.35,2.44,3.16Z"/><rect class="cls-12" x="146.19" y="160" width="9.11" height="4.87"/><rect class="cls-10" x="133.21" y="181.1" width="17.41" height="5.07"/><rect class="cls-10" x="150.61" y="186.17" width="5.18" height="13.55"/><polygon class="cls-10" points="155.81 186.18 150.61 186.18 150.61 181.1 155.81 186.18"/><polygon class="cls-10" points="171.81 208.13 170.22 204.11 176.21 204.11 171.81 208.13"/><rect class="cls-10" x="109.81" y="165.7" width="25.41" height="37.39"/><polygon class="cls-10" points="169.47 227.19 138.32 226.91 131.72 219.19 137.66 199.41 169.3 199.41 175.36 219.61 169.47 227.19"/><rect class="cls-10" x="134.83" y="180.07" width="1.31" height="6.9"/><rect class="cls-10" x="149.84" y="198.53" width="6.64" height="1.04"/><rect class="cls-10" x="109.36" y="167.31" width="26.17" height="2.7"/><rect class="cls-10" x="109.36" y="198.71" width="26.17" height="2.7"/><polygon class="cls-10" points="128.43 188.59 122.69 190.89 117.14 188.59 115.47 182.64 117.14 177.26 122.51 174.96 128.43 177.26 129.91 182.45 128.43 188.59"/><polygon class="cls-10" points="149.46 213.74 145.33 215.39 141.34 213.74 140.14 209.45 141.34 205.58 145.2 203.93 149.46 205.58 150.53 209.31 149.46 213.74"/><polygon class="cls-10" points="148.29 212.48 145.33 213.63 142.46 212.48 141.6 209.52 142.46 206.84 145.24 205.69 148.29 206.84 149.06 209.42 148.29 212.48"/><polygon class="cls-10" points="165.03 213.59 160.91 215.25 156.91 213.59 155.71 209.31 156.91 205.44 160.77 203.79 165.03 205.44 166.1 209.17 165.03 213.59"/><polygon class="cls-10" points="126.72 186.79 122.62 188.38 118.64 186.79 117.45 182.69 118.64 178.98 122.49 177.39 126.72 178.98 127.78 182.55 126.72 186.79"/><polygon class="cls-10" points="139.56 123.72 137.04 123.72 136.28 120.52 138.29 118.4 140.41 120.47 139.56 123.72"/><polygon class="cls-10" points="163.87 212.34 160.91 213.49 158.04 212.34 157.18 209.38 158.04 206.7 160.81 205.55 163.87 206.7 164.64 209.28 163.87 212.34"/><rect class="cls-10" x="117.45" y="164.64" width="10.93" height="1.21"/><rect class="cls-10" x="131.67" y="218.63" width="43.74" height="1.26"/><rect class="cls-10" x="135.98" y="170.01" width="32.15" height="9.96"/><polygon class="cls-10" points="223.58 204.22 223.58 200.66 217.55 197.09 185.97 197.09 185.97 207.29 219.42 207.29 223.58 204.22"/><polygon class="cls-10" points="168.55 180.29 167.77 179.51 173.15 170.05 176.23 172.16 168.55 180.29"/><polygon class="cls-10" points="168.13 179.99 168.11 170.01 173.23 170.05 168.13 179.99"/><polygon class="cls-10" points="168.17 179.95 177.71 177.03 176.16 172.15 168.17 179.95"/><rect class="cls-10" x="165.84" y="183.47" width="22.42" height="9.96" transform="translate(284.99 -46.52) rotate(67.89)"/><polygon class="cls-10" points="186.43 197.21 185.41 196.78 178.66 205.32 181.77 207.38 186.43 197.21"/><polygon class="cls-10" points="185.99 196.94 176.73 200.66 178.69 205.4 185.99 196.94"/><polygon class="cls-10" points="185.97 196.98 186.7 207.29 181.74 207.32 185.97 196.98"/><rect class="cls-10" x="109.36" y="167.31" width="26.17" height="2.7"/><rect class="cls-10" x="121.98" y="156.21" width="2.15" height="8.43"/><polygon class="cls-10" points="124.15 156.23 121.96 156.23 124.15 154.22 124.15 156.23"/><rect class="cls-10" x="124.13" y="154.22" width="3.77" height="2.01"/><polygon class="cls-10" points="155.21 146.41 144.68 146.41 143.33 147.28 141.84 149.94 129.44 149.93 127.8 150.81 127.77 159.31 129.36 160.18 155.31 160.13 157.54 158.66 157.54 158 157.54 149.94 157.54 147.98 155.21 146.41"/><rect class="cls-10" x="130.24" y="152.31" width="9.84" height="5.26"/><path class="cls-10" d="M150.29,158.67l-3.79-1.52-1.13-3.88,1.13-3.52,3.67-1.52,4,1.51,1,3.41-1,4Z"/><rect class="cls-10" x="146.04" y="162.27" width="9.41" height="0.34"/><polygon class="cls-10" points="192.81 140.14 190.81 145.61 190.81 172.63 192.48 177.98 196.77 179.92 206.31 179.92 209.97 177.95 211.64 172.63 211.64 145.61 209.47 139.99 205.47 138.32 196.64 138.32 192.81 140.14"/><rect class="cls-10" x="190.62" y="147.91" width="21.32" height="6.63"/><rect class="cls-10" x="192.54" y="180.97" width="17.57" height="1.92"/><rect class="cls-10" x="196.85" y="179.86" width="9.52" height="1.12"/><polygon class="cls-10" points="139.54 143.99 130.48 143.99 131.98 144.98 138.21 144.98 139.54 143.99"/><rect class="cls-10" x="196.72" y="137.36" width="8.84" height="1.11"/><polygon class="cls-10" points="214.22 188.12 189.12 188.12 192.67 182.75 210.11 182.75 214.22 188.12"/><polygon class="cls-13" points="214.22 188.12 210.11 182.76 210.11 180.97 206.37 180.97 206.37 179.89 209.97 177.95 211.64 172.63 211.64 154.54 211.94 154.54 211.94 147.91 211.64 147.91 211.64 146.62 190.81 168.49 190.81 172.63 192.48 177.98 196.77 179.92 196.85 179.92 196.85 180.97 192.54 180.97 192.54 182.89 192.59 182.89 189.12 188.12 214.22 188.12"/><path class="cls-10" d="M206,164.83l-4.67-1.59-4.23,1.59-1.31,3.72,1.31,4.12,4.37,1.59,4.52-1.59,1.17-4.25Zm-3.82,3-.47-.16.1-3.42,3.31,1.13Zm-.94-.17-.4.15-2.9-2.42,3.06-1.15Zm-.74.41-.16.46-3.56-.21.81-2.29Zm-.15.87.17.55-2.9,2-.8-2.5Zm.56.77.3.11-.23,3.39-3-1.08Zm.75.15.4-.14,2.93,2.45-3.23,1.14Zm.8-.35.14-.49,3.51.08-.68,2.49Zm.2-.91-.16-.5,3-2.08.77,2.38Z"/><rect class="cls-10" x="178.09" y="133.8" width="2.43" height="1.73"/><rect class="cls-10" x="179.96" y="131.84" width="5.82" height="5.16"/><polygon class="cls-10" points="178.29 138.72 176.57 140.14 174.34 140.14 172.21 138.62 172.21 129.21 174.04 127.88 176.47 127.88 178.29 129.21 178.29 138.72"/><rect class="cls-10" x="174.95" y="125.87" width="0.67" height="12.75"/><rect class="cls-10" x="174.07" y="122.92" width="2.36" height="2.36" transform="translate(139.09 -87.57) rotate(45)"/><rect class="cls-10" x="146.24" y="123.17" width="4.37" height="4.37" transform="translate(132.11 -68.24) rotate(45)"/><rect class="cls-10" x="130.97" y="136.93" width="8.05" height="4.67"/><rect class="cls-10" x="144.59" y="128.61" width="5.95" height="3.3"/><polygon class="cls-10" points="153.79 131.9 150.5 131.9 150.5 128.57 153.79 131.9"/><rect class="cls-10" x="144.38" y="132.66" width="2.76" height="2.85"/><polygon class="cls-10" points="149.86 135.5 147.12 135.5 147.12 132.66 149.86 135.5"/><polygon class="cls-10" points="143.42 144 127.17 144 130.9 141.47 138.97 141.47 143.42 144"/><rect class="cls-10" x="127.21" y="126.21" width="15.12" height="10.76"/><rect class="cls-10" x="144.54" y="128.46" width="0.51" height="3.58"/><rect class="cls-10" x="147.17" y="128.41" width="2.53" height="3.58"/><rect class="cls-10" x="144.52" y="132.48" width="0.51" height="3.13"/><rect class="cls-10" x="158.74" y="151.96" width="1.54" height="1.52" transform="translate(312.23 -6.79) rotate(90)"/><rect class="cls-10" x="157.83" y="149.38" width="1.37" height="1.52" transform="translate(178.85 -67.24) rotate(51.9)"/><rect class="cls-10" x="157.96" y="154.74" width="1.37" height="1.52" transform="translate(369.69 86.14) rotate(117.38)"/><rect class="cls-10" x="150.32" y="134.34" width="3.57" height="3.04"/><rect class="cls-10" x="164.13" y="148.74" width="6.73" height="1.91"/><rect class="cls-10" x="181.32" y="149.45" width="11.34" height="2.63"/><rect class="cls-10" x="181.32" y="149.45" width="3.04" height="18.22"/><polygon class="cls-10" points="182.24 176.11 178.58 172.46 182.9 168.13 187.23 172.46 183.6 176.08 183.6 178.2 189.35 172.46 182.9 166.02 176.46 172.46 182.24 178.23 182.24 176.11"/><ellipse class="cls-10" cx="182.92" cy="168.3" rx="1.44" ry="1.8"/><polygon class="cls-10" points="144.54 123.72 126.62 123.72 124.57 126.53 124.57 126.58 121.58 126.58 121.58 139.39 126.49 139.39 126.49 139.38 144.54 139.38 144.54 123.72"/><rect class="cls-3" x="95.01" y="123.9" width="0.6" height="8.77"/><rect class="cls-3" x="107.84" y="119.48" width="0.5" height="26.02" transform="translate(-24.4 240.57) rotate(-90)"/><rect class="cls-3" x="113.59" y="191.73" width="0.52" height="40.49" transform="translate(-98.13 325.83) rotate(-90)"/><rect class="cls-3" x="223.76" y="144.97" width="0.61" height="23.92" transform="translate(67.13 380.99) rotate(-90)"/><rect class="cls-3" x="224.85" y="203.96" width="0.66" height="17.39" transform="translate(12.52 437.83) rotate(-90)"/><rect class="cls-3" x="235.51" y="142.11" width="0.56" height="15.15" transform="translate(471.58 299.38) rotate(180)"/><rect class="cls-3" x="233.26" y="192.69" width="0.75" height="20.32" transform="translate(467.27 405.71) rotate(180)"/><rect class="cls-3" x="93.31" y="185.07" width="0.4" height="41.42" transform="translate(187.02 411.57) rotate(180)"/><rect class="cls-3" x="99.81" y="211.99" width="0.46" height="14.62" transform="translate(200.07 438.61) rotate(180)"/><rect class="cls-3" x="101.31" y="177.03" width="0.32" height="16.34" transform="translate(-83.73 286.67) rotate(-90)"/><path class="cls-3" d="M79.09,120.69a1.36,1.36,0,0,0,1,.43c.45,0,.63-.22.63-.43s-.33-.37-.72-.47-1.12-.28-1.12-.94.46-.92,1.15-.92a1.64,1.64,0,0,1,1.18.44l-.32.41a1.28,1.28,0,0,0-.91-.36c-.33,0-.53.16-.53.39s.32.33.69.42,1.14.29,1.14,1c0,.52-.37,1-1.22,1a1.68,1.68,0,0,1-1.28-.5Z"/><path class="cls-3" d="M81.8,121v-1.32h-.38v-.43h.38v-.62h.5v.62h.46v.43h-.46v1.19c0,.16.08.27.22.27a.32.32,0,0,0,.22-.08l.12.37a.65.65,0,0,1-.47.15A.53.53,0,0,1,81.8,121Z"/><path class="cls-3" d="M83.2,119.28h.5v.33a1,1,0,0,1,.74-.39v.49h-.16a.78.78,0,0,0-.58.3v1.55h-.5Z"/><path class="cls-3" d="M86.23,121.31a1,1,0,0,1-.74.3.76.76,0,0,1-.79-.75.73.73,0,0,1,.79-.74.94.94,0,0,1,.74.29v-.34c0-.26-.22-.42-.53-.42a.93.93,0,0,0-.67.29l-.2-.34a1.35,1.35,0,0,1,1-.37c.5,0,.95.21.95.83v1.51h-.5Zm0-.62a.67.67,0,0,0-.54-.24.41.41,0,1,0,0,.82.67.67,0,0,0,.54-.24Z"/><path class="cls-3" d="M87.46,121v-1.32h-.38v-.43h.38v-.62H88v.62h.46v.43H88v1.19c0,.16.08.27.22.27a.32.32,0,0,0,.22-.08l.12.37a.65.65,0,0,1-.47.15A.53.53,0,0,1,87.46,121Z"/><path class="cls-3" d="M89.88,119.22A1.13,1.13,0,0,1,91,120.46v.12H89.24a.69.69,0,0,0,.73.63,1,1,0,0,0,.65-.25l.23.33a1.33,1.33,0,0,1-.92.33,1.2,1.2,0,0,1,0-2.39Zm-.64,1h1.28a.61.61,0,0,0-.64-.6A.63.63,0,0,0,89.24,120.23Z"/><path class="cls-3" d="M91.69,121.78a.88.88,0,0,0,.72.29.6.6,0,0,0,.67-.62v-.27a.93.93,0,0,1-.73.38c-.58,0-1-.42-1-1.17a1,1,0,0,1,1-1.17.91.91,0,0,1,.73.37v-.32h.5v2.16c0,.82-.61,1-1.17,1a1.29,1.29,0,0,1-1-.34Zm1.4-1.82a.74.74,0,0,0-.58-.31.74.74,0,0,0,0,1.46.74.74,0,0,0,.58-.31Z"/><path class="cls-3" d="M94.16,118.59a.31.31,0,0,1,.31-.31.31.31,0,0,1,0,.61A.31.31,0,0,1,94.16,118.59Zm.06.68h.5v2.28h-.5Z"/><path class="cls-3" d="M96.4,119.22a1,1,0,0,1,.87.41l-.33.3a.61.61,0,0,0-.52-.27.76.76,0,0,0,0,1.51.62.62,0,0,0,.52-.27l.33.3a1,1,0,0,1-.87.41,1.2,1.2,0,0,1,0-2.39Z"/><path class="cls-3" d="M99.67,118.9h-1v-.49h2.46v.49h-1v2.66h-.55Z"/><path class="cls-3" d="M103.17,120.12c0-.35-.18-.46-.46-.46a.77.77,0,0,0-.58.31v1.59h-.5v-3.14h.5v1.18a1.09,1.09,0,0,1,.81-.37.65.65,0,0,1,.74.72v1.61h-.5Z"/><path class="cls-3" d="M104.24,118.59a.31.31,0,0,1,.31-.31.31.31,0,0,1,0,.61A.31.31,0,0,1,104.24,118.59Zm.06.68h.5v2.28h-.5Z"/><path class="cls-3" d="M107,120.13c0-.35-.18-.47-.46-.47a.75.75,0,0,0-.58.31v1.59h-.5v-2.28h.5v.31a1.08,1.08,0,0,1,.8-.37.66.66,0,0,1,.74.73v1.6H107Z"/><path class="cls-3" d="M108.92,120.62l-.32.33v.61h-.5v-3.14h.5v2l1-1.1h.61l-.95,1,1,1.25h-.62Z"/><path class="cls-3" d="M110.53,118.59a.31.31,0,0,1,.31-.31.31.31,0,0,1,0,.61A.31.31,0,0,1,110.53,118.59Zm.06.68h.5v2.28h-.5Z"/><path class="cls-3" d="M113.26,120.13c0-.35-.18-.47-.46-.47a.75.75,0,0,0-.58.31v1.59h-.5v-2.28h.5v.31a1.08,1.08,0,0,1,.8-.37.66.66,0,0,1,.74.73v1.6h-.49Z"/><path class="cls-3" d="M114.6,121.78a.88.88,0,0,0,.72.29.6.6,0,0,0,.67-.62v-.27a.93.93,0,0,1-.73.38c-.58,0-1-.42-1-1.17a1,1,0,0,1,1-1.17.91.91,0,0,1,.73.37v-.32h.5v2.16c0,.82-.61,1-1.17,1a1.29,1.29,0,0,1-1-.34ZM116,120a.74.74,0,0,0-.58-.31.74.74,0,0,0,0,1.46.74.74,0,0,0,.58-.31Z"/><path class="cls-3" d="M226,137.08h2.16v.49h-1.6v.82h1.57v.49h-1.57v.87h1.6v.49H226Z"/><path class="cls-3" d="M229.54,139.38l-.59.84h-.55l.83-1.17-.79-1.11H229l.54.77.54-.77h.56l-.79,1.11.84,1.17h-.56Z"/><path class="cls-3" d="M231.92,137.89a1.13,1.13,0,0,1,1.12,1.24v.12h-1.76a.69.69,0,0,0,.73.63,1,1,0,0,0,.65-.25l.23.33a1.33,1.33,0,0,1-.92.33,1.2,1.2,0,0,1,0-2.39Zm-.64,1h1.28a.61.61,0,0,0-.64-.6A.63.63,0,0,0,231.28,138.9Z"/><path class="cls-3" d="M234.57,137.89a1,1,0,0,1,.87.41l-.33.3a.61.61,0,0,0-.52-.27.76.76,0,0,0,0,1.51.62.62,0,0,0,.52-.27l.33.3a1,1,0,0,1-.87.41,1.2,1.2,0,0,1,0-2.39Z"/><path class="cls-3" d="M237.41,139.92a1.09,1.09,0,0,1-.81.36.65.65,0,0,1-.73-.72v-1.61h.5v1.43c0,.35.18.46.46.46a.76.76,0,0,0,.58-.3v-1.6h.5v2.28h-.5Z"/><path class="cls-3" d="M238.65,139.69v-1.32h-.38v-.43h.38v-.62h.5v.62h.46v.43h-.46v1.19c0,.16.08.27.22.27a.32.32,0,0,0,.22-.08l.12.37a.65.65,0,0,1-.47.15A.53.53,0,0,1,238.65,139.69Z"/><path class="cls-3" d="M240,137.26a.31.31,0,0,1,.31-.31.31.31,0,0,1,0,.61A.31.31,0,0,1,240,137.26Zm.06.68h.5v2.28h-.5Z"/><path class="cls-3" d="M242.72,138.8c0-.35-.18-.47-.46-.47a.75.75,0,0,0-.58.31v1.59h-.5v-2.28h.5v.31a1.08,1.08,0,0,1,.8-.37.66.66,0,0,1,.74.73v1.6h-.5Z"/><path class="cls-3" d="M244.06,140.45a.88.88,0,0,0,.72.29.6.6,0,0,0,.67-.62v-.27a.92.92,0,0,1-.73.38c-.58,0-1-.42-1-1.17a1,1,0,0,1,1-1.17.91.91,0,0,1,.73.37v-.32h.5v2.16c0,.82-.61,1-1.17,1a1.29,1.29,0,0,1-1-.34Zm1.4-1.82a.74.74,0,0,0-.58-.31.74.74,0,0,0,0,1.46.74.74,0,0,0,.58-.31Z"/><path class="cls-3" d="M87,228.74h.55v3.14H87Z"/><path class="cls-3" d="M89.73,230.46c0-.35-.18-.47-.46-.47a.75.75,0,0,0-.58.31v1.59h-.5v-2.28h.5v.31a1.08,1.08,0,0,1,.8-.37.66.66,0,0,1,.74.73v1.6h-.49Z"/><path class="cls-3" d="M91,230H90.6v-.43H91v-.13a.7.7,0,0,1,.72-.79.82.82,0,0,1,.4.09l-.11.37a.34.34,0,0,0-.2-.05c-.19,0-.32.13-.32.38v.13h.46V230h-.46v1.84H91Zm1.33-1.3h.5v3.14h-.5Z"/><path class="cls-3" d="M95,231.59a1.09,1.09,0,0,1-.81.36.65.65,0,0,1-.73-.72v-1.61h.5V231c0,.35.18.46.46.46a.76.76,0,0,0,.58-.3v-1.6h.49v2.28H95Z"/><path class="cls-3" d="M97.14,229.55a1.13,1.13,0,0,1,1.12,1.24v.12H96.5a.69.69,0,0,0,.73.63,1,1,0,0,0,.65-.25l.23.33a1.33,1.33,0,0,1-.92.33,1.2,1.2,0,0,1,0-2.39Zm-.64,1h1.28a.61.61,0,0,0-.64-.6A.63.63,0,0,0,96.49,230.56Z"/><path class="cls-3" d="M100.28,230.46c0-.35-.18-.47-.46-.47a.75.75,0,0,0-.58.31v1.59h-.5v-2.28h.5v.31a1.08,1.08,0,0,1,.8-.37.66.66,0,0,1,.74.73v1.6h-.49Z"/><path class="cls-3" d="M102.45,229.55a1,1,0,0,1,.87.41l-.33.3a.61.61,0,0,0-.52-.27.76.76,0,0,0,0,1.51.62.62,0,0,0,.52-.27l.33.3a1,1,0,0,1-.87.41,1.2,1.2,0,0,1,0-2.39Z"/><path class="cls-3" d="M103.7,228.93a.31.31,0,0,1,.31-.31.31.31,0,0,1,0,.61A.31.31,0,0,1,103.7,228.93Zm.06.68h.5v2.28h-.5Z"/><path class="cls-3" d="M106.43,230.46c0-.35-.18-.47-.46-.47a.75.75,0,0,0-.58.31v1.59h-.5v-2.28h.5v.31a1.08,1.08,0,0,1,.8-.37.66.66,0,0,1,.74.73v1.6h-.49Z"/><path class="cls-3" d="M107.77,232.12a.88.88,0,0,0,.72.29.6.6,0,0,0,.67-.62v-.27a.93.93,0,0,1-.73.38c-.58,0-1-.42-1-1.17a1,1,0,0,1,1-1.17.91.91,0,0,1,.73.37v-.32h.5v2.16c0,.82-.61,1-1.17,1a1.29,1.29,0,0,1-1-.34Zm1.4-1.82a.74.74,0,0,0-.58-.31.74.74,0,0,0,0,1.46.74.74,0,0,0,.58-.31Z"/><path class="cls-3" d="M222.15,184h-.55v1.17H221v-3.14h1.38a1,1,0,0,1,1,1,.88.88,0,0,1-.75.92l.77,1.24h-.64Zm.21-1.49h-.75v1h.75a.5.5,0,1,0,0-1Z"/><path class="cls-3" d="M224.86,182.89a1.13,1.13,0,0,1,1.12,1.24v.12h-1.76a.69.69,0,0,0,.73.63,1,1,0,0,0,.65-.25l.23.33a1.33,1.33,0,0,1-.92.33,1.2,1.2,0,0,1,0-2.39Zm-.64,1h1.28a.61.61,0,0,0-.64-.6A.63.63,0,0,0,224.22,183.9Z"/><path class="cls-3" d="M226.47,182.08h.5v3.14h-.5Z"/><path class="cls-3" d="M229,185a1,1,0,0,1-.74.3.76.76,0,0,1-.79-.75.73.73,0,0,1,.79-.74.94.94,0,0,1,.74.29v-.34c0-.26-.22-.42-.53-.42a.93.93,0,0,0-.67.29l-.2-.34a1.35,1.35,0,0,1,1-.37c.5,0,.95.21.95.83v1.51H229Zm0-.62a.67.67,0,0,0-.54-.24.41.41,0,1,0,0,.82.67.67,0,0,0,.54-.24Z"/><path class="cls-3" d="M230.23,184.69v-1.32h-.38v-.43h.38v-.62h.5v.62h.46v.43h-.46v1.19c0,.16.08.27.22.27a.32.32,0,0,0,.22-.08l.12.37a.65.65,0,0,1-.47.15A.53.53,0,0,1,230.23,184.69Z"/><path class="cls-3" d="M231.58,182.26a.31.31,0,0,1,.31-.31.31.31,0,1,1,0,.61A.31.31,0,0,1,231.58,182.26Zm.06.68h.5v2.28h-.5Z"/><path class="cls-3" d="M232.63,184.08a1.17,1.17,0,1,1,1.17,1.2A1.14,1.14,0,0,1,232.63,184.08Zm1.83,0a.66.66,0,1,0-.66.76A.68.68,0,0,0,234.46,184.08Z"/><path class="cls-3" d="M237,183.8c0-.35-.18-.47-.46-.47a.75.75,0,0,0-.58.31v1.59h-.5v-2.28h.5v.31a1.08,1.08,0,0,1,.8-.37.66.66,0,0,1,.74.73v1.6H237Z"/><path class="cls-3" d="M238.17,184.57a1.17,1.17,0,0,0,.77.32c.3,0,.45-.11.45-.28s-.24-.27-.52-.33-.86-.19-.86-.7.32-.69.9-.69a1.3,1.3,0,0,1,.89.32l-.21.35a.92.92,0,0,0-.67-.27c-.26,0-.42.09-.42.25s.23.24.5.3.88.2.88.74-.33.71-.95.71a1.39,1.39,0,0,1-1-.35Z"/><path class="cls-3" d="M241.91,183.79c0-.35-.18-.46-.46-.46a.76.76,0,0,0-.58.31v1.59h-.5v-3.14h.5v1.18a1.08,1.08,0,0,1,.81-.37.65.65,0,0,1,.74.72v1.61h-.5Z"/><path class="cls-3" d="M243,182.26a.31.31,0,0,1,.31-.31.31.31,0,0,1,0,.61A.31.31,0,0,1,243,182.26Zm.06.68h.5v2.28H243Z"/><path class="cls-3" d="M244.18,186.09v-3.14h.5v.31a.91.91,0,0,1,.73-.37c.59,0,1,.44,1,1.19s-.42,1.2-1,1.2a.89.89,0,0,1-.73-.37v1.18Zm1.08-2.76a.74.74,0,0,0-.58.31v.9a.75.75,0,0,0,.58.31.77.77,0,0,0,0-1.51Z"/><path class="cls-3" d="M225.35,187.73h1.55a.81.81,0,0,1,.9.8.71.71,0,0,1-.55.72.77.77,0,0,1,.61.77.83.83,0,0,1-.92.85h-1.59Zm1.43,1.3a.41.41,0,1,0,0-.82h-.88V189Zm0,1.36a.42.42,0,0,0,.48-.44.43.43,0,0,0-.48-.43h-.91v.87Z"/><path class="cls-3" d="M229.93,190.57a1.09,1.09,0,0,1-.81.36.65.65,0,0,1-.73-.72V188.6h.5V190c0,.35.18.46.46.46a.76.76,0,0,0,.58-.3v-1.6h.49v2.28h-.49Z"/><path class="cls-3" d="M231,187.92a.31.31,0,0,1,.31-.31.31.31,0,1,1,0,.61A.31.31,0,0,1,231,187.92Zm.06.68h.5v2.28h-.5Z"/><path class="cls-3" d="M232.2,187.73h.5v3.14h-.5Z"/><path class="cls-3" d="M234.93,190.56a.92.92,0,0,1-.73.37c-.58,0-1-.44-1-1.19a1.06,1.06,0,0,1,1-1.2.91.91,0,0,1,.73.37v-1.18h.5v3.14h-.5Zm0-1.28a.75.75,0,0,0-.59-.31.77.77,0,0,0,0,1.51.74.74,0,0,0,.59-.3Z"/><path class="cls-3" d="M236,187.92a.31.31,0,0,1,.31-.31.31.31,0,0,1,0,.61A.31.31,0,0,1,236,187.92Zm.06.68h.5v2.28h-.5Z"/><path class="cls-3" d="M238.74,189.45c0-.35-.18-.47-.46-.47a.75.75,0,0,0-.58.31v1.59h-.5V188.6h.5v.31a1.08,1.08,0,0,1,.8-.37.66.66,0,0,1,.74.73v1.6h-.5Z"/><path class="cls-3" d="M240.08,191.1a.88.88,0,0,0,.72.29.6.6,0,0,0,.67-.62v-.27a.92.92,0,0,1-.73.38c-.58,0-1-.42-1-1.17a1,1,0,0,1,1-1.17.91.91,0,0,1,.73.37v-.32h.5v2.16c0,.82-.61,1-1.17,1a1.29,1.29,0,0,1-1-.34Zm1.4-1.82a.74.74,0,0,0-.58-.31.74.74,0,0,0,0,1.46.74.74,0,0,0,.58-.31Z"/><polygon class="cls-14" points="51.72 191.87 29.62 191.87 39.82 170.61 51.72 191.87"/><rect class="cls-14" x="30.91" y="137.82" width="20.41" height="20.41"/><circle class="cls-14" cx="41.11" cy="218" r="10.19"/></g></g></g></svg>