<svg xmlns="http://www.w3.org/2000/svg" viewBox="0 0 383.34 235.81"><defs><style>.cls-1{fill:#009447;}.cls-2{fill:#3bb54a;}.cls-3{fill:#e6e7e8;}.cls-4{fill:#fff;}.cls-16,.cls-5{fill:#be1e2d;}.cls-6{fill:#231f20;}.cls-7{fill:#f9ed32;}.cls-13,.cls-8{fill:#8dc63f;}.cls-9{fill:#d7df23;}.cls-10{fill:#fbb040;}.cls-11{fill:#f15a29;}.cls-12{fill:#e78c24;}.cls-13,.cls-16{font-size:9.22px;font-family:ProximaNova-Semibold, Proxima Nova;font-weight:700;}.cls-14{letter-spacing:-0.03em;}.cls-15{letter-spacing:-0.02em;}</style></defs><title>deliberative</title><g id="Layer_2" data-name="Layer 2"><g id="Layer_7" data-name="Layer 7"><polygon class="cls-1" points="378.38 79.8 305.42 28.09 221.85 4.01 221.29 4 162.07 4 161.51 4.01 77.93 28.09 4.98 79.8 72.05 231.79 313.17 229.95 378.38 79.8"/><polygon class="cls-2" points="251.05 12.49 221.85 4.01 221.29 4 162.07 4 161.51 4.01 77.93 28.09 4.98 79.8 72.05 231.79 143.65 231.18 251.05 12.49"/><polygon class="cls-3" points="349.07 85.78 287.57 42.19 217.11 21.89 216.64 21.88 166.72 21.88 166.25 21.89 95.79 42.19 34.28 85.78 90.82 213.91 294.1 212.36 349.07 85.78"/><polygon class="cls-4" points="242.79 29.22 217.11 21.89 216.64 21.88 166.72 21.88 166.25 21.89 95.79 42.19 34.28 85.78 90.82 213.91 152.83 213.43 242.79 29.22"/><polygon class="cls-5" points="208.86 175.18 212.19 192.97 192.76 189.48 108.9 85.59 208.86 175.18"/><rect class="cls-6" x="180.37" y="160.85" width="24.87" height="24.87" transform="translate(-66.06 187.09) rotate(-45)"/><polygon class="cls-7" points="187.1 34.73 170.06 34.73 169.65 34.74 142.58 42.54 147.21 61.05 168.43 54.93 168.84 54.92 187.1 54.92 187.1 34.73"/><polygon class="cls-8" points="90.04 65.49 55.35 90.08 61.85 104.8 97.46 79.56 90.04 65.49"/><polygon class="cls-9" points="103.5 75.28 107.4 72.52 140.15 63.08 135.51 44.57 108.62 52.32 96.08 61.21 103.5 75.28"/><polygon class="cls-10" points="239.53 42.48 213.71 34.74 213.3 34.73 194.44 34.73 194.44 54.92 212.07 54.92 212.48 54.93 234.48 61.27 239.53 42.48"/><polygon class="cls-11" points="286.1 60.38 274.74 52.32 246.34 44.14 241.54 63.31 273.51 72.52 278.01 75.71 286.1 60.38"/><polygon class="cls-5" points="292.14 64.66 284.06 79.99 321.01 106.18 328.01 90.08 292.14 64.66"/><polygon class="cls-12" points="234.48 61.27 239.53 42.48 236.7 41.63 228.19 59.46 234.48 61.27"/><text class="cls-13" transform="matrix(0.82, -0.57, 0.57, 0.82, 68.7, 114.83)"><tspan class="cls-14">L</tspan><tspan class="cls-15" x="4.49" y="0">O</tspan><tspan x="11.35" y="0">W RISK</tspan></text><text class="cls-16" transform="translate(277.08 90.29) rotate(35.97)">HIGH RISK!</text><path class="cls-4" d="M221.29,4h.56l83.58,24.08,73,51.7L313.17,230,72,231.79,5,79.8l73-51.7L161.51,4h59.78m0-4H160.9l-.5.14L76.82,24.25l-.65.19-.55.39-73,51.7L0,78.43l1.32,3,67.07,152,1.06,2.41,2.63,0L313.2,234l2.6,0,1-2.39L382,81.39l1.29-3-2.65-1.88-73-51.7-.55-.39-.65-.19L223,.17l-.5-.14h-1.12Z"/></g></g></svg>