<svg xmlns="http://www.w3.org/2000/svg" viewBox="0 0 469.93 240.24"><defs><style>.cls-1{fill:#ffc729;}.cls-2{fill:#fff;}.cls-3{fill:#fae51e;}.cls-4{fill:#d98c28;}.cls-5{fill:none;stroke:#fff;stroke-width:1.97px;stroke-dasharray:5.92;}</style></defs><title>developer</title><g id="Layer_2" data-name="Layer 2"><g id="Layer_7" data-name="Layer 7"><rect class="cls-1" x="145.15" y="90.52" width="102.19" height="100.53"/><path class="cls-2" d="M245.18,92.68v96.21H147.32V92.68h97.86m4.32-4.32H143V193.21H249.5V88.36Z"/><polygon class="cls-3" points="245.18 92.68 147.32 92.68 147.32 188.89 147.51 188.89 245.18 107.15 245.18 92.68"/><polygon class="cls-4" points="224.45 135.47 209.25 119.19 196.14 131.42 183.55 118.84 167.8 134.59 195.63 162.42 224.45 135.47"/><rect class="cls-1" x="332.64" y="2.16" width="135.13" height="132.91"/><path class="cls-2" d="M465.6,4.32V132.91H334.8V4.32H465.6M469.93,0H330.48V137.23H469.93V0Z"/><polygon class="cls-3" points="465.6 4.32 334.8 4.32 334.8 132.91 335.07 132.91 465.6 23.66 465.6 4.32"/><polygon class="cls-4" points="437.9 61.52 417.59 39.74 400.05 56.1 383.24 39.28 362.18 60.34 399.38 97.53 437.9 61.52"/><rect class="cls-1" x="2.16" y="171.05" width="68.1" height="67.02"/><path class="cls-2" d="M68.1,173.22v62.7H4.32v-62.7H68.1m4.32-4.32H0v71.34H72.43V168.89Z"/><polygon class="cls-3" points="68.1 173.22 4.32 173.22 4.32 235.91 4.45 235.91 68.1 182.64 68.1 173.22"/><polygon class="cls-4" points="54.59 202.19 44.69 191.57 36.14 199.54 27.94 191.34 17.68 201.61 35.81 219.74 54.59 202.19"/><rect class="cls-2" x="112.85" y="159.95" width="17.95" height="2.38" transform="translate(53.09 -28.81) rotate(17.2)"/><rect class="cls-2" x="117.57" y="169.7" width="17.95" height="2.38" transform="translate(-77.25 231.58) rotate(-70.07)"/><line class="cls-5" x1="127.95" y1="164.41" x2="80.37" y2="187.37"/><rect class="cls-2" x="298.78" y="97.98" width="17.95" height="2.38" transform="translate(43.07 -86.55) rotate(17.2)"/><rect class="cls-2" x="303.5" y="107.72" width="17.95" height="2.38" transform="translate(103.55 365.53) rotate(-70.07)"/><line class="cls-5" x1="313.88" y1="102.43" x2="266.3" y2="125.39"/></g></g></svg>