<svg xmlns="http://www.w3.org/2000/svg" viewBox="0 0 190.1 352.21"><defs><style>.cls-1{fill:#fff;}.cls-2{fill:#8dc63f;}.cls-3{fill:#d7df23;}.cls-4{fill:#01552b;}.cls-5{fill:#36a54b;}.cls-6{fill:#078845;}.cls-7{fill:#009447;}.cls-8{fill:#3bb54a;}.cls-9{fill:#006838;}</style></defs><title>discipline</title><g id="Layer_2" data-name="Layer 2"><g id="Layer_7" data-name="Layer 7"><path class="cls-1" d="M186.26,3.84V91.09l-23.79,43.62H133.74v27.76H118.55v45.1l-16.18,37.67H89.11L72,207.56v-45.1H54.38V134.71H29L3.84,91.09V3.84H186.26M190.1,0H0V92.11L.51,93l25.11,43.62,1.11,1.93h23.8v27.76H68.12v42.09l.35.76,17.15,37.67,1,2.25h18.27l1-2.33,16.18-37.67.31-.73v-42h15.19V138.55h27.16l1.09-2,23.79-43.62.47-.86V0Z"/><path class="cls-1" d="M149,230v6.86h-5.39L115,265v.32h2.26v4.53H115v6.34l.63-.2,1.36,4.32-2,.62v11.75l.63-.2,1.36,4.32-2,.62V308l1-.3L117.3,312l-2.31.72v8.87h-.22l-19.19,24.3-16.31-22-1.79.56-1.36-4.32,1.2-.38V309.25l-.16.05h0L75.8,305l1.52-.48V292.75l-.16.05h0l-1.36-4.32h0l1.52-.48V269.82h-1.8v-4.53h1.8v-.22h-.61L48.23,236H43v-6H75.72l8.88,19.72h21.89L115.16,230H149M39.16,226.12V239.8h7.46l25.06,25.63v8.24h1.8v11.51L71,286l1.15,3.67,1.34,4.28v7.78l-2.49.78,1.15,3.67,1.34,4.28V317l-2.17.68,1.15,3.67,1.36,4.32L75,329.32l2.85-.9,14.68,19.76,3,4,3.11-3.94,18-22.84h2.2v-9.89l3.28-1L121,310.85l-1.36-4.32-.77-2.46v-3.82l3-.93-1.15-3.67-1.36-4.32-.45-1.43v-6.15l3-.93-1.15-3.67-1.36-4.32-.36-1.15h2.18v-9.32l24-23.69h7.66V226.12H112.65l-1,2.3L104,245.85H87.09L79.23,228.4l-1-2.26H39.16Z"/><polygon class="cls-2" points="71.96 135.22 71.96 207.56 89.11 245.23 102.38 245.23 118.55 207.56 118.55 135.22 71.96 135.22"/><polygon class="cls-3" points="78.43 137.16 78.36 209.1 93.95 245.23 99.59 245.23 83.61 208.2 83.61 137.16 78.43 137.16"/><rect class="cls-4" x="54.38" y="133.38" width="79.36" height="29.08"/><rect class="cls-5" x="3.84" y="3.84" width="182.41" height="87.24"/><polygon class="cls-6" points="162.46 134.71 28.96 134.71 3.84 91.08 186.26 91.08 162.46 134.71"/><polygon class="cls-7" points="115.16 229.98 106.49 249.7 84.61 249.7 75.72 229.98 43 229.96 43 235.96 48.23 235.96 76.71 265.08 77.32 265.08 77.32 321.59 77.53 321.59 95.58 345.89 114.77 321.59 114.99 321.59 114.99 264.97 143.57 236.82 148.97 236.82 148.97 229.96 115.16 229.98"/><polygon class="cls-8" points="96.12 266.37 96.34 266.37 94.18 249.7 84.61 249.7 75.72 229.98 43 229.96 43 235.96 48.23 235.96 76.71 265.08 77.32 265.08 77.32 321.59 77.53 321.59 95.58 345.89 96.12 345.21 96.12 266.37"/><rect class="cls-9" x="75.52" y="265.29" width="41.74" height="4.53"/><rect class="cls-9" x="75.52" y="282.12" width="41.74" height="4.53" transform="translate(-80.79 41.95) rotate(-17.44)"/><rect class="cls-9" x="75.52" y="298.62" width="41.74" height="4.53" transform="translate(-85.73 42.71) rotate(-17.44)"/><rect class="cls-9" x="75.84" y="313.83" width="41.74" height="4.53" transform="translate(-90.27 43.5) rotate(-17.44)"/><rect class="cls-7" x="75.52" y="265.29" width="20.57" height="4.53"/><polygon class="cls-7" points="96.09 282.1 75.8 288.48 77.16 292.8 96.09 286.85 96.09 282.1"/><polygon class="cls-7" points="96.09 298.61 75.8 304.98 77.16 309.3 96.09 303.35 96.09 298.61"/><polygon class="cls-7" points="96.09 313.91 76.12 320.18 77.48 324.51 96.09 318.66 96.09 313.91"/><polygon class="cls-9" points="91.45 133.38 54.38 133.38 54.38 162.46 79.01 162.46 91.45 133.38"/><polygon class="cls-8" points="146.89 3.84 3.84 3.84 3.84 91.08 109.55 91.08 146.89 3.84"/><polygon class="cls-7" points="109.55 91.08 3.84 91.08 28.96 134.71 90.89 134.71 109.55 91.08"/></g></g></svg>