<svg xmlns="http://www.w3.org/2000/svg" viewBox="0 0 168.85 310.25"><defs><style>.cls-1{fill:#ffc729;}.cls-2{fill:#fff;}.cls-3{fill:#d98c28;}.cls-4,.cls-7{fill:#be202e;}.cls-5{fill:#fae51e;}.cls-6{fill:#ef484a;}.cls-7{stroke:#fff;stroke-miterlimit:10;stroke-width:1.75px;}</style></defs><title>empathy</title><g id="Layer_2" data-name="Layer 2"><g id="Layer_7" data-name="Layer 7"><rect class="cls-1" x="1.75" y="1.75" width="110.46" height="306.74"/><path class="cls-2" d="M110.46,3.51V306.74H3.51V3.51h107M114,0H0V310.25H114V0Z"/><rect class="cls-3" x="47.26" y="21.74" width="18.84" height="233.96"/><rect class="cls-3" x="36.05" y="237.81" width="41.25" height="41.25" transform="translate(199.34 35.62) rotate(45)"/><rect class="cls-4" x="41.85" y="243.61" width="29.65" height="29.65" transform="translate(199.34 35.62) rotate(45)"/><rect class="cls-4" x="51.83" y="79.58" width="9.29" height="167.61"/><rect class="cls-5" x="3.51" y="3.51" width="5.47" height="303.24"/><rect class="cls-5" x="66.14" y="21.76" width="5.69" height="217.05"/><rect class="cls-6" x="51.92" y="79.67" width="2.43" height="165.29"/><rect class="cls-6" x="43.27" y="240.32" width="3.57" height="22.75" transform="translate(191.17 41.87) rotate(45)"/><rect class="cls-5" x="75.19" y="232.81" width="5.49" height="27.78" transform="translate(-151.61 127.36) rotate(-45)"/><polygon class="cls-7" points="166.42 18.09 155 5.85 145.15 15.04 135.69 5.59 123.86 17.43 144.77 38.34 166.42 18.09"/><rect class="cls-2" x="84.8" y="22.34" width="27.07" height="1.82"/><rect class="cls-2" x="98.47" y="39.36" width="13.4" height="1.82"/><rect class="cls-2" x="99.18" y="74.15" width="13.4" height="1.82"/><rect class="cls-2" x="99.12" y="108.48" width="13.4" height="1.82"/><rect class="cls-2" x="98.65" y="141.22" width="13.4" height="1.82"/><rect class="cls-2" x="98.41" y="176.85" width="13.4" height="1.82"/><rect class="cls-2" x="97.82" y="214.5" width="13.4" height="1.82"/><rect class="cls-2" x="84.8" y="56.98" width="27.07" height="1.82"/><rect class="cls-2" x="84.8" y="90.4" width="27.07" height="1.82"/><rect class="cls-2" x="84.33" y="124.43" width="27.07" height="1.82"/><rect class="cls-2" x="84.8" y="157.86" width="27.07" height="1.82"/><rect class="cls-2" x="85.28" y="235.03" width="27.07" height="1.82"/><rect class="cls-2" x="85.28" y="193.71" width="27.07" height="1.82"/><rect class="cls-2" x="156.27" y="9.7" width="3.12" height="10.15" transform="translate(35.78 115.93) rotate(-45)"/><polygon class="cls-2" points="146.97 236.96 152.24 237.54 147.57 246.28 151.37 246.35 147.67 254.64 168.85 234.83 157.44 222.59 149.76 230.78 146.97 236.96"/><polygon class="cls-2" points="148.48 238.95 141.76 238.3 146.12 230.25 138.12 222.33 126.29 234.17 146.12 254.14 148.44 248.41 143.16 248.22 148.48 238.95"/><rect class="cls-2" x="2.37" y="14.68" width="27.07" height="1.82" transform="translate(31.82 31.17) rotate(-180)"/><rect class="cls-2" x="2.37" y="31.69" width="13.4" height="1.82" transform="translate(18.15 65.2) rotate(-180)"/><rect class="cls-2" x="1.66" y="66.48" width="13.4" height="1.82" transform="translate(16.73 134.78) rotate(-180)"/><rect class="cls-2" x="1.72" y="100.82" width="13.4" height="1.82" transform="translate(16.85 203.45) rotate(-180)"/><rect class="cls-2" x="2.2" y="133.55" width="13.4" height="1.82" transform="translate(17.8 268.93) rotate(-180)"/><rect class="cls-2" x="2.43" y="169.18" width="13.4" height="1.82" transform="translate(18.27 340.18) rotate(-180)"/><rect class="cls-2" x="3.03" y="206.83" width="13.4" height="1.82" transform="translate(19.46 415.49) rotate(-180)"/><rect class="cls-2" x="2.37" y="49.31" width="27.07" height="1.82" transform="translate(31.82 100.45) rotate(-180)"/><rect class="cls-2" x="2.37" y="82.74" width="27.07" height="1.82" transform="translate(31.82 167.3) rotate(-180)"/><rect class="cls-2" x="2.85" y="116.77" width="27.07" height="1.82" transform="translate(32.77 235.36) rotate(-180)"/><rect class="cls-2" x="2.37" y="150.19" width="27.07" height="1.82" transform="translate(31.82 302.2) rotate(-180)"/><rect class="cls-2" x="1.9" y="227.37" width="27.07" height="1.82" transform="translate(30.87 456.56) rotate(-180)"/><rect class="cls-2" x="1.9" y="186.04" width="27.07" height="1.82" transform="translate(30.87 373.91) rotate(-180)"/></g></g></svg>