<svg xmlns="http://www.w3.org/2000/svg" viewBox="0 0 123.93 365"><defs><style>.cls-1{fill:#073020;}.cls-2{fill:#05442f;}.cls-3{fill:#016534;}.cls-4{fill:#3bb54a;}.cls-5{fill:#fff;}.cls-6{fill:#8dc63f;}.cls-7{fill:#04281a;}.cls-8{fill:#ed1c24;}.cls-9{fill:#f15a29;}</style></defs><title>focus</title><g id="Layer_2" data-name="Layer 2"><g id="Layer_7" data-name="Layer 7"><rect class="cls-1" x="12.71" y="4" width="99.06" height="189.96"/><rect class="cls-2" x="12.71" y="16.27" width="99.06" height="189.96"/><rect class="cls-3" x="58.39" y="16.27" width="53.39" height="178.58"/><rect class="cls-3" x="24.64" y="16.27" width="15.34" height="173.05"/><rect class="cls-3" x="44.27" y="16.27" width="4.91" height="171.83"/><rect class="cls-4" x="12.71" y="181.35" width="99.06" height="24.88"/><path class="cls-5" d="M111.78,4V184.22h0v3.88h0v18.13H12.71V4h99.06m4-4H8.71V210.23H115.78V192.1l0-4v-7.88h0V0Z"/><rect class="cls-6" x="24.64" y="181.25" width="15.34" height="24.75"/><rect class="cls-6" x="44.39" y="181.5" width="4.75" height="24.5"/><rect class="cls-6" x="58.39" y="181.5" width="53.25" height="24.5"/><rect class="cls-2" x="38.11" y="193.64" width="46.37" height="9.19"/><rect class="cls-7" x="38.18" y="196.43" width="46.33" height="6.7"/><polygon class="cls-8" points="14.46 358.16 52.34 356.69 34.69 326.11 56.58 352.83 56.58 199.18 66.33 199.18 66.33 354.06 89.24 326.11 71.58 356.69 109.06 358.15 67.91 363.55 55.4 363.74 14.46 358.16"/><path class="cls-9" d="M65.07,200.44V357.59l4.47-5.45,10.89-13.29-8.89,15.4-2.09,3.61,4.17.16,20.57.8-26.37,3.46-12.35.19-26.56-3.62,21.4-.83,4.17-.16-2.09-3.61-8.89-15.4,9.87,12,4.47,5.45V200.44h7.24m2.52-2.52H55.32V349.3L25.88,313.38l24.33,42.14L0,357.46,55.32,365,68,364.81l55.92-7.34-50.21-2L98,313.38,67.59,350.54V197.92Z"/></g></g></svg>