<svg xmlns="http://www.w3.org/2000/svg" viewBox="0 0 258.95 308.98"><defs><style>.cls-1{fill:#fff;}.cls-2{fill:#0b6ab3;}.cls-3{fill:#2c86c7;}.cls-4{fill:#e6e7e8;}.cls-5{fill:#be1e2d;}.cls-6{fill:#808285;}.cls-7{fill:#6d6e71;}.cls-8{fill:#d1d3d4;}.cls-9{fill:#bcbec0;}.cls-10{fill:#58595b;}</style></defs><title>futuristic</title><g id="Layer_2" data-name="Layer 2"><g id="Layer_7" data-name="Layer 7"><path class="cls-1" d="M164,3.86V28.44H142.37V53.32l11.28,4.08,75.57,27.31h0l2,6.46,1.87,6.09h0l21.88,71.17-25.73,99.22L129.5,304.86,33,267.65,4,171.53,33,84.71h0l79.1-31.55V28.44H89.67V3.86H164M167.86,0h-82V32.3h22.43V50.55L31.57,81.13l-1.66.66-.57,1.7-29,86.82L0,171.47l.35,1.17,29,96.12.54,1.81,1.76.68,96.5,37.21,1.36.53,1.37-.51,99.72-37.21,1.88-.7.5-1.94,25.73-99.22.27-1.06-.32-1L236.76,96.13,234.88,90l-2-6.46-.57-1.84-1.81-.65L155,53.77l-8.73-3.16V32.3h21.63V0Z"/><rect class="cls-2" x="112.09" y="24.22" width="30.28" height="39.39"/><polygon class="cls-2" points="229.21 267.65 129.5 304.86 32.99 267.65 4.04 171.53 32.99 84.71 126.28 47.5 229.21 84.71 254.95 168.43 229.21 267.65"/><polygon class="cls-3" points="229.21 84.71 126.28 47.5 32.99 84.71 4.04 171.53 32.99 267.65 34.32 268.16 233.07 97.26 229.21 84.71"/><polygon class="cls-4" points="199.58 238.63 128.22 264.3 59.16 238.63 38.44 172.31 59.16 112.41 125.92 86.74 199.58 112.41 218 170.17 199.58 238.63"/><polygon class="cls-1" points="199.58 112.43 125.91 86.73 59.18 112.37 38.42 172.33 59.18 238.8 65.74 241.03 203.01 123.13 199.58 112.43"/><polygon class="cls-5" points="138.61 184.28 135.43 193.96 125.96 187.96 109.88 117.42 138.61 184.28"/><polygon class="cls-6" points="127.17 110.2 124.65 110.2 124.65 87.23 125.91 86.73 127.2 87.17 127.17 110.2"/><polygon class="cls-6" points="183.08 127.68 181.4 125.93 198.28 111.96 199.61 112.4 199.99 113.63 183.08 127.68"/><polygon class="cls-7" points="191.76 169.02 191.76 171.37 217.71 171.4 218.03 170.22 217.65 169.02 191.76 169.02"/><polygon class="cls-7" points="180.17 225.51 181.75 223.68 199.96 237.25 199.61 238.65 198.35 239.06 180.17 225.51"/><polygon class="cls-7" points="127.11 241.91 129.63 241.91 129.63 263.88 128.37 264.38 127.11 263.88 127.11 241.91"/><polygon class="cls-6" points="77.19 128.91 78.87 127.16 60.47 111.84 59.15 112.37 58.7 113.57 77.19 128.91"/><polygon class="cls-6" points="63.34 171.19 63.34 173.53 38.74 173.53 38.39 172.33 38.8 171.19 63.34 171.19"/><polygon class="cls-6" points="80.37 224.34 78.79 222.52 58.73 237.42 59.18 238.8 60.41 239.24 80.37 224.34"/><polygon class="cls-8" points="86.3 116.45 84.12 117.68 75.13 106.28 77.53 105.34 86.3 116.45"/><polygon class="cls-8" points="112.16 106.76 109.79 107.57 105.31 94.64 107.68 93.76 112.16 106.76"/><polygon class="cls-8" points="99.51 111.65 97.25 112.7 90.62 100.32 92.95 99.42 99.51 111.65"/><polygon class="cls-8" points="58.19 158.93 57.8 161.27 42.63 160.29 43.4 157.99 58.19 158.93"/><polygon class="cls-8" points="66.98 134.36 66.11 136.55 52.6 131.39 53.4 129.14 66.98 134.36"/><polygon class="cls-8" points="62.79 146.42 62.19 148.69 47.73 145.42 48.5 143.18 62.79 146.42"/><polygon class="cls-8" points="65.48 210.61 66.59 212.75 53.26 219.87 52.52 217.55 65.48 210.61"/><polygon class="cls-8" points="57.85 185.69 58.45 187.97 44.14 190.69 43.46 188.41 57.85 185.69"/><polygon class="cls-8" points="61.67 197.87 62.54 200.07 48.58 204.85 47.87 202.6 61.67 197.87"/><polygon class="cls-8" points="171.73 116.84 173.91 118.07 182.96 106.6 180.5 105.73 171.73 116.84"/><polygon class="cls-8" points="141.58 106.69 143.95 107.49 148.43 94.57 146.06 93.76 141.58 106.69"/><polygon class="cls-8" points="156.75 111.99 159.01 113.03 165.68 100.62 163.31 99.76 156.75 111.99"/><polygon class="cls-9" points="87.62 234.87 85.45 233.64 76.46 245.04 78.86 245.98 87.62 234.87"/><polygon class="cls-9" points="114.17 244.41 111.81 243.61 107.33 256.53 109.7 257.41 114.17 244.41"/><polygon class="cls-9" points="101.5 239.73 99.24 238.68 92.6 251.06 94.94 251.96 101.5 239.73"/><polygon class="cls-9" points="199.01 157.99 199.4 160.33 214.57 159.36 213.79 157.05 199.01 157.99"/><polygon class="cls-9" points="190.85 133.09 191.71 135.29 205.23 130.13 204.5 127.88 190.85 133.09"/><polygon class="cls-9" points="194.75 145.42 195.35 147.7 209.81 144.42 209.07 142.18 194.75 145.42"/><polygon class="cls-9" points="171.73 234.42 173.91 233.19 182.93 244.63 180.5 245.53 171.73 234.42"/><polygon class="cls-9" points="142.12 244.69 144.48 243.88 148.96 256.81 146.6 257.69 142.12 244.69"/><polygon class="cls-9" points="157.25 239.27 159.51 238.23 166.15 250.67 163.81 251.5 157.25 239.27"/><polygon class="cls-9" points="192.51 210.37 191.43 212.52 204.69 219.63 205.34 217.26 192.51 210.37"/><polygon class="cls-9" points="199.04 184.49 198.44 186.76 212.79 189.51 213.43 187.21 199.04 184.49"/><polygon class="cls-9" points="195.85 196.64 194.98 198.84 208.97 203.66 209.61 201.35 195.85 196.64"/><path class="cls-10" d="M122.15,112.91c2.27,0,3.24,2,3.24,3.88s-1,3.89-3.24,3.89-3.24-2-3.24-3.89S119.88,112.91,122.15,112.91Zm0,1.17c-1.32,0-1.8,1.28-1.8,2.71s.47,2.72,1.8,2.72,1.8-1.29,1.8-2.72S123.47,114.09,122.15,114.09Z"/><path class="cls-10" d="M129.63,112.91c2.27,0,3.24,2,3.24,3.88s-1,3.89-3.24,3.89-3.24-2-3.24-3.89S127.36,112.91,129.63,112.91Zm0,1.17c-1.32,0-1.8,1.28-1.8,2.71s.47,2.72,1.8,2.72,1.8-1.29,1.8-2.72S131,114.09,129.63,114.09Z"/><path class="cls-10" d="M169.58,126.51c2.27,0,3.24,2,3.24,3.88s-1,3.89-3.24,3.89-3.24-2-3.24-3.89S167.31,126.51,169.58,126.51Zm0,1.17c-1.32,0-1.8,1.28-1.8,2.71s.47,2.72,1.8,2.72,1.8-1.29,1.8-2.72S170.9,127.68,169.58,127.68Z"/><path class="cls-10" d="M174.82,132.22a2.89,2.89,0,0,0,2.19.89c1,0,1.66-.59,1.66-1.32s-.63-1.34-1.63-1.34a2.54,2.54,0,0,0-1.77.65l-1-.27v-4.21h5.31v1.16h-3.89V130a2.75,2.75,0,0,1,1.83-.65,2.43,2.43,0,0,1,2.59,2.43c0,1.57-1.28,2.55-3.09,2.55a3.84,3.84,0,0,1-3-1.16Z"/><path class="cls-10" d="M178.77,167.73,177.44,169l-.83-.8,2.33-2.19h1.24v7.53h-1.42Z"/><path class="cls-10" d="M184.79,165.9c2.27,0,3.24,2,3.24,3.88s-1,3.89-3.24,3.89-3.24-2-3.24-3.89S182.52,165.9,184.79,165.9Zm0,1.17c-1.32,0-1.8,1.28-1.8,2.71s.47,2.72,1.8,2.72,1.8-1.29,1.8-2.72S186.12,167.07,184.79,167.07Z"/><path class="cls-10" d="M170.19,215.55l-1.32,1.28L168,216l2.33-2.19h1.24v7.53h-1.42Z"/><path class="cls-10" d="M174,219.44a2.89,2.89,0,0,0,2.19.89c1,0,1.66-.59,1.66-1.32s-.63-1.34-1.63-1.34a2.54,2.54,0,0,0-1.77.65l-1-.27v-4.21h5.31V215h-3.89v2.18a2.75,2.75,0,0,1,1.83-.65,2.43,2.43,0,0,1,2.59,2.43c0,1.57-1.28,2.55-3.09,2.55a3.84,3.84,0,0,1-3-1.16Z"/><path class="cls-10" d="M122,236.74c3.15-2.21,4.37-3.2,4.37-4.28,0-.79-.73-1.15-1.47-1.15a2.91,2.91,0,0,0-2.19.9l-.83-.87a4,4,0,0,1,3-1.21c1.57,0,2.94.82,2.94,2.33s-1.37,2.63-3.55,4.15h3.6v1.16H122Z"/><path class="cls-10" d="M132.4,230.14c2.27,0,3.24,2,3.24,3.88s-1,3.89-3.24,3.89-3.24-2-3.24-3.89S130.13,230.14,132.4,230.14Zm0,1.17c-1.32,0-1.8,1.28-1.8,2.71s.47,2.72,1.8,2.72,1.8-1.29,1.8-2.72S133.73,231.31,132.4,231.31Z"/><path class="cls-10" d="M82.18,221.74c3.15-2.21,4.37-3.2,4.37-4.28,0-.79-.73-1.15-1.47-1.15a2.91,2.91,0,0,0-2.19.9l-.83-.87a4,4,0,0,1,3-1.21c1.57,0,2.94.82,2.94,2.33s-1.37,2.63-3.55,4.15H88v1.16H82.18Z"/><path class="cls-10" d="M90.29,220.84a2.89,2.89,0,0,0,2.19.89c1,0,1.66-.59,1.66-1.32s-.63-1.34-1.63-1.34a2.54,2.54,0,0,0-1.77.65l-1-.27v-4.21H95v1.16H91.16v2.18a2.75,2.75,0,0,1,1.83-.65,2.43,2.43,0,0,1,2.59,2.43c0,1.57-1.28,2.55-3.09,2.55a3.84,3.84,0,0,1-3-1.16Z"/><path class="cls-10" d="M68,173.46a3.14,3.14,0,0,0,2.25.91c1.07,0,1.69-.45,1.69-1.15s-.64-1.06-1.8-1.06H69.2V171h.94c.95,0,1.66-.3,1.66-1s-.73-1.06-1.64-1.06a3,3,0,0,0-2.09.84l-.73-.82a3.88,3.88,0,0,1,3-1.19c1.75,0,2.93.77,2.93,2a1.91,1.91,0,0,1-1.76,1.73,2,2,0,0,1,1.88,1.83c0,1.28-1.18,2.19-3,2.19a3.88,3.88,0,0,1-3.06-1.22Z"/><path class="cls-10" d="M77.65,167.77c2.27,0,3.24,2,3.24,3.88s-1,3.89-3.24,3.89-3.24-2-3.24-3.89S75.38,167.77,77.65,167.77Zm0,1.17c-1.32,0-1.8,1.28-1.8,2.71s.47,2.72,1.8,2.72,1.8-1.29,1.8-2.72S79,168.95,77.65,168.95Z"/><path class="cls-10" d="M81.11,133.61a3.14,3.14,0,0,0,2.25.91c1.07,0,1.69-.45,1.69-1.15s-.64-1.06-1.8-1.06h-.94v-1.19h.94c.95,0,1.66-.3,1.66-1s-.73-1.06-1.64-1.06a3,3,0,0,0-2.09.84l-.73-.82a3.88,3.88,0,0,1,3-1.19c1.75,0,2.93.77,2.93,2a1.91,1.91,0,0,1-1.76,1.73,2,2,0,0,1,1.88,1.83c0,1.28-1.18,2.19-3,2.19a3.88,3.88,0,0,1-3.06-1.22Z"/><path class="cls-10" d="M88.52,133.63a2.89,2.89,0,0,0,2.19.89c1,0,1.66-.59,1.66-1.32s-.63-1.34-1.63-1.34a2.54,2.54,0,0,0-1.77.65l-1-.27V128h5.31v1.16H89.39v2.18a2.75,2.75,0,0,1,1.83-.65,2.43,2.43,0,0,1,2.59,2.43c0,1.57-1.28,2.55-3.09,2.55a3.84,3.84,0,0,1-3-1.16Z"/><rect class="cls-3" x="89.67" y="3.86" width="74.33" height="24.58"/></g></g></svg>