<svg xmlns="http://www.w3.org/2000/svg" viewBox="0 0 280.14 261.41"><defs><style>.cls-1{fill:#ffc626;}.cls-2{fill:#fff;}.cls-3{fill:#fae415;}.cls-4{fill:#faa61a;}</style></defs><title>harmony</title><g id="Layer_2" data-name="Layer 2"><g id="Layer_11" data-name="Layer 11"><path class="cls-1" d="M229.83,259.26a2.25,2.25,0,0,1-1.82-.9c-1.5-1.77-3.41-4.11-5.26-6.37-2-2.48-4.27-5.22-5.41-6.53-.56,0-1.35.07-2.51.07s-2.81,0-4.36-.06-3.12-.06-4.46-.06-2.15,0-2.51.06c-3.62,3.4-11,10.1-11.07,10.17l-1.14,1-1.35-.76s-3.28-1.84-6.54-3.75c-6.74-3.94-8-4.66-7.36-6.5.83-4.34,2.62-13.69,3.25-16.94-1-1.11-2.77-3.13-6-6.82l-2.44-2.82c-5-.73-10.83-1.9-16.42-3l-1.76-.36,0-1.8c0-.65-.17-3-.34-5.3-.72-9.25-.78-10.11.69-10.94s4.7-2.05,9.56-3.77c2.21-.78,5.16-1.82,6.2-2.3.77-2,2.7-9.9,3.17-12.3-1.39-2.66-3.35-6.47-5-9.7-3.8-7.38-3.8-7.38-3.16-8.44l.63-1h.36l2.85-3.1c7.11-7.75,7.11-7.75,8.22-7.75h.41l.38.15c2.92,1.27,5.77,2.5,8.63,3.72s5.51,2.36,8.25,3.56a63.1,63.1,0,0,0,8.43-2.62l9-19.14,1.53.17c14.79,1.67,15.23,1.85,15.58,2l1,.41.27,1c.76,2.87,1.55,5.72,2.34,8.58s1.5,5.44,2.23,8.16c1.71,1,6.76,3.71,8.57,4.67l.8.43c5.14-1.35,10.77-2.76,17.16-4.3l.25-.06H261c1.1,0,1.64.23,5.45,5,2,2.5,4.05,5.28,5.27,7.08l.84,1.24-.88,1.22c-1.61,2.22-3.39,4.55-5.12,6.8-1.5,2-3.05,4-4.47,5.92.2,2.63,1.08,11.69,1.4,14.48,3.25,2.35,6.45,4.81,9.55,7.21l4.13,3.17.85.64v1.06c0,.41,0,.73-3,7.67-3.17,7.44-3.5,8-5.13,8h-.24c-5.25.16-11,.38-17.89.72-1.35,1.27-5.11,5.55-6.34,7.07.1,6.82.22,12.43.38,17.54l.37.57-.61,1.12c-.38.7-.51.94-7.58,3.87-6.87,2.85-7.68,2.85-8.17,2.85Zm-29.47-61.54c3.84,4.13,11.36,11.74,14.55,15,3.08-3,10.15-9.87,14.6-14.34-5.63-5.92-9.94-10.43-14.52-14.76C209.38,188.68,204.61,193.12,200.35,197.72Z"/><path class="cls-2" d="M212.31,137.25s14.49,1.64,15,1.85c1.55,5.85,3.23,11.66,4.77,17.51,0,.28,10.78,6,11,6.08,6-1.57,11.95-3.06,17.94-4.51h0c.58,0,6.49,7.56,8.95,11.18-3.15,4.34-6.89,9-10,13.32-.08.06,1.47,16.34,1.59,16.34h0c4.88,3.5,9.59,7.23,14.37,10.87,0,.23-5.44,13.49-5.94,13.49h0c-6.29.18-12.58.45-18.87.76-.61,0-7.83,8.36-7.74,8.49.09,6.3.2,12.59.41,18.89.12.19-12.58,5.61-13.87,5.61-.06,0-.1,0-.1,0-3.7-4.36-10.15-12.49-11.49-13.79a.31.31,0,0,0-.22-.09l-.12,0a14.38,14.38,0,0,1-3.07.17c-2.56,0-6.16-.11-8.82-.11a11.45,11.45,0,0,0-3.57.26C199,246.75,191,254.07,191,254.07s-13.05-7.34-12.87-7.82c1.1-5.76,3.39-17.69,3.49-18.15h0s0,0,0,0h0c-.21,0-9.22-10.59-9.62-11-5.23-.73-11.77-2-17.08-3.12.05-2-1.22-14.17-.71-14.45,2.42-1.53,15.57-5.55,16.26-6.38.75-.42,3.88-13.84,3.8-14.21-2.79-5.35-8.62-16.66-8.56-16.66l0,0h0c.12,0,9.92-10.89,10.2-10.89h0c5.7,2.49,11.44,4.9,17.15,7.39a.85.85,0,0,0,.32,0c2,0,10.19-3.08,10.19-3.08l8.73-18.54m2.56,78.45s12.23-11.83,17.61-17.32c-7.05-7.42-11.91-12.56-17.49-17.71a236.34,236.34,0,0,0-17.54,17.06c4,4.47,17.42,18,17.42,18m-5.13-83.05-1.31,2.78-8,16.95c-2.55.92-5.27,1.8-6.62,2.11-2.57-1.12-5.16-2.23-7.68-3.31-2.8-1.2-5.69-2.44-8.52-3.67l-.1,0-.1,0-.73-.28h-.79c-2,0-2.71.79-5.45,3.73-1.29,1.38-2.92,3.16-4.37,4.74L163.92,158h-.64L162,160.05c-1.25,2.06-.53,3.47.78,6l2.3,4.49c1.53,3,3.31,6.42,4.67,9-.55,2.56-1.88,8-2.63,10.39-1.29.51-3.48,1.28-5.2,1.89-5.11,1.81-8.36,3-10,4-2.43,1.43-2.3,4-2.14,6.92.09,1.76.26,3.92.42,6,.15,1.9.35,4.51.34,5.09l-.07,3.57,3.5.74c5.33,1.08,10.9,2.19,15.75,2.93l1.91,2.22c1.39,1.62,3,3.51,4.33,5l.94,1.07c-.77,4-2.34,12.13-3,15.81-.86,3.14,1.94,4.9,3.82,6.09,1.1.69,2.63,1.62,4.56,2.74,3.23,1.89,6.53,3.75,6.57,3.77l2.7,1.52,2.29-2.08c.3-.27,6.81-6.18,10.52-9.65l1.62,0c1.31,0,2.89,0,4.42.06s3.1.06,4.4.06l1.56,0c1.24,1.47,3.16,3.81,4.69,5.68,1.82,2.23,3.71,4.53,5.2,6.31a4.38,4.38,0,0,0,3.55,1.76c.85,0,1.72,0,9-3,7.76-3.22,7.9-3.46,8.64-4.82l1.22-2.23-.73-1.15c-.15-4.77-.26-9.84-.35-16.12,1.3-1.54,3.77-4.34,5.12-5.72,6.53-.31,12-.52,17-.67h.18c2.91,0,4-2.32,5-4.55.68-1.47,1.51-3.38,2.08-4.72,3.13-7.35,3.13-7.59,3.13-8.51v-2.12l-1.69-1.29-4.11-3.15c-2.87-2.22-5.83-4.49-8.84-6.69-.33-3.12-1-9.73-1.22-12.67,1.28-1.72,2.64-3.51,4-5.24,1.73-2.26,3.52-4.6,5.15-6.84l1.77-2.43L273.49,167c-1.24-1.84-3.35-4.67-5.37-7.21-3.53-4.45-4.76-5.86-7.13-5.86h-.51L260,154c-6.08,1.47-11.46,2.81-16.39,4.1l-.07,0c-1.56-.83-5.65-3-7.72-4.19-.66-2.46-1.34-4.93-2-7.33-.78-2.8-1.58-5.7-2.33-8.55l-.54-2-1.95-.82c-.69-.29-1.07-.45-16.17-2.15l-3.05-.35Zm-6.45,65.08c3.47-3.63,7.3-7.23,11.65-11.21,3.64,3.5,7.22,7.23,11.56,11.79-3.7,3.69-8.51,8.37-11.57,11.36-3.18-3.21-8.21-8.33-11.63-11.94Z"/><path class="cls-3" d="M93.32,189.75a17.78,17.78,0,0,1-3.58-.15l-1-.24-.44-1c-2.2-4.8-6.31-13.61-7.56-16.29l-9.18-3.44c-3.1,1.87-13.42,8.11-16.24,10l-1.31.86-1.21-1c-.34-.26-2.4-1.49-4.06-2.48-7.16-4.27-8.24-5-8.76-5.8l-.46-.68.11-.81c.74-5.33,2-15.23,2.42-18.28-2.6-3.17-5.54-6.61-6.67-7.72-4.5-.06-8.05-.08-11.42-.08q-3.27,0-6.55,0h-1l-.65-.75c-1.49-1.71-6.64-13.6-6.82-14.12l-.41-1.18.82-.94c4.23-4.85,8.11-9.39,11.84-13.89a63.71,63.71,0,0,0-1.4-10.12C15.55,98.86,11.22,96,7,93.27L2.14,90.05V88.9c0-.35,0-.5,3.46-14.1l.3-1.18,1.17-.35c.12,0,11.35-3.38,17.48-5.31.78-1.41,2.62-5.74,4.18-9.68l-7.9-17.58L32,27.49,52.1,33c3.14-2.09,6.54-4.46,7.63-5.39,1-6.4,2.75-18.2,2.77-18.32L62.68,8l1.14-.46c13.45-5.44,13.45-5.44,14-5.44h1l3.3,3.78q5.39,6.17,10.8,12.32H94c2.52,0,6.64-.15,8.45-.23l6.48-7.25c7.74-8.64,7.74-8.64,8.77-8.64h.48l.44.21c3.79,1.8,10.55,4.53,13.33,5.59l1.18.45.18,1.25c.43,3,.72,5.94,1,8.79s.59,6,1.06,9.11c1.3.94,5.11,3.28,8.6,5.33,3-.83,12.7-3.56,18-5l1.38-.37.88,1.12c.38.49,1.8,2.18,3.29,4,4,4.71,5.67,6.78,6.07,7.42l.61,1-.48,1c-2.14,4.69-6,13.36-7.27,16.33l6.36,10.35c2.6.77,11,3.23,15.47,4.66l1.4.44.09,1.46c.05.79,1.2,9.16,1.91,14.24l.19,1.35-1.15.74c-.1.07-9.93,6.44-15.25,10a77,77,0,0,0-1.61,10c4.11,4.9,11.71,13.74,11.79,13.83l.91,1.06-.6,1.26c-1.55,3.26-5.68,12-6.22,13.47l-.53,1.4h-1.5l-4.48,0H159.65a58.6,58.6,0,0,0-6.63,7.58c.75,5.86,1.58,12,2.47,18.18l.17,1.17-.89.77c-.74.63-2.82,2-6.15,4.08-2.2,1.39-5.52,3.5-6.05,4l-1.22,1.26-1.44-1c-4.41-2.83-12.63-8-15.16-9.62-4.09,1-8.61,2.13-10.13,2.68-2.47,5.14-5,10.56-7.74,16.55l-.55,1.21-1.33,0C103.68,189.59,97.25,189.75,93.32,189.75Zm5.54-44.86L128,115.78l-.14-.14,27.52-27.52L126.24,59,98.95,86.3,72.86,60.21,43.74,89.33,70,115.55l-.22.22Z"/><path class="cls-2" d="M117.68,4.29c3.8,1.81,10.5,4.52,13.49,5.66.92,6.34,1.16,12.34,2.17,18.66.1.64,10.31,6.58,10.31,6.58s12.53-3.52,18.82-5.22c1.06,1.36,8.62,10.21,9.24,11.19C169.08,46.93,164,58.54,164,58.54l7.38,12s10.84,3.17,16.22,4.88c.07,1.09,1.92,14.41,1.92,14.41s-10.56,6.85-15.79,10.34c-.61.41-2.4,11.83-2,12.33,4,4.83,12.25,14.38,12.25,14.38s-5.59,11.8-6.29,13.64l-4.49,0-10.58,0h-3.49c-1.1,0-8.39,8.71-8.31,9.35q1.2,9.44,2.56,18.86c-1.38,1.19-11.36,7.17-12.31,8.15-5.29-3.4-15.94-10.11-15.94-10.11s-11.82,2.73-12.15,3.4q-4.13,8.57-8.07,17.23c-1.2,0-7.62.19-11.58.19a26.43,26.43,0,0,1-3.09-.09c-2.62-5.71-7.94-17.1-7.94-17.1l-11-4.11s-13.81,8.32-17.19,10.53c-1-.78-11.79-6.91-12.4-7.81.89-6.4,2.54-19.21,2.54-19.21s-7.49-9.2-8.19-9.21c-4-.05-8.09-.09-12.14-.09q-3.29,0-6.58,0c-1.11-1.27-6.1-12.54-6.41-13.42q6.21-7.11,12.25-14.38c.55-.66-1-12-1.71-12.47C15.78,96.42,10,92.67,4.29,88.9c0-.23,3.39-13.58,3.39-13.58s12.14-3.61,18.17-5.52c.76-.24,5.21-11.57,5.21-11.57L23.34,41l9.39-11.13,19.74,5.38s9.16-6,9.28-6.76c1-6.31,2.87-19,2.87-19S77.69,4.29,77.8,4.29c4.66,5.34,9.31,10.68,14,16A8.2,8.2,0,0,0,94,20.4c3.37,0,9.45-.27,9.45-.27S117.56,4.29,117.68,4.29m-18.73,79L72.86,57.18,40.71,89.33l26.23,26.23-.22.22,32.15,32.15L131,115.78l-.14-.14,27.52-27.52L126.24,56,98.95,83.27M118.65,0h-1c-1.91,0-2.87,1.05-3.81,2.07l-1.65,1.82-4.91,5.46-5.88,6.57c-2,.08-5.33.19-7.46.19h-.13C90.45,12.26,87,8.35,83.72,4.55L81,1.47,79.75,0H77.8C76.85,0,76.85,0,63,5.59l-2.28.92L60.38,9c0,.12-1.59,11-2.63,17.47-1.25,1-3.66,2.64-6,4.22L33.86,25.78l-2.64-.72-1.76,2.09L20.06,38.28l-1.74,2.06,1.11,2.46,7,15.52c-1.23,3-2.58,6.23-3.36,7.86-6.25,2-16.48,5-16.59,5l-2.33.69-.6,2.36C0,88.13,0,88.19,0,88.9v2.31l1.93,1.27,4,2.61c3.94,2.58,8,5.25,12,7.92A76.05,76.05,0,0,1,19,111.08c-3.56,4.28-7.26,8.61-11.28,13.21l-1.64,1.88.83,2.36c.16.45,5.38,12.7,7.23,14.82l1.3,1.49,2,0c2.09,0,4.23,0,6.53,0,3.09,0,6.46,0,10.49.07,1.2,1.29,3.34,3.8,5.35,6.23-.49,3.78-1.62,12.47-2.3,17.34l-.23,1.62.91,1.36c.76,1.13,1.59,1.76,9.44,6.45,1.52.91,3.39,2,3.87,2.35l2.36,1.92,2.63-1.71c2.57-1.67,11.46-7.06,15.29-9.38l7.39,2.77c1.56,3.33,5.18,11.12,7.19,15.48l.87,1.9,2,.48a17.82,17.82,0,0,0,4.07.21c4,0,10.42-.15,11.71-.19l2.66-.08,1.11-2.43c2.57-5.64,5-10.79,7.33-15.69,1.74-.53,5.05-1.38,8.22-2.14,3.13,2,10.36,6.55,14.39,9.13l3,1.9L144,180c.75-.58,3.74-2.48,5.74-3.75a76,76,0,0,0,6.4-4.26l1.79-1.53-.33-2.33c-.85-5.9-1.64-11.71-2.36-17.3a69.94,69.94,0,0,1,5.22-6h12.71l4.45,0,3,0,1.06-2.8c.46-1.22,4-8.81,6.15-13.31l1.19-2.52-1.82-2.11c-.08-.09-7-8.15-11.2-13.14.21-2.08.85-6.05,1.28-8,5.42-3.59,14.43-9.44,14.53-9.5L194.11,92l-.38-2.7c-.86-6.21-1.82-13.26-1.89-14.11l-.18-2.93-2.8-.86c-4.19-1.33-11.5-3.5-14.72-4.44l-5.34-8.69c1.59-3.6,4.89-11.05,6.81-15.27l1-2.09-1.22-2c-.44-.7-1.61-2.14-6.25-7.67-1.42-1.69-2.88-3.43-3.24-3.89l-1.75-2.25-2.75.74c-4.83,1.3-13.42,3.71-17.1,4.74-2.67-1.58-5.44-3.27-6.92-4.25-.38-2.68-.64-5.32-.91-8.09s-.57-5.85-1-8.89l-.36-2.5-2.36-.9c-2.75-1-9.44-3.74-13.17-5.52L118.65,0ZM98.95,89.34l3-3L126.24,62l26.08,26.08-24.48,24.48-3,3,.14.14L98.86,141.86,72.78,115.78l.22-.22-3-3L46.78,89.33,72.86,63.25,95.91,86.3l3,3Z"/><path class="cls-1" d="M113,170.18c.32-.66,12.15-3.4,12.15-3.4s10.64,6.71,15.94,10.11c.95-1,10.93-7,12.31-8.15q-1.35-9.42-2.56-18.86c-.08-.64,7.21-9.35,8.31-9.35,6.18,0,12.37-.05,18.55,0,.69-1.83,6.29-13.64,6.29-13.64s-8.21-9.55-12.25-14.38c-.42-.5,1.37-11.92,2-12.33,5.24-3.49,15.79-10.34,15.79-10.34s-1.85-13.31-1.92-14.41c-5.38-1.71-16.22-4.88-16.22-4.88l-7.38-12s5.11-11.61,7.74-17.38c-.62-1-8.17-9.83-9.24-11.19-4.59,1.24-12.52,3.46-16.46,4.56l-45.37,47L126.24,56l32.15,32.15-27.52,27.52.14.14L98.86,147.92,67.2,116.26,39.9,144.57c2.14,2.49,4.38,5.24,4.38,5.24S42.62,162.62,41.73,169c.61.9,11.44,7,12.4,7.81,3.38-2.21,17.19-10.53,17.19-10.53l11,4.11s5.32,11.39,7.94,17.1c1,.24,13,0,14.67-.1Q108.86,178.76,113,170.18Z"/><path class="cls-4" d="M217.9,243.22a.31.31,0,0,1,.34.07c1.34,1.31,7.79,9.43,11.49,13.79.12.58,14.1-5.37,14-5.57-.21-6.29-.33-12.59-.41-18.89-.09-.12,7.13-8.46,7.74-8.49,6.29-.3,12.58-.57,18.87-.76.37.37,6-13.25,6-13.49-4.78-3.64-9.49-7.37-14.37-10.87-.08.36-1.67-16.27-1.59-16.34,3.15-4.33,6.89-9,10-13.32-2.47-3.65-8.46-11.3-9-11.18q-4.09,1-8.18,2l-28.74,29.38c2.54,2.62,5.26,5.48,8.43,8.81-5.39,5.49-17.61,17.32-17.61,17.32s-4-4-8.23-8.33l-26.22,26.79c-.76,4-1.72,8.94-2.32,12.09-.18.48,12.87,7.82,12.87,7.82s8.06-7.32,11.45-10.53C203.09,242.89,216.57,243.73,217.9,243.22Z"/></g></g></svg>