<svg xmlns="http://www.w3.org/2000/svg" viewBox="0 0 350.55 354.53"><defs><style>.cls-1{fill:#9adbf8;}.cls-2,.cls-9{fill:#b4e3f8;}.cls-3{fill:#2b3990;}.cls-4{fill:#0b6ab3;}.cls-5{fill:#3ec5f3;}.cls-6{fill:#26a9e1;}.cls-7{fill:#fff200;}.cls-8{fill:#fff;}.cls-9{opacity:0.45;}</style></defs><title>ideation</title><g id="Layer_2" data-name="Layer 2"><g id="Layer_7" data-name="Layer 7"><polygon class="cls-1" points="257.92 161.56 241.07 104.69 173.67 79.42 112.59 104.69 93.63 163.67 124.01 232.79 124.09 232.82 130.49 248.08 131.1 267.92 144.26 283.91 208.29 283.96 219.98 269.54 221.2 247.06 226.87 233.09 226.81 233.09 257.92 161.56"/><polygon class="cls-2" points="241.07 104.69 173.67 79.42 112.59 104.69 93.63 163.67 124.01 232.79 124.09 232.82 130.49 248.08 130.49 248.17 252.69 143.89 241.07 104.69"/><rect class="cls-3" x="142.99" y="165.67" width="19.13" height="1.06" transform="translate(-21.73 22.95) rotate(-8.03)"/><rect class="cls-3" x="187.03" y="165.82" width="19.13" height="1.06" transform="translate(368.01 358.55) rotate(-171.97)"/><polygon class="cls-4" points="183.31 225.63 206.13 166.43 207.83 167.08 185.13 225.96 185.4 243.63 186.98 253.59 187.56 286.39 185.43 286.39 185.35 253.99 183.99 245.39 183.31 225.63"/><rect class="cls-5" x="167.74" y="248.13" width="14.88" height="36.44"/><rect class="cls-3" x="144.15" y="283.93" width="64.22" height="7.51"/><polygon class="cls-6" points="144.36 290.98 144.36 331.55 144.8 331.55 165.11 352.1 188.19 352.1 207.79 331.55 208.22 331.55 208.22 290.98 144.36 290.98"/><polygon class="cls-3" points="158.31 345.21 165.11 352.1 188.19 352.1 194.76 345.21 158.31 345.21"/><polygon class="cls-4" points="210.12 334.06 212.38 332.36 210.9 330.54 206.97 329.81 145.08 330.59 142.07 331.92 143.02 334.09 147.33 335.09 210.12 334.06"/><polygon class="cls-4" points="208.69 299.64 210.62 297.58 208.85 296.04 204.86 296 144.02 307.36 141.28 309.19 142.59 311.16 147.01 311.42 208.69 299.64"/><polygon class="cls-4" points="208.69 313.41 210.62 311.35 208.85 309.81 204.86 309.76 144.02 321.13 141.28 322.95 142.59 324.93 147.01 325.18 208.69 313.41"/><polygon class="cls-5" points="176.85 290.98 144.36 290.98 144.36 331.55 144.8 331.55 165.11 352.1 176.85 352.1 176.85 290.98"/><polygon class="cls-6" points="176.85 301.23 144.02 307.36 141.28 309.19 142.59 311.16 147.01 311.42 176.85 305.72 176.85 301.23"/><polygon class="cls-6" points="176.85 315 144.02 321.13 141.28 322.95 142.59 324.93 147.01 325.18 176.85 319.49 176.85 315"/><polygon class="cls-6" points="176.85 330.19 145.08 330.59 142.07 331.92 143.02 334.09 147.33 335.09 176.85 334.61 176.85 330.19"/><polygon class="cls-4" points="176.85 345.21 158.31 345.21 165.11 352.1 176.85 352.1 176.85 345.21"/><polygon class="cls-4" points="167.14 225.93 144.31 166.73 142.61 167.38 165.31 226.27 165.04 243.93 163.47 253.9 162.88 286.7 165.01 286.7 165.09 254.29 166.45 245.7 167.14 225.93"/><rect class="cls-4" x="144.15" y="283.93" width="32.7" height="7.07"/><rect class="cls-3" x="161.52" y="164.48" width="25.81" height="1.04"/><rect class="cls-5" x="169.26" y="198.62" width="11.54" height="52.54"/><rect class="cls-4" x="165.62" y="163.85" width="0.61" height="34.17" transform="translate(-55.69 75.32) rotate(-22)"/><rect class="cls-4" x="183.38" y="163.7" width="0.61" height="34.17" transform="translate(286.29 417.2) rotate(-158)"/><rect class="cls-6" x="167.44" y="195.28" width="14.88" height="3.95"/><rect class="cls-7" x="20.75" y="82.61" width="12.76" height="49.81" transform="translate(-83.1 95.51) rotate(-69.63)"/><path class="cls-8" d="M6.72,94.42l44.41,16.5-3.6,9.68L3.12,104.1l3.6-9.68M5.29,91.3l-.85,2.28-3.6,9.68L0,105.53l2.28.85,44.41,16.5,2.28.85.85-2.28,3.6-9.68.85-2.28L52,108.64,7.57,92.15,5.29,91.3Z"/><rect class="cls-7" x="84.53" y="22.47" width="12.76" height="49.81" transform="translate(-11.56 44.47) rotate(-25.9)"/><path class="cls-8" d="M85.2,23.81l20.7,42.62-9.29,4.51L75.91,28.32l9.29-4.51m1.12-3.25-2.19,1.06-9.29,4.51L72.67,27.2l1.06,2.19L94.42,72l1.06,2.19,2.19-1.06L107,68.62l2.19-1.06-1.06-2.19L87.39,22.75l-1.06-2.19Z"/><rect class="cls-7" x="167.74" y="1.21" width="12.76" height="49.81"/><path class="cls-8" d="M179.28,2.43V49.81H169V2.43h10.33M181.71,0H166.53V52.24h15.19V0Z"/><rect class="cls-7" x="298.52" y="101.13" width="49.81" height="12.76" transform="translate(-17.2 119.35) rotate(-20.38)"/><path class="cls-8" d="M343.84,94.42l3.6,9.68L303,120.6l-3.6-9.68,44.41-16.5m1.43-3.12-2.28.85-44.41,16.5-2.28.85.85,2.28,3.6,9.68.85,2.28,2.28-.85,44.41-16.5,2.28-.85-.85-2.28-3.6-9.68-.85-2.28Z"/><rect class="cls-7" x="234.74" y="41" width="49.81" height="12.76" transform="translate(103.61 260.25) rotate(-64.1)"/><path class="cls-8" d="M265.35,23.81l9.29,4.51-20.7,42.62-9.29-4.51,20.7-42.62m-1.12-3.25-1.06,2.19-20.7,42.62-1.06,2.19,2.19,1.06,9.29,4.51,2.19,1.06L256.13,72l20.7-42.62,1.06-2.19-2.19-1.06-9.29-4.51-2.19-1.06Z"/><path class="cls-8" d="M173.67,79.42l67.4,25.28,11.61,39.19,5.24,17.68-31.11,71.53h.06l-5.67,14L220,269.54l-11.67,14.39h.06v7.51h-.16V296h.64l1.77,1.54-1.93,2.06-.47.09V309.8h.64l1.77,1.54-1.93,2.06-.47.09V330l2.68.5,1.48,1.82-2.26,1.7-4.8.08-10.56,11.07-6.57,6.88H165.11l-6.8-6.88h0l-10-10.13-1,0-4.31-1-1-2.17,2.29-1V325l-1.77-.1-1.31-2,2.74-1.82.34-.06v-9.8l-1.77-.1-1.31-2,2.74-1.82.34-.06V291.44h-.21v-7.51h.11l-13.16-16-.61-19.84-6.4-15.26-.08,0L93.63,163.67l19-59,61.08-25.28M165,283.93h0m8.61-207.12-.89.37-61.08,25.28-1,.43-.34,1.07-19,59-.28.88.37.84,30.38,69.12.39.89.05,0,5.84,13.92.59,19.39,0,.83.53.64,12.5,15.19v9.22h.21v12l-2,1.33-2,1.34,1.34,2,1.31,2,.67,1,.69,0v6l-2,1.33-2,1.34,1.34,2,1.31,2,.67,1,.69,0v2l-.84.37-2.22,1,1,2.22,1,2.17.49,1.11,1.18.28,4.31,1,.29.07h.23l9.28,9.39,6.8,6.88.71.72h25.14l.72-.75,6.57-6.88,9.86-10.34,3.78-.06h.79l.63-.48,2.26-1.7,2-1.52-1.59-2L212.78,329l-.56-.69-.88-.16-.69-.13V314.88L212.4,313l1.72-1.84-1.9-1.65-1.57-1.37v-7l1.75-1.87,1.72-1.84-1.9-1.65-1.57-1.37v-.51h.16v-9.15l11.06-13.65.5-.61,0-.79,1.19-22.07L229.12,234l.78-1.91,30.26-69.56.35-.81-.25-.85L255,143.2,243.4,104l-.34-1.16-1.13-.42-67.4-25.28-.9-.34Z"/><polygon class="cls-9" points="241.07 104.69 173.67 79.42 112.59 104.69 93.63 163.67 124.01 232.79 124.09 232.82 130.49 248.08 130.49 248.17 252.69 143.89 241.07 104.69"/></g></g></svg>