<svg xmlns="http://www.w3.org/2000/svg" viewBox="0 0 157.16 379.16"><defs><style>.cls-1{fill:#d98c28;}.cls-2{fill:#ffc729;}.cls-3{fill:#fae51e;}.cls-4{fill:#b66a28;}.cls-5{fill:#fef3a0;}.cls-6{fill:#fff;}</style></defs><title>includer</title><g id="Layer_2" data-name="Layer 2"><g id="Layer_7" data-name="Layer 7"><polygon class="cls-1" points="153.15 208.02 116.46 208.84 115.61 119.93 94.52 102.24 65.72 102.24 45.15 119.93 45.15 209 4 207.04 4 103.22 44.63 66.88 114.58 66.88 153.15 105.68 153.15 208.02"/><polygon class="cls-2" points="10.17 106.17 50.8 69.82 117.51 69.82 114.58 66.88 44.63 66.88 4 103.22 4 207.53 10.34 206.87 10.17 106.17"/><polygon class="cls-2" points="123.32 119.84 115.61 119.93 116.46 208.02 123.83 207.69 123.32 119.84"/><polygon class="cls-3" points="116.34 182.79 116.64 209.81 153.15 209.81 153.15 182.79 116.34 182.79"/><polygon class="cls-4" points="94.52 102.24 115.58 119.91 123.49 119.93 95.03 93.89 59.03 93.89 31.26 117.47 31.43 208.68 45.15 208.84 45.15 119.93 65.72 102.24 94.52 102.24"/><polygon class="cls-3" points="4 182.3 4 209.87 45.15 210.3 45.15 182.3 4 182.3"/><rect class="cls-2" x="31.34" y="182.34" width="13.81" height="27.9"/><rect class="cls-2" x="22.65" y="182.34" width="3.82" height="27.81"/><rect class="cls-2" x="132.2" y="182.76" width="3.89" height="27.05"/><polygon class="cls-5" points="124.01 209.82 116.46 209.82 116.29 182.8 123.83 182.79 124.01 209.82"/><path class="cls-2" d="M122.93,377.66A21.07,21.07,0,1,1,144,356.59,21.09,21.09,0,0,1,122.93,377.66Z"/><path class="cls-6" d="M122.93,337a19.57,19.57,0,1,1-19.57,19.57A19.57,19.57,0,0,1,122.93,337m0-3a22.57,22.57,0,1,0,22.57,22.57A22.59,22.59,0,0,0,122.93,334Z"/><path class="cls-3" d="M120.91,337.12A19.57,19.57,0,0,0,117,375.24Z"/><rect class="cls-2" x="10.61" y="319.92" width="35.86" height="35.86" transform="translate(-74.59 14.86) rotate(-12.88)"/><path class="cls-6" d="M40.89,318.17l7.32,32-32,7.32-7.32-32,32-7.32m2.26-3.59-2.92.67-32,7.32-2.92.67.67,2.92,7.32,32,.67,2.92,2.92-.67,32-7.32,2.92-.67-.67-2.92-7.32-32-.67-2.92Z"/><polygon class="cls-3" points="40.24 318.32 8.86 325.49 16.19 357.52 36.69 352.84 40.24 318.32"/><polygon class="cls-2" points="54.48 294.34 96.61 267.32 99.82 317.75 54.48 294.34"/><path class="cls-6" d="M95.27,270l2.88,45.25-40.67-21L95.27,270m2.67-5.28-4.29,2.75L55.86,291.68l-4.37,2.81,4.62,2.38,40.67,21,4.71,2.43-.34-5.29-2.88-45.25-.32-5.09Z"/><polygon class="cls-3" points="82.39 307.06 85.56 276.19 57.48 294.2 82.39 307.06"/><rect class="cls-2" x="53.89" y="50.67" width="50.4" height="16.3"/><rect class="cls-3" x="65.2" y="4" width="29.32" height="46.67"/><rect class="cls-2" x="79.6" y="4.12" width="3.6" height="46.63"/><rect class="cls-2" x="85.65" y="4.12" width="6.64" height="46.6"/><rect class="cls-1" x="88.64" y="50.67" width="3.65" height="16.21"/><rect class="cls-1" x="94.52" y="50.75" width="6.98" height="16.21"/><path class="cls-6" d="M94.52,4V50.67h9.77V66.88h10.29l2.93,2.95,35.64,35.86v77.11h0v27H139.35v0H116.46l0-2.87-.84-87L94.52,102.24H65.72L45.15,119.93v62.41h0v27.9h0v.06l-5.56-.06H31.34v-.09l-4.88-.05v0H22.65v-.09L4,209.87V103.23L44.63,66.88h9.26V50.67H65.2V4H94.52m4-4H61.2V46.67H49.89V62.88H43.1l-1.14,1L1.33,100.24,0,101.44V213.82l4,0,14.69.15v.13h8.69v.09H39.58l5.52.06,4,0v-36h0V121.76L67.2,106.24H93.06l18.56,15.56.82,85.18,0,2.86,0,4H136l3.35,0h17.81v-35h0V104L156,102.86,120.34,67l-2.93-2.95-1.17-1.18h-8V46.67H98.52V0Z"/></g><g id="Layer_10" data-name="Layer 10"><path class="cls-6" d="M28.4,222.79,22.16,246H32.43L13.92,276.53l-.06,0,6.23-23.21H9.82l18.53-30.55Z"/><path class="cls-6" d="M140.4,220.79,134.16,244h10.27l-18.51,30.53-.06,0,6.23-23.21H121.82l18.53-30.55Z"/></g></g></svg>