<svg xmlns="http://www.w3.org/2000/svg" viewBox="0 0 212.02 367"><defs><style>.cls-1{fill:#d98c28;}.cls-2{fill:#fff;}.cls-3{fill:#ffc729;}.cls-4{fill:#fae51e;}.cls-5{fill:#ffc626;}.cls-6{fill:#da8c27;}.cls-7{fill:#c86f29;}</style></defs><title>individual</title><g id="Layer_2" data-name="Layer 2"><g id="Layer_7" data-name="Layer 7"><path class="cls-1" d="M57.94,97,91.06,63.5V1l1,0h77.28V20.94H113.52V62.66L147.47,97l-41.09,41.52V121.2l24-24.23L110.94,77.34a9.49,9.49,0,0,1-16.36-.11L75,97l24.17,24.43v17.29Z"/><path class="cls-2" d="M168.34,2V19.92H112.5V63.08L146,97,107.4,136v-14.4L131.79,97l-21-21.25c-1.75,3.16-4.66,5.23-8,5.23s-6.28-2.12-8-5.36L73.62,97,98.2,121.81v14.4L59.37,97l32.71-33V2h76.27m2-2H90V63.09L57.92,95.54,56.51,97l1.41,1.43,38.83,39.24,3.48,3.51V121l-.59-.59L76.48,97l18-18.18a10.36,10.36,0,0,0,16.57.1L128.93,97l-23,23.22-.59.59V141l3.48-3.51,38.64-39L148.9,97l-1.41-1.43L114.53,62.25V22h55.84V0Z"/><polygon class="cls-3" points="92.07 2.03 92.07 2.06 92.07 19.92 92.03 64.05 112.5 39.43 112.5 19.92 128.55 19.92 143.82 2.04 92.07 2.03"/><polygon class="cls-3" points="103.35 141.05 132.38 189.02 75.76 189.24 103.35 141.05"/><path class="cls-2" d="M103.38,143.74,130,187.67l-51.85.2,25.26-44.13m-.07-5.37-2.3,4L75.75,186.51l-2.35,4.1,4.72,0,51.85-.2,4.81,0-2.49-4.12-26.58-43.93-2.4-4Z"/><polygon class="cls-4" points="109.87 187.75 96.89 155.07 78.12 187.87 109.87 187.75"/><rect class="cls-5" x="2.46" y="303.78" width="74.48" height="12.55"/><rect class="cls-6" x="129.06" y="271.53" width="80.49" height="12.62"/><rect class="cls-5" x="67.96" y="219.88" width="76.12" height="14.82"/><polygon class="cls-4" points="47.31 303.78 2.46 303.78 2.46 316.33 43.63 316.31 47.31 303.78"/><rect class="cls-6" x="5.92" y="315.21" width="77.02" height="49.33"/><polygon class="cls-4" points="105.22 219.92 67.96 219.88 67.96 234.7 101.83 234.5 105.22 219.92"/><rect class="cls-6" x="72.36" y="233.3" width="66.44" height="131.23"/><rect class="cls-7" x="137.94" y="283.72" width="66.44" height="80.81"/><polygon class="cls-3" points="172.59 284.15 209.55 284.15 209.55 271.53 175.63 271.55 172.59 284.15"/><polygon class="cls-3" points="72.36 233.31 72.36 364.53 72.82 364.53 102.15 233.31 72.36 233.31"/><polygon class="cls-3" points="43.97 315.21 5.92 315.21 5.92 364.53 30.72 364.53 43.97 315.21"/><polygon class="cls-6" points="153.1 364.53 204.38 364.53 204.38 283.72 172.7 283.71 153.1 364.53"/><path class="cls-2" d="M144.07,219.88V234.7H138.8v36.84h70.75v12.62h-5.17v80.38H5.92v-48.2H2.46V303.78h69.9V234.7H68V219.88h76.12m2.46-2.46h-81v19.75H69.9v64.16H0v17.47H3.46V367H206.84V286.62H212V269.07H141.26V237.16h5.27V217.41Z"/></g></g></svg>