<svg xmlns="http://www.w3.org/2000/svg" viewBox="0 0 191.2 343.73"><defs><style>.cls-1{fill:#fff;}.cls-2{fill:#199bd7;}.cls-3{fill:#27aae1;}.cls-4{fill:#9adbf8;}.cls-5{fill:#a4def2;}.cls-6{fill:#1b85c7;}.cls-7{fill:#0a69b3;}.cls-8{fill:#72c8f1;}.cls-9{fill:#be1e2d;}.cls-10{fill:#ef484a;}.cls-11{fill:#ffc729;}.cls-12{fill:#fae51e;}.cls-13{fill:#3bb54a;}.cls-14{fill:#8dc640;}</style></defs><title>input</title><g id="Layer_2" data-name="Layer 2"><g id="Layer_7" data-name="Layer 7"><path class="cls-1" d="M138.49,3.07l22.83,15.39V37l1.37.51,9.92-7.77,8.28,10.56-7.54,5.91,3.29,11.12h11.48V72.44H177.72L174.4,85.74l7.5,3.88-6.17,11.92-7.58-3.93-6.82,2.64v22.94l-21.11,13.91v16.74h1.7v3.87h-1.7v16.79h1.7v3.87h-1.7v14.28H38.41V178.38h-1.7v-3.87h1.7V157.72h-1.7v-3.87h1.7V137.78h-.16L27.49,126.05,17.24,110.68l-1-74.3,5.6-13.69h0l3.62-8.86L35.25,3.07H138.49M139.43,0H33.89L33,1,23.16,11.76l-.37.4-.21.5L19,21.53l-5.6,13.69-.24.58v.63l1,74.3v.91l.5.76,10.25,15.37.13.2.16.18,10.11,11v11.62h-1.7v10h1.7v10.64h-1.7v10h1.7v14.28h108V181.46H145v-10h-1.7V160.8H145v-10h-1.7v-12l19.73-13,1.38-.91V102.36L168,101l6.35,3.29,2.73,1.41,1.41-2.73L184.63,91,186,88.3l-2.73-1.41L178,84.12l2.15-8.61H191.2V54.23H178.94l-2-6.91,5.9-4.62,2.42-1.9-1.9-2.42L175,27.81l-1.9-2.42-2.42,1.89-6.32,4.95V16.83L163,15.91,140.21.52,139.43,0Z"/><path class="cls-2" d="M89.76,228a23.31,23.31,0,1,1,23.31-23.31A23.33,23.33,0,0,1,89.76,228Z"/><path class="cls-1" d="M89.76,182.88A21.77,21.77,0,1,1,68,204.65a21.77,21.77,0,0,1,21.77-21.77m0-3.07a24.85,24.85,0,1,0,24.85,24.85,24.87,24.87,0,0,0-24.85-24.85Z"/><path class="cls-3" d="M87.51,183a21.77,21.77,0,0,0-4.36,42.4Z"/><path class="cls-2" d="M94.88,317.63a23.31,23.31,0,1,1,23.31-23.31A23.33,23.33,0,0,1,94.88,317.63Z"/><path class="cls-1" d="M94.88,272.55a21.77,21.77,0,1,1-21.77,21.77,21.77,21.77,0,0,1,21.77-21.77m0-3.07a24.85,24.85,0,1,0,24.85,24.85,24.87,24.87,0,0,0-24.85-24.85Z"/><path class="cls-3" d="M92.63,272.67a21.77,21.77,0,0,0-4.36,42.4Z"/><rect class="cls-2" x="31.14" y="230.38" width="39.63" height="39.63" transform="translate(-54.49 17.65) rotate(-12.88)"/><path class="cls-1" d="M64.7,228.3l8.15,35.64-35.64,8.15-8.15-35.64L64.7,228.3M67,224.62l-3,.69-35.64,8.15-3,.69.69,3,8.15,35.64.69,3,3-.69,35.64-8.15,3-.69-.69-3L67.7,227.62l-.69-3Z"/><polygon class="cls-3" points="63.97 228.47 29.06 236.45 37.21 272.09 60.02 266.88 63.97 228.47"/><rect class="cls-2" x="136.7" y="292.38" width="39.63" height="39.63" transform="translate(-181.44 224.15) rotate(-48.77)"/><path class="cls-1" d="M154.81,286.4l27.5,24.09L158.22,338l-27.5-24.09,24.09-27.5m-.29-4.34-2,2.31-24.09,27.5-2,2.31,2.31,2,27.5,24.09,2.31,2,2-2.31,24.09-27.5,2-2.31-2.31-2-27.5-24.09-2.31-2Z"/><polygon class="cls-3" points="154.32 286.97 130.72 313.9 158.22 338 173.64 320.4 154.32 286.97"/><polygon class="cls-2" points="98.19 245.41 144.67 215.59 148.22 271.25 98.19 245.41"/><path class="cls-1" d="M143.3,218.3l3.21,50.34-45.25-23.37,42-27m2.74-5.41-4.4,2.82-42,27-4.48,2.88L99.85,248l45.25,23.37,4.82,2.49-.35-5.42-3.21-50.34-.33-5.21Z"/><polygon class="cls-3" points="128.97 259.58 132.5 225.23 101.26 245.27 128.97 259.58"/><polygon class="cls-2" points="2.8 296.58 58.03 288.84 36.05 340.68 2.8 296.58"/><path class="cls-1" d="M55.55,290.74,35.67,337.63,5.6,297.74l50-7m5-3.8-5.38.75-50,7L0,295.43l3.14,4.17,30.07,39.89,3.21,4.25,2.08-4.9,19.88-46.89,2.12-5Z"/><polygon class="cls-3" points="47.85 308.92 13.32 307.99 35.67 337.63 47.85 308.92"/><rect class="cls-4" x="38.41" y="133.62" width="101.81" height="59.04"/><polygon class="cls-5" points="188.13 72.44 188.13 57.3 176.65 57.3 173.35 46.18 180.89 40.27 172.61 29.71 162.69 37.47 141.78 29.63 114.58 40.88 106.14 67.14 114.58 96.2 142.71 107.46 168.14 97.61 175.72 101.54 181.9 89.62 174.4 85.74 177.72 72.44 188.13 72.44"/><polygon class="cls-3" points="138.49 3.07 35.25 3.07 25.44 13.84 16.21 36.38 17.24 110.68 27.48 126.05 38.25 137.78 139.49 137.59 161.32 123.19 161.32 116.74 161.32 37.65 161.32 18.46 138.49 3.07"/><polygon class="cls-2" points="138.49 3.07 35.25 3.07 25.44 13.84 21.81 22.69 137.54 137.59 139.49 137.59 161.32 123.19 161.32 116.74 161.32 37.65 161.32 18.46 138.49 3.07"/><path class="cls-6" d="M90.27,123.21,53.09,108.34l-11-38L53.15,35.73,89.1,20.86l39.49,14.81,9.92,33.47-9.8,39.19ZM60.46,101.66l29.87,11.95,30.84-11.94,8.08-32.33-8-26.87-32-12L60.39,42.41l-9,28Z"/><polygon class="cls-7" points="128.59 35.67 89.1 20.86 53.16 35.73 48.78 49.58 55.85 56.56 57.4 51.73 60.39 42.41 89.26 30.46 121.29 42.47 129.25 69.34 121.17 101.67 111.48 105.42 107.04 107.19 113.83 114.17 128.71 108.33 138.51 69.14 128.59 35.67"/><rect class="cls-8" x="36.71" y="153.85" width="105.2" height="3.87"/><rect class="cls-8" x="36.71" y="174.51" width="105.2" height="3.87"/><path class="cls-1" d="M138.49,3.07l22.83,15.39V37l1.37.51,9.92-7.77,8.28,10.56-7.54,5.91,3.29,11.12h11.48V72.44H177.72L174.4,85.74l7.5,3.88-6.17,11.92-7.58-3.93-6.82,2.64v22.94l-21.11,13.91v16.74h1.7v3.87h-1.7v16.79h1.7v3.87h-1.7v14.28H38.41V178.38h-1.7v-3.87h1.7V157.72h-1.7v-3.87h1.7V137.78h-.16L27.49,126.05,17.24,110.68l-1-74.3,5.6-13.69h0l3.62-8.86L35.25,3.07H138.49M139.43,0H33.89L33,1,23.16,11.76l-.37.4-.21.5L19,21.53l-5.6,13.69-.24.58v.63l1,74.3v.91l.5.76,10.25,15.37.13.2.16.18,10.11,11v11.62h-1.7v10h1.7v10.64h-1.7v10h1.7v14.28h108V181.46H145v-10h-1.7V160.8H145v-10h-1.7v-12l19.73-13,1.38-.91V102.36L168,101l6.35,3.29,2.73,1.41,1.41-2.73L184.63,91,186,88.3l-2.73-1.41L178,84.12l2.15-8.61H191.2V54.23H178.94l-2-6.91,5.9-4.62,2.42-1.9-1.9-2.42L175,27.81l-1.9-2.42-2.42,1.89-6.32,4.95V16.83L163,15.91,140.21.52,139.43,0Z"/><path class="cls-9" d="M89.76,227.25a22.6,22.6,0,1,1,22.6-22.6A22.62,22.62,0,0,1,89.76,227.25Z"/><path class="cls-1" d="M89.76,182.88A21.77,21.77,0,1,1,68,204.65a21.77,21.77,0,0,1,21.77-21.77m0-1.66a23.43,23.43,0,1,0,23.43,23.43,23.45,23.45,0,0,0-23.43-23.43Z"/><path class="cls-10" d="M87.51,183a21.77,21.77,0,0,0-4.36,42.4Z"/><path class="cls-2" d="M94.88,317.63a23.31,23.31,0,1,1,23.31-23.31A23.33,23.33,0,0,1,94.88,317.63Z"/><path class="cls-1" d="M94.88,272.55a21.77,21.77,0,1,1-21.77,21.77,21.77,21.77,0,0,1,21.77-21.77m0-3.07a24.85,24.85,0,1,0,24.85,24.85,24.87,24.87,0,0,0-24.85-24.85Z"/><path class="cls-3" d="M92.63,272.67a21.77,21.77,0,0,0-4.36,42.4Z"/><rect class="cls-11" x="31.53" y="230.77" width="38.87" height="38.87" transform="translate(-54.49 17.65) rotate(-12.88)"/><path class="cls-1" d="M64.7,228.3l8.15,35.64-35.64,8.15-8.15-35.64L64.7,228.3m1.73-2.76-2.25.51L28.55,234.2l-2.25.51.51,2.25L35,272.61l.51,2.25,2.25-.51,35.64-8.15,2.25-.51-.51-2.25L67,227.79l-.51-2.25Z"/><polygon class="cls-12" points="63.97 228.47 29.06 236.45 37.21 272.09 60.02 266.88 63.97 228.47"/><rect class="cls-11" x="137.08" y="292.77" width="38.86" height="38.87" transform="translate(-181.44 224.16) rotate(-48.77)"/><path class="cls-1" d="M154.81,286.4l27.5,24.09L158.22,338l-27.5-24.09,24.09-27.5m-.21-3.25-1.52,1.73L129,312.38l-1.52,1.73,1.73,1.52,27.5,24.09,1.73,1.52,1.52-1.73L184,312l1.52-1.73-1.73-1.52-27.5-24.09-1.73-1.52Z"/><polygon class="cls-12" points="154.32 286.97 130.72 313.9 158.22 338 173.64 320.4 154.32 286.97"/><polygon class="cls-13" points="146.51 268.64 143.31 218.3 101.26 245.27 146.51 268.64"/><polygon class="cls-14" points="128.97 259.58 132.5 225.23 101.26 245.27 128.97 259.58"/><polygon class="cls-10" points="55.55 290.74 5.6 297.75 35.67 337.63 55.55 290.74"/><polygon class="cls-9" points="47.85 308.92 13.32 307.99 35.67 337.63 47.85 308.92"/><rect class="cls-4" x="38.41" y="133.62" width="101.81" height="59.04"/><polygon class="cls-5" points="188.13 72.44 188.13 57.3 176.65 57.3 173.35 46.18 180.89 40.27 172.61 29.71 162.69 37.47 141.78 29.63 114.58 40.88 106.14 67.14 114.58 96.2 142.71 107.46 168.14 97.61 175.72 101.54 181.9 89.62 174.4 85.74 177.72 72.44 188.13 72.44"/><polygon class="cls-3" points="138.49 3.07 35.25 3.07 25.44 13.84 16.21 36.38 17.24 110.68 27.48 126.05 38.25 137.78 139.49 137.59 161.32 123.19 161.32 116.74 161.32 37.65 161.32 18.46 138.49 3.07"/><polygon class="cls-2" points="138.49 3.07 35.25 3.07 25.44 13.84 21.81 22.69 137.54 137.59 139.49 137.59 161.32 123.19 161.32 116.74 161.32 37.65 161.32 18.46 138.49 3.07"/><path class="cls-6" d="M90.27,123.21,53.09,108.34l-11-38L53.15,35.73,89.1,20.86l39.49,14.81,9.92,33.47-9.8,39.19ZM60.46,101.66l29.87,11.95,30.84-11.94,8.08-32.33-8-26.87-32-12L60.39,42.41l-9,28Z"/><polygon class="cls-7" points="128.59 35.67 89.1 20.86 53.16 35.73 48.78 49.58 55.85 56.56 57.4 51.73 60.39 42.41 89.26 30.46 121.29 42.47 129.25 69.34 121.17 101.67 111.48 105.42 107.04 107.19 113.83 114.17 128.71 108.33 138.51 69.14 128.59 35.67"/><rect class="cls-8" x="36.71" y="153.85" width="105.2" height="3.87"/><rect class="cls-8" x="36.71" y="174.51" width="105.2" height="3.87"/></g></g></svg>