<svg xmlns="http://www.w3.org/2000/svg" viewBox="0 0 288.84 353.67"><defs><style>.cls-1{fill:#26a9e1;}.cls-2{fill:#9bdbf8;}.cls-3{fill:#fff200;}.cls-4{fill:#fff;}.cls-5{fill:#0b6ab3;}.cls-6{fill:#2b3990;}.cls-7{fill:#0a88ca;}.cls-8{fill:#3ec5f3;}</style></defs><title>intellection</title><g id="Layer_2" data-name="Layer 2"><g id="Layer_7" data-name="Layer 7"><polygon class="cls-1" points="140.38 78.91 139.63 76.24 140.86 70.25 155.65 68.4 205.53 89.17 204.28 92.34 199.54 97.28 193.85 99.01 140.38 78.91"/><polygon class="cls-1" points="75.15 102.53 73.65 96.17 77.15 89.15 81.78 92.34 205.03 124.68 207.03 129.44 199.02 135.32 199.65 133.63 75.15 102.53"/><polygon class="cls-1" points="76.03 138.44 74.53 132.08 78.03 125.06 82.66 128.25 205.9 160.59 207.9 165.34 199.9 171.23 200.52 169.54 76.03 138.44"/><polygon class="cls-2" points="152.96 83.75 158.46 76.3 155.92 68.48 147.79 66.25 78.8 86.61 72.98 94.84 75.15 102.51 84.14 104.66 152.96 83.75"/><polygon class="cls-1" points="209.53 201.19 201.07 195.05 82.41 163.91 77.78 160.72 74.28 167.74 75.78 174.1 184.26 201.2 165.95 209.32 165.61 237.48 184.38 237.48 184.43 218.86 206.49 208.64 209.53 201.19"/><polygon class="cls-1" points="101.68 216.64 76.78 210.01 76.65 201.4 82.41 194.27 87.98 198 120.57 208.91 120.57 237.69 101.8 237.69 101.68 216.64"/><polygon class="cls-2" points="204.84 104.54 208.78 96.15 205.53 89.15 197.83 88.02 79.37 122.58 73.9 129.75 76.22 138.51 84.7 140.63 204.84 104.54"/><polygon class="cls-2" points="204.34 140.07 208.28 131.69 205.03 124.68 197.33 123.56 78.87 158.11 73.4 165.28 75.72 174.04 84.2 176.16 204.34 140.07"/><polygon class="cls-2" points="205.34 176.1 209.28 167.72 206.03 160.72 198.33 159.59 79.87 194.15 74.4 201.32 76.72 210.07 85.2 212.19 205.34 176.1"/><rect class="cls-3" x="17.1" y="68.06" width="10.51" height="41.04" transform="translate(-68.47 78.7) rotate(-69.62)"/><path class="cls-4" d="M5.54,77.8,42.13,91.39l-3,8L2.57,85.78l3-8M4.36,75.23l-.7,1.88-3,8L0,87l1.88.7,36.59,13.59,1.88.7.7-1.88,3-8,.7-1.88-1.88-.7L6.23,75.92l-1.88-.7Z"/><rect class="cls-3" x="69.65" y="18.52" width="10.51" height="41.04" transform="translate(-9.53 36.65) rotate(-25.91)"/><path class="cls-4" d="M70.2,19.62,87.26,54.74,79.6,58.45,62.55,23.34l7.65-3.72m.93-2.68-1.8.87-7.65,3.72-1.8.87.87,1.8L77.8,59.33l.87,1.8,1.8-.87,7.65-3.72,1.8-.87-.87-1.8L72,18.75l-.87-1.8Z"/><rect class="cls-3" x="138.21" y="1" width="10.51" height="41.04"/><path class="cls-4" d="M147.72,2V41h-8.51V2h8.51m2-2H137.21V43h12.51V0Z"/><rect class="cls-3" x="245.97" y="83.33" width="41.04" height="10.51" transform="translate(-14.17 98.34) rotate(-20.38)"/><path class="cls-4" d="M283.3,77.8l3,8L249.67,99.37l-3-8L283.3,77.8m1.18-2.57-1.88.7L246,89.52l-1.88.7.7,1.88,3,8,.7,1.88,1.88-.7L287,87.65l1.88-.7-.7-1.88-3-8-.7-1.88Z"/><rect class="cls-3" x="193.42" y="33.78" width="41.04" height="10.51" transform="translate(85.36 214.43) rotate(-64.1)"/><path class="cls-4" d="M218.64,19.62l7.65,3.72L209.24,58.45l-7.65-3.72,17.05-35.12m-.93-2.68-.87,1.8L199.78,53.86l-.87,1.8,1.8.87,7.65,3.72,1.8.87.87-1.8,17.05-35.12.87-1.8-1.8-.87-7.65-3.72-1.8-.87Z"/><path class="cls-4" d="M147.79,66.25l7.83,2.15h0l.06,0,.21.06v0l49.52,20.62h.08l3.25,7-3.94,8.38-35.7,10.73L205,124.68l3.25,7-3.94,8.38L168.61,150.8l37.29,9.79,0,.11H206l3.25,7-3.94,8.38-35.64,10.71L201.07,195l8.46,6.14-3,7.44-22.06,10.23,0,16h17.39v38.62l-1.6,1.82h-1.4L167.52,295.5h.16v6.19h-.13v3.78h.52l1.46,1.27-1.59,1.7-.39.07v8.29h.52l1.46,1.27-1.59,1.7-.39.07v13.62l2.21.41,1.22,1.5-1.86,1.4-4,.07-8.7,9.13-5.41,5.67H132L126.43,346h0l-8.25-8.35h-.79l-3.55-.83-.78-1.79,1.89-.83v-4.84l-1.46-.08-1.08-1.63,2.25-1.5.28-.05V318l-1.46-.08-1.08-1.63,2.25-1.5.28-.05V301.69h-.17V295.5h.07l-28-20.22H85.57l-1.41-1.82V234.84h17.62l-.11-18.2-20.15-5.37-4.81-1.2-2.31-8.76,5.47-7.17L115,183.9,75.78,174.1v0h-.05l-2.31-8.76,5.47-7.17,35-10.21-29.15-7.28h0l-8.49-2.12v0l-.18,0-1.43-6.06-.7-2.63,5.47-7.17,35.07-10.23-39.29-9.81,0-.13L73,94.84l5.82-8.24,69-20.36m-12.71,40.08,44-12.85L153,83.66l-.06.09L104.8,98.38l30.28,7.95m-.53,35.54,45.24-13.2-30.19-7.54-43.86,13.18,28.81,7.56m1.09,36L181,164.65l-31.92-8-43.91,13.19,30.5,8m-15.07,57h45.07l.31-25.52,18.31-8.13-34.1-8.52L109,205l11.55,3.87v25.93m27.2-170.67-.55.16-69,20.36-.67.2-.4.57-5.82,8.24-.55.78.26.92,2.13,7.53,0,.08.28,1.19,1.18.3,32.11,8-28,8.16-.63.18-.4.52-5.47,7.17-.59.78.25.95.69,2.61,1.43,6,.28,1.19.22.06,1.15.3,8.49,2.12.54.13h0L106.22,148l-27.91,8.14-.63.18-.4.52-5.47,7.17-.59.78.25.95,2.31,8.76.3,1.14h0v0l1.18.3,32,8-28,8.18-.63.18-.4.52-5.47,7.17-.59.78.25.95,2.31,8.76.3,1.14,1.15.29,4.81,1.2,18.64,5,.09,14.65H82.16v41.31l.42.54L84,276.51l.6.77h1.6l26.57,19.19v7.22h.17v9.85l-1.64,1.1-1.66,1.11,1.1,1.66,1.08,1.63.55.84.57,0v5L111.3,326l-1.66,1.11,1.1,1.66,1.08,1.63.55.84.57,0v1.65l-.69.31-1.83.81.8,1.83.78,1.79.4.92,1,.23,3.55.83.24.06h.19L125,347.4l5.61,5.67.59.59h20.71l.59-.62,5.41-5.67,8.13-8.52,3.11-.05h.65l.52-.39,1.86-1.4,1.66-1.25-1.31-1.61-1.22-1.5-.46-.57-.72-.13-.57-.11V321l1.44-1.54,1.42-1.52-1.57-1.36-1.3-1.13v-5.8l1.44-1.54,1.42-1.52-1.57-1.36-1.3-1.13v-.42h.13v-7.21l29.67-19.2h1.71l.6-.68,1.6-1.82.5-.57V232.84H186.39l0-12.69,20.9-9.69.71-.33.3-.73,3-7.44.59-1.45-1.27-.92-8.46-6.14-.3-.22-.36-.1-24.5-6.43L205.91,178l.86-.26.38-.81,3.94-8.38.4-.85-.39-.85-3.25-7-.46-1-.16,0-.82-.21-30.41-8L204.91,142l.86-.26.38-.81,3.94-8.38.4-.85-.39-.85-3.25-7-.4-.85-.91-.24-29-7.61,28.89-8.68.86-.26.38-.81L210.59,97l.4-.85-.39-.85-3.25-7-.46-1-.9-.13L157.55,67l0-.15-1.05-.32-.09,0-.44-.18-.15,0-7.45-2-.55-.15ZM112.15,98.24l40.9-12.43,19.75,7.42-37.75,11-22.9-6Zm1,35.94,36.52-11,22.48,5.61-37.61,11-21.39-5.61Zm-.61,35.57,36.57-11,24.21,6-37.7,11-23.08-6.06Zm3.1,35.4,34.58-10.39,27.92,7-13,5.76L164,208l0,1.28-.28,23.54H122.57V207.47l-1.37-.46-5.57-1.86Z"/><polygon class="cls-5" points="84.16 234.84 84.16 273.46 84.33 273.46 114.84 295.5 167.52 295.5 201.58 273.46 201.77 273.46 201.77 234.84 84.16 234.84"/><rect class="cls-6" x="114.77" y="295.5" width="52.92" height="6.19"/><polygon class="cls-6" points="84.16 271.98 84.16 273.46 85.58 275.28 200.17 275.28 201.77 273.46 201.77 271.98 84.16 271.98"/><polygon class="cls-1" points="114.94 301.31 114.94 334.74 115.31 334.74 132.04 351.67 151.06 351.67 167.21 334.74 167.56 334.74 167.56 301.31 114.94 301.31"/><polygon class="cls-5" points="167.95 308.45 169.54 306.75 168.08 305.48 164.79 305.44 114.66 314.81 112.41 316.31 113.48 317.94 117.12 318.15 167.95 308.45"/><polygon class="cls-7" points="141.72 234.84 84.16 234.84 84.16 273.46 84.33 273.46 114.84 295.5 141.72 295.5 141.72 234.84"/><polygon class="cls-5" points="141.72 271.98 84.16 271.98 84.16 273.46 85.58 275.28 141.72 275.28 141.72 271.98"/><polygon class="cls-8" points="141.72 301.31 114.94 301.31 114.94 334.74 115.31 334.74 132.04 351.67 141.72 351.67 141.72 301.31"/><rect class="cls-5" x="114.77" y="295.5" width="26.95" height="5.82"/></g></g></svg>