<svg xmlns="http://www.w3.org/2000/svg" viewBox="0 0 425.09 288.03"><defs><style>.cls-1{fill:#fff;}.cls-2{fill:#1b85c7;}.cls-3{fill:#0a69b3;}.cls-4{fill:#27aae1;}.cls-5{fill:#b4e3f8;}.cls-6{fill:#9adbf8;}.cls-7{fill:#77d2f7;}.cls-8{opacity:0.75;}.cls-10,.cls-9{fill:none;stroke:#27aae1;stroke-miterlimit:10;}.cls-9{stroke-width:0.5px;}.cls-10{stroke-width:1.38px;}</style></defs><title>learner</title><g id="Layer_2" data-name="Layer 2"><g id="Layer_7" data-name="Layer 7"><rect class="cls-1" x="67.23" y="94.8" width="78.76" height="0.36" transform="translate(11.64 201.59) rotate(-90)"/><rect class="cls-1" x="110.54" y="94.8" width="78.76" height="0.36" transform="translate(54.94 244.9) rotate(-90)"/><polygon class="cls-1" points="194.01 134.13 193.99 134.13 193.99 55.6 193.63 55.6 193.63 55.61 65.67 55.61 65.67 55.6 65.31 55.6 65.31 134.36 65.67 134.36 65.67 55.83 193.63 55.83 193.63 134.13 65.69 134.13 65.69 134.35 193.63 134.35 193.63 134.36 193.99 134.36 193.99 134.35 194.01 134.35 194.01 134.13"/><rect class="cls-1" x="65.69" y="109.11" width="128.32" height="0.22"/><rect class="cls-1" x="65.69" y="80.44" width="128.32" height="0.22"/><rect class="cls-1" x="65.69" y="75.4" width="3.69" height="0.26"/><rect class="cls-1" x="65.69" y="70.52" width="3.69" height="0.26"/><rect class="cls-1" x="65.69" y="65.64" width="3.69" height="0.26"/><rect class="cls-1" x="65.69" y="60.76" width="3.69" height="0.26"/><rect class="cls-1" x="104.65" y="75.4" width="3.69" height="0.26" transform="translate(212.99 151.06) rotate(-180)"/><rect class="cls-1" x="104.65" y="70.52" width="3.69" height="0.26" transform="translate(212.99 141.3) rotate(-180)"/><rect class="cls-1" x="104.65" y="65.64" width="3.69" height="0.26" transform="translate(212.99 131.54) rotate(-180)"/><rect class="cls-1" x="104.65" y="60.76" width="3.69" height="0.26" transform="translate(212.99 121.78) rotate(-180)"/><rect class="cls-1" x="148.19" y="75.4" width="3.69" height="0.26" transform="translate(300.06 151.06) rotate(-180)"/><rect class="cls-1" x="148.19" y="70.52" width="3.69" height="0.26" transform="translate(300.06 141.3) rotate(-180)"/><rect class="cls-1" x="148.19" y="65.64" width="3.69" height="0.26" transform="translate(300.06 131.54) rotate(-180)"/><rect class="cls-1" x="148.19" y="60.76" width="3.69" height="0.26" transform="translate(300.06 121.78) rotate(-180)"/><rect class="cls-1" x="189.93" y="75.4" width="3.69" height="0.26" transform="translate(383.56 151.06) rotate(-180)"/><rect class="cls-1" x="189.93" y="70.52" width="3.69" height="0.26" transform="translate(383.56 141.3) rotate(-180)"/><rect class="cls-1" x="189.93" y="65.64" width="3.69" height="0.26" transform="translate(383.56 131.54) rotate(-180)"/><rect class="cls-1" x="189.93" y="60.76" width="3.69" height="0.26" transform="translate(383.56 121.78) rotate(-180)"/><rect class="cls-1" x="104.65" y="102.25" width="3.69" height="0.26" transform="translate(212.99 204.75) rotate(-180)"/><rect class="cls-1" x="104.65" y="97.37" width="3.69" height="0.26" transform="translate(212.99 194.99) rotate(-180)"/><rect class="cls-1" x="104.65" y="92.48" width="3.69" height="0.26" transform="translate(212.99 185.23) rotate(-180)"/><rect class="cls-1" x="104.65" y="87.6" width="3.69" height="0.26" transform="translate(212.99 175.47) rotate(-180)"/><rect class="cls-1" x="148.19" y="102.25" width="3.69" height="0.26" transform="translate(300.06 204.75) rotate(-180)"/><rect class="cls-1" x="148.19" y="97.37" width="3.69" height="0.26" transform="translate(300.06 194.99) rotate(-180)"/><rect class="cls-1" x="148.19" y="92.48" width="3.69" height="0.26" transform="translate(300.06 185.23) rotate(-180)"/><rect class="cls-1" x="148.19" y="87.6" width="3.69" height="0.26" transform="translate(300.06 175.47) rotate(-180)"/><rect class="cls-1" x="148.19" y="129.09" width="3.69" height="0.26" transform="translate(300.06 258.44) rotate(-180)"/><rect class="cls-1" x="148.19" y="124.21" width="3.69" height="0.26" transform="translate(300.06 248.68) rotate(-180)"/><rect class="cls-1" x="148.19" y="119.33" width="3.69" height="0.26" transform="translate(300.06 238.92) rotate(-180)"/><rect class="cls-1" x="148.19" y="114.45" width="3.69" height="0.26" transform="translate(300.06 229.16) rotate(-180)"/><rect class="cls-1" x="104.65" y="129.09" width="3.69" height="0.26" transform="translate(212.99 258.44) rotate(-180)"/><rect class="cls-1" x="104.65" y="124.21" width="3.69" height="0.26" transform="translate(212.99 248.68) rotate(-180)"/><rect class="cls-1" x="104.65" y="119.33" width="3.69" height="0.26" transform="translate(212.99 238.92) rotate(-180)"/><rect class="cls-1" x="104.65" y="114.45" width="3.69" height="0.26" transform="translate(212.99 229.16) rotate(-180)"/><rect class="cls-1" x="65.69" y="102.25" width="3.69" height="0.26"/><rect class="cls-1" x="65.69" y="97.37" width="3.69" height="0.26"/><rect class="cls-1" x="65.69" y="92.48" width="3.69" height="0.26"/><rect class="cls-1" x="65.69" y="87.6" width="3.69" height="0.26"/><rect class="cls-1" x="65.69" y="129.09" width="3.69" height="0.26"/><rect class="cls-1" x="65.69" y="124.21" width="3.69" height="0.26"/><rect class="cls-1" x="65.69" y="119.33" width="3.69" height="0.26"/><rect class="cls-1" x="65.69" y="114.45" width="3.69" height="0.26"/><rect class="cls-1" x="189.93" y="102" width="3.69" height="0.26" transform="translate(383.56 204.26) rotate(-180)"/><rect class="cls-1" x="189.93" y="97.12" width="3.69" height="0.26" transform="translate(383.56 194.5) rotate(-180)"/><rect class="cls-1" x="189.93" y="92.24" width="3.69" height="0.26" transform="translate(383.56 184.74) rotate(-180)"/><rect class="cls-1" x="189.93" y="87.36" width="3.69" height="0.26" transform="translate(383.56 174.98) rotate(-180)"/><rect class="cls-1" x="189.93" y="128.85" width="3.69" height="0.26" transform="translate(383.56 257.95) rotate(-180)"/><rect class="cls-1" x="189.93" y="123.97" width="3.69" height="0.26" transform="translate(383.56 248.19) rotate(-180)"/><rect class="cls-1" x="189.93" y="119.09" width="3.69" height="0.26" transform="translate(383.56 238.43) rotate(-180)"/><rect class="cls-1" x="189.93" y="114.2" width="3.69" height="0.26" transform="translate(383.56 228.67) rotate(-180)"/><rect class="cls-1" x="96.63" y="80.43" width="2.26" height="0.42" transform="translate(178.41 -17.12) rotate(90)"/><rect class="cls-1" x="88.68" y="80.43" width="2.26" height="0.42" transform="translate(170.46 -9.17) rotate(90)"/><rect class="cls-1" x="80.73" y="80.43" width="2.26" height="0.42" transform="translate(162.51 -1.22) rotate(90)"/><rect class="cls-1" x="72.78" y="80.43" width="2.26" height="0.42" transform="translate(154.56 6.73) rotate(90)"/><rect class="cls-1" x="139.18" y="80.43" width="2.26" height="0.42" transform="translate(220.95 -59.66) rotate(90)"/><rect class="cls-1" x="131.22" y="80.43" width="2.26" height="0.42" transform="translate(213 -51.71) rotate(90)"/><rect class="cls-1" x="123.27" y="80.43" width="2.26" height="0.42" transform="translate(205.05 -43.76) rotate(90)"/><rect class="cls-1" x="115.32" y="80.43" width="2.26" height="0.42" transform="translate(197.1 -35.81) rotate(90)"/><rect class="cls-1" x="182.31" y="80.43" width="2.26" height="0.42" transform="translate(264.09 -102.8) rotate(90)"/><rect class="cls-1" x="174.36" y="80.43" width="2.26" height="0.42" transform="translate(256.14 -94.85) rotate(90)"/><rect class="cls-1" x="166.41" y="80.43" width="2.26" height="0.42" transform="translate(248.19 -86.9) rotate(90)"/><rect class="cls-1" x="158.46" y="80.43" width="2.26" height="0.42" transform="translate(240.24 -78.94) rotate(90)"/><rect class="cls-1" x="96.63" y="108.99" width="2.26" height="0.42" transform="translate(206.97 11.43) rotate(90)"/><rect class="cls-1" x="88.68" y="108.99" width="2.26" height="0.42" transform="translate(199.01 19.38) rotate(90)"/><rect class="cls-1" x="80.73" y="108.99" width="2.26" height="0.42" transform="translate(191.06 27.34) rotate(90)"/><rect class="cls-1" x="72.78" y="108.99" width="2.26" height="0.42" transform="translate(183.11 35.29) rotate(90)"/><rect class="cls-1" x="139.18" y="108.99" width="2.26" height="0.42" transform="translate(249.51 -31.11) rotate(90)"/><rect class="cls-1" x="131.22" y="108.99" width="2.26" height="0.42" transform="translate(241.56 -23.16) rotate(90)"/><rect class="cls-1" x="123.27" y="108.99" width="2.26" height="0.42" transform="translate(233.6 -15.21) rotate(90)"/><rect class="cls-1" x="115.32" y="108.99" width="2.26" height="0.42" transform="translate(225.65 -7.25) rotate(90)"/><rect class="cls-1" x="182.31" y="108.99" width="2.26" height="0.42" transform="translate(292.64 -74.25) rotate(90)"/><rect class="cls-1" x="174.36" y="108.99" width="2.26" height="0.42" transform="translate(284.69 -66.29) rotate(90)"/><rect class="cls-1" x="166.41" y="108.99" width="2.26" height="0.42" transform="translate(276.74 -58.34) rotate(90)"/><rect class="cls-1" x="158.46" y="108.99" width="2.26" height="0.42" transform="translate(268.79 -50.39) rotate(90)"/><rect class="cls-1" x="96.63" y="56.76" width="2.26" height="0.42" transform="translate(154.74 -40.79) rotate(90)"/><rect class="cls-1" x="88.68" y="56.76" width="2.26" height="0.42" transform="translate(146.79 -32.84) rotate(90)"/><rect class="cls-1" x="80.73" y="56.76" width="2.26" height="0.42" transform="translate(138.84 -24.89) rotate(90)"/><rect class="cls-1" x="72.78" y="56.76" width="2.26" height="0.42" transform="translate(130.88 -16.94) rotate(90)"/><rect class="cls-1" x="139.18" y="56.76" width="2.26" height="0.42" transform="translate(197.28 -83.33) rotate(90)"/><rect class="cls-1" x="131.22" y="56.76" width="2.26" height="0.42" transform="translate(189.33 -75.38) rotate(90)"/><rect class="cls-1" x="123.27" y="56.76" width="2.26" height="0.42" transform="translate(181.38 -67.43) rotate(90)"/><rect class="cls-1" x="115.32" y="56.76" width="2.26" height="0.42" transform="translate(173.43 -59.48) rotate(90)"/><rect class="cls-1" x="182.31" y="56.76" width="2.26" height="0.42" transform="translate(240.42 -126.47) rotate(90)"/><rect class="cls-1" x="174.36" y="56.76" width="2.26" height="0.42" transform="translate(232.47 -118.52) rotate(90)"/><rect class="cls-1" x="166.41" y="56.76" width="2.26" height="0.42" transform="translate(224.51 -110.57) rotate(90)"/><rect class="cls-1" x="158.46" y="56.76" width="2.26" height="0.42" transform="translate(216.56 -102.62) rotate(90)"/><rect class="cls-1" x="96.63" y="132.78" width="2.26" height="0.42" transform="translate(230.76 35.23) rotate(90)"/><rect class="cls-1" x="88.68" y="132.78" width="2.26" height="0.42" transform="translate(222.81 43.18) rotate(90)"/><rect class="cls-1" x="80.73" y="132.78" width="2.26" height="0.42" transform="translate(214.86 51.13) rotate(90)"/><rect class="cls-1" x="72.78" y="132.78" width="2.26" height="0.42" transform="translate(206.91 59.08) rotate(90)"/><rect class="cls-1" x="139.18" y="132.78" width="2.26" height="0.42" transform="translate(273.3 -7.31) rotate(90)"/><rect class="cls-1" x="131.22" y="132.78" width="2.26" height="0.42" transform="translate(265.35 0.64) rotate(90)"/><rect class="cls-1" x="123.27" y="132.78" width="2.26" height="0.42" transform="translate(257.4 8.59) rotate(90)"/><rect class="cls-1" x="115.32" y="132.78" width="2.26" height="0.42" transform="translate(249.45 16.54) rotate(90)"/><rect class="cls-1" x="182.31" y="132.78" width="2.26" height="0.42" transform="translate(316.44 -50.45) rotate(90)"/><rect class="cls-1" x="174.36" y="132.78" width="2.26" height="0.42" transform="translate(308.49 -42.5) rotate(90)"/><rect class="cls-1" x="166.41" y="132.78" width="2.26" height="0.42" transform="translate(300.54 -34.55) rotate(90)"/><rect class="cls-1" x="158.46" y="132.78" width="2.26" height="0.42" transform="translate(292.58 -26.6) rotate(90)"/><rect class="cls-2" x="43.45" y="26.81" width="315.93" height="215.67"/><rect class="cls-3" x="200.25" y="26.81" width="159.13" height="215.67"/><rect class="cls-4" x="55.19" y="181.24" width="291.99" height="47.83"/><polygon class="cls-5" points="201.41 223.25 161.78 212.17 55.29 222.81 55.29 12.98 162.94 3.5 202.17 12.98 201.41 223.25"/><polygon class="cls-6" points="347.31 222.81 241.05 212.17 201.41 223.25 200.43 12.98 243.38 3.5 347.31 12.98 347.31 222.81"/><rect class="cls-4" x="75.95" y="180.18" width="106.79" height="3.9"/><rect class="cls-4" x="75.95" y="163.68" width="106.79" height="3.9"/><rect class="cls-4" x="75.45" y="148.08" width="39.82" height="3.99"/><rect class="cls-4" x="75.95" y="196.36" width="106.79" height="3.9"/><rect class="cls-4" x="213.72" y="25.72" width="77.4" height="3.76"/><rect class="cls-4" x="213.72" y="42.48" width="77.12" height="3.89"/><rect class="cls-4" x="213.72" y="59.49" width="77.24" height="3.77"/><rect class="cls-4" x="213.72" y="77.55" width="115.27" height="3.9"/><rect class="cls-4" x="276.72" y="96.55" width="53.31" height="3.9"/><rect class="cls-4" x="276.72" y="113.44" width="53.31" height="3.9"/><rect class="cls-4" x="276.72" y="130.32" width="53.31" height="3.9"/><rect class="cls-4" x="276.72" y="148.51" width="53.31" height="3.9"/><rect class="cls-4" x="216.84" y="170.55" width="112.85" height="3.9"/><rect class="cls-4" x="216.84" y="187.44" width="112.85" height="3.9"/><path class="cls-4" d="M93.93,31l-5.2,12.81H87.46L82.28,31V43.77h-3V26.85H83.5l4.59,11.39,4.62-11.39h4.19V43.77h-3Z"/><path class="cls-4" d="M111.23,40.53h-8L102,43.77H98.72l6.65-16.92h3.7l6.65,16.92h-3.25Zm-7.18-2.61h6.34l-3.17-8.55Z"/><path class="cls-4" d="M120.55,31.44V43.77h-3V26.85h3l8.65,12v-12h3V43.77h-2.87Z"/><path class="cls-4" d="M135.85,26.85h3V37c0,2.69,1.5,4.44,4.34,4.44s4.31-1.75,4.31-4.44V26.85h3V37.08c0,4.21-2.41,7-7.31,7s-7.33-2.82-7.33-7Z"/><path class="cls-4" d="M164.07,40.53h-8l-1.24,3.25h-3.25l6.65-16.92h3.7l6.65,16.92h-3.25Zm-7.18-2.61h6.34l-3.17-8.55Z"/><path class="cls-4" d="M170.41,26.85h3V41.16h7.46v2.61H170.41Z"/><polygon class="cls-4" points="415.01 23.2 406.6 17.7 399.63 13.12 398.8 14.4 399.91 15.13 401.91 25.31 402.04 25.4 394.15 37.44 394.19 37.47 394.65 45.17 402.13 42.67 402.18 42.7 410.08 30.64 420.11 28.63 421.26 29.38 422.21 27.92 415.01 23.2"/><polygon class="cls-7" points="394.65 45.31 397.76 39.43 406.07 28.12 408.61 19.01 403.53 15.78 403.42 26.62 396.26 38.28 394.65 45.31"/><rect class="cls-3" x="400.44" y="28.01" width="10.63" height="1.15" transform="translate(82.06 -217.74) rotate(33.24)"/><rect class="cls-3" x="398.09" y="31.6" width="10.63" height="1.15" transform="translate(24.01 -108.64) rotate(15.8)"/><rect class="cls-3" x="395.79" y="35.11" width="10.63" height="1.15" transform="translate(24.88 -107.88) rotate(15.8)"/><rect class="cls-3" x="393.73" y="38.4" width="10.63" height="1.15" transform="translate(25.7 -107.2) rotate(15.8)"/><path class="cls-1" d="M399.63,13.12l7,4.57L415,23.2l7.21,4.72-1,1.46-1.15-.75-10,2-8,12-7.48,2.5-.45-7.7L402,25.4l-.13-.09-2-10.18-1.11-.73.84-1.28m-.6-2.88L397.9,12l-.84,1.28L395.92,15l1.74,1.14.38.25,1.71,8.72-7.3,11.23-.37.57,0,.68.45,7.7.16,2.71,2.57-.86,7.48-2.5.68-.23.4-.6,7.48-11.31,8.34-1.67.44.29,1.74,1.14L423,30.52l1-1.46,1.14-1.74-1.74-1.14-7.21-4.72L407.74,16l-7-4.57L399,10.25Z"/><polygon class="cls-4" points="17.45 258.89 9.51 265.04 2.91 270.14 3.85 271.35 4.9 270.53 15.18 271.96 15.3 271.87 24.12 283.25 24.16 283.22 31.59 285.3 31.66 277.41 31.71 277.38 22.88 265.97 24.25 255.84 25.33 255 24.26 253.62 17.45 258.89"/><polygon class="cls-7" points="31.72 285.35 27.18 280.49 19.19 268.95 11.4 263.58 6.69 267.32 16.91 270.97 25.6 281.53 31.72 285.35"/><rect class="cls-3" x="14.22" y="268.81" width="10.63" height="1.15" transform="translate(-160.81 68.32) rotate(-37.74)"/><rect class="cls-3" x="16.84" y="272.2" width="10.63" height="1.15" transform="translate(-214.43 135.2) rotate(-55.18)"/><rect class="cls-3" x="19.41" y="275.53" width="10.63" height="1.15" transform="translate(-216.06 138.74) rotate(-55.18)"/><rect class="cls-3" x="21.85" y="278.54" width="10.63" height="1.15" transform="translate(-217.48 142.04) rotate(-55.18)"/><path class="cls-1" d="M24.26,253.62,25.33,255l-1.09.84L22.88,266l8.79,11.44-.08,7.89-7.43-2.08L15.3,271.86l-.12.1L4.9,270.53l-1.05.82-.93-1.21L9.51,265l7.95-6.15,6.81-5.27m.37-2.91L23,252l-6.81,5.27L8.24,263.4l-6.59,5.1L0,269.77l1.27,1.64.93,1.21,1.27,1.64L5.12,273l.36-.28,8.8,1.22,8.24,10.56.42.54.66.18L31,287.3l2.61.73,0-2.71.08-7.89v-.72l-.44-.57-8.26-10.76L26.19,257l.41-.32,1.64-1.27L27,253.73l-1.07-1.38-1.27-1.64Z"/><path class="cls-1" d="M243.38,3.5,347.31,13V26.81h12.07V242.48H43.45V26.81H55.29V13L162.94,3.5l38.4,9.28,42-9.28M163.2,0l-.57,0L55,9.53l-3.16.28V23.35H40V245.94H362.84V23.35H350.77V9.82l-3.15-.29L243.7.05l-.54,0-.53.12L201.38,9.22,163.76.13,163.2,0Z"/><path class="cls-3" d="M388.06,196.4c.38,0,19.49-17,19.27-19.36-.18-1.9-54.18-54.38-54.18-54.38L354.91,99l-12.6-16.13-15.55-6.07S310.36,79,310.22,79.52s21.6,22.88,21.93,23.76c.47,1.24-4,13-4,13s-11.56,4.34-12.53,4.1S292,98.11,292,98.11l-3.23,16.79,6.66,16.61L311,143s8,2.09,12.36,2c1.91,0,12.81-3.91,13.71-3.8C338.61,141.39,385.46,194.57,388.06,196.4Zm-1.17-12.64-.5-7.48,7.55-.36.43,7.35Z"/><path class="cls-4" d="M391.94,193.1c5.68-5.08,15.54-14.39,15.38-16.06-.18-1.9-54.18-54.38-54.18-54.38L354.91,99l-12.6-16.13-15.55-6.07s-6,.82-10.78,1.58c4.83,5.37,20.22,21.27,20.5,22,.47,1.24-4,13-4,13l-4.33,2.91s-11.56,4.34-12.53,4.1c-.74-.18-14.15-13.13-20.42-19.2L293.09,112l6.66,16.61,15.6,11.46s8,2.09,12.36,2c1.91,0,12.81-3.91,13.71-3.8C342.88,138.47,386.51,187.93,391.94,193.1Zm2.41-9.83-7.47.49-.5-7.48,7.55-.44Z"/><path class="cls-7" d="M342.31,82.84l-15.55-6.07-.78.11-2.09,9.94c5.89,6.22,12.42,13.07,12.6,13.54.47,1.24-4,13-4,13l-4.33,2.91s-8,3-11.24,3.87L313,138.36l2.31,1.69s8,2.09,12.36,2c1.24,0,6.28-1.66,9.9-2.78l10.65-48.84Z"/><path class="cls-7" d="M349.88,147c2.27,2.46,4.86,5.31,7.63,8.35l4.76-23.78-7.87-7.68Z"/><path class="cls-1" d="M326.76,76.77l15.55,6.07L354.91,99l-1.76,23.68,2.6,2.53.07.07,1.68,1.64.21.2.88.85,0,0,2.32,2.26.08.08,1.19,1.16.05,0c15.4,15.06,44.92,44.08,45.05,45.48a.7.7,0,0,1,0,.23l0,.08a2.08,2.08,0,0,1-.1.24l0,.08q-.09.17-.21.37l-.06.09-.24.35-.09.13-.34.44,0,0-.45.54-.13.15-.4.46-.13.15-.57.63-.08.09-.54.58-.18.19-.57.59-.1.11-.71.72-.17.17-.6.6-.18.18-.77.76,0,0-.75.73-.21.2-.66.64-.15.14-.81.77-.17.16-.65.62-.22.21L395.34,190l-.23.22-.58.54-.2.19-.74.68-.12.11-.6.55-.21.19-.6.54-.08.07,0,0h0a49.75,49.75,0,0,1-3.88,3.3h0c-2.6-1.83-49.45-55-51-55.2h0c-1.16,0-11.79,3.78-13.67,3.81h-.15c-4.43,0-12.21-2-12.21-2l-15.6-11.46-6.66-16.61L292,98.11l5.27,5.12h0l.83.8.18.18.9.87h0l1,.93.23.22.73.7.31.29.81.78.14.13,1,1,.12.11.87.83.28.27.72.69.29.28,1.93,1.84.21.2.73.69.25.23.77.72.13.13.84.79.2.19.61.57.24.23.58.53.17.15.67.62.14.13.47.42.18.16.39.35.14.12.44.38.06,0,.29.24.09.07.18.13.06,0,.14.08h.1a5.9,5.9,0,0,0,1.2-.24c2.22-.6,6.65-2.19,9.23-3.13l.07,0,.29-.11.07,0,.23-.09.16-.06.14-.05.54-.2h0l.49-.18s4.51-11.78,4-13c-.33-.87-21.93-23.76-21.93-23.76l16.54-2.74m.25-2.42-.64.11-16.54,2.74-4.34.72,3,3.2c7.27,7.7,18.8,20,21.25,22.89a103.76,103.76,0,0,1-3.47,10.45l0,0-.14.05-.07,0-.08,0-.06,0-.18.06-.06,0-.3.11-.07,0c-2.45.9-6.88,2.49-9,3.07l-.07,0-.33-.28-.08-.07-.05,0-.38-.33-.18-.16-.46-.41-.06-.05-.08-.08-.66-.61-.09-.09-.07-.07-.57-.53-.24-.22-.6-.56-.06-.06-.14-.13-.84-.79-.06-.05-.08-.07-.76-.72-.25-.23-.73-.69-.1-.1-.11-.11-1.93-1.84-.18-.17-.11-.1-.72-.69-.2-.2-.08-.08-.87-.83,0,0-.07-.07-1-1-.09-.09,0,0-.81-.78-.15-.14-.15-.15-.73-.7-.07-.07-.15-.14-1-.93-.91-.88-.1-.1-.08-.08-.83-.8-5.28-5.13-3.11-3-.82,4.27-3.23,16.79-.13.68.26.64,6.66,16.61.25.62.54.4,15.6,11.46.36.26.43.11c.33.09,8.12,2.12,12.8,2.12h.18c1.25,0,3.75-.76,8.78-2.33,1.42-.45,3.24-1,4.29-1.3,3.34,3.19,17,18.36,27.22,29.66,15.36,17,21.74,24,23,24.94l.61.43h.74c1,0,1.08,0,5.45-3.9l.06-.06.64-.57.2-.18.62-.56.05,0,.07-.06.75-.68.15-.14.05,0,.59-.54.24-.22,1.6-1.49.18-.17,0,0,.66-.62.07-.06.1-.09.82-.78.1-.1.05-.05.67-.64.05-.05.16-.16.76-.74,0,0,.78-.78.12-.12.06-.06.61-.61.07-.07.1-.1.72-.74.06-.07,0,0,.58-.61.19-.2.56-.6.09-.09.59-.65.1-.11,0,0,.43-.49,0,0,.1-.12.49-.59v0l0,0,.38-.5.11-.15.3-.44.07-.11c.12-.19.23-.38.31-.55l.07-.15a4.29,4.29,0,0,0,.2-.5l.07-.22a3,3,0,0,0,.1-1.06c-.11-1.18-.17-1.77-17.48-19.06-9.31-9.3-20.51-20.29-28.27-27.88l0,0-1.2-1.17-.08-.08-2.32-2.26,0,0-.12-.12-.75-.73-.21-.2-1.68-1.64-.05-.05-1.84-1.79,1.68-22.59.07-.9-.56-.71L344.15,81.4l-.4-.51-.6-.23-15.55-6.07-.6-.23Z"/><g class="cls-8"><rect class="cls-9" x="67.83" y="94.8" width="78.76" height="0.35" transform="translate(12.23 202.19) rotate(-90)"/><rect class="cls-9" x="109.56" y="94.8" width="78.76" height="0.35" transform="translate(53.96 243.92) rotate(-90)"/><polygon class="cls-9" points="191.42 134.13 191.4 134.13 191.4 55.6 191.05 55.6 191.05 55.61 67.77 55.61 67.77 55.6 67.42 55.6 67.42 134.36 67.77 134.36 67.77 55.83 191.05 55.83 191.05 134.13 67.78 134.13 67.78 134.35 191.05 134.35 191.05 134.36 191.4 134.36 191.4 134.35 191.42 134.35 191.42 134.13"/><rect class="cls-9" x="67.78" y="109.11" width="123.63" height="0.22"/><rect class="cls-9" x="67.78" y="80.44" width="123.63" height="0.22"/><rect class="cls-9" x="67.78" y="75.4" width="3.55" height="0.26"/><rect class="cls-9" x="67.78" y="70.52" width="3.55" height="0.26"/><rect class="cls-9" x="67.78" y="65.64" width="3.55" height="0.26"/><rect class="cls-9" x="67.78" y="60.76" width="3.55" height="0.26"/><rect class="cls-9" x="105.32" y="75.4" width="3.55" height="0.26" transform="translate(214.2 151.06) rotate(-180)"/><rect class="cls-9" x="105.32" y="70.52" width="3.55" height="0.26" transform="translate(214.2 141.3) rotate(-180)"/><rect class="cls-9" x="105.32" y="65.64" width="3.55" height="0.26" transform="translate(214.2 131.54) rotate(-180)"/><rect class="cls-9" x="105.32" y="60.76" width="3.55" height="0.26" transform="translate(214.2 121.78) rotate(-180)"/><rect class="cls-9" x="147.27" y="75.4" width="3.55" height="0.26" transform="translate(298.09 151.06) rotate(-180)"/><rect class="cls-9" x="147.27" y="70.52" width="3.55" height="0.26" transform="translate(298.09 141.3) rotate(-180)"/><rect class="cls-9" x="147.27" y="65.64" width="3.55" height="0.26" transform="translate(298.09 131.54) rotate(-180)"/><rect class="cls-9" x="147.27" y="60.76" width="3.55" height="0.26" transform="translate(298.09 121.78) rotate(-180)"/><rect class="cls-9" x="187.49" y="75.4" width="3.55" height="0.26" transform="translate(378.54 151.06) rotate(-180)"/><rect class="cls-9" x="187.49" y="70.52" width="3.55" height="0.26" transform="translate(378.54 141.3) rotate(-180)"/><rect class="cls-9" x="187.49" y="65.64" width="3.55" height="0.26" transform="translate(378.54 131.54) rotate(-180)"/><rect class="cls-9" x="187.49" y="60.76" width="3.55" height="0.26" transform="translate(378.54 121.78) rotate(-180)"/><rect class="cls-9" x="105.32" y="102.25" width="3.55" height="0.26" transform="translate(214.2 204.75) rotate(-180)"/><rect class="cls-9" x="105.32" y="97.37" width="3.55" height="0.26" transform="translate(214.2 194.99) rotate(-180)"/><rect class="cls-9" x="105.32" y="92.48" width="3.55" height="0.26" transform="translate(214.2 185.23) rotate(-180)"/><rect class="cls-9" x="105.32" y="87.6" width="3.55" height="0.26" transform="translate(214.2 175.47) rotate(-180)"/><rect class="cls-9" x="147.27" y="102.25" width="3.55" height="0.26" transform="translate(298.09 204.75) rotate(-180)"/><rect class="cls-9" x="147.27" y="97.37" width="3.55" height="0.26" transform="translate(298.09 194.99) rotate(-180)"/><rect class="cls-9" x="147.27" y="92.48" width="3.55" height="0.26" transform="translate(298.09 185.23) rotate(-180)"/><rect class="cls-9" x="147.27" y="87.6" width="3.55" height="0.26" transform="translate(298.09 175.47) rotate(-180)"/><rect class="cls-9" x="147.27" y="129.09" width="3.55" height="0.26" transform="translate(298.09 258.44) rotate(-180)"/><rect class="cls-9" x="147.27" y="124.21" width="3.55" height="0.26" transform="translate(298.09 248.68) rotate(-180)"/><rect class="cls-9" x="147.27" y="119.33" width="3.55" height="0.26" transform="translate(298.09 238.92) rotate(-180)"/><rect class="cls-9" x="147.27" y="114.45" width="3.55" height="0.26" transform="translate(298.09 229.16) rotate(-180)"/><rect class="cls-9" x="105.32" y="129.09" width="3.55" height="0.26" transform="translate(214.2 258.44) rotate(-180)"/><rect class="cls-9" x="105.32" y="124.21" width="3.55" height="0.26" transform="translate(214.2 248.68) rotate(-180)"/><rect class="cls-9" x="105.32" y="119.33" width="3.55" height="0.26" transform="translate(214.2 238.92) rotate(-180)"/><rect class="cls-9" x="105.32" y="114.45" width="3.55" height="0.26" transform="translate(214.2 229.16) rotate(-180)"/><rect class="cls-9" x="67.78" y="102.25" width="3.55" height="0.26"/><rect class="cls-9" x="67.78" y="97.37" width="3.55" height="0.26"/><rect class="cls-9" x="67.78" y="92.48" width="3.55" height="0.26"/><rect class="cls-9" x="67.78" y="87.6" width="3.55" height="0.26"/><rect class="cls-9" x="67.78" y="129.09" width="3.55" height="0.26"/><rect class="cls-9" x="67.78" y="124.21" width="3.55" height="0.26"/><rect class="cls-9" x="67.78" y="119.33" width="3.55" height="0.26"/><rect class="cls-9" x="67.78" y="114.45" width="3.55" height="0.26"/><rect class="cls-9" x="187.49" y="102" width="3.55" height="0.26" transform="translate(378.54 204.26) rotate(-180)"/><rect class="cls-9" x="187.49" y="97.12" width="3.55" height="0.26" transform="translate(378.54 194.5) rotate(-180)"/><rect class="cls-9" x="187.49" y="92.24" width="3.55" height="0.26" transform="translate(378.54 184.74) rotate(-180)"/><rect class="cls-9" x="187.49" y="87.36" width="3.55" height="0.26" transform="translate(378.54 174.98) rotate(-180)"/><rect class="cls-9" x="187.49" y="128.85" width="3.55" height="0.26" transform="translate(378.54 257.95) rotate(-180)"/><rect class="cls-9" x="187.49" y="123.97" width="3.55" height="0.26" transform="translate(378.54 248.19) rotate(-180)"/><rect class="cls-9" x="187.49" y="119.09" width="3.55" height="0.26" transform="translate(378.54 238.43) rotate(-180)"/><rect class="cls-9" x="187.49" y="114.2" width="3.55" height="0.26" transform="translate(378.54 228.67) rotate(-180)"/><rect class="cls-9" x="97.56" y="80.44" width="2.26" height="0.41" transform="translate(179.33 -18.04) rotate(90)"/><rect class="cls-9" x="89.9" y="80.44" width="2.26" height="0.41" transform="translate(171.67 -10.38) rotate(90)"/><rect class="cls-9" x="82.23" y="80.44" width="2.26" height="0.41" transform="translate(164.01 -2.72) rotate(90)"/><rect class="cls-9" x="74.57" y="80.44" width="2.26" height="0.41" transform="translate(156.35 4.94) rotate(90)"/><rect class="cls-9" x="138.55" y="80.44" width="2.26" height="0.41" transform="translate(220.32 -59.03) rotate(90)"/><rect class="cls-9" x="130.88" y="80.44" width="2.26" height="0.41" transform="translate(212.66 -51.37) rotate(90)"/><rect class="cls-9" x="123.22" y="80.44" width="2.26" height="0.41" transform="translate(205 -43.71) rotate(90)"/><rect class="cls-9" x="115.56" y="80.44" width="2.26" height="0.41" transform="translate(197.34 -36.05) rotate(90)"/><rect class="cls-9" x="180.11" y="80.44" width="2.26" height="0.41" transform="translate(261.89 -100.59) rotate(90)"/><rect class="cls-9" x="172.45" y="80.44" width="2.26" height="0.41" transform="translate(254.22 -92.93) rotate(90)"/><rect class="cls-9" x="164.79" y="80.44" width="2.26" height="0.41" transform="translate(246.56 -85.27) rotate(90)"/><rect class="cls-9" x="157.12" y="80.44" width="2.26" height="0.41" transform="translate(238.9 -77.61) rotate(90)"/><rect class="cls-9" x="97.56" y="109" width="2.26" height="0.41" transform="translate(207.89 10.51) rotate(90)"/><rect class="cls-9" x="89.9" y="109" width="2.26" height="0.41" transform="translate(200.23 18.17) rotate(90)"/><rect class="cls-9" x="82.23" y="109" width="2.26" height="0.41" transform="translate(192.56 25.83) rotate(90)"/><rect class="cls-9" x="74.57" y="109" width="2.26" height="0.41" transform="translate(184.9 33.5) rotate(90)"/><rect class="cls-9" x="138.55" y="109" width="2.26" height="0.41" transform="translate(248.88 -30.48) rotate(90)"/><rect class="cls-9" x="130.88" y="109" width="2.26" height="0.41" transform="translate(241.21 -22.82) rotate(90)"/><rect class="cls-9" x="123.22" y="109" width="2.26" height="0.41" transform="translate(233.55 -15.15) rotate(90)"/><rect class="cls-9" x="115.56" y="109" width="2.26" height="0.41" transform="translate(225.89 -7.49) rotate(90)"/><rect class="cls-9" x="180.11" y="109" width="2.26" height="0.41" transform="translate(290.44 -72.04) rotate(90)"/><rect class="cls-9" x="172.45" y="109" width="2.26" height="0.41" transform="translate(282.78 -64.38) rotate(90)"/><rect class="cls-9" x="164.79" y="109" width="2.26" height="0.41" transform="translate(275.12 -56.72) rotate(90)"/><rect class="cls-9" x="157.12" y="109" width="2.26" height="0.41" transform="translate(267.46 -49.06) rotate(90)"/><rect class="cls-9" x="97.56" y="56.77" width="2.26" height="0.41" transform="translate(155.66 -41.72) rotate(90)"/><rect class="cls-9" x="89.9" y="56.77" width="2.26" height="0.41" transform="translate(148 -34.05) rotate(90)"/><rect class="cls-9" x="82.23" y="56.77" width="2.26" height="0.41" transform="translate(140.34 -26.39) rotate(90)"/><rect class="cls-9" x="74.57" y="56.77" width="2.26" height="0.41" transform="translate(132.68 -18.73) rotate(90)"/><rect class="cls-9" x="138.55" y="56.77" width="2.26" height="0.41" transform="translate(196.65 -82.7) rotate(90)"/><rect class="cls-9" x="130.88" y="56.77" width="2.26" height="0.41" transform="translate(188.99 -75.04) rotate(90)"/><rect class="cls-9" x="123.22" y="56.77" width="2.26" height="0.41" transform="translate(181.33 -67.38) rotate(90)"/><rect class="cls-9" x="115.56" y="56.77" width="2.26" height="0.41" transform="translate(173.67 -59.72) rotate(90)"/><rect class="cls-9" x="180.11" y="56.77" width="2.26" height="0.41" transform="translate(238.21 -124.27) rotate(90)"/><rect class="cls-9" x="172.45" y="56.77" width="2.26" height="0.41" transform="translate(230.55 -116.61) rotate(90)"/><rect class="cls-9" x="164.79" y="56.77" width="2.26" height="0.41" transform="translate(222.89 -108.94) rotate(90)"/><rect class="cls-9" x="157.12" y="56.77" width="2.26" height="0.41" transform="translate(215.23 -101.28) rotate(90)"/><rect class="cls-9" x="97.56" y="132.79" width="2.26" height="0.41" transform="translate(231.68 34.31) rotate(90)"/><rect class="cls-9" x="89.9" y="132.79" width="2.26" height="0.41" transform="translate(224.02 41.97) rotate(90)"/><rect class="cls-9" x="82.23" y="132.79" width="2.26" height="0.41" transform="translate(216.36 49.63) rotate(90)"/><rect class="cls-9" x="74.57" y="132.79" width="2.26" height="0.41" transform="translate(208.7 57.29) rotate(90)"/><rect class="cls-9" x="138.55" y="132.79" width="2.26" height="0.41" transform="translate(272.67 -6.68) rotate(90)"/><rect class="cls-9" x="130.88" y="132.79" width="2.26" height="0.41" transform="translate(265.01 0.98) rotate(90)"/><rect class="cls-9" x="123.22" y="132.79" width="2.26" height="0.41" transform="translate(257.35 8.64) rotate(90)"/><rect class="cls-9" x="115.56" y="132.79" width="2.26" height="0.41" transform="translate(249.69 16.3) rotate(90)"/><rect class="cls-9" x="180.11" y="132.79" width="2.26" height="0.41" transform="translate(314.23 -48.25) rotate(90)"/><rect class="cls-9" x="172.45" y="132.79" width="2.26" height="0.41" transform="translate(306.57 -40.58) rotate(90)"/><rect class="cls-9" x="164.79" y="132.79" width="2.26" height="0.41" transform="translate(298.91 -32.92) rotate(90)"/><rect class="cls-9" x="157.12" y="132.79" width="2.26" height="0.41" transform="translate(291.25 -25.26) rotate(90)"/></g><g class="cls-8"><rect class="cls-9" x="193.46" y="127.34" width="78.76" height="0.14" transform="translate(105.42 360.25) rotate(-90)"/><rect class="cls-9" x="210.62" y="127.34" width="78.76" height="0.14" transform="translate(122.59 377.41) rotate(-90)"/><polygon class="cls-9" points="267.47 166.56 267.46 166.56 267.46 88.03 267.32 88.03 267.32 88.04 216.62 88.04 216.62 88.03 216.47 88.03 216.47 166.8 216.62 166.8 216.62 88.27 267.32 88.27 267.32 166.56 216.62 166.56 216.62 166.79 267.32 166.79 267.32 166.8 267.46 166.8 267.46 166.79 267.47 166.79 267.47 166.56"/><rect class="cls-9" x="216.62" y="141.55" width="50.85" height="0.22"/><rect class="cls-9" x="216.62" y="112.87" width="50.85" height="0.22"/><rect class="cls-9" x="216.62" y="107.84" width="1.46" height="0.26"/><rect class="cls-9" x="216.62" y="102.96" width="1.46" height="0.26"/><rect class="cls-9" x="216.62" y="98.07" width="1.46" height="0.26"/><rect class="cls-9" x="216.62" y="93.19" width="1.46" height="0.26"/><rect class="cls-9" x="232.06" y="107.84" width="1.46" height="0.26" transform="translate(465.58 215.93) rotate(-180)"/><rect class="cls-9" x="232.06" y="102.96" width="1.46" height="0.26" transform="translate(465.58 206.17) rotate(-180)"/><rect class="cls-9" x="232.06" y="98.07" width="1.46" height="0.26" transform="translate(465.58 196.41) rotate(-180)"/><rect class="cls-9" x="232.06" y="93.19" width="1.46" height="0.26" transform="translate(465.58 186.65) rotate(-180)"/><rect class="cls-9" x="249.31" y="107.84" width="1.46" height="0.26" transform="translate(500.09 215.93) rotate(-180)"/><rect class="cls-9" x="249.31" y="102.96" width="1.46" height="0.26" transform="translate(500.09 206.17) rotate(-180)"/><rect class="cls-9" x="249.31" y="98.07" width="1.46" height="0.26" transform="translate(500.09 196.41) rotate(-180)"/><rect class="cls-9" x="249.31" y="93.19" width="1.46" height="0.26" transform="translate(500.09 186.65) rotate(-180)"/><rect class="cls-9" x="265.86" y="107.84" width="1.46" height="0.26" transform="translate(533.17 215.93) rotate(-180)"/><rect class="cls-9" x="265.86" y="102.96" width="1.46" height="0.26" transform="translate(533.17 206.17) rotate(-180)"/><rect class="cls-9" x="265.86" y="98.07" width="1.46" height="0.26" transform="translate(533.17 196.41) rotate(-180)"/><rect class="cls-9" x="265.86" y="93.19" width="1.46" height="0.26" transform="translate(533.17 186.65) rotate(-180)"/><rect class="cls-9" x="232.06" y="134.68" width="1.46" height="0.26" transform="translate(465.58 269.62) rotate(-180)"/><rect class="cls-9" x="232.06" y="129.8" width="1.46" height="0.26" transform="translate(465.58 259.86) rotate(-180)"/><rect class="cls-9" x="232.06" y="124.92" width="1.46" height="0.26" transform="translate(465.58 250.1) rotate(-180)"/><rect class="cls-9" x="232.06" y="120.04" width="1.46" height="0.26" transform="translate(465.58 240.34) rotate(-180)"/><rect class="cls-9" x="249.31" y="134.68" width="1.46" height="0.26" transform="translate(500.09 269.62) rotate(-180)"/><rect class="cls-9" x="249.31" y="129.8" width="1.46" height="0.26" transform="translate(500.09 259.86) rotate(-180)"/><rect class="cls-9" x="249.31" y="124.92" width="1.46" height="0.26" transform="translate(500.09 250.1) rotate(-180)"/><rect class="cls-9" x="249.31" y="120.04" width="1.46" height="0.26" transform="translate(500.09 240.34) rotate(-180)"/><rect class="cls-9" x="249.31" y="161.53" width="1.46" height="0.26" transform="translate(500.09 323.32) rotate(-180)"/><rect class="cls-9" x="249.31" y="156.65" width="1.46" height="0.26" transform="translate(500.09 313.55) rotate(-180)"/><rect class="cls-9" x="249.31" y="151.77" width="1.46" height="0.26" transform="translate(500.09 303.79) rotate(-180)"/><rect class="cls-9" x="249.31" y="146.88" width="1.46" height="0.26" transform="translate(500.09 294.03) rotate(-180)"/><rect class="cls-9" x="232.06" y="161.53" width="1.46" height="0.26" transform="translate(465.58 323.32) rotate(-180)"/><rect class="cls-9" x="232.06" y="156.65" width="1.46" height="0.26" transform="translate(465.58 313.55) rotate(-180)"/><rect class="cls-9" x="232.06" y="151.77" width="1.46" height="0.26" transform="translate(465.58 303.79) rotate(-180)"/><rect class="cls-9" x="232.06" y="146.88" width="1.46" height="0.26" transform="translate(465.58 294.03) rotate(-180)"/><rect class="cls-9" x="216.62" y="134.68" width="1.46" height="0.26"/><rect class="cls-9" x="216.62" y="129.8" width="1.46" height="0.26"/><rect class="cls-9" x="216.62" y="124.92" width="1.46" height="0.26"/><rect class="cls-9" x="216.62" y="120.04" width="1.46" height="0.26"/><rect class="cls-9" x="216.62" y="161.53" width="1.46" height="0.26"/><rect class="cls-9" x="216.62" y="156.65" width="1.46" height="0.26"/><rect class="cls-9" x="216.62" y="151.77" width="1.46" height="0.26"/><rect class="cls-9" x="216.62" y="146.88" width="1.46" height="0.26"/><rect class="cls-9" x="265.86" y="134.44" width="1.46" height="0.26" transform="translate(533.17 269.14) rotate(-180)"/><rect class="cls-9" x="265.86" y="129.56" width="1.46" height="0.26" transform="translate(533.17 259.37) rotate(-180)"/><rect class="cls-9" x="265.86" y="124.68" width="1.46" height="0.26" transform="translate(533.17 249.61) rotate(-180)"/><rect class="cls-9" x="265.86" y="119.8" width="1.46" height="0.26" transform="translate(533.17 239.85) rotate(-180)"/><rect class="cls-9" x="265.86" y="161.28" width="1.46" height="0.26" transform="translate(533.17 322.83) rotate(-180)"/><rect class="cls-9" x="265.86" y="156.4" width="1.46" height="0.26" transform="translate(533.17 313.06) rotate(-180)"/><rect class="cls-9" x="265.86" y="151.52" width="1.46" height="0.26" transform="translate(533.17 303.3) rotate(-180)"/><rect class="cls-9" x="265.86" y="146.64" width="1.46" height="0.26" transform="translate(533.17 293.54) rotate(-180)"/><rect class="cls-9" x="228.2" y="113" width="2.26" height="0.17" transform="translate(342.41 -116.25) rotate(90)"/><rect class="cls-9" x="225.05" y="113" width="2.26" height="0.17" transform="translate(339.26 -113.1) rotate(90)"/><rect class="cls-9" x="221.9" y="113" width="2.26" height="0.17" transform="translate(336.11 -109.95) rotate(90)"/><rect class="cls-9" x="218.75" y="113" width="2.26" height="0.17" transform="translate(332.96 -106.8) rotate(90)"/><rect class="cls-9" x="245.06" y="113" width="2.26" height="0.17" transform="translate(359.27 -133.11) rotate(90)"/><rect class="cls-9" x="241.91" y="113" width="2.26" height="0.17" transform="translate(356.12 -129.96) rotate(90)"/><rect class="cls-9" x="238.76" y="113" width="2.26" height="0.17" transform="translate(352.97 -126.81) rotate(90)"/><rect class="cls-9" x="235.61" y="113" width="2.26" height="0.17" transform="translate(349.82 -123.66) rotate(90)"/><rect class="cls-9" x="262.15" y="113" width="2.26" height="0.17" transform="translate(376.37 -150.2) rotate(90)"/><rect class="cls-9" x="259" y="113" width="2.26" height="0.17" transform="translate(373.22 -147.05) rotate(90)"/><rect class="cls-9" x="255.85" y="113" width="2.26" height="0.17" transform="translate(370.06 -143.9) rotate(90)"/><rect class="cls-9" x="252.7" y="113" width="2.26" height="0.17" transform="translate(366.91 -140.75) rotate(90)"/><rect class="cls-9" x="228.2" y="141.55" width="2.26" height="0.17" transform="translate(370.97 -87.7) rotate(90)"/><rect class="cls-9" x="225.05" y="141.55" width="2.26" height="0.17" transform="translate(367.82 -84.55) rotate(90)"/><rect class="cls-9" x="221.9" y="141.55" width="2.26" height="0.17" transform="translate(364.67 -81.39) rotate(90)"/><rect class="cls-9" x="218.75" y="141.55" width="2.26" height="0.17" transform="translate(361.51 -78.24) rotate(90)"/><rect class="cls-9" x="245.06" y="141.55" width="2.26" height="0.17" transform="translate(387.83 -104.56) rotate(90)"/><rect class="cls-9" x="241.91" y="141.55" width="2.26" height="0.17" transform="translate(384.68 -101.4) rotate(90)"/><rect class="cls-9" x="238.76" y="141.55" width="2.26" height="0.17" transform="translate(381.52 -98.25) rotate(90)"/><rect class="cls-9" x="235.61" y="141.55" width="2.26" height="0.17" transform="translate(378.37 -95.1) rotate(90)"/><rect class="cls-9" x="262.15" y="141.55" width="2.26" height="0.17" transform="translate(404.92 -121.65) rotate(90)"/><rect class="cls-9" x="259" y="141.55" width="2.26" height="0.17" transform="translate(401.77 -118.5) rotate(90)"/><rect class="cls-9" x="255.85" y="141.55" width="2.26" height="0.17" transform="translate(398.62 -115.35) rotate(90)"/><rect class="cls-9" x="252.7" y="141.55" width="2.26" height="0.17" transform="translate(395.47 -112.2) rotate(90)"/><rect class="cls-9" x="228.2" y="89.33" width="2.26" height="0.17" transform="translate(318.74 -139.92) rotate(90)"/><rect class="cls-9" x="225.05" y="89.33" width="2.26" height="0.17" transform="translate(315.59 -136.77) rotate(90)"/><rect class="cls-9" x="221.9" y="89.33" width="2.26" height="0.17" transform="translate(312.44 -133.62) rotate(90)"/><rect class="cls-9" x="218.75" y="89.33" width="2.26" height="0.17" transform="translate(309.29 -130.47) rotate(90)"/><rect class="cls-9" x="245.06" y="89.33" width="2.26" height="0.17" transform="translate(335.6 -156.78) rotate(90)"/><rect class="cls-9" x="241.91" y="89.33" width="2.26" height="0.17" transform="translate(332.45 -153.63) rotate(90)"/><rect class="cls-9" x="238.76" y="89.33" width="2.26" height="0.17" transform="translate(329.3 -150.48) rotate(90)"/><rect class="cls-9" x="235.61" y="89.33" width="2.26" height="0.17" transform="translate(326.15 -147.33) rotate(90)"/><rect class="cls-9" x="262.15" y="89.33" width="2.26" height="0.17" transform="translate(352.69 -173.88) rotate(90)"/><rect class="cls-9" x="259" y="89.33" width="2.26" height="0.17" transform="translate(349.54 -170.73) rotate(90)"/><rect class="cls-9" x="255.85" y="89.33" width="2.26" height="0.17" transform="translate(346.39 -167.57) rotate(90)"/><rect class="cls-9" x="252.7" y="89.33" width="2.26" height="0.17" transform="translate(343.24 -164.42) rotate(90)"/><rect class="cls-9" x="228.2" y="165.35" width="2.26" height="0.17" transform="translate(394.76 -63.9) rotate(90)"/><rect class="cls-9" x="225.05" y="165.35" width="2.26" height="0.17" transform="translate(391.61 -60.75) rotate(90)"/><rect class="cls-9" x="221.9" y="165.35" width="2.26" height="0.17" transform="translate(388.46 -57.6) rotate(90)"/><rect class="cls-9" x="218.75" y="165.35" width="2.26" height="0.17" transform="translate(385.31 -54.45) rotate(90)"/><rect class="cls-9" x="245.06" y="165.35" width="2.26" height="0.17" transform="translate(411.62 -80.76) rotate(90)"/><rect class="cls-9" x="241.91" y="165.35" width="2.26" height="0.17" transform="translate(408.47 -77.61) rotate(90)"/><rect class="cls-9" x="238.76" y="165.35" width="2.26" height="0.17" transform="translate(405.32 -74.46) rotate(90)"/><rect class="cls-9" x="235.61" y="165.35" width="2.26" height="0.17" transform="translate(402.17 -71.31) rotate(90)"/><rect class="cls-9" x="262.15" y="165.35" width="2.26" height="0.17" transform="translate(428.72 -97.85) rotate(90)"/><rect class="cls-9" x="259" y="165.35" width="2.26" height="0.17" transform="translate(425.56 -94.7) rotate(90)"/><rect class="cls-9" x="255.85" y="165.35" width="2.26" height="0.17" transform="translate(422.41 -91.55) rotate(90)"/><rect class="cls-9" x="252.7" y="165.35" width="2.26" height="0.17" transform="translate(419.26 -88.4) rotate(90)"/></g><polygon class="cls-10" points="174.17 71.2 136.52 71.2 131.68 74.28 126.37 83.8 81.99 83.78 76.15 86.9 76.02 117.32 81.72 120.44 174.53 120.26 182.5 115.01 182.5 112.65 182.5 83.81 182.5 76.81 174.17 71.2"/><path class="cls-4" d="M120.1,92.3v18.81H84.89V92.3H120.1m1.38-1.38h-38v21.58h38V90.91Z"/><path class="cls-4" d="M156.59,113.93l-12.77-5.11L140,95.75l3.82-11.87,12.35-5.11,13.57,5.09,3.41,11.5-3.37,13.46Zm-10.24-7.4,10.26,4.1,10.6-4.1L170,95.43l-2.74-9.23-11-4.13-9.92,4.1-3.09,9.63Z"/><rect class="cls-4" x="126.23" y="92.62" width="5.55" height="5.55" transform="translate(105.24 -63.28) rotate(45)"/><rect class="cls-4" x="126.32" y="104.57" width="5.55" height="5.55" transform="translate(113.72 -59.85) rotate(45)"/><rect class="cls-4" x="86.37" y="99.41" width="7.17" height="2.53"/><rect class="cls-4" x="86.37" y="96.51" width="7.17" height="2.27"/><rect class="cls-4" x="86.37" y="102.62" width="7.17" height="2.11"/><rect class="cls-4" x="86.37" y="93.91" width="7.17" height="1.83"/><rect class="cls-4" x="86.37" y="108.1" width="7.17" height="2.06"/><rect class="cls-4" x="86.37" y="105.39" width="7.17" height="2.08"/><rect class="cls-4" x="103.24" y="99.41" width="7.17" height="2.53"/><rect class="cls-4" x="103.24" y="96.51" width="7.17" height="2.27"/><rect class="cls-4" x="103.24" y="102.62" width="7.17" height="2.11"/><rect class="cls-4" x="103.24" y="108.1" width="7.17" height="2.06"/><rect class="cls-4" x="103.24" y="105.39" width="7.17" height="2.08"/><rect class="cls-4" x="94.62" y="99.33" width="7.17" height="2.53"/><rect class="cls-4" x="94.62" y="102.54" width="7.17" height="2.11"/><rect class="cls-4" x="94.62" y="108.02" width="7.17" height="2.06"/><rect class="cls-4" x="94.62" y="105.31" width="7.17" height="2.08"/><rect class="cls-4" x="111.7" y="108.02" width="7.17" height="2.06"/><rect class="cls-4" x="111.7" y="105.31" width="7.17" height="2.08"/><polygon class="cls-10" points="237.89 158.27 239.55 159.96 245.2 159.96 246.81 158.27 237.89 158.27"/><polygon class="cls-10" points="250.1 146.24 250.1 145 234.47 145 234.47 148.99 249.28 146.23 250.1 146.24"/><polygon class="cls-10" points="250.1 149.61 250.1 147.14 235.12 150 234.47 149.96 234.47 152.36 249.28 149.6 250.1 149.61"/><polygon class="cls-10" points="239.55 159.96 245.2 159.96 249.4 155.56 235.43 155.79 239.55 159.96"/><polygon class="cls-10" points="249.8 154.5 250.1 154.56 250.1 150.51 235.12 153.37 234.47 153.33 234.47 154.77 234.65 154.69 249.8 154.5"/><polygon class="cls-10" points="262.27 113.32 258.15 99.4 241.65 93.21 226.69 99.4 222.05 113.83 229.49 130.75 229.51 130.76 231.08 134.5 231.22 139.35 234.45 143.27 239.02 143.27 239.15 135.92 239.53 133.48 239.6 129.16 234.15 114.7 234.14 114.65 238.78 114 238.78 114.03 244.99 114.03 244.99 114.04 250.01 114.67 244.45 129.08 244.52 133.41 244.9 135.85 245.04 143.28 250.12 143.28 252.98 139.75 253.28 134.25 254.67 130.83 254.66 130.83 262.27 113.32"/><polygon class="cls-10" points="238.32 114.33 241.25 121.57 242.59 121.57 245.49 114.37 244.92 114.29 244.92 114.29 238.67 114.29 238.67 114.28 238.32 114.33"/><polygon class="cls-10" points="244.17 133.84 244.01 129 249.43 114.93 245.65 114.39 242.75 121.57 243.76 121.57 243.76 122.54 243.39 122.54 243.39 134.51 243.84 134.51 243.84 143.28 244.53 143.28 244.51 135.94 244.17 133.84"/><polygon class="cls-10" points="240.12 121.57 241.09 121.57 238.17 114.35 234.56 114.86 240.05 129.07 239.88 133.91 239.55 136.02 239.53 143.27 240.2 143.27 240.2 134.51 240.57 134.51 240.57 122.54 240.12 122.54 240.12 121.57"/><rect class="cls-4" x="146.75" y="95.09" width="20.5" height="2.51"/><rect class="cls-4" x="149.79" y="88.71" width="13.32" height="2.56"/><rect class="cls-4" x="149.75" y="101.55" width="13.02" height="2.39"/><path class="cls-4" d="M329,47.52s2.09.24,2.16.27c.22.84.47,1.68.69,2.53,0,0,1.56.86,1.58.88.86-.23,1.72-.44,2.59-.65h0a11.76,11.76,0,0,1,1.29,1.61c-.45.63-1,1.3-1.45,1.92,0,0,.21,2.36.23,2.36h0c.7.5,1.38,1,2.07,1.57a18.91,18.91,0,0,1-.86,1.95h0l-2.72.11a11,11,0,0,0-1.12,1.22c0,.91,0,1.82.06,2.73a15.14,15.14,0,0,1-2,.81h0c-.53-.63-1.46-1.8-1.66-2h0a2.08,2.08,0,0,1-.44,0l-1.27,0a1.65,1.65,0,0,0-.52,0c-.49.46-1.65,1.52-1.65,1.52s-1.88-1.06-1.86-1.13c.16-.83.49-2.55.5-2.62h0s-1.33-1.53-1.39-1.59c-.76-.11-1.7-.29-2.47-.45,0-.29-.18-2-.1-2.09.35-.22,2.25-.8,2.35-.92a13.27,13.27,0,0,0,.55-2.05c-.4-.77-1.24-2.4-1.24-2.4h0s1.43-1.57,1.47-1.57h0l2.48,1.07h0a9.28,9.28,0,0,0,1.47-.44L329,47.52m.37,11.32s1.76-1.71,2.54-2.5c-1-1.07-1.72-1.81-2.52-2.56a34.11,34.11,0,0,0-2.53,2.46c.57.65,2.51,2.59,2.51,2.59m-1-12.4-.31.65L327,49.4l-.65.21-1-.43-1.23-.53-.19-.08h-.24c-.44,0-.46,0-1.67,1.35l-.2.22h-.14l-.29.48c-.29.48-.3.5,1,3.07-.07.33-.2.83-.29,1.16l-.57.2a9.75,9.75,0,0,0-1.5.6c-.59.33-.55.78-.44,2.23,0,.31,0,.59,0,.7v.82l.8.18c.72.15,1.48.3,2.15.41l.19.21.64.74-.4,2.06c-.26.8.24,1.08,2.34,2.26l.63.35.53-.49,1.42-1.3h1.4l.56.68.61.75.11.55h.83c.18,0,2.55-.72,2.88-1.33l.28-.52-.17-.27c0-.69,0-1.38,0-2.07L335,61l2.29-.09h0c.71,0,.9-.46,1.38-1.57s.48-1.16.48-1.38v-.5l-.39-.3-.59-.45-1.15-.87c0-.43-.11-1.11-.15-1.51l.48-.64c.26-.34.51-.67.75-1l.41-.57-.39-.58c-1.39-2.05-1.79-2.05-2.12-2.05h-.12l-.12,0-2.22.55-.85-.46-.25-.91c-.11-.41-.23-.82-.34-1.23l-.13-.48-.45-.19a12.08,12.08,0,0,0-2.44-.34l-.71-.08Zm-.17,9.81c.35-.36.73-.71,1.14-1.1.36.36.73.74,1.14,1.17l-1.13,1.11-1.16-1.18Z"/><path class="cls-4" d="M315.37,28.33c.55.26,1.52.65,1.95.82.13.91.17,1.78.31,2.69a14.84,14.84,0,0,0,1.49,1l2.72-.75c.15.2,1.24,1.47,1.33,1.62-.38.83-1.12,2.51-1.12,2.51l1.06,1.73s1.56.46,2.34.7c0,.16.28,2.08.28,2.08l-2.28,1.49a7.3,7.3,0,0,0-.29,1.78c.58.7,1.77,2.08,1.77,2.08s-.81,1.7-.91,2h-2.68a5.79,5.79,0,0,0-1.2,1.35q.17,1.36.37,2.72c-.2.17-1.64,1-1.78,1.18l-2.3-1.46a13.81,13.81,0,0,0-1.75.49q-.6,1.24-1.16,2.49l-1.67,0h-.45l-1.15-2.47-1.58-.59s-2,1.2-2.48,1.52c-.14-.11-1.7-1-1.79-1.13.13-.92.37-2.77.37-2.77A14.07,14.07,0,0,0,303.59,48h-2.7a19.21,19.21,0,0,1-.93-1.94q.9-1,1.77-2.08a6.25,6.25,0,0,0-.25-1.8c-.82-.55-1.65-1.1-2.48-1.64,0,0,.49-2,.49-2s1.75-.52,2.62-.8a13.12,13.12,0,0,0,.75-1.67l-1.11-2.48L303.11,32l2.85.78a12.25,12.25,0,0,0,1.34-1c.15-.91.41-2.74.41-2.74l1.9-.76,2,2.31a1.18,1.18,0,0,0,.31,0c.49,0,1.36,0,1.36,0s2-2.29,2.06-2.29m-2.7,11.4L308.9,36l-4.64,4.64L308,44.39l0,0,4.64,4.64,4.64-4.64,0,0,4-4-4.64-4.64-3.94,3.94m2.93-12.4h-.23c-.45,0-.46,0-2.52,2.31l-.75,0-1.35-1.54-.39-.44-.3-.34h-.45c-.21,0-.21,0-2.28.84l-.53.22-.08.57s-.21,1.41-.36,2.36l-.59.41-2.41-.66-.62-.17-.41.49L301,33l-.41.48.26.57.94,2.09c-.12.3-.25.6-.34.81l-2.23.67-.54.16-.14.55a13.7,13.7,0,0,0-.52,2.21v.54l.45.3.57.38,1.59,1.05c0,.24.09.57.11.81-.48.58-1,1.16-1.52,1.78l-.38.44.19.55a15.65,15.65,0,0,0,1.12,2.26l.3.35h2.74l.54.64c-.08.6-.22,1.69-.31,2.33l-.05.38.21.32c.16.24.31.35,1.48,1l.54.33.57.46.57-.43c.33-.22,1.43-.88,2-1.25l.75.28,1,2.09.2.44.48.11a2.86,2.86,0,0,0,.68,0l1.7,0,.62,0,.26-.57q.48-1.06,1-2.1l.85-.22,1.94,1.23.69.44.53-.55.78-.51a10.37,10.37,0,0,0,1-.65l.42-.36-.08-.54q-.17-1.17-.32-2.33c.15-.19.36-.43.52-.6h3l.25-.65c.06-.15.49-1.08.88-1.89l.28-.59-.42-.49-1.51-1.77c0-.24.08-.57.13-.81l2-1.28.53-.35-.09-.63c-.12-.89-.26-1.88-.27-2l-.06-.66-.63-.22-2-.6-.59-1c.25-.56.65-1.47.9-2l.22-.49-.28-.46c-.08-.12-.23-.32-.93-1.15l-.46-.55-.41-.52-.64.17-2.31.64-.7-.43c0-.32-.07-.64-.11-1s-.08-.86-.15-1.3l-.08-.58-.55-.21c-.39-.15-1.34-.53-1.87-.78l-.2-.1Zm-2.93,13.82.71-.71,3.23-3.23,3.23,3.23-3.26,3.26-.71.71,0,0-3.23,3.23-3.23-3.23-.67-.74-3.08-3.08,3.23-3.23L312,40.44l.71.71Z"/></g></g></svg>