<svg xmlns="http://www.w3.org/2000/svg" viewBox="0 0 291.06 313.24"><defs><style>.cls-1{fill:#6c0d20;}.cls-2{fill:#be1e2d;}.cls-3{fill:#ef484a;}.cls-4{fill:#232323;}.cls-5{fill:#a7a9ac;}.cls-6{fill:#808285;}.cls-7{fill:#f15a29;}.cls-8{fill:#8dc63f;}.cls-9{fill:#39b54a;}.cls-10{fill:#d7df23;}.cls-11{fill:#f7941d;}.cls-12{fill:#f9ed32;}.cls-13{fill:#fbb040;}.cls-14{fill:#fff;}</style></defs><title>maximizer</title><g id="Layer_2" data-name="Layer 2"><g id="Layer_12" data-name="Layer 12"><rect class="cls-1" x="76.92" y="56.01" width="209.14" height="252.23"/><rect class="cls-2" x="102.82" y="87.58" width="157.34" height="189.86"/><polygon class="cls-2" points="286.06 56.01 76.92 56.01 76.92 308.24 78.36 308.24 286.06 57.44 286.06 56.01"/><polygon class="cls-3" points="260.16 87.58 102.82 87.58 102.82 277.44 103.88 277.44 260.16 88.72 260.16 87.58"/><rect class="cls-4" x="112.96" y="116.48" width="27.68" height="135.34"/><rect class="cls-5" x="112.9" y="33.23" width="27.65" height="109.42"/><rect class="cls-4" x="222.43" y="116.48" width="27.68" height="135.34"/><rect class="cls-5" x="222.27" y="33.72" width="27.65" height="109.42"/><rect class="cls-6" x="126.15" y="38.52" width="14.41" height="104.12"/><rect class="cls-6" x="236.12" y="39.52" width="13.81" height="103.62"/><polygon class="cls-2" points="280 45.99 83.45 45.99 78.06 32.38 78.06 18.55 83.45 5 280 5 284.81 20.36 284.81 33.58 280 45.99"/><rect class="cls-7" x="28.53" y="241.46" width="19.64" height="9.04"/><rect class="cls-8" x="28.53" y="149.51" width="19.64" height="12.76"/><polygon class="cls-9" points="28.53 144.73 48.18 144.73 48.18 142.57 65.58 142.47 38.66 115.85 12.04 142.78 28.53 142.68 28.53 144.73"/><rect class="cls-10" x="28.53" y="167.05" width="19.64" height="15.41"/><rect class="cls-11" x="28.53" y="224.45" width="19.64" height="12.22"/><rect class="cls-12" x="28.53" y="187.25" width="19.64" height="13.29"/><rect class="cls-13" x="28.53" y="205.32" width="19.64" height="14.35"/><polygon class="cls-1" points="78.06 31.78 78.06 32.38 83.45 45.99 280 45.99 284.81 33.58 284.81 31.78 78.06 31.78"/><polygon class="cls-3" points="78.06 19.16 284.43 19.16 280 5 83.45 5 78.06 18.55 78.06 19.16"/><path class="cls-14" d="M280,5l4.43,14.16.38,1.2V33.58L280,46H249.93V56h36.13V308.24H76.92V56h36V46H83.45L78.06,32.38V18.56L83.45,5H280M140.56,56h81.72V46H140.56V56M283.67,0H80.06L78.8,3.15,73.42,16.71l-.35.89V33.33l.35.89L78.8,47.83,80.05,51H107.9v0h-36V313.24H291.06V51H254.93v0h28.5l1.24-3.19,4.81-12.41.34-.87V19.59l-.23-.73-.38-1.2L284.77,3.51,283.67,0ZM145.56,51h71.72v0H145.56v0Z"/><path class="cls-14" d="M48.18,241.46v9H28.53v-9H48.18m5-5H23.53v19H53.18v-19Z"/><path class="cls-14" d="M48.18,149.51v12.76H28.53V149.51H48.18m5-5H23.53v22.76H53.18V144.51Z"/><path class="cls-14" d="M38.66,115.85l26.92,26.62-17.41.1v2.16H28.53v-2L12,142.77l26.62-26.92m0-7.07-3.52,3.56L8.49,139.26,0,147.84l12.07-.07,11.46-.07v2H53.18v-2.19l12.43-.07,12.07-.07-8.58-8.49L42.18,112.29l-3.56-3.52Z"/><path class="cls-14" d="M48.18,167v15.41H28.53V167H48.18m5-5H23.53v25.41H53.18V162Z"/><path class="cls-14" d="M48.18,224.45v12.22H28.53V224.45H48.18m5-5H23.53v22.22H53.18V219.45Z"/><path class="cls-14" d="M48.18,187.25v13.29H28.53V187.25H48.18m5-5H23.53v23.29H53.18V182.25Z"/><path class="cls-14" d="M48.18,205.32v14.35H28.53V205.32H48.18m5-5H23.53v24.35H53.18V200.32Z"/></g></g></svg>