<svg xmlns="http://www.w3.org/2000/svg" viewBox="0 0 319.76 302.83"><defs><style>.cls-1{isolation:isolate;}.cls-2{fill:#fff;}.cls-3{fill:#fae51e;}.cls-4,.cls-5{fill:#d98c28;}.cls-5{opacity:0.26;mix-blend-mode:multiply;}</style></defs><title>positivity</title><g class="cls-1"><g id="Layer_2" data-name="Layer 2"><g id="Layer_7" data-name="Layer 7"><path class="cls-2" d="M315.76,54.07v67.52H299.14V298.83H117.48V121.59h-17V54.07H315.76m4-4H96.53v75.52h17V302.83H303.14V125.59h16.62V50.07Z"/><rect class="cls-3" x="117.48" y="113.15" width="181.66" height="185.68"/><rect class="cls-4" x="100.53" y="54.07" width="215.23" height="67.52"/><polygon class="cls-4" points="196.07 250.98 196.07 217.47 162.56 217.47 162.56 189.71 196.07 189.71 196.07 156.19 223.83 156.19 223.83 189.71 257.35 189.71 257.35 217.47 223.83 217.47 223.83 250.98 196.07 250.98"/><path class="cls-2" d="M221.12,158.9v33.51h33.51v22.34H221.12v33.51H198.78V214.76H165.27V192.42h33.51V158.9h22.34m5.42-5.42H193.36V187H159.85v33.19h33.51v33.51h33.19V220.18h33.51V187H226.55V153.48Z"/><polygon class="cls-3" points="53.79 20.17 33.62 20.17 33.62 0 20.17 0 20.17 20.17 0 20.17 0 33.62 20.17 33.62 20.17 53.79 33.62 53.79 33.62 33.62 53.79 33.62 53.79 20.17"/><polygon class="cls-3" points="79.29 61.17 66.62 61.17 66.62 48.5 58.17 48.5 58.17 61.17 45.5 61.17 45.5 69.62 58.17 69.62 58.17 82.29 66.62 82.29 66.62 69.62 79.29 69.62 79.29 61.17"/><polygon class="cls-5" points="298.99 121.55 117.48 298.55 117.48 298.83 299.14 298.83 299.14 121.57 298.99 121.55"/><polygon class="cls-5" points="183.67 121.59 315.76 121.59 315.76 54.07 252.91 54.07 183.67 121.59"/></g></g></g></svg>