<svg xmlns="http://www.w3.org/2000/svg" viewBox="0 0 342.01 277.98"><defs><style>.cls-1{fill:#fff;}.cls-2{fill:#ffc729;}.cls-3{fill:#d98c28;}.cls-4{fill:#fae51e;}</style></defs><title>relator</title><g id="Layer_2" data-name="Layer 2"><g id="Layer_7" data-name="Layer 7"><path class="cls-1" d="M122.84,4V40.92h-15V237.06h13.85V274H4V237.06H19V40.92H5.15V4H122.84m4-4H1.15V44.92H15V233.06H0V278H125.68V233.06H111.84V44.92h15V0Z"/><path class="cls-1" d="M338,4V40.92H323V237.06h13.85V274H219.17V237.06h15V40.92H220.32V4H338m4-4H216.32V44.92h13.85V233.06h-15V278H340.86V233.06H327V44.92h15V0Z"/><rect class="cls-2" x="19" y="36.31" width="88.84" height="207.68"/><rect class="cls-3" x="4" y="237.06" width="117.68" height="36.92"/><rect class="cls-4" x="19" y="36.31" width="88.84" height="101.53"/><rect class="cls-3" x="5.15" y="4" width="117.68" height="36.92"/><rect class="cls-3" x="59.38" y="69.77" width="9.23" height="36.92"/><rect class="cls-3" x="59.38" y="69.77" width="9.23" height="36.92" transform="translate(-24.23 152.22) rotate(-90)"/><rect class="cls-3" x="59.38" y="169.07" width="9.23" height="36.92" transform="translate(-123.54 251.53) rotate(-90)"/><polygon class="cls-4" points="220.16 185.51 181.28 141.26 163.4 151.99 127.2 84.5 166.97 129.42 184.41 121.15 220.16 185.51"/><rect class="cls-2" x="234.17" y="36.31" width="88.84" height="207.68"/><rect class="cls-3" x="219.17" y="237.06" width="117.68" height="36.92"/><rect class="cls-4" x="234.17" y="36.31" width="88.84" height="101.53"/><rect class="cls-3" x="220.32" y="4" width="117.68" height="36.92"/><rect class="cls-3" x="274.55" y="69.77" width="9.23" height="36.92"/><rect class="cls-3" x="274.55" y="69.77" width="9.23" height="36.92" transform="translate(190.94 367.4) rotate(-90)"/><rect class="cls-3" x="274.55" y="169.07" width="9.23" height="36.92" transform="translate(91.64 466.7) rotate(-90)"/></g></g></svg>