<svg xmlns="http://www.w3.org/2000/svg" viewBox="0 0 166.19 347.29"><defs><style>.cls-1{fill:#009444;}.cls-2{fill:#39b54a;}.cls-3{fill:#006838;}.cls-4{fill:#8dc63f;}.cls-5{fill:#d7df23;}.cls-6{fill:#fff;}</style></defs><title>responsibility</title><g id="Layer_2" data-name="Layer 2"><g id="Layer_7" data-name="Layer 7"><polygon class="cls-1" points="104.12 143.74 85.11 143.74 85.11 141.88 66.12 141.88 67.12 320.74 84.12 340.74 109.12 304.74 95.12 287.74 108.12 270.74 94.12 254.74 107.12 237.74 96.12 222.74 105.12 209.74 95.12 196.74 104.12 184.74 104.12 143.74"/><path class="cls-1" d="M153.9,35.08,81.39,4.38,15.67,35.08,4.12,85l12.41,46.26,26,19.83h85.77l24.83-19.83,9-43.62ZM82.8,79.89,58.13,55.22,82.8,30.54l24.68,24.68Z"/><rect class="cls-1" x="54.12" y="159.34" width="61" height="14.41"/><polygon class="cls-2" points="15.67 35.08 4.12 85 16.54 131.26 42.49 151.09 66.17 151.09 66.22 159.34 54.12 159.34 54.12 173.75 66.3 173.75 67.12 320.74 83.12 339.56 83.12 79.58 82.8 79.89 58.13 55.22 82.8 30.54 83.12 30.86 83.12 5.11 81.39 4.38 15.67 35.08"/><rect class="cls-3" x="81.12" y="173.07" width="4.19" height="145.67"/><polygon class="cls-2" points="155.89 47.79 89.27 73.43 82.8 79.89 79.93 77.02 9.28 104.21 16.54 131.26 29.1 140.86 161.99 86.77 155.89 47.79"/><polygon class="cls-2" points="61.46 58.55 4.97 81.32 4.12 85 6.34 93.29 70.21 67.3 61.46 58.55"/><polygon class="cls-2" points="137.2 28 96.63 44.37 105.28 53.02 151.68 34.13 137.2 28"/><polygon class="cls-4" points="70.21 67.3 61.46 58.55 4.97 81.32 4.12 85 6.34 93.29 70.21 67.3"/><polygon class="cls-4" points="83.12 118.87 83.12 79.58 82.8 79.89 79.93 77.02 9.28 104.21 16.54 131.26 29.1 140.86 83.12 118.87"/><polygon class="cls-5" points="23.54 135.26 11.12 89 22.67 39.08 83.12 7.24 154.08 36.19 153.9 35.08 81.39 4.38 15.67 35.08 4.12 85 16.54 131.26 42.49 151.09 44.26 151.09 23.54 135.26"/><polygon class="cls-5" points="69.62 173.74 65.62 173.74 65.62 173.75 66.3 173.75 67.12 320.74 69.62 323.68 69.62 173.74"/><rect class="cls-5" x="54.12" y="159.34" width="3.75" height="14.41"/><path class="cls-6" d="M81.39,4.38l1.73.73,70.78,30,8.22,52.57-9,43.62-24.83,19.83H104.12v8.25h11v14.41h-11v11l-9,12,10,13-9,13,11,15-13,17,14,16-13,17,14,17-25,36-1-1.18-16-18.82-.82-147H54.12V159.34h12.1l0-5.86v-2.39H42.49l-26-19.83L9.28,104.21,6.35,93.29,4.12,85,15.67,35.08,81.39,4.38M82.8,79.89l.32-.32,6.14-6.14,18.22-18.22-2.2-2.2-8.65-8.65L83.12,30.86l-.32-.32L58.13,55.22l3.33,3.33,8.75,8.75L79.93,77l2.87,2.87M81.31,0,79.7.75,14,31.45l-1.77.82-.44,1.9L.23,84.1l-.23,1,.26,1,2.22,8.28,2.93,10.93,7.26,27.05.35,1.32,1.08.83,26,19.83,1.08.82H62.19v.25H50.12v22.41h12.2l.8,143v1.46l.94,1.11,16,18.82,1,1.18,3.37,4,3-4.27,25-36,1.73-2.49-1.92-2.34-12-14.55,11.07-14.48,2-2.6-2.16-2.46L99.29,254.57l11-14.4,1.82-2.38-1.77-2.42L101,222.67,108.41,212l1.66-2.4-1.78-2.31-8.15-10.59,7.18-9.57.8-1.07v-8.32h11V155.34h-11v-.25h21.55l1.09-.87,24.83-19.83,1.13-.9.29-1.41,9-43.62.15-.71-.11-.72-8.22-52.57-.34-2.2-2-.87-70.78-30L82.95.69,81.31,0ZM63.79,55.22l19-19,11,11,8,8L86.44,70.6,82.8,74.23l0,0L73,64.47l-8.75-8.75-.5-.5Z"/></g></g></svg>