<svg xmlns="http://www.w3.org/2000/svg" viewBox="0 0 368.22 281.16"><defs><style>.cls-1{fill:#016534;}.cls-2{fill:#fff;}.cls-3{fill:#3bb54a;}.cls-4{fill:#054924;}.cls-5{fill:#8dc640;}</style></defs><title>restorative</title><g id="Layer_2" data-name="Layer 2"><g id="Layer_7" data-name="Layer 7"><rect class="cls-1" x="2" y="18.05" width="332.18" height="261.1"/><path class="cls-2" d="M332.18,20.05v257.1H4V20.05H332.18m4-4H0v265.1H336.18V16.05Z"/><polygon class="cls-3" points="180.47 20.05 4 20.05 4 277.16 80.52 277.16 180.47 20.05"/><rect class="cls-4" x="30.86" y="41.53" width="274.47" height="214.14"/><path class="cls-3" d="M187.67,117.87C191.42,113.71,199,105.5,199,105.5s-4.51-11.07-4.81-12c-5-.3-15-.66-15-.66l-9-8.74s1.87-11.12,2.87-16.67c-.75-.72-9.2-6.68-10.41-7.63-5,2.84-15.08,8.61-15.08,8.61s-10.1-2.89-10.33-3.42c-2.25-5.23-3.78-10.35-6-15.61-2.83-.33-9.2-1.2-12.87-1.92-.1,0-8.82,16.78-8.82,16.78s-9.63,2.9-10,2.66C94.41,63.36,89.23,59.77,84,56.19c-.1,0-10.2,7.43-10.2,7.43s1.18,11.31,1.67,17c.06.65-6.52,7.85-6.52,7.85l-18.19-.32L45.15,99.78,55.56,112.9s-1.36,10.74-2,11.12c-4.78,3-14.45,8.74-14.45,8.74s0,12.24,0,12.44c5.77,2,11.55,4,17.3,6,.67.24,4.53,9.69,4.21,10.37q-3.6,7.59-7.41,15.08c.46.7,7.23,9.31,8.46,10.17,5.36-1.43,10.75-2.75,16.15-4,.61-.15,9.08,6.15,9.08,6.15s1.38,11.41,2,17.12c.72.65,11.4,3.56,12.39,4,2.43-2.64,12.51-12.84,12.51-12.84l10.36,1.14s7.08,8.65,10.58,13c.92,0,11.18-2.88,12.62-3.29q1.51-8.32,3.18-16.62c.13-.64,9.72-5.59,9.72-5.59s10.64,3.46,15.95,5.23c.6-1.05,7.9-8.4,8.83-9.72q-3.23-7.82-6.33-15.7c-.21-.53,4.17-9.64,5.12-9.87,5.34-1.32,10.65-2.75,16-4.06.2-1.73,2.44-13.13,2.44-13.13s-9.17-6.43-13.7-9.72C188.19,128.59,187.24,118.35,187.67,117.87Zm-56.53,40.19L93.91,135.9l22.16-37.23,37.23,22.16Z"/><path class="cls-5" d="M291.75,200.32c-5.58,1.59-11.14,3.26-16.69,5-.54.17-5.1,9.25-5,9.34,1.51,5.61,3,11.21,4.66,16.79.16.15-11,8.65-11.23,8.15-4.29-3.06-11.9-8.86-13.4-9.72a.29.29,0,0,0-.32,0c-1.07.76-13.31,3.07-13.75,3.8-2.3,3.64-7.84,12-7.84,12s-13.34-3.6-13.28-4.07c-.34-5.57-1-17.32-1-17s-10.64-7.36-11.1-7.64c-4.85.53-11,.85-16,1.09-.41-1.8-4.31-12.39-3.91-12.75,1.82-1.92,12.66-8.49,13.09-9.39.58-.54.32-13.25.17-13.57-3.83-4.28-12-13.53-11.41-12.92.05.09,6.45-12.08,6.65-12.05,5.66.93,11.34,1.78,17,2.72,1.12.19,8.71-5.1,8.71-5.1l3.59-18.56s13.32-1.83,13.82-1.75c2.71,4.88,5.53,9.69,8.24,14.57.05.25,11,2.87,11.18,2.94q7.46-4.14,15-8.1c.42-.22,7.51,5.26,10.55,8-1.83,4.6-4.12,9.6-5.95,14.19-.06.07,5.14,14.59,5.13,14.24,5.16,2,10.21,4.29,15.31,6.46C294.07,187.12,292.16,200.57,291.75,200.32ZM233,174.61a218,218,0,0,0-11.81,19.23c4.56,3.1,19.65,12.11,19.65,12.11s8.24-13.35,11.81-19.48C244.64,181.44,239.13,177.95,233,174.61Z"/><path class="cls-3" d="M249.77,229.87a.29.29,0,0,1,.32,0c1.5.86,9.11,6.66,13.4,9.72.24.49,11.39-8,11.23-8.15-1.62-5.58-3.15-11.18-4.66-16.79-.11-.09,4.46-9.18,5-9.34,5.55-1.7,11.11-3.37,16.69-5,.42.25,2.32-13.2,2.27-13.41-5.1-2.17-10.15-4.44-15.31-6.46,0,.34-5.19-14.17-5.13-14.24,1.83-4.59,4.12-9.59,5.95-14.19-3-2.7-10.13-8.18-10.55-8q-3.43,1.81-6.85,3.65l-19,32.79c2.87,1.76,6,3.71,9.53,6C249.06,192.6,240.82,206,240.82,206s-4.45-2.66-9.25-5.58l-17.35,29.9c.22,3.71.49,8.39.67,11.34-.05.47,13.28,4.07,13.28,4.07s5.54-8.37,7.84-12C236.45,232.94,248.7,230.62,249.77,229.87Z"/><path class="cls-5" d="M162.64,59.8c-5,2.84-15.08,8.61-15.08,8.61s-10.1-2.89-10.33-3.42c-2.25-5.23-3.78-10.35-6-15.61-2.83-.33-9.2-1.2-12.87-1.92-.1,0-8.82,16.78-8.82,16.78s-9.63,2.9-10,2.66C94.41,63.36,89.23,59.77,84,56.19c-.1,0-10.2,7.43-10.2,7.43s1.18,11.31,1.67,17c.06.65-6.52,7.85-6.52,7.85l-18.19-.32L45.15,99.78,55.56,112.9s-1.36,10.74-2,11.12c-4.78,3-14.45,8.74-14.45,8.74s0,12.24,0,12.44c5.77,2,11.55,4,17.3,6,.67.24,4.53,9.69,4.21,10.37q-3.6,7.59-7.41,15.08c.46.7,7.23,9.31,8.46,10.17,5.36-1.43,10.75-2.75,16.15-4,.61-.15,9.08,6.15,9.08,6.15s1.38,11.41,2,17.12c.72.65,11.4,3.56,12.39,4,2.43-2.64,12.51-12.84,12.51-12.84l1.81.2L131,158,93.91,135.9l22.16-37.23L147,117l20.81-53.53C165.5,61.88,163.23,60.26,162.64,59.8Z"/><path class="cls-2" d="M349.55,3.14a65.55,65.55,0,0,1,3.4,5.8h0l.42.77.09.17.37.67.09.16.44.81.1.19.37.68.12.22.46.85.08.15.41.78.1.2.47.89,0,0,.48.91.12.24.41.78.09.17.48.92.11.22.39.77.11.21.47.92.1.19.38.75.13.26.45.91.05.11.4.81.12.25.39.81,0,.1.41.87.11.23.33.7.08.18.37.81.09.21.28.63.09.2.33.76.06.15.26.61.08.2.28.7,0,0,.24.62.07.17.2.55,0,.07.19.56,0,.14.13.42,0,.11q.07.24.12.45l0,.09q0,.17.06.33l0,.1c0,.12,0,.23,0,.34s0,0,0,0a1.79,1.79,0,0,1,0,.23v.07a.79.79,0,0,1-.05.2C364.1,37.93,274,79.86,274,79.86L266,110.14l-22.71,14.63-22,.81-.13-.07-.26-.13-.15-.07-.23-.12-.12-.06-.1-.05c-2.15-1.1-7.39-3.8-11.74-6.14h0c-3.66-2-6.68-4-6.68-4s36.85-19.13,37.64-20.08c1.12-1.34.61-18,.61-18S227.55,66.5,226.24,66.37h0l-.13,0h0l-.24.07h0l-.32.11-.09,0-.43.16-.07,0-.46.18-.13.05-.6.25-.11,0-.6.25-.16.07-.74.32-.17.07-.71.31-.17.07-.87.38-.21.09-.78.34-.22.1-1,.43-.24.11-.93.41-.15.07-1.07.48-.28.13-1,.44-.15.07L213,72l-.23.11-2.46,1.11-.19.09-1.27.58h0l-1.24.56-.26.12-1.24.57h0l-1.26.58-.18.08-1.25.58-.14.06-1.15.53L202,77l-1.24.57-.1,0-1.13.52-.14.07-1.2.55-.11.05-.94.43-.31.14-1.09.5h0l-.91.42-.28.13-.89.41-.22.1-.8.37-5.41,2.52,3.26-22.32,15.51-17.8,24.42-7.51s10.83.85,16.29,2.82c2.37.85,14.26,10.44,15.43,10.69h0c2.69,0,83.42-45.5,87.43-46.65M348,31.21l3.73-9-9.09-3.86-3.88,9.1L348,31.21M349.63,0l-.91.26c-2,.56-13,6.54-39.47,21.07C291.6,31,267.87,44,262.4,46.5c-1.18-.81-3.23-2.33-4.83-3.52-5.57-4.14-8.36-6.15-9.9-6.7-5.78-2.09-16.61-3-17.07-3l-.57,0-.55.17-24.42,7.51-.82.25-.56.65-15.51,17.8-.58.66-.13.87L184.2,83.46,183.4,89l5-2.36,5.41-2.52.65-.3.15-.07.13-.06.09,0,.14-.06.75-.35.09,0,.19-.09.17-.08.74-.34.08,0,1-.48.19-.09.12-.06.93-.43.08,0,1.22-.56.06,0,.09,0,1.07-.49.06,0,.11,0,1.24-.57.15-.07,1.15-.53.09,0,.05,0,1.25-.57.08,0,.1,0,1.26-.58,1.26-.58.26-.12,1.23-.56,1.27-.58.19-.09L214,74.83l.1,0,.13-.06,1.15-.52.07,0,.08,0,1-.44.28-.13,1.06-.48.07,0,.08,0,.92-.41.09,0,.15-.07,1-.43.13-.06.09,0,.77-.34.12-.05.09,0,.86-.38.1,0,.07,0,.7-.3.07,0,.1,0,.73-.31.07,0,.09,0,.58-.24.11,0,.58-.24.1,0,.45-.18c2,1.34,6.82,5.17,11.16,8.75A135.84,135.84,0,0,1,236.89,93c-4.23,2.48-24,12.86-36.46,19.32l-4.54,2.36,4.28,2.81c.13.08,3.17,2.08,6.91,4.09,4.41,2.37,9.72,5.1,11.8,6.17l0,0,.05,0,.08,0,.12.06.15.08.09,0,.05,0,.26.14.13.07.69.35.78,0,22-.81.82,0,.69-.45,22.71-14.63,1-.63.3-1.12L276.57,82c5.08-2.37,24.56-11.47,43.91-20.67C333.65,55.06,344.19,50,351.8,46.2c15.27-7.56,15.52-8.11,16.08-9.32a3.71,3.71,0,0,0,.29-1c0-.07,0-.15,0-.22a4.79,4.79,0,0,0,0-.56v-.17c0-.18,0-.39-.06-.61l0-.13c0-.17-.06-.33-.09-.49l0-.13q-.06-.28-.15-.58l0-.11-.16-.52-.05-.16-.21-.63h0l0-.06-.22-.6-.07-.19-.25-.66h0l0,0-.3-.74-.08-.18-.28-.65,0-.05,0-.1-.34-.78-.06-.14,0-.07-.29-.65,0-.06-.07-.15-.38-.83,0-.11,0-.08-.33-.72,0-.07-.08-.17-.42-.88,0-.07-.41-.85-.12-.25-.4-.82,0-.06,0-.05-.46-.92-.09-.18,0-.08-.38-.76-.05-.1,0-.09-.47-.94-.11-.21-.4-.77,0-.08-.08-.15-.48-.93-.06-.11,0-.06-.41-.79-.05-.1-.07-.13-.48-.92,0-.05-.47-.89-.05-.09-.05-.1-.42-.78,0-.06-.05-.09-.46-.86-.07-.13,0-.09-.37-.69,0-.09-.05-.1-.44-.81,0-.08,0-.09-.37-.67,0-.07L356,8.28l-.43-.77C351.85.76,351.73.72,350.53.31L349.63,0Zm-7,25.84,1.5-3.53,3.59,1.53-1.45,3.48-3.65-1.47Z"/><path class="cls-5" d="M262.09,49.79c-1.17-.25-13.07-9.84-15.43-10.69-5.46-2-16.29-2.82-16.29-2.82l-24.42,7.51-15.51,17.8L187.17,83.9s37.76-17.66,39.07-17.53,13.83,10.55,13.83,10.55.5,16.64-.61,18c-.79.94-37.61,19.37-37.64,20.08s19.42,10.6,19.42,10.6l22-.81L266,110.14,274,79.86s90.06-41.93,91.11-44.23c1.28-2.79-15.12-32.33-15.6-32.49C345.52,4.3,264.05,50.21,262.09,49.79Zm89.61-27.55-3.73,9-9.24-3.73,3.88-9.1Z"/><path class="cls-3" d="M266.22,55.3C265,55,253.15,45.46,250.78,44.6c-5.46-2-16.29-2.82-16.29-2.82l-24.42,7.51-15.51,17.8-2.1,14.34c10.44-4.85,32.77-15.16,33.78-15.06,1.31.13,13.83,10.55,13.83,10.55l4.13,5.51s.5,16.64-.61,18c-.66.79-26.75,13.92-35.1,18.52,5.62,3,12.74,6.65,12.74,6.65l22-.81L266,110.14,274,79.86s90.06-41.93,91.11-44.23c.92-2-7.33-17.9-12.19-26.69C343.95,13,268.11,55.71,266.22,55.3Zm81.73-24-9.22-3.83,3.88-9.1,9.09,3.86Z"/></g></g></svg>