<svg xmlns="http://www.w3.org/2000/svg" viewBox="0 0 372.26 316.73"><defs><style>.cls-1{fill:#fff;}.cls-2{fill:#bcbec0;}.cls-3{fill:#009444;}.cls-4{fill:#006838;}.cls-5{fill:#39b54a;}.cls-6{fill:#f1f2f2;}.cls-7{fill:#d1d3d4;}.cls-8{fill:#be222f;}.cls-9{fill:#6c0f22;}.cls-10{fill:#ef484a;}</style></defs><title>assurance</title><g id="Layer_2" data-name="Layer 2"><g id="Layer_10" data-name="Layer 10"><path class="cls-1" d="M183.59,4,314.24,48.61l.84,2.57,31.83,97.89L314.24,268.12,187.67,312.77,65.19,268.12l-1-3.14L28.45,152.78,65.19,48.61,183.59,4M169.81,132,181,127.76l-6.58-95.91L88.69,64.17,169.81,132m37.36.54,82-68.52L196.57,32.36,193.88,128l13.28,4.54m13.61,21.64,100.46-5.85L299.6,81.75,216.18,140l4.59,14.12m-65.15-2,4.52-12.82-81.59-57L56,146.32l99.65,5.81m-76,83.74,81.25-56.78-4.89-15.35L57.3,165.93l22.28,69.94M298,237.68,317.15,168l-98.26-2.17-3.8,13.84,82.95,58M173.53,283.42l6.52-95-8.49-3.1L90.4,253.12l83.13,30.3m21.83,2.44,90.51-31.93-82-68.5-11.26,4,2.71,96.46M183.53,0l-1.25.47L63.88,45.12l-1.62.61-.58,1.64L24.93,151.54l-.42,1.18.38,1.19L60.64,266.11l1,3.14L62.2,271l1.72.63L186.4,316.27l1.26.46,1.26-.44,126.56-44.65,1.84-.65.52-1.88L350.5,150l.3-1.08-.35-1.06L318.62,50l-.84-2.57-.58-1.77-1.76-.6L184.8.43,183.53,0ZM96,65.41l75-28.3,6,88.14-6.53,2.46L96,65.41Zm101.71,59.93,2.47-87.81,81.52,27.86-75.29,62.93-8.7-3Zm22.9,16.17,77-53.82,18.59,57.17-92.77,5.4-2.85-8.75ZM61.14,142.89l19.3-54.73,75.25,52.58-2.65,7.5-91.91-5.35Zm1.22,26.66,90.87-2,3.21,10.07L81.6,229.92,62.36,169.54Zm157,8.63,2.33-8.5,90.57,2L295.85,231.6l-76.46-53.43ZM97.75,251.83l74.55-62.31,3.84,1.4-6,87.3-72.4-26.39ZM196.45,192l6.69-2.36,75.31,62.94-79.51,28L196.45,192Z"/><rect class="cls-2" x="279.37" y="90.78" width="37" height="22.47" transform="translate(280.76 -212.38) rotate(67.98)"/><rect class="cls-2" x="55.89" y="88.92" width="37" height="22.47" transform="translate(195.12 68.74) rotate(112.02)"/><path class="cls-3" d="M314.24,48.61,183.59,4,65.19,48.61,28.45,152.78,65.19,268.12l122.48,44.65,126.56-44.65L346.9,149.06ZM207.16,132.52,193.88,128l2.69-95.62L289.14,64ZM181,127.76,169.81,132,88.69,64.17l85.7-32.32Zm-20.82,11.55-4.52,12.82L56,146.32l22.58-64Zm-4.21,24.44,4.89,15.35L79.58,235.87,57.3,165.93Zm15.61,21.54,8.49,3.1-6.52,95L90.4,253.12Zm21.09,4.12,11.26-4,82,68.5-90.51,31.93Zm22.45-9.69,3.8-13.84L317.15,168,298,237.68Zm5.68-25.57L216.18,140,299.6,81.75l21.64,66.55Z"/><path class="cls-4" d="M200.42,147.31l-13.15-4.49-11.92,4.49-3.7,10.49,3.7,11.61,12.33,4.49,12.74-4.49,3.29-12Z"/><path class="cls-5" d="M314.24,48.61,183.59,4,65.19,48.61,28.45,152.78,64.19,265,315.07,51.18ZM78.56,82.3l81.59,57-4.52,12.82L56,146.32Zm1,153.57L57.3,165.93l98.64-2.18,4.89,15.35ZM169.81,132,88.69,64.17l85.7-32.32L181,127.76Zm37.36.54L193.88,128l2.69-95.62L289.14,64Z"/><polygon class="cls-3" points="200.41 147.31 187.26 142.82 175.34 147.31 171.65 157.8 175.34 169.41 176.03 169.66 200.82 148.55 200.41 147.31"/><rect class="cls-6" x="289.5" y="78.67" width="78.91" height="61.51" transform="translate(307.06 -236.56) rotate(67.98)"/><rect class="cls-7" x="291.56" y="92.44" width="33.07" height="6.69" transform="translate(-13.44 122.5) rotate(-22.02)"/><rect class="cls-7" x="300.3" y="113.98" width="33.67" height="6.69" transform="translate(-20.86 127.46) rotate(-22.02)"/><rect class="cls-7" x="308.26" y="133.64" width="34.11" height="6.69" transform="translate(-27.63 131.97) rotate(-22.02)"/><rect class="cls-6" x="3.85" y="74.94" width="78.91" height="61.51" transform="translate(157.53 105.18) rotate(112.02)"/><rect class="cls-7" x="60.82" y="75.52" width="6.69" height="33.07" transform="translate(-45.23 117.02) rotate(-67.98)"/><rect class="cls-7" x="51.78" y="96.77" width="6.69" height="33.67" transform="translate(-70.86 122.11) rotate(-67.98)"/><rect class="cls-7" x="43.59" y="116.2" width="6.69" height="34.11" transform="translate(-94.2 126.81) rotate(-67.98)"/><rect class="cls-2" x="279.37" y="90.78" width="37" height="22.47" transform="translate(280.76 -212.38) rotate(67.98)"/><rect class="cls-2" x="55.89" y="88.92" width="37" height="22.47" transform="translate(195.12 68.74) rotate(112.02)"/><path class="cls-8" d="M314.24,48.61,183.59,4,65.19,48.61,28.45,152.78,65.19,268.12l122.48,44.65,126.56-44.65L346.9,149.06ZM207.16,132.52,193.88,128l2.69-95.62L289.14,64ZM181,127.76,169.81,132,88.69,64.17l85.7-32.32Zm-20.82,11.55-4.52,12.82L56,146.32l22.58-64Zm-4.21,24.44,4.89,15.35L79.58,235.87,57.3,165.93Zm15.61,21.54,8.49,3.1-6.52,95L90.4,253.12Zm21.09,4.12,11.26-4,82,68.5-90.51,31.93Zm22.45-9.69,3.8-13.84L317.15,168,298,237.68Zm5.68-25.57L216.18,140,299.6,81.75l21.64,66.55Z"/><path class="cls-9" d="M200.42,147.31l-13.15-4.49-11.92,4.49-3.7,10.49,3.7,11.61,12.33,4.49,12.74-4.49,3.29-12Z"/><path class="cls-10" d="M314.24,48.61,183.59,4,65.19,48.61,28.45,152.78,64.19,265,315.07,51.18ZM78.56,82.3l81.59,57-4.52,12.82L56,146.32Zm1,153.57L57.3,165.93l98.64-2.18,4.89,15.35ZM169.81,132,88.69,64.17l85.7-32.32L181,127.76Zm37.36.54L193.88,128l2.69-95.62L289.14,64Z"/><polygon class="cls-8" points="200.41 147.31 187.26 142.82 175.34 147.31 171.65 157.8 175.34 169.41 176.03 169.66 200.82 148.55 200.41 147.31"/><rect class="cls-6" x="289.5" y="78.67" width="78.91" height="61.51" transform="translate(307.06 -236.56) rotate(67.98)"/><rect class="cls-7" x="291.56" y="92.44" width="33.07" height="6.69" transform="translate(-13.44 122.5) rotate(-22.02)"/><rect class="cls-7" x="300.3" y="113.98" width="33.67" height="6.69" transform="translate(-20.86 127.46) rotate(-22.02)"/><rect class="cls-7" x="308.26" y="133.64" width="34.11" height="6.69" transform="translate(-27.63 131.97) rotate(-22.02)"/><rect class="cls-6" x="3.85" y="74.94" width="78.91" height="61.51" transform="translate(157.53 105.18) rotate(112.02)"/><rect class="cls-7" x="60.82" y="75.52" width="6.69" height="33.07" transform="translate(-45.23 117.02) rotate(-67.98)"/><rect class="cls-7" x="51.78" y="96.77" width="6.69" height="33.67" transform="translate(-70.86 122.11) rotate(-67.98)"/><rect class="cls-7" x="43.59" y="116.2" width="6.69" height="34.11" transform="translate(-94.2 126.81) rotate(-67.98)"/></g></g></svg>