<svg xmlns="http://www.w3.org/2000/svg" viewBox="0 0 327.37 243.57"><defs><style>.cls-1{fill:#fff;}.cls-2{fill:#ef4136;}.cls-3{fill:#f26342;}.cls-4{fill:#f58648;}.cls-5{fill:#fbae47;}.cls-6{fill:#fad048;}.cls-7{fill:#ed1c24;}.cls-8{fill:#be1e2d;}.cls-9{fill:#f15a29;}.cls-10{fill:#f7941d;}.cls-11{fill:#fff278;}.cls-12{fill:#6c0e21;}.cls-13{fill:#3e1217;}</style></defs><title>significance</title><g id="Layer_2" data-name="Layer 2"><g id="Layer_12" data-name="Layer 12"><rect class="cls-1" x="11.91" y="178.46" width="298.51" height="65.11"/><rect class="cls-1" x="4.2" y="124.38" width="315.68" height="59.49"/><rect class="cls-1" x="103.57" y="90.82" width="118.97" height="40.99"/><path class="cls-2" d="M1.22,2.48l1,.36,28.19,9.48,62.45,21,57.44,19.3,3.3,1.13-.74.27L7.1,104.34c-2.36.81-4.69,1.72-7.1,2.38Z"/><path class="cls-3" d="M98.74,35.26V72.7L39.26,93.24v-78l53.64,18Z"/><path class="cls-4" d="M76.44,80.4,16.95,100.94V7.78l13.49,4.54,46,15.45Z"/><path class="cls-5" d="M2.25,2.84l28.19,9.48,20.3,6.82V89.27L7.1,104.34c-2.36.81-4.69,1.72-7.1,2.38L1.22,2.48Z"/><path class="cls-6" d="M2.25,2.84,22.36,9.6V99.07L7.1,104.34c-2.36.81-4.69,1.72-7.1,2.38L1.22,2.48Z"/><path class="cls-2" d="M327.37,109.43c-2.41-.66-4.74-1.57-7.1-2.38L174.47,56.7l-.74-.27L177,55.3,234.47,36l62.45-21,28.19-9.48,1-.36Z"/><polygon class="cls-7" points="212.74 99.61 113.23 99.61 121.08 9.62 127.06 2.7 196.66 2.7 203.61 8.93 212.74 99.61"/><polygon class="cls-8" points="212.74 99.61 203.88 11.6 204.06 11.46 204.04 11.31 203.83 11.12 203.61 8.93 202.79 8.19 200.91 8.51 197.09 5.09 127.5 5.09 121.52 12.01 123.22 13.33 127.72 16.97 196.56 16.97 204.92 99.61 212.74 99.61"/><polygon class="cls-9" points="122.79 10.94 127.28 14.58 196.22 14.58 203.62 9.08 203.61 8.93 196.66 2.7 127.06 2.7 121.08 9.62 113.23 99.61 115.32 99.61 122.79 10.94"/><rect class="cls-10" x="142.64" y="37.1" width="37.57" height="37.57" transform="translate(7.77 130.51) rotate(-45)"/><path class="cls-2" d="M161.43,30.9l25,25-25,25-25-25,25-25m0-3.16-1.58,1.58-25,25-1.58,1.58,1.58,1.58,25,25L161.43,84,163,82.45l25-25,1.58-1.58L188,54.3l-25-25-1.58-1.58Z"/><rect class="cls-11" x="151.81" y="46.27" width="19.23" height="19.23" transform="translate(7.77 130.51) rotate(-45)"/><path class="cls-3" d="M228.62,38V75.4l59.49,20.54V18L234.47,36Z"/><path class="cls-4" d="M250.93,83.1l59.49,20.54V10.49L296.92,15l-46,15.45Z"/><path class="cls-5" d="M325.12,5.54,296.92,15l-20.3,6.82V92L320.27,107c2.36.81,4.69,1.72,7.1,2.38L326.14,5.19Z"/><path class="cls-6" d="M325.12,5.54,305,12.31v89.47L320.27,107c2.36.81,4.69,1.72,7.1,2.38L326.14,5.19Z"/><path class="cls-1" d="M196.66,2.7l6.95,6.22.22,2.19.21.19,0,.15-.18.13,8.86,88h-99.5l7.85-90,6-6.92h69.59m1-2.7H125.83L125,.94l-6,6.92-.57.66-.08.87-7.85,90-.26,2.94H215.73l-.3-3-8.71-86.48.18-.13-.15-1.53,0-.15-.11-1-.21-.19-.12-1.15-.11-1-.78-.7L198.46.69,197.69,0Z"/><rect class="cls-8" x="108.2" y="95.67" width="109.7" height="31.65"/><path class="cls-12" d="M216.39,97.18V125.8H109.72V97.18H216.39m3-3H106.69v34.69H219.42V94.15Z"/><polygon class="cls-12" points="156.83 125.8 216.38 125.8 216.38 97.18 161.97 97.18 156.83 125.8"/><polygon class="cls-12" points="147.51 179.13 314.47 178.46 314.47 128.44 156.29 127.08 147.51 179.13"/><rect class="cls-8" x="17.07" y="178.68" width="287.92" height="61.04"/><path class="cls-12" d="M303.66,180V238.4H18.39V180H303.66m2.65-2.65H15.74v63.7H306.31v-63.7Z"/><polygon class="cls-12" points="133.31 238.4 304.33 238.64 304.33 180.01 146.83 178.98 133.31 238.4"/><rect class="cls-12" x="8.92" y="129.11" width="306.22" height="50.02"/><path class="cls-13" d="M313.79,130.46v47.32H10.28V130.46H313.79m2.7-2.7H7.57v52.73H316.5V127.76Z"/><polygon class="cls-13" points="315.83 179.13 148.18 178.46 156.29 128.44 315.83 128.44 315.83 179.13"/></g></g></svg>