<svg xmlns="http://www.w3.org/2000/svg" viewBox="0 0 285 272.29"><defs><style>.cls-1{fill:#f26b36;}.cls-2{fill:#fff;}.cls-3{fill:#d2df43;}.cls-4{fill:#ed1c24;}.cls-5{fill:#8dc63f;}.cls-6{fill:#27aae1;}.cls-7{fill:#0a84c6;}.cls-8{fill:#184047;}.cls-9{fill:#102e35;}.cls-10,.cls-11,.cls-12{fill:none;stroke:#fff;stroke-width:0.89px;}.cls-11{stroke-dasharray:3.54 3.54;}.cls-12{stroke-dasharray:3.37 3.37;}.cls-13{fill:#0b6ab3;}</style></defs><title>strategic</title><g id="Layer_2" data-name="Layer 2"><g id="Layer_8" data-name="Layer 8"><polygon class="cls-1" points="108.3 91.6 95.88 39.33 129.38 4.07 164.67 38.48 150.73 91.6 108.3 91.6"/><path class="cls-2" d="M129.44,7.22,162.2,39.16,149,89.39H110L98.31,40,129.44,7.22m-.12-6.3-3.09,3.25L95.1,36.93l-1.65,1.74L94,41l11.74,49.41.81,3.4h45.89l.87-3.3,13.18-50.22.65-2.49L165.29,36,132.53,4,129.32.91Z"/><polygon class="cls-3" points="184.08 90.69 171.66 38.41 205.16 3.15 240.45 37.56 226.51 90.69 184.08 90.69"/><path class="cls-2" d="M205.22,6.3,238,38.25,224.8,88.47h-39L174.09,39.07,205.22,6.3M205.1,0,202,3.25,170.88,36l-1.65,1.74.55,2.33L181.52,89.5l.81,3.4h45.89l.87-3.3,13.18-50.22.65-2.49-1.85-1.8L208.31,3.13,205.1,0Z"/><polygon class="cls-4" points="144.85 80.26 114.54 80.26 105.41 41.83 129.62 16.35 155.1 41.19 144.85 80.26"/><polygon class="cls-5" points="220.63 79.34 190.32 79.34 181.19 40.92 205.4 15.43 230.88 40.28 220.63 79.34"/><polygon class="cls-6" points="2.21 270.07 2.21 111.54 38.85 111.54 63.85 77.13 282.79 77.13 282.79 269.94 65.64 269.94 65.64 270.07 2.21 270.07"/><path class="cls-2" d="M280.57,79.34V267.73H63.42v.13h-59V113.76H40.37v-.53L65,79.34h215.6M285,74.91H62.72l-1.33,1.83L37.73,109.33H0v163H67.85v-.13H285V74.91Z"/><polygon class="cls-7" points="4.43 267.54 4.43 267.86 63.42 267.86 63.42 267.73 280.57 267.73 280.57 79.34 228.01 79.34 4.43 267.54"/><rect class="cls-8" x="71.53" y="107.63" width="186.62" height="132.8"/><polygon class="cls-9" points="71.53 211.06 71.53 240.43 258.14 240.43 258.14 107.63 194.41 107.63 71.53 211.06"/><circle class="cls-10" cx="166.05" cy="172.37" r="27.73"/><line class="cls-11" x1="99.73" y1="129.45" x2="103.01" y2="140.75"/><line class="cls-10" x1="103.43" y1="132.75" x2="104.95" y2="133.65"/><line class="cls-12" x1="107.85" y1="135.37" x2="135.34" y2="151.68"/><line class="cls-10" x1="136.79" y1="152.54" x2="138.32" y2="153.45"/><line class="cls-11" x1="99.41" y1="129.54" x2="111.01" y2="131.51"/><line class="cls-11" x1="105.37" y1="220.96" x2="117.14" y2="221.1"/><line class="cls-10" x1="109.6" y1="218.37" x2="110.91" y2="217.18"/><line class="cls-12" x1="113.39" y1="214.91" x2="136.98" y2="193.33"/><line class="cls-10" x1="138.22" y1="192.19" x2="139.53" y2="190.99"/><line class="cls-11" x1="105.37" y1="221.3" x2="110.61" y2="210.76"/><line class="cls-11" x1="226.47" y1="222.14" x2="214.71" y2="222.28"/><line class="cls-10" x1="222.24" y1="219.55" x2="220.93" y2="218.36"/><line class="cls-12" x1="218.45" y1="216.09" x2="194.86" y2="194.51"/><line class="cls-10" x1="193.62" y1="193.37" x2="192.31" y2="192.18"/><line class="cls-11" x1="226.48" y1="222.48" x2="221.23" y2="211.94"/><line class="cls-11" x1="227.46" y1="125.93" x2="225.44" y2="137.52"/><line class="cls-10" x1="224.14" y1="129.61" x2="222.72" y2="130.68"/><line class="cls-12" x1="220.04" y1="132.71" x2="194.51" y2="151.95"/><line class="cls-10" x1="193.16" y1="152.97" x2="191.75" y2="154.03"/><line class="cls-11" x1="227.78" y1="125.98" x2="216.47" y2="129.21"/><line class="cls-10" x1="133.77" y1="173.85" x2="107.72" y2="173.9"/><line class="cls-10" x1="107.28" y1="174.04" x2="114.66" y2="168.29"/><line class="cls-10" x1="107.28" y1="173.61" x2="114.66" y2="179.36"/><line class="cls-10" x1="198.8" y1="173.11" x2="224.85" y2="173.16"/><line class="cls-10" x1="225.29" y1="173.31" x2="217.91" y2="167.55"/><line class="cls-10" x1="225.29" y1="172.87" x2="217.91" y2="178.63"/><circle class="cls-10" cx="89.34" cy="125.28" r="6.2"/><circle class="cls-10" cx="240.36" cy="226.37" r="6.2"/><rect class="cls-10" x="87.86" y="168.09" width="11.81" height="11.81"/><rect class="cls-10" x="233.37" y="116.77" width="12.4" height="12.4"/><polygon class="cls-10" points="98.49 229.5 83.14 229.5 90.22 214.74 98.49 229.5"/><polygon class="cls-13" points="48.72 187.87 26.62 187.87 36.82 166.61 48.72 187.87"/><polygon class="cls-10" points="248.47 179.61 233.12 179.61 240.2 164.85 248.47 179.61"/><rect class="cls-13" x="27.91" y="133.82" width="20.41" height="20.41"/><circle class="cls-13" cx="38.11" cy="214" r="10.19"/></g></g></svg>