<svg xmlns="http://www.w3.org/2000/svg" viewBox="0 0 307.92 309.16"><defs><style>.cls-1{fill:#fff;}.cls-2{fill:#be1e2d;}.cls-3{fill:#f0484a;}.cls-4{fill:#941a1d;}.cls-5{fill:#570f17;}.cls-6{fill:#9adbf8;}.cls-7{fill:#dc2129;}.cls-8{fill:#2b3990;}.cls-9{fill:#27aae1;}.cls-10{fill:#8dc63f;}.cls-11{fill:#009444;}.cls-12{fill:#662d91;}.cls-13{fill:#fff200;}.cls-14{fill:#f15a29;}.cls-15{fill:#f7941d;}.cls-16{fill:#ec008c;}.cls-17{fill:#ee2a7b;}.cls-18{fill:#00aeef;}.cls-19{fill:#92278f;}.cls-20{fill:#2bb673;}.cls-21{fill:#00a79d;}.cls-22{fill:#aed136;}.cls-23{fill:#939598;}</style></defs><title>woo</title><g id="Layer_2" data-name="Layer 2"><g id="Layer_7" data-name="Layer 7"><path class="cls-1" d="M282.86,40.69l3.22,2.37-5.34,7.25-3.22-2.37,5.34-7.25M282,35.09l-2.37,3.22-5.34,7.25-2.37,3.22,3.22,2.37,3.22,2.37,3.22,2.37L284,52.68l5.34-7.25,2.37-3.22-3.22-2.37-3.22-2.37L282,35.09Z"/><path class="cls-1" d="M273.35,226.33l8.11,3.9-1.73,3.6-8.11-3.9,1.73-3.6M271.48,221l-1.73,3.6L268,228.2l-1.73,3.6,3.6,1.73,8.11,3.9,3.6,1.73,1.73-3.6,1.73-3.6,1.73-3.6-3.6-1.73-8.11-3.9-3.6-1.73Z"/><path class="cls-1" d="M38.72,34.4l7.79,4.5-2,3.46-7.79-4.5,2-3.46m-1.46-5.46-2,3.46-2,3.46-2,3.46,3.46,2,7.79,4.5,3.46,2,2-3.46,2-3.46,2-3.46-3.46-2-7.79-4.5-3.46-2Z"/><path class="cls-1" d="M50.54,240.89l1.61,3.66-8.24,3.62-1.61-3.66,8.24-3.62m2.06-5.27-3.66,1.61-8.24,3.62L37,242.45l1.61,3.66,1.61,3.66,1.61,3.66,3.66-1.61,8.24-3.62,3.66-1.61-1.61-3.66-1.61-3.66-1.61-3.66Z"/><path class="cls-1" d="M299.21,124.78l.6,4-8.9,1.34-.6-4,8.9-1.34m3.36-4.55-4,.6-8.9,1.34-4,.6.6,4,.6,4,.6,4,4-.6,8.9-1.34,4-.6-.6-4-.6-4-.6-4Z"/><path class="cls-1" d="M281,175.78l21.46,13.47-2.13,3.39-21.46-13.47,2.13-3.39m-1.26-5.51-2.13,3.39L275.44,177l-2.13,3.39,3.39,2.13L298.16,196l3.39,2.13,2.13-3.39,2.13-3.39,2.13-3.39-3.39-2.13-21.46-13.47-3.39-2.13Z"/><rect class="cls-2" x="67.11" y="17.06" width="194.74" height="286.59"/><polygon class="cls-3" points="67.11 245.21 261.85 65.01 261.85 17.06 67.11 17.06 67.11 245.21"/><rect class="cls-4" x="63.6" y="270.04" width="200.55" height="20.7"/><polygon class="cls-4" points="209.78 192.47 165.81 210.12 123.27 192.47 110.5 146.86 123.27 105.66 164.4 88.01 209.78 105.66 221.13 145.39 209.78 192.47"/><polygon class="cls-4" points="99.28 193.97 55.31 211.62 12.77 193.97 0 148.36 12.77 107.16 53.9 89.51 99.28 107.16 110.63 146.89 99.28 193.97"/><polygon class="cls-5" points="196.72 178.7 165.25 190.88 134.8 178.7 125.67 147.23 134.8 118.81 164.24 106.63 196.72 118.81 204.84 146.22 196.72 178.7"/><polygon class="cls-6" points="87.72 178.7 56.25 190.88 25.8 178.7 16.67 147.23 25.8 118.81 55.24 106.63 87.72 118.81 95.84 146.22 87.72 178.7"/><rect class="cls-2" x="125.76" y="8.88" width="84.44" height="9.31"/><rect class="cls-7" x="63.6" y="29.38" width="200.55" height="20.7"/><rect class="cls-8" x="98.17" y="52.02" width="4" height="9" transform="translate(-12.96 77.28) rotate(-39.83)"/><rect class="cls-9" x="163.34" y="67.36" width="4" height="9" transform="translate(20.61 -35.63) rotate(13.11)"/><rect class="cls-10" x="279.81" y="41" width="4" height="9" transform="translate(81.93 -158.3) rotate(36.39)"/><rect class="cls-11" x="85.03" y="99.17" width="4" height="9" transform="translate(-42.89 141.66) rotate(-66.28)"/><rect class="cls-12" x="211.7" y="268.81" width="4" height="9" transform="translate(560.42 285.48) rotate(130.03)"/><rect class="cls-13" x="115.49" y="155.87" width="4" height="9" transform="translate(238.2 2.41) rotate(73.61)"/><rect class="cls-14" x="160.34" y="211.6" width="4" height="9" transform="translate(330.9 427.39) rotate(178.33)"/><rect class="cls-15" x="117.76" y="259.27" width="4" height="9" transform="translate(48.97 544.67) rotate(-141.44)"/><rect class="cls-9" x="274.54" y="225.59" width="4" height="9" transform="translate(603.78 80.66) rotate(115.7)"/><rect class="cls-9" x="98.3" y="207.17" width="4" height="9" transform="translate(-25.36 409.35) rotate(-122.2)"/><rect class="cls-10" x="217.35" y="34.75" width="4" height="9" transform="translate(106.84 -153.09) rotate(49.53)"/><rect class="cls-16" x="154.71" y="0.22" width="4" height="9" transform="translate(0.7 20.26) rotate(-7.41)"/><rect class="cls-9" x="39.62" y="33.88" width="4" height="9" transform="matrix(0.5, -0.87, 0.87, 0.5, -12.43, 55.23)"/><rect class="cls-8" x="233.53" y="88.76" width="4" height="9" transform="translate(244.79 346.42) rotate(-113.7)"/><rect class="cls-13" x="45.23" y="240.03" width="4" height="9" transform="translate(-157.7 386.05) rotate(-113.7)"/><rect class="cls-13" x="59.5" y="137.06" width="4" height="9" transform="translate(-92.18 155.75) rotate(-71.79)"/><rect class="cls-17" x="293.06" y="122.93" width="4" height="9" transform="translate(377.02 -183.34) rotate(81.42)"/><rect class="cls-18" x="216.33" y="210.37" width="4" height="9" transform="translate(506.04 109.69) rotate(115.37)"/><rect class="cls-12" x="245.25" y="154.73" width="4" height="9" transform="translate(415.03 -82.29) rotate(92.01)"/><rect class="cls-19" x="2.08" y="100.88" width="21.33" height="5.33" transform="translate(30.52 0.75) rotate(16.83)"/><rect class="cls-20" x="277.95" y="182.21" width="25.33" height="4" transform="translate(142.4 -126.31) rotate(32.11)"/><rect class="cls-21" x="200.62" y="84.88" width="5.33" height="24" transform="translate(75.67 -88.66) rotate(30)"/><rect class="cls-17" x="145.28" y="284.21" width="5.33" height="24.67" transform="translate(64.25 -24.12) rotate(11.89)"/><path class="cls-21" d="M125.89,228.6c-10.2-3-24.57-3.41-30.28,7.65a9.94,9.94,0,0,0-1.14,4.54,14.85,14.85,0,0,0-4,5.93c-1.36,3.82-1.11,8.41,2,11.28a25.46,25.46,0,0,0-2,3.46c-2.5,5.12.35,8.5,1.74,13.39a22.54,22.54,0,0,1-2.29,17.42c-.61,1.06,1,2.14,1.57,1.08a24.68,24.68,0,0,0,3.4-13.87,23.75,23.75,0,0,0-1.52-7.11c-1.58-4.12-3.12-6.94-.55-11.25a20.88,20.88,0,0,1,1.34-2c2.26,1.22,5.3,1.65,7.12-.3s.23-4.71-2.22-5.08c-2-.3-3.85,1-5.37,2.73-2-2-2.48-5.36-1.71-8.2a13.15,13.15,0,0,1,3-5.24,5,5,0,0,0,2.39,2.67c4.25,2.26,9.48,0,12-3.7a1,1,0,0,0-.06-1.16c-3.68-4.51-8.81-4.16-12.87-1.53.58-3.09,3.6-6,5.89-7.53,6.91-4.61,15.47-3.67,23-1.41C126.44,230.75,127.07,228.95,125.89,228.6ZM95.48,257.52c1-1.06.8-1.32,2-.22,1.7,1.56-.1,1-1.14.72a6.24,6.24,0,0,1-1-.36Zm11.8-16a8,8,0,0,1-4.51,2.93c-2.47.55-5.64-.16-6.35-2.87C99.68,239,104,238.07,107.28,241.54Z"/><path class="cls-13" d="M129.53,73.78c5.86-8.89,10.36-22.54,1.42-31.2a9.94,9.94,0,0,0-4-2.4,14.85,14.85,0,0,0-4.51-5.58c-3.26-2.4-7.73-3.49-11.38-1.32a25.46,25.46,0,0,0-2.72-3c-4.18-3.87-8.24-2.12-13.32-2.2a22.54,22.54,0,0,1-16-7.22c-.83-.89-2.32.3-1.48,1.19a24.68,24.68,0,0,0,12.3,7.26,23.75,23.75,0,0,0,7.24.6c4.4-.32,7.55-1,10.93,2.72a20.88,20.88,0,0,1,1.5,1.85c-1.82,1.81-3.11,4.6-1.77,6.91s4.44,1.58,5.51-.66c.86-1.82.15-4-1.06-5.93,2.5-1.35,5.85-.83,8.34.73a13.15,13.15,0,0,1,4.16,4.36,5,5,0,0,0-3.25,1.52c-3.39,3.42-2.73,9.07.07,12.57a1,1,0,0,0,1.13.27c5.38-2.22,6.53-7.23,5.18-11.88,2.79,1.45,4.71,5.18,5.51,7.81,2.42,7.94-1,15.87-5.29,22.45C127.32,73.68,128.86,74.8,129.53,73.78ZM110.62,36.31c.73,1.26,1,1.15-.37,2-2,1.18-.92-.38-.36-1.3a6.24,6.24,0,0,1,.63-.85Zm11.89,15.91A8,8,0,0,1,121,47.06c.19-2.53,1.78-5.35,4.58-5.25C127.17,45.68,126.79,50.05,122.51,52.22Z"/><path class="cls-22" d="M303.34,104.13c-5.78-8.94-16.46-18.56-28-13.86A9.94,9.94,0,0,0,271.54,93a14.85,14.85,0,0,0-6.93,1.88c-3.51,2-6.31,5.67-5.79,9.89a25.46,25.46,0,0,0-3.81,1.3c-5.22,2.27-5.26,6.69-7.38,11.31a22.54,22.54,0,0,1-13.06,11.75c-1.15.41-.66,2.25.5,1.84a24.68,24.68,0,0,0,11.6-8.33,23.75,23.75,0,0,0,3.47-6.39c1.48-4.16,2.14-7.31,6.89-8.91a20.88,20.88,0,0,1,2.3-.63c.93,2.39,3,4.7,5.61,4.4s3.23-3.43,1.61-5.31c-1.32-1.52-3.58-1.74-5.85-1.42-.23-2.83,1.59-5.69,4-7.35A13.15,13.15,0,0,1,270.38,95a5,5,0,0,0,.08,3.59c1.76,4.48,7.21,6.15,11.53,5a1,1,0,0,0,.7-.92c.13-5.82-4-8.88-8.79-9.53,2.45-2,6.64-2.22,9.37-1.89,8.24,1,14.14,7.26,18.42,13.89C302.36,106.12,304,105.16,303.34,104.13Zm-41.91,2.23c1.45-.16,1.47-.49,1.67,1.14.28,2.3-.72.69-1.34-.19a6.24,6.24,0,0,1-.52-.92Zm19.35-4.48a8,8,0,0,1-5.34-.7c-2.23-1.19-4.18-3.78-3-6.31C276.68,95,280.52,97.08,280.78,101.88Z"/></g><g id="Layer_8" data-name="Layer 8"><rect class="cls-1" x="168.17" y="125.38" width="11.62" height="42"/><rect class="cls-1" x="145.86" y="136.88" width="26.92" height="30.5"/><rect class="cls-1" x="168.2" y="156.86" width="23.01" height="8.52" transform="translate(-49.68 236.19) rotate(-60)"/><rect class="cls-23" x="152.16" y="144.5" width="14.5" height="1.5"/><rect class="cls-23" x="152.28" y="152" width="14.5" height="1.5"/><rect class="cls-23" x="151.83" y="151.66" width="30.5" height="1.08" transform="translate(14.88 319.27) rotate(-90)"/><rect class="cls-23" x="152.41" y="159.5" width="14.5" height="1.5"/></g></g></svg>