<?xml version="1.0" encoding="utf-8"?>
<!-- Generator: Adobe Illustrator 22.0.0, SVG Export Plug-In . SVG Version: 6.00 Build 0)  -->
<svg version="1.1" id="Layer_1" xmlns="http://www.w3.org/2000/svg" xmlns:xlink="http://www.w3.org/1999/xlink" x="0px" y="0px"
	 viewBox="0 0 307.9 309.2" style="enable-background:new 0 0 307.9 309.2;" xml:space="preserve">
<style type="text/css">
	.st0{fill:#FFFFFF;}
	.st1{fill:#505050;}
	.st2{fill:#7B7B7B;}
	.st3{fill:#3F3F3F;}
	.st4{fill:#252525;}
	.st5{fill:#CBCBCB;}
	.st6{fill:#5A5A5A;}
	.st7{fill:#3E3E3E;}
	.st8{fill:#898989;}
	.st9{fill:#A6A6A6;}
	.st10{fill:#5F5F5F;}
	.st11{fill:#494949;}
	.st12{fill:#DBDBDB;}
	.st13{fill:#828282;}
	.st14{fill:#A5A5A5;}
	.st15{fill:#565656;}
	.st16{fill:#6E6E6E;}
	.st17{fill:#818181;}
	.st18{fill:#535353;}
	.st19{fill:#858585;}
	.st20{fill:#747474;}
	.st21{fill:#B5B5B5;}
	.st22{fill:#959595;}
</style>
<title>woo</title>
<g id="Layer_2_1_">
	<g id="Layer_7">
		<path class="st0" d="M282.9,40.7l3.2,2.4l-5.3,7.2l-3.2-2.4L282.9,40.7 M282,35.1l-2.4,3.2l-5.3,7.2l-2.4,3.2l3.2,2.4l3.2,2.4
			l3.2,2.4l2.4-3.2l5.3-7.2l2.4-3.2l-3.2-2.4l-3.2-2.4L282,35.1z"/>
		<path class="st0" d="M273.4,226.3l8.1,3.9l-1.7,3.6l-8.1-3.9L273.4,226.3 M271.5,221l-1.7,3.6l-1.8,3.6l-1.7,3.6l3.6,1.7l8.1,3.9
			l3.6,1.7l1.7-3.6l1.7-3.6l1.7-3.6l-3.6-1.7l-8.1-3.9L271.5,221L271.5,221z"/>
		<path class="st0" d="M38.7,34.4l7.8,4.5l-2,3.5l-7.8-4.5L38.7,34.4 M37.3,28.9l-2,3.5l-2,3.5l-2,3.5l3.5,2l7.8,4.5l3.5,2l2-3.5
			l2-3.5l2-3.5l-3.5-2l-7.8-4.5L37.3,28.9z"/>
		<path class="st0" d="M50.5,240.9l1.6,3.7l-8.2,3.6l-1.6-3.7L50.5,240.9 M52.6,235.6l-3.7,1.6l-8.2,3.6l-3.7,1.6l1.6,3.7l1.6,3.7
			l1.6,3.7l3.7-1.6l8.2-3.6l3.7-1.6l-1.6-3.7l-1.6-3.7L52.6,235.6L52.6,235.6z"/>
		<path class="st0" d="M299.2,124.8l0.6,4l-8.9,1.3l-0.6-4L299.2,124.8 M302.6,120.2l-4,0.6l-8.9,1.3l-4,0.6l0.6,4l0.6,4l0.6,4
			l4-0.6l8.9-1.3l4-0.6l-0.6-4l-0.6-4L302.6,120.2L302.6,120.2z"/>
		<path class="st0" d="M281,175.8l21.5,13.5l-2.1,3.4l-21.5-13.5L281,175.8 M279.7,170.3l-2.1,3.4l-2.2,3.3l-2.1,3.4l3.4,2.1
			l21.5,13.5l3.4,2.1l2.1-3.4l2.1-3.4l2.1-3.4l-3.4-2.1l-21.5-13.5L279.7,170.3L279.7,170.3z"/>
		<rect x="67.1" y="17.1" class="st1" width="194.7" height="286.6"/>
		<polygon class="st2" points="67.1,245.2 261.9,65 261.9,17.1 67.1,17.1 		"/>
		<rect x="63.6" y="270" class="st3" width="200.5" height="20.7"/>
		<polygon class="st3" points="209.8,192.5 165.8,210.1 123.3,192.5 110.5,146.9 123.3,105.7 164.4,88 209.8,105.7 221.1,145.4 		
			"/>
		<polygon class="st3" points="99.3,194 55.3,211.6 12.8,194 0,148.4 12.8,107.2 53.9,89.5 99.3,107.2 110.6,146.9 		"/>
		<polygon class="st4" points="196.7,178.7 165.2,190.9 134.8,178.7 125.7,147.2 134.8,118.8 164.2,106.6 196.7,118.8 204.8,146.2 
					"/>
		<polygon class="st5" points="87.7,178.7 56.2,190.9 25.8,178.7 16.7,147.2 25.8,118.8 55.2,106.6 87.7,118.8 95.8,146.2 		"/>
		<rect x="125.8" y="8.9" class="st1" width="84.4" height="9.3"/>
		<rect x="63.6" y="29.4" class="st6" width="200.5" height="20.7"/>
		<rect x="98.2" y="52" transform="matrix(0.7679 -0.6405 0.6405 0.7679 -12.9606 77.2748)" class="st7" width="4" height="9"/>
		<rect x="160.8" y="69.9" transform="matrix(0.2268 -0.9739 0.9739 0.2268 57.8516 216.5923)" class="st8" width="9" height="4"/>
		<rect x="277.3" y="43.5" transform="matrix(0.5933 -0.805 0.805 0.5933 77.9681 245.3556)" class="st9" width="9" height="4"/>
		<rect x="85" y="99.2" transform="matrix(0.4023 -0.9155 0.9155 0.4023 -42.9045 141.6553)" class="st10" width="4" height="9"/>
		
			<rect x="211.7" y="268.8" transform="matrix(0.6432 -0.7657 0.7657 0.6432 -133.0359 261.1523)" class="st11" width="4" height="9"/>
		<rect x="113" y="158.4" transform="matrix(0.9594 -0.2822 0.2822 0.9594 -40.4797 39.6726)" class="st12" width="9" height="4"/>
		
			<rect x="160.3" y="211.6" transform="matrix(0.9996 -2.914284e-02 2.914284e-02 0.9996 -6.2292 4.8226)" class="st13" width="4" height="9"/>
		
			<rect x="115.2" y="261.8" transform="matrix(0.6233 -0.782 0.782 0.6233 -161.1492 192.9818)" class="st14" width="9" height="4"/>
		
			<rect x="274.5" y="225.6" transform="matrix(0.4337 -0.9011 0.9011 0.4337 -50.6961 379.4665)" class="st8" width="4" height="9"/>
		<rect x="95.8" y="209.7" transform="matrix(0.8462 -0.5329 0.5329 0.8462 -97.373 86.0091)" class="st8" width="9" height="4"/>
		<rect x="214.8" y="37.3" transform="matrix(0.7607 -0.649 0.649 0.7607 27.002 151.7608)" class="st9" width="9" height="4"/>
		<rect x="154.7" y="0.2" transform="matrix(0.9916 -0.129 0.129 0.9916 0.6987 20.2502)" class="st15" width="4" height="9"/>
		<rect x="39.8" y="33.7" transform="matrix(0.4983 -0.867 0.867 0.4983 -12.1721 55.3866)" class="st8" width="4" height="9"/>
		<rect x="231" y="91.3" transform="matrix(0.9157 -0.4019 0.4019 0.9157 -17.6264 102.5303)" class="st7" width="9" height="4"/>
		<rect x="42.7" y="242.5" transform="matrix(0.9157 -0.4019 0.4019 0.9157 -94.2996 39.6029)" class="st12" width="9" height="4"/>
		
			<rect x="59.5" y="137.1" transform="matrix(0.3125 -0.9499 0.9499 0.3125 -92.1901 155.7563)" class="st12" width="4" height="9"/>
		
			<rect x="290.5" y="125.4" transform="matrix(0.9888 -0.1492 0.1492 0.9888 -15.7093 45.4426)" class="st16" width="9" height="4"/>
		
			<rect x="216.3" y="210.4" transform="matrix(0.4285 -0.9036 0.9036 0.4285 -69.3825 320.1125)" class="st17" width="4" height="9"/>
		
			<rect x="245.2" y="154.7" transform="matrix(3.507396e-02 -0.9994 0.9994 3.507396e-02 79.4297 400.7123)" class="st11" width="4" height="9"/>
		
			<rect x="10.1" y="92.9" transform="matrix(0.2895 -0.9572 0.9572 0.2895 -90.0639 85.7627)" class="st18" width="5.3" height="21.3"/>
		
			<rect x="288.6" y="171.5" transform="matrix(0.5315 -0.847 0.847 0.5315 -19.8671 332.4708)" class="st19" width="4" height="25.3"/>
		<rect x="191.3" y="94.2" transform="matrix(0.5 -0.866 0.866 0.5 17.7368 224.4871)" class="st20" width="24" height="5.3"/>
		
			<rect x="135.6" y="293.9" transform="matrix(0.206 -0.9785 0.9785 0.206 -172.7362 380.1952)" class="st16" width="24.7" height="5.3"/>
		<path class="st20" d="M125.9,228.6c-10.2-3-24.6-3.4-30.3,7.6c-0.7,1.4-1.1,3-1.1,4.5c-1.8,1.6-3.2,3.7-4,5.9
			c-1.4,3.8-1.1,8.4,2,11.3c-0.8,1.1-1.4,2.3-2,3.5c-2.5,5.1,0.3,8.5,1.7,13.4c1.6,5.9,0.8,12.2-2.3,17.4c-0.6,1.1,1,2.1,1.6,1.1
			c2.5-4.2,3.7-9,3.4-13.9c-0.1-2.4-0.7-4.8-1.5-7.1c-1.6-4.1-3.1-6.9-0.6-11.2c0.4-0.7,0.9-1.4,1.3-2c2.3,1.2,5.3,1.6,7.1-0.3
			s0.2-4.7-2.2-5.1c-2-0.3-3.8,1-5.4,2.7c-2-2-2.5-5.4-1.7-8.2c0.6-2,1.6-3.7,3-5.2c0.4,1.2,1.3,2.1,2.4,2.7c4.2,2.3,9.5,0,12-3.7
			c0.2-0.4,0.2-0.8-0.1-1.2c-3.7-4.5-8.8-4.2-12.9-1.5c0.6-3.1,3.6-6,5.9-7.5c6.9-4.6,15.5-3.7,23-1.4
			C126.4,230.8,127.1,228.9,125.9,228.6z M95.5,257.5c1-1.1,0.8-1.3,2-0.2c1.7,1.6-0.1,1-1.1,0.7c-0.3-0.1-0.7-0.2-1-0.4L95.5,257.5
			z M107.3,241.5c-1.1,1.5-2.7,2.5-4.5,2.9c-2.5,0.6-5.6-0.2-6.3-2.9C99.7,239,104,238.1,107.3,241.5L107.3,241.5z"/>
		<path class="st12" d="M129.5,73.8c5.9-8.9,10.4-22.5,1.4-31.2c-1.1-1.1-2.5-1.9-4-2.4c-1-2.2-2.6-4.1-4.5-5.6
			c-3.3-2.4-7.7-3.5-11.4-1.3c-0.8-1.1-1.7-2.1-2.7-3c-4.2-3.9-8.2-2.1-13.3-2.2c-6.1-0.1-11.9-2.8-16-7.2c-0.8-0.9-2.3,0.3-1.5,1.2
			c3.3,3.6,7.6,6.1,12.3,7.3c2.4,0.6,4.8,0.8,7.2,0.6c4.4-0.3,7.6-1,10.9,2.7c0.5,0.6,1,1.2,1.5,1.8c-1.8,1.8-3.1,4.6-1.8,6.9
			s4.4,1.6,5.5-0.7c0.9-1.8,0.2-4-1.1-5.9c2.5-1.3,5.8-0.8,8.3,0.7c1.7,1.1,3.1,2.6,4.2,4.4c-1.2,0.1-2.4,0.6-3.2,1.5
			c-3.4,3.4-2.7,9.1,0.1,12.6c0.3,0.3,0.7,0.4,1.1,0.3c5.4-2.2,6.5-7.2,5.2-11.9c2.8,1.5,4.7,5.2,5.5,7.8c2.4,7.9-1,15.9-5.3,22.5
			C127.3,73.7,128.9,74.8,129.5,73.8z M110.6,36.3c0.7,1.3,1,1.2-0.4,2c-2,1.2-0.9-0.4-0.4-1.3c0.2-0.3,0.4-0.6,0.6-0.8L110.6,36.3z
			 M122.5,52.2c-1.1-1.5-1.6-3.3-1.5-5.2c0.2-2.5,1.8-5.3,4.6-5.2C127.2,45.7,126.8,50,122.5,52.2z"/>
		<path class="st21" d="M303.3,104.1c-5.8-8.9-16.5-18.6-28-13.9c-1.5,0.6-2.8,1.5-3.8,2.7c-2.4,0.1-4.8,0.7-6.9,1.9
			c-3.5,2-6.3,5.7-5.8,9.9c-1.3,0.3-2.6,0.8-3.8,1.3c-5.2,2.3-5.3,6.7-7.4,11.3c-2.6,5.5-7.3,9.8-13.1,11.8
			c-1.1,0.4-0.7,2.2,0.5,1.8c4.6-1.6,8.6-4.5,11.6-8.3c1.5-1.9,2.6-4.1,3.5-6.4c1.5-4.2,2.1-7.3,6.9-8.9c0.8-0.3,1.5-0.5,2.3-0.6
			c0.9,2.4,3,4.7,5.6,4.4s3.2-3.4,1.6-5.3c-1.3-1.5-3.6-1.7-5.9-1.4c-0.2-2.8,1.6-5.7,4-7.3c1.7-1.1,3.7-1.8,5.7-2
			c-0.4,1.2-0.4,2.4,0.1,3.6c1.8,4.5,7.2,6.2,11.5,5c0.4-0.1,0.7-0.5,0.7-0.9c0.1-5.8-4-8.9-8.8-9.5c2.5-2,6.6-2.2,9.4-1.9
			c8.2,1,14.1,7.3,18.4,13.9C302.4,106.1,304,105.2,303.3,104.1z M261.4,106.4c1.5-0.2,1.5-0.5,1.7,1.1c0.3,2.3-0.7,0.7-1.3-0.2
			c-0.2-0.3-0.4-0.6-0.5-0.9L261.4,106.4z M280.8,101.9c-1.8,0.4-3.7,0.1-5.3-0.7c-2.2-1.2-4.2-3.8-3-6.3
			C276.7,95,280.5,97.1,280.8,101.9z"/>
	</g>
	<g id="Layer_8">
		<rect x="168.2" y="125.4" class="st0" width="11.6" height="42"/>
		<rect x="145.9" y="136.9" class="st0" width="26.9" height="30.5"/>
		<rect x="168.2" y="156.9" transform="matrix(0.5 -0.866 0.866 0.5 -49.6816 236.1909)" class="st0" width="23" height="8.5"/>
		<rect x="152.2" y="144.5" class="st22" width="14.5" height="1.5"/>
		<rect x="152.3" y="152" class="st22" width="14.5" height="1.5"/>
		<rect x="166.5" y="136.9" class="st22" width="1.1" height="30.5"/>
		<rect x="152.4" y="159.5" class="st22" width="14.5" height="1.5"/>
	</g>
</g>
</svg>
