<?xml version="1.0" encoding="utf-8"?>
<!-- Generator: Adobe Illustrator 21.1.0, SVG Export Plug-In . SVG Version: 6.00 Build 0)  -->
<svg version="1.1" id="Layer_1" xmlns="http://www.w3.org/2000/svg" xmlns:xlink="http://www.w3.org/1999/xlink" x="0px" y="0px"
	 viewBox="0 0 216 432" style="enable-background:new 0 0 216 432;" xml:space="preserve">
<style type="text/css">
	.st0{fill:#FFFFFF;}
	.st1{fill:#4C76BE;}
</style>
<title>FB Rotate (Color)</title>
<g id="Layer_1-2">
	<g id="FB">
		<path class="st0" d="M133.9,56.1h-13.5c-15.1,0-24.9,10-24.9,25.5v11.8H82.1c-1.1,0-2.1,0.9-2.1,2c0,0,0,0.1,0,0.1v17.1
			c0,1.1,0.9,2.1,2,2.1c0,0,0.1,0,0.1,0h13.5v43.1c0,1.1,0.9,2.1,2,2.1c0,0,0.1,0,0.1,0h17.7c1.1,0,2.1-0.9,2.1-2c0,0,0-0.1,0-0.1
			v-43.1h15.8c1.1,0,2.1-0.9,2.1-2c0,0,0-0.1,0-0.1V95.5c0-1.1-0.9-2.1-2-2.1c0,0-0.1,0-0.1,0h-15.8v-10c0-4.8,1.1-7.2,7.4-7.2h9.1
			c1.1,0,2.1-0.9,2.1-2c0,0,0-0.1,0-0.1V58.2C136,57,135.1,56.1,133.9,56.1z"/>
		<path class="st1" d="M133.9,272.2h-13.5c-15.1,0-24.9,10-24.9,25.5v11.8H82.1c-1.1,0-2.1,0.9-2.1,2c0,0,0,0.1,0,0.1v17.1
			c0,1.1,0.9,2.1,2,2.1c0,0,0.1,0,0.1,0h13.5v43.1c0,1.1,0.9,2.1,2,2.1c0,0,0.1,0,0.1,0h17.7c1.1,0,2.1-0.9,2.1-2c0,0,0-0.1,0-0.1
			v-43.1h15.8c1.1,0,2.1-0.9,2.1-2c0,0,0-0.1,0-0.1v-17.1c0-1.1-0.9-2.1-2-2.1c0,0-0.1,0-0.1,0h-15.8v-10c0-4.8,1.1-7.2,7.4-7.2h9.1
			c1.1,0,2.1-0.9,2.1-2c0,0,0-0.1,0-0.1v-15.8C136.1,273.2,135.1,272.2,133.9,272.2z"/>
	</g>
</g>
</svg>
