<svg xmlns="http://www.w3.org/2000/svg" xmlns:xlink="http://www.w3.org/1999/xlink" viewBox="0 0 263.96 288"><defs><style>.cls-1{fill:url(#linear-gradient);}.cls-2{fill:#f1f2f2;}.cls-3{fill:#da8c27;}.cls-4{fill:#be202e;}.cls-5{fill:#a31d29;}.cls-6{fill:#ffc626;}.cls-7{fill:#009444;}.cls-8{fill:#073d20;}.cls-9{fill:#d1d3d4;}.cls-10{fill:#f0484a;}</style><linearGradient id="linear-gradient" y1="144" x2="225" y2="144" gradientUnits="userSpaceOnUse"><stop offset="0" stop-color="#1c4380"/><stop offset="1" stop-color="#243067"/></linearGradient></defs><title>Investment_formula</title><g id="Layer_2" data-name="Layer 2"><g id="Layer_2-2" data-name="Layer 2"><rect class="cls-1" width="225" height="288" rx="12.59" ry="12.59"/><path class="cls-2" d="M19.15,17.49H25.1V37.12H19.15Z"/><path class="cls-2" d="M34.22,26.59V37.12H28.28V17.49H34.4l6.83,9.89V17.49h5.95V37.12H41.46Z"/><path class="cls-2" d="M48.23,17.49H55l4.24,13.22,4.24-13.22h6.74L63,37.12H55.47Z"/><path class="cls-2" d="M71.25,17.49H86.14v4.95H77.2v2.3h8.74v4.94H77.2v2.5h8.95v4.94H71.25Z"/><path class="cls-2" d="M90.38,29.94a9.15,9.15,0,0,0,6.33,2.53c1.12,0,2.18-.38,2.18-1.15s-.82-1.15-2.77-1.5c-3.24-.59-8.18-1.35-8.18-6.27,0-3.33,2.77-6.36,8.15-6.36a13,13,0,0,1,8.33,2.74l-3.18,4.21a9.77,9.77,0,0,0-5.47-1.94c-1.47,0-1.79.53-1.79,1,0,.77.79,1,2.88,1.38,3.24.56,8,1.5,8,6,0,4.33-3.21,6.83-8.48,6.83-4.18,0-7-1.24-9.12-3.12Z"/><path class="cls-2" d="M111,22.67h-5.27V17.49h16.45v5.18H117V37.12H111Z"/><path class="cls-2" d="M141.71,24.73l-4.39,12.39h-2.65l-4.39-12.39V37.12h-5.95V17.49h8.21l3.44,10,3.44-10h8.21V37.12h-5.95Z"/><path class="cls-2" d="M150.84,17.49h14.89v4.95h-8.95v2.3h8.74v4.94h-8.74v2.5h8.95v4.94H150.84Z"/><path class="cls-2" d="M174.32,26.59V37.12h-5.95V17.49h6.12l6.83,9.89V17.49h5.95V37.12h-5.71Z"/><path class="cls-2" d="M194.66,22.67h-5.27V17.49h16.45v5.18h-5.24V37.12h-5.95Z"/><path class="cls-3" d="M129.3,175.36c2.17-2.4,6.56-7.15,6.56-7.15s-2.61-6.4-2.78-6.93c-2.9-.17-8.69-.38-8.69-.38l-5.19-5.05s1.08-6.43,1.66-9.63c-.43-.41-5.31-3.86-6-4.41-2.91,1.64-8.71,5-8.71,5s-5.84-1.67-6-2c-1.3-3-2.18-6-3.44-9-1.64-.19-5.32-.69-7.43-1.11-.06,0-5.1,9.7-5.1,9.7s-5.57,1.68-5.77,1.54c-3-2-6-4.12-9-6.19-.06,0-5.9,4.3-5.9,4.3s.68,6.54,1,9.81c0,.38-3.77,4.54-3.77,4.54l-10.51-.18-3.27,6.73,6,7.58s-.79,6.21-1.13,6.42c-2.76,1.72-8.35,5-8.35,5s0,7.08,0,7.19c3.34,1.16,6.68,2.29,10,3.49.39.14,2.62,5.6,2.43,6q-2.08,4.38-4.28,8.71a68.41,68.41,0,0,0,4.89,5.88c3.1-.83,6.21-1.59,9.33-2.34.35-.08,5.25,3.55,5.25,3.55s.8,6.59,1.16,9.89c.42.37,6.59,2.06,7.16,2.32,1.41-1.53,7.23-7.42,7.23-7.42l6,.66s4.09,5,6.12,7.51c.53,0,6.46-1.66,7.3-1.9q.87-4.81,1.84-9.6c.08-.37,5.62-3.23,5.62-3.23s6.15,2,9.22,3c.35-.61,4.56-4.85,5.1-5.62q-1.87-4.52-3.66-9.07c-.12-.31,2.41-5.57,3-5.71,3.08-.76,6.15-1.59,9.24-2.34.11-1,1.41-7.59,1.41-7.59s-5.3-3.72-7.92-5.61A26,26,0,0,1,129.3,175.36ZM96.63,198.58,75.12,185.78l12.81-21.52,21.52,12.81Z"/><path class="cls-4" d="M189.44,223c-3.23.92-6.44,1.88-9.65,2.87a40.42,40.42,0,0,0-2.89,5.4c.87,3.24,1.76,6.48,2.69,9.7.09.09-6.35,5-6.49,4.71-2.48-1.77-6.88-5.12-7.75-5.62a.17.17,0,0,0-.18,0c-.62.44-7.69,1.77-7.95,2.2-1.33,2.1-4.53,6.94-4.53,6.94s-7.71-2.08-7.68-2.35c-.2-3.22-.59-10-.58-9.84s-6.15-4.26-6.42-4.42c-2.8.31-6.35.49-9.23.63-.24-1-2.49-7.16-2.26-7.37,1-1.11,7.32-4.91,7.56-5.43.33-.31.19-7.66.1-7.84-2.21-2.48-6.94-7.82-6.59-7.47,0,0,3.72-7,3.84-7,3.27.54,6.55,1,9.83,1.57.65.11,5-2.94,5-2.94l2.08-10.72s7.7-1.05,8-1c1.57,2.82,3.2,5.6,4.76,8.42,0,.14,6.35,1.66,6.46,1.7q4.31-2.39,8.68-4.68c.24-.13,4.34,3,6.09,4.6-1.06,2.66-2.38,5.55-3.44,8.2,0,0,3,8.43,3,8.23,3,1.17,5.9,2.48,8.85,3.73C190.78,215.38,189.68,223.15,189.44,223Zm-34-14.86a126,126,0,0,0-6.83,11.11c2.64,1.79,11.36,7,11.36,7s4.76-7.72,6.83-11.26C162.22,212.09,159,210.08,155.48,208.15Z"/><path class="cls-5" d="M165.18,240.08a.17.17,0,0,1,.18,0c.87.5,5.26,3.85,7.74,5.62.14.28,6.58-4.62,6.49-4.71-.93-3.22-1.82-6.46-2.69-9.7a40.42,40.42,0,0,1,2.89-5.4c3.21-1,6.42-1.95,9.65-2.87.24.14,1.34-7.63,1.31-7.75-2.95-1.25-5.87-2.57-8.85-3.73,0,.2-3-8.19-3-8.23,1.06-2.65,2.38-5.54,3.44-8.2-1.76-1.56-5.85-4.73-6.09-4.6l-4,2.11-11,18.95c1.66,1,3.44,2.14,5.51,3.45-2.06,3.54-6.83,11.26-6.83,11.26s-2.57-1.54-5.34-3.23l-10,17.28c.13,2.14.29,4.85.39,6.55,0,.27,7.68,2.35,7.68,2.35s3.2-4.84,4.53-6.94C157.49,241.85,164.56,240.52,165.18,240.08Z"/><path class="cls-6" d="M114.83,141.8c-2.91,1.64-8.71,5-8.71,5s-5.84-1.67-6-2c-1.3-3-2.18-6-3.44-9-1.64-.19-5.32-.69-7.43-1.11-.06,0-5.1,9.7-5.1,9.7s-5.57,1.68-5.77,1.54c-3-2-6-4.12-9-6.19-.06,0-5.9,4.3-5.9,4.3s.68,6.54,1,9.81c0,.38-3.77,4.54-3.77,4.54l-10.51-.18-3.27,6.73,6,7.58s-.79,6.21-1.13,6.42c-2.76,1.72-8.35,5-8.35,5s0,7.08,0,7.19c3.34,1.16,6.68,2.29,10,3.49.39.14,2.62,5.6,2.43,6q-2.08,4.38-4.28,8.71a68.42,68.42,0,0,0,4.89,5.88c3.1-.83,6.21-1.59,9.33-2.34.35-.08,5.25,3.55,5.25,3.55s.8,6.59,1.16,9.89c.42.37,6.59,2.06,7.16,2.32,1.41-1.53,7.23-7.42,7.23-7.42l1,.11,8.86-22.8L75.12,185.78l12.81-21.52,17.85,10.62,12-30.93C116.48,143,115.17,142.06,114.83,141.8Z"/><rect class="cls-7" x="223.18" y="67.57" width="11.93" height="8.5" transform="translate(458.3 143.64) rotate(-180)"/><rect class="cls-7" x="197.33" y="57.94" width="28.58" height="25.36" transform="translate(423.24 141.24) rotate(-180)"/><polygon class="cls-7" points="234.12 91.75 242.58 98.72 253.52 98.72 263.96 91.26 263.96 45.01 255.01 38.5 243.07 38.5 234.12 45.01 234.12 91.75"/><rect class="cls-8" x="247.55" y="45.01" width="2.98" height="46.24" transform="translate(498.08 136.27) rotate(-180)"/><rect class="cls-9" x="247.81" y="26.12" width="2.43" height="23.87" transform="translate(498.05 76.11) rotate(-180)"/><rect class="cls-10" x="243.23" y="14.16" width="11.61" height="11.61" transform="translate(439.25 -142) rotate(135)"/><path class="cls-2" d="M40.94,48h-3.6v-.48h7.73V48H41.45v10.2h-.51Z"/><path class="cls-2" d="M46.83,48.7a.48.48,0,0,1,.46-.46.46.46,0,0,1,0,.93A.48.48,0,0,1,46.83,48.7Zm.22,1.79h.48v7.73h-.48Z"/><path class="cls-2" d="M59.38,52.65c0-1.2-.5-1.92-1.66-1.92a3.17,3.17,0,0,0-2.4,1.44v6.05h-.48V52.65c0-1.2-.5-1.92-1.66-1.92a3.24,3.24,0,0,0-2.4,1.46v6h-.48V50.49h.48v1.22a3.38,3.38,0,0,1,2.48-1.41,1.91,1.91,0,0,1,2,1.47,3.22,3.22,0,0,1,2.55-1.47c1.41,0,2.06.82,2.06,2.35v5.57h-.48Z"/><path class="cls-2" d="M65.82,50.3c2.37,0,3.59,1.9,3.59,4v.16H62.73A3.3,3.3,0,0,0,66,58a3.53,3.53,0,0,0,2.69-1.17l.29.3a3.86,3.86,0,0,1-3,1.3,4.07,4.07,0,0,1-.16-8.12Zm-3.09,3.78h6.16a3.17,3.17,0,0,0-3.09-3.35A3.26,3.26,0,0,0,62.73,54.07Z"/><path class="cls-2" d="M75.61,56.83A3,3,0,0,0,78.06,58c1.42,0,2.29-.77,2.29-1.79S79.2,54.75,78,54.43s-2.62-.67-2.62-2.08c0-1.14,1-2,2.63-2a3.18,3.18,0,0,1,2.66,1.17l-.35.32A2.73,2.73,0,0,0,78,50.73c-1.34,0-2.14.7-2.14,1.62s1.07,1.26,2.21,1.57c1.33.34,2.75.7,2.75,2.27,0,1.2-.9,2.22-2.77,2.22a3.41,3.41,0,0,1-2.83-1.23Z"/><path class="cls-2" d="M83.16,61.17V50.49h.48v1.3a3.41,3.41,0,0,1,2.79-1.49c2.08,0,3.46,1.6,3.46,4s-1.38,4.07-3.46,4.07a3.38,3.38,0,0,1-2.79-1.52v4.27Zm3.27-10.44a3.37,3.37,0,0,0-2.79,1.54v4.15A3.39,3.39,0,0,0,86.43,58c1.89,0,2.93-1.6,2.93-3.63S88.32,50.73,86.43,50.73Z"/><path class="cls-2" d="M95.44,50.3c2.37,0,3.58,1.9,3.58,4v.16H92.35A3.31,3.31,0,0,0,95.6,58a3.52,3.52,0,0,0,2.69-1.17l.29.3a3.86,3.86,0,0,1-3,1.3,4.07,4.07,0,0,1-.16-8.12Zm-3.09,3.78h6.16a3.17,3.17,0,0,0-3.09-3.35A3.26,3.26,0,0,0,92.35,54.07Z"/><path class="cls-2" d="M106.57,52.83c0-1.62-.8-2.1-2-2.1a3.66,3.66,0,0,0-2.74,1.46v6h-.48V50.49h.48v1.22a4,4,0,0,1,2.8-1.41c1.54,0,2.42.7,2.42,2.53v5.39h-.48Z"/><path class="cls-2" d="M109.9,56.86V50.92h-1.28v-.43h1.28V48.38h.48v2.11h1.57v.43h-1.57v5.94c0,.66.26,1.12.83,1.12a1.23,1.23,0,0,0,.91-.42l.29.37a1.57,1.57,0,0,1-1.2.48C110.32,58.41,109.9,57.82,109.9,56.86Z"/><path class="cls-2" d="M118.06,61.17V50.49h.48v1.3a3.41,3.41,0,0,1,2.79-1.49c2.08,0,3.46,1.6,3.46,4s-1.38,4.07-3.46,4.07a3.38,3.38,0,0,1-2.79-1.52v4.27Zm3.27-10.44a3.37,3.37,0,0,0-2.79,1.54v4.15A3.39,3.39,0,0,0,121.33,58c1.89,0,2.93-1.6,2.93-3.63S123.21,50.73,121.33,50.73Z"/><path class="cls-2" d="M127.12,50.49h.48V51.9a3.33,3.33,0,0,1,2.66-1.55v.58a2.59,2.59,0,0,0-2.66,1.5v5.79h-.48Z"/><path class="cls-2" d="M137,57.28a3.41,3.41,0,0,1-2.67,1.14,2.58,2.58,0,1,1,0-5.15A3.41,3.41,0,0,1,137,54.39V52.65a2,2,0,0,0-2.18-1.92,3,3,0,0,0-2.48,1.22l-.37-.32a3.4,3.4,0,0,1,2.85-1.33c1.52,0,2.66.77,2.66,2.34v5.59H137Zm0-2.4a3.13,3.13,0,0,0-2.54-1.18,2.15,2.15,0,1,0,0,4.29A3.13,3.13,0,0,0,137,56.8Z"/><path class="cls-2" d="M143.44,50.3a3.07,3.07,0,0,1,2.64,1.3l-.35.29a2.59,2.59,0,0,0-2.26-1.15c-2,0-3.15,1.6-3.15,3.62S141.48,58,143.47,58a2.61,2.61,0,0,0,2.26-1.17l.35.3a3.07,3.07,0,0,1-2.64,1.3c-2.24,0-3.65-1.84-3.65-4.07S141.2,50.3,143.44,50.3Z"/><path class="cls-2" d="M148.19,56.86V50.92h-1.28v-.43h1.28V48.38h.48v2.11h1.57v.43h-1.57v5.94c0,.66.26,1.12.83,1.12a1.23,1.23,0,0,0,.91-.42l.29.37a1.57,1.57,0,0,1-1.2.48C148.6,58.41,148.19,57.82,148.19,56.86Z"/><path class="cls-2" d="M152,48.7a.47.47,0,0,1,.46-.46.46.46,0,1,1,0,.93A.47.47,0,0,1,152,48.7Zm.22,1.79h.48v7.73h-.48Z"/><path class="cls-2" d="M158.65,50.3a3.06,3.06,0,0,1,2.64,1.3l-.35.29a2.6,2.6,0,0,0-2.26-1.15c-2,0-3.15,1.6-3.15,3.62S156.7,58,158.68,58a2.61,2.61,0,0,0,2.26-1.17l.35.3a3.06,3.06,0,0,1-2.64,1.3c-2.24,0-3.65-1.84-3.65-4.07S156.41,50.3,158.65,50.3Z"/><path class="cls-2" d="M163.08,48.7a.47.47,0,0,1,.46-.46.46.46,0,1,1,0,.93A.47.47,0,0,1,163.08,48.7Zm.22,1.79h.48v7.73h-.48Z"/><path class="cls-2" d="M171.76,52.83c0-1.62-.8-2.1-2-2.1A3.66,3.66,0,0,0,167,52.19v6h-.48V50.49H167v1.22a4,4,0,0,1,2.8-1.41c1.54,0,2.42.7,2.42,2.53v5.39h-.48Z"/><path class="cls-2" d="M175.42,59.79A2.93,2.93,0,0,0,178,60.93a2.5,2.5,0,0,0,2.79-2.66V56.92A3.44,3.44,0,0,1,178,58.44c-2.08,0-3.46-1.62-3.46-4.07s1.38-4.08,3.46-4.08a3.38,3.38,0,0,1,2.79,1.52V50.49h.48v7.78c0,2.21-1.39,3.09-3.26,3.09a3.49,3.49,0,0,1-3-1.17Zm5.39-7.49A3.39,3.39,0,0,0,178,50.73c-1.89,0-2.93,1.62-2.93,3.65S176.14,58,178,58a3.39,3.39,0,0,0,2.79-1.57Z"/><path class="cls-2" d="M183.59,59.82a2,2,0,0,0,.85-1.47l-.13,0a.52.52,0,0,1,0-1c.34,0,.62.3.62.85a2.53,2.53,0,0,1-1,1.94Z"/><path class="cls-2" d="M43.17,76.12a3.41,3.41,0,0,1-2.79,1.49c-2.08,0-3.46-1.6-3.46-4s1.38-4.07,3.46-4.07A3.38,3.38,0,0,1,43.17,71V66.74h.48V77.42h-.48Zm0-4.63a3.39,3.39,0,0,0-2.79-1.57c-1.89,0-2.93,1.6-2.93,3.63s1,3.62,2.93,3.62a3.36,3.36,0,0,0,2.79-1.54Z"/><path class="cls-2" d="M49.62,69.5c2.37,0,3.58,1.9,3.58,4v.16H46.53a3.31,3.31,0,0,0,3.25,3.47A3.52,3.52,0,0,0,52.47,76l.29.3a3.86,3.86,0,0,1-3,1.3,4.07,4.07,0,0,1-.16-8.12Zm-3.09,3.78H52.7a3.17,3.17,0,0,0-3.09-3.35A3.26,3.26,0,0,0,46.53,73.27Z"/><path class="cls-2" d="M54.34,69.69h.56l3,7.17,3-7.17h.56l-3.31,7.73h-.56Z"/><path class="cls-2" d="M66.29,69.5c2.37,0,3.58,1.9,3.58,4v.16H63.2a3.31,3.31,0,0,0,3.25,3.47A3.52,3.52,0,0,0,69.14,76l.29.3a3.86,3.86,0,0,1-3,1.3,4.07,4.07,0,0,1-.16-8.12ZM63.2,73.27h6.16a3.17,3.17,0,0,0-3.09-3.35A3.26,3.26,0,0,0,63.2,73.27Z"/><path class="cls-2" d="M72.21,66.74h.48V77.42h-.48Z"/><path class="cls-2" d="M75,73.55c0-2.27,1.42-4,3.6-4s3.6,1.78,3.6,4-1.41,4.07-3.6,4.07S75,75.82,75,73.55Zm6.67,0c0-1.87-1.09-3.62-3.07-3.62s-3.07,1.75-3.07,3.62,1.1,3.63,3.07,3.63S81.7,75.44,81.7,73.55Z"/><path class="cls-2" d="M84.56,80.37V69.69H85V71a3.41,3.41,0,0,1,2.79-1.49c2.08,0,3.46,1.6,3.46,4s-1.38,4.07-3.46,4.07A3.38,3.38,0,0,1,85,76.09v4.27Zm3.27-10.44A3.37,3.37,0,0,0,85,71.47v4.15a3.39,3.39,0,0,0,2.79,1.57c1.89,0,2.93-1.6,2.93-3.63S89.72,69.93,87.83,69.93Z"/><path class="cls-2" d="M93.4,67.9a.47.47,0,0,1,.46-.46.46.46,0,1,1,0,.93A.47.47,0,0,1,93.4,67.9Zm.22,1.79h.48v7.73h-.48Z"/><path class="cls-2" d="M102.07,72c0-1.62-.8-2.1-2-2.1a3.66,3.66,0,0,0-2.74,1.46v6h-.48V69.69h.48v1.22a4,4,0,0,1,2.8-1.41c1.54,0,2.42.7,2.42,2.53v5.39h-.48Z"/><path class="cls-2" d="M105.73,79a2.93,2.93,0,0,0,2.61,1.14,2.5,2.5,0,0,0,2.79-2.66V76.12a3.44,3.44,0,0,1-2.79,1.52c-2.08,0-3.46-1.62-3.46-4.07s1.38-4.08,3.46-4.08A3.38,3.38,0,0,1,111.13,71V69.69h.48v7.78c0,2.21-1.39,3.09-3.26,3.09a3.49,3.49,0,0,1-3-1.17Zm5.39-7.49a3.39,3.39,0,0,0-2.79-1.57c-1.89,0-2.93,1.62-2.93,3.65s1,3.63,2.93,3.63a3.39,3.39,0,0,0,2.79-1.57Z"/><path class="cls-2" d="M118.71,80.13c.51,0,.86-.22,1.22-1.06l.7-1.6-3.31-7.78h.56l3,7.17,3-7.17h.56l-4.1,9.56a1.86,1.86,0,0,1-1.7,1.31,2.69,2.69,0,0,1-.77-.11L118,80A1.92,1.92,0,0,0,118.71,80.13Z"/><path class="cls-2" d="M125.63,73.55c0-2.27,1.42-4,3.6-4s3.6,1.78,3.6,4-1.41,4.07-3.6,4.07S125.63,75.82,125.63,73.55Zm6.67,0c0-1.87-1.09-3.62-3.07-3.62s-3.07,1.75-3.07,3.62,1.1,3.63,3.07,3.63S132.31,75.44,132.31,73.55Z"/><path class="cls-2" d="M140.39,76.24a4,4,0,0,1-2.8,1.38c-1.54,0-2.42-.67-2.42-2.5V69.69h.48v5.43c0,1.62.8,2.06,2,2.06a3.61,3.61,0,0,0,2.74-1.41V69.69h.48v7.73h-.48Z"/><path class="cls-2" d="M143.62,69.69h.48V71.1a3.33,3.33,0,0,1,2.66-1.55v.58a2.59,2.59,0,0,0-2.66,1.5v5.79h-.48Z"/><path class="cls-2" d="M152.35,76a3,3,0,0,0,2.45,1.15c1.42,0,2.29-.77,2.29-1.79s-1.15-1.44-2.34-1.76-2.62-.67-2.62-2.08c0-1.14,1-2,2.63-2a3.18,3.18,0,0,1,2.66,1.17l-.35.32a2.73,2.73,0,0,0-2.3-1.06c-1.34,0-2.14.7-2.14,1.62s1.07,1.26,2.21,1.57c1.33.34,2.75.7,2.75,2.27,0,1.2-.9,2.22-2.77,2.22A3.41,3.41,0,0,1,152,76.38Z"/><path class="cls-2" d="M162,73.53,160.39,75v2.42h-.48V66.74h.48v7.65l5-4.71h.69l-3.76,3.49,3.71,4.24h-.69Z"/><path class="cls-2" d="M167.62,67.9a.47.47,0,0,1,.46-.46.46.46,0,1,1,0,.93A.47.47,0,0,1,167.62,67.9Zm.22,1.79h.48v7.73h-.48Z"/><path class="cls-2" d="M171.07,66.74h.48V77.42h-.48Z"/><path class="cls-2" d="M174.31,66.74h.48V77.42h-.48Z"/><path class="cls-2" d="M177.25,76a3,3,0,0,0,2.45,1.15c1.42,0,2.29-.77,2.29-1.79s-1.15-1.44-2.34-1.76S177,73,177,71.55c0-1.14,1-2,2.63-2a3.18,3.18,0,0,1,2.66,1.17L182,71a2.73,2.73,0,0,0-2.31-1.06c-1.34,0-2.14.7-2.14,1.62s1.07,1.26,2.21,1.57c1.33.34,2.75.7,2.75,2.27,0,1.2-.9,2.22-2.77,2.22a3.41,3.41,0,0,1-2.83-1.23Z"/><path class="cls-2" d="M184.35,79a2,2,0,0,0,.85-1.47l-.13,0a.52.52,0,0,1,0-1c.34,0,.62.3.62.85a2.53,2.53,0,0,1-1,1.94Z"/><path class="cls-2" d="M58.85,95.68a3.41,3.41,0,0,1-2.67,1.14,2.58,2.58,0,1,1,0-5.15,3.41,3.41,0,0,1,2.67,1.14V91a2,2,0,0,0-2.18-1.92,3,3,0,0,0-2.48,1.22L53.82,90a3.4,3.4,0,0,1,2.85-1.33c1.52,0,2.66.77,2.66,2.34v5.59h-.48Zm0-2.4a3.13,3.13,0,0,0-2.54-1.18,2.15,2.15,0,1,0,0,4.29,3.13,3.13,0,0,0,2.54-1.18Z"/><path class="cls-2" d="M67.29,91.23c0-1.62-.8-2.1-2-2.1a3.66,3.66,0,0,0-2.74,1.46v6h-.48V88.89h.48v1.22a4,4,0,0,1,2.8-1.41c1.54,0,2.42.7,2.42,2.53v5.39h-.48Z"/><path class="cls-2" d="M76.35,95.32a3.41,3.41,0,0,1-2.79,1.49c-2.08,0-3.46-1.6-3.46-4s1.38-4.07,3.46-4.07a3.38,3.38,0,0,1,2.79,1.52V85.94h.48V96.62h-.48Zm0-4.63a3.39,3.39,0,0,0-2.79-1.57c-1.89,0-2.93,1.6-2.93,3.63s1,3.62,2.93,3.62a3.36,3.36,0,0,0,2.79-1.54Z"/><path class="cls-2" d="M83.74,85.94h.48v4.27A3.38,3.38,0,0,1,87,88.7c2.08,0,3.46,1.63,3.46,4.07s-1.38,4-3.46,4a3.41,3.41,0,0,1-2.79-1.49v1.3h-.48ZM87,96.38c1.89,0,2.93-1.58,2.93-3.62s-1-3.63-2.93-3.63a3.39,3.39,0,0,0-2.79,1.57v4.15A3.36,3.36,0,0,0,87,96.38Z"/><path class="cls-2" d="M98,95.44a4,4,0,0,1-2.8,1.38c-1.54,0-2.42-.67-2.42-2.5V88.89h.48v5.43c0,1.62.8,2.06,2,2.06A3.61,3.61,0,0,0,98,95V88.89h.48v7.73H98Z"/><path class="cls-2" d="M101,87.1a.48.48,0,0,1,.46-.46.46.46,0,1,1,0,.93A.47.47,0,0,1,101,87.1Zm.22,1.79h.48v7.73h-.48Z"/><path class="cls-2" d="M104.48,85.94H105V96.62h-.48Z"/><path class="cls-2" d="M113.54,95.32a3.41,3.41,0,0,1-2.79,1.49c-2.08,0-3.46-1.6-3.46-4s1.38-4.07,3.46-4.07a3.38,3.38,0,0,1,2.79,1.52V85.94H114V96.62h-.48Zm0-4.63a3.39,3.39,0,0,0-2.79-1.57c-1.89,0-2.93,1.6-2.93,3.63s1,3.62,2.93,3.62a3.36,3.36,0,0,0,2.79-1.54Z"/><path class="cls-2" d="M116.54,87.1a.48.48,0,0,1,.46-.46.46.46,0,1,1,0,.93A.47.47,0,0,1,116.54,87.1Zm.22,1.79h.48v7.73h-.48Z"/><path class="cls-2" d="M125.21,91.23c0-1.62-.8-2.1-2-2.1a3.66,3.66,0,0,0-2.74,1.46v6H120V88.89h.48v1.22a4,4,0,0,1,2.8-1.41c1.54,0,2.42.7,2.42,2.53v5.39h-.48Z"/><path class="cls-2" d="M128.88,98.19a2.93,2.93,0,0,0,2.61,1.14,2.5,2.5,0,0,0,2.79-2.66V95.32a3.44,3.44,0,0,1-2.79,1.52c-2.08,0-3.46-1.62-3.46-4.07s1.38-4.08,3.46-4.08a3.38,3.38,0,0,1,2.79,1.52V88.89h.48v7.78c0,2.21-1.39,3.09-3.26,3.09a3.49,3.49,0,0,1-3-1.17Zm5.39-7.49a3.39,3.39,0,0,0-2.79-1.57c-1.89,0-2.93,1.62-2.93,3.65s1,3.63,2.93,3.63a3.39,3.39,0,0,0,2.79-1.57Z"/><path class="cls-2" d="M141.85,99.33c.51,0,.86-.22,1.22-1.06l.7-1.6-3.31-7.78H141l3,7.17,3-7.17h.56l-4.1,9.56a1.86,1.86,0,0,1-1.7,1.31,2.69,2.69,0,0,1-.77-.11l.1-.45A1.92,1.92,0,0,0,141.85,99.33Z"/><path class="cls-2" d="M148.78,92.75c0-2.27,1.42-4,3.6-4s3.6,1.78,3.6,4-1.41,4.07-3.6,4.07S148.78,95,148.78,92.75Zm6.67,0c0-1.87-1.09-3.62-3.07-3.62s-3.07,1.75-3.07,3.62,1.1,3.63,3.07,3.63S155.45,94.64,155.45,92.75Z"/><path class="cls-2" d="M163.53,95.44a4,4,0,0,1-2.8,1.38c-1.54,0-2.42-.67-2.42-2.5V88.89h.48v5.43c0,1.62.8,2.06,2,2.06A3.61,3.61,0,0,0,163.53,95V88.89H164v7.73h-.48Z"/><path class="cls-2" d="M166.76,88.89h.48V90.3a3.33,3.33,0,0,1,2.66-1.55v.58a2.59,2.59,0,0,0-2.66,1.5v5.79h-.48Z"/><path class="cls-2" d="M57.71,111.93l-1.6,1.47v2.42h-.48V105.14h.48v7.65l5-4.71h.69l-3.76,3.49,3.71,4.24H61.1Z"/><path class="cls-2" d="M68.78,110.43c0-1.62-.8-2.1-2-2.1A3.66,3.66,0,0,0,64,109.79v6h-.48v-7.73H64v1.22a4,4,0,0,1,2.8-1.41c1.54,0,2.42.7,2.42,2.53v5.39h-.48Z"/><path class="cls-2" d="M71.6,111.95c0-2.27,1.42-4,3.6-4s3.6,1.78,3.6,4S77.39,116,75.2,116,71.6,114.22,71.6,111.95Zm6.67,0c0-1.87-1.09-3.62-3.07-3.62s-3.07,1.75-3.07,3.62,1.1,3.63,3.07,3.63S78.27,113.84,78.27,111.95Z"/><path class="cls-2" d="M85.39,108.81l-2.34,7h-.38l-2.56-7.73h.53l2.24,7,2.32-7h.38l2.32,7,2.24-7h.53l-2.56,7.73h-.38Z"/><path class="cls-2" d="M92.4,105.14h.48v10.68H92.4Z"/><path class="cls-2" d="M98.84,107.9c2.37,0,3.59,1.9,3.59,4v.16H95.76A3.3,3.3,0,0,0,99,115.58a3.53,3.53,0,0,0,2.69-1.17l.29.3a3.86,3.86,0,0,1-3,1.3,4.07,4.07,0,0,1-.16-8.12Zm-3.09,3.78h6.16a3.17,3.17,0,0,0-3.09-3.35A3.26,3.26,0,0,0,95.76,111.67Z"/><path class="cls-2" d="M110.59,114.52a3.41,3.41,0,0,1-2.79,1.49c-2.08,0-3.46-1.6-3.46-4s1.38-4.07,3.46-4.07a3.38,3.38,0,0,1,2.79,1.52v-4.27h.48v10.68h-.48Zm0-4.63a3.39,3.39,0,0,0-2.79-1.57c-1.89,0-2.93,1.6-2.93,3.63s1,3.62,2.93,3.62a3.36,3.36,0,0,0,2.79-1.54Z"/><path class="cls-2" d="M114.25,117.39a2.93,2.93,0,0,0,2.61,1.14,2.5,2.5,0,0,0,2.79-2.66v-1.34a3.44,3.44,0,0,1-2.79,1.52c-2.08,0-3.46-1.62-3.46-4.07s1.38-4.08,3.46-4.08a3.38,3.38,0,0,1,2.79,1.52v-1.33h.48v7.78c0,2.21-1.39,3.09-3.26,3.09a3.49,3.49,0,0,1-3-1.17Zm5.39-7.49a3.39,3.39,0,0,0-2.79-1.57c-1.89,0-2.93,1.62-2.93,3.65s1,3.63,2.93,3.63a3.39,3.39,0,0,0,2.79-1.57Z"/><path class="cls-2" d="M126.09,107.9c2.37,0,3.58,1.9,3.58,4v.16H123a3.31,3.31,0,0,0,3.25,3.47,3.52,3.52,0,0,0,2.69-1.17l.29.3a3.86,3.86,0,0,1-3,1.3,4.07,4.07,0,0,1-.16-8.12ZM123,111.67h6.16a3.17,3.17,0,0,0-3.09-3.35A3.26,3.26,0,0,0,123,111.67Z"/><path class="cls-2" d="M136.17,105.14h.48v4.27a3.38,3.38,0,0,1,2.79-1.52c2.08,0,3.46,1.63,3.46,4.07s-1.38,4-3.46,4a3.41,3.41,0,0,1-2.79-1.49v1.3h-.48Zm3.27,10.44c1.89,0,2.93-1.58,2.93-3.62s-1-3.63-2.93-3.63a3.39,3.39,0,0,0-2.79,1.57V114A3.36,3.36,0,0,0,139.44,115.58Z"/><path class="cls-2" d="M150.22,114.88a3.41,3.41,0,0,1-2.67,1.14,2.58,2.58,0,1,1,0-5.15,3.41,3.41,0,0,1,2.67,1.14v-1.74a2,2,0,0,0-2.18-1.92,3,3,0,0,0-2.48,1.22l-.37-.32A3.39,3.39,0,0,1,148,107.9c1.52,0,2.66.77,2.66,2.34v5.59h-.48Zm0-2.4a3.13,3.13,0,0,0-2.54-1.18,2.15,2.15,0,1,0,0,4.29,3.13,3.13,0,0,0,2.54-1.18Z"/><path class="cls-2" d="M153.16,114.43a3,3,0,0,0,2.45,1.15c1.42,0,2.29-.77,2.29-1.79s-1.15-1.44-2.34-1.76-2.62-.67-2.62-2.08c0-1.14,1-2,2.63-2a3.18,3.18,0,0,1,2.66,1.17l-.35.32a2.73,2.73,0,0,0-2.3-1.06c-1.34,0-2.14.7-2.14,1.62s1.07,1.26,2.21,1.57c1.33.34,2.75.7,2.75,2.27,0,1.2-.9,2.22-2.77,2.22a3.41,3.41,0,0,1-2.83-1.23Z"/><path class="cls-2" d="M163.93,107.9c2.37,0,3.58,1.9,3.58,4v.16h-6.67a3.31,3.31,0,0,0,3.25,3.47,3.52,3.52,0,0,0,2.69-1.17l.29.3a3.86,3.86,0,0,1-3,1.3,4.07,4.07,0,0,1-.16-8.12Zm-3.09,3.78H167a3.17,3.17,0,0,0-3.09-3.35A3.26,3.26,0,0,0,160.84,111.67Z"/></g></g></svg>