<?xml version="1.0" encoding="utf-8"?>
<!-- Generator: Adobe Illustrator 22.0.0, SVG Export Plug-In . SVG Version: 6.00 Build 0)  -->
<svg version="1.1" id="Layer_1" xmlns="http://www.w3.org/2000/svg" xmlns:xlink="http://www.w3.org/1999/xlink" x="0px" y="0px"
	 viewBox="0 0 867.3 545.4" style="enable-background:new 0 0 867.3 545.4;" xml:space="preserve">
<style type="text/css">
	.st0{fill:#DA8C27;}
	.st1{fill:#FFC626;}
	.st2{fill:#AED253;}
	.st3{fill:#F26B36;}
	.st4{fill:#D2DF43;}
	.st5{fill:#9ADBF8;}
	.st6{fill:#8DC63F;}
	.st7{fill:#CEDE53;}
	.st8{fill:#941A1D;}
	.st9{fill:#6C0C1F;}
	.st10{fill:#BE1E2D;}
	.st11{fill:#F0484A;}
	.st12{fill:#DC2129;}
	.st13{fill:#A4DEF2;}
	.st14{fill:#112E35;}
	.st15{fill:#ED1C24;}
	.st16{fill:#D1EDF6;}
	.st17{fill:#FBE624;}
	.st18{fill:#72C8F1;}
	.st19{fill:#27AAE1;}
	.st20{fill:#1B85C7;}
	.st21{fill:#199BD7;}
	.st22{fill:#0A69B3;}
	.st23{fill:#39B54A;}
	.st24{fill:#8CC63F;}
	.st25{fill:#009444;}
	.st26{fill:#0584C6;}
	.st27{opacity:0.14;fill:#006838;enable-background:new    ;}
	.st28{fill:#016434;}
	.st29{fill:#073D20;}
	.st30{fill:#D1D3D4;}
	.st31{fill:#FFFFFF;}
	.st32{fill:#295961;}
	.st33{opacity:0.38;fill:#FFFFFF;enable-background:new    ;}
	.st34{font-family:'Tenso-Bold';}
	.st35{font-size:76.11px;}
	.st36{font-family:'URWForm-Thin';}
	.st37{font-size:42px;}
</style>
<title>Logo_website</title>
<g>
	<rect x="415.1" y="171" class="st0" width="24.2" height="151.4"/>
	<rect x="414" y="165.7" class="st1" width="23.4" height="5.8"/>
	<rect x="453.7" y="150.9" class="st1" width="25.3" height="5.8"/>
	<rect x="435.9" y="133.4" class="st0" width="20.9" height="189.9"/>
	<rect x="456.5" y="156.5" class="st0" width="20.9" height="167.8"/>
	<polygon class="st0" points="556.3,344 556.3,334.8 519.6,334.8 519.6,344 527,344 527,397.4 519.6,397.4 519.6,406.6 556.3,406.6 
		556.3,397.4 548.6,397.4 548.6,344 	"/>
	<polygon class="st0" points="627,344 627,334.8 590.3,334.8 590.3,344 597.7,344 597.7,397.4 590.3,397.4 590.3,406.6 627,406.6 
		627,397.4 619.3,397.4 619.3,344 	"/>
	<rect x="552.5" y="400.7" class="st0" width="42.1" height="5.9"/>
	<rect x="462.4" y="348.6" class="st2" width="48" height="17.8"/>
	<polygon class="st3" points="326,41.2 314.5,41.2 311,26.6 320.2,17 329.9,26.4 	"/>
	<polygon class="st4" points="348.4,41 336.9,41 333.4,26.4 342.6,16.7 352.3,26.1 	"/>
	<rect x="386.2" y="67.3" class="st5" width="11.3" height="52.3"/>
	<rect x="374.1" y="80.2" class="st5" width="9.4" height="39.4"/>
	<polygon class="st6" points="534.5,181.6 534.5,197.8 512.6,197.8 512.6,180.5 512.6,56.7 517.6,53 526.8,56.7 526.8,181.6 	"/>
	<path class="st2" d="M526.8,56.8l-5.7-10.2l-11.8-6.5L498.2,46l-6.1,10.7v300.8h18.3V60.6l7.7-4.8l8.7,11.2V56.8z"/>
	<polygon class="st7" points="495.1,57.7 501.3,47 511.6,41.5 509.2,40.2 498.2,46 492.1,56.7 492.1,348.3 495.3,347.8 	"/>
	<rect x="370.7" y="166.1" class="st5" width="32.4" height="18.5"/>
	<rect x="324.6" y="242.3" class="st8" width="61.9" height="18"/>
	<rect x="386.5" y="260.3" class="st8" width="18.4" height="48.1"/>
	<polygon class="st9" points="404.9,260.3 386.5,260.3 386.5,242.3 	"/>
	<polygon class="st0" points="461.8,338.4 456.2,324 477.5,324 	"/>
	<rect x="241.5" y="187.5" class="st10" width="90.3" height="132.9"/>
	<polygon class="st10" points="453.5,406.1 342.8,405.1 319.3,377.6 340.5,307.4 452.9,307.4 474.5,379.1 	"/>
	<rect x="330.4" y="238.6" class="st9" width="4.7" height="24.5"/>
	<polygon class="st11" points="241.5,293.3 331.8,209.8 331.8,187.5 241.5,187.5 	"/>
	<rect x="383.7" y="304.2" class="st9" width="23.6" height="3.7"/>
	<rect x="239.8" y="193.2" class="st8" width="93" height="9.6"/>
	<rect x="239.8" y="304.9" class="st8" width="93" height="9.6"/>
	<polygon class="st8" points="307.6,268.9 287.2,277.1 267.5,268.9 261.6,247.7 267.5,228.6 286.6,220.4 307.6,228.6 312.9,247 	"/>
	<polygon class="st12" points="307.6,228.6 286.6,220.4 267.5,228.6 261.6,247.7 267.5,268.9 267.8,269 308.4,231.4 	"/>
	<polygon class="st13" points="414.9,152.7 404.3,156.8 394.1,152.7 391.1,142.2 394.1,132.7 404,128.6 414.9,132.7 417.6,141.8 	
		"/>
	<polygon class="st8" points="382.4,358.2 367.7,364.1 353.5,358.2 349.2,343 353.5,329.3 367.2,323.4 382.4,329.3 386.2,342.5 	"/>
	<polygon class="st14" points="378.2,353.8 367.7,357.9 357.5,353.8 354.5,343.3 357.5,333.7 367.4,329.7 378.2,333.7 381,342.9 	
		"/>
	<polygon class="st8" points="437.7,357.8 423.1,363.6 408.9,357.8 404.6,342.5 408.9,328.8 422.6,322.9 437.7,328.8 441.5,342 	"/>
	<polygon class="st5" points="301.6,262.5 287,268.1 272.9,262.5 268.6,247.9 272.9,234.7 286.5,229.1 301.6,234.7 305.3,247.4 	"/>
	<polygon class="st15" points="324.8,38.5 315.8,38.5 313.1,27.2 320.3,19.7 327.8,27 	"/>
	<polygon class="st6" points="347.2,38.3 338.2,38.3 335.5,26.9 342.7,19.4 350.2,26.7 	"/>
	<polygon class="st14" points="433.6,353.3 423.1,357.4 412.9,353.3 409.8,342.8 412.9,333.2 422.7,329.2 433.6,333.2 436.3,342.4 	
		"/>
	<polygon class="st16" points="301.9,234.8 286.8,229.1 273.1,234.8 268.8,248 273.1,262.7 273.2,262.7 302.4,236.7 	"/>
	<rect x="268.6" y="183.7" class="st10" width="38.9" height="4.3"/>
	<rect x="319.1" y="375.6" class="st8" width="155.5" height="4.5"/>
	<rect x="334.5" y="202.8" class="st1" width="114.3" height="35.4"/>
	<polygon class="st1" points="645.9,324.4 645.9,311.8 624.4,299.1 512.1,299.1 512.1,335.4 631.1,335.4 	"/>
	<polygon class="st1" points="450.2,239.4 447.5,236.6 466.6,203 477.5,210.5 	"/>
	<polygon class="st17" points="448.7,238.3 448.7,202.8 466.9,203 	"/>
	<polygon class="st0" points="448.9,238.2 482.8,227.8 477.3,210.4 	"/>
	
		<rect x="462.8" y="228.5" transform="matrix(0.9265 -0.3764 0.3764 0.9265 -65.6663 200.5886)" class="st1" width="35.4" height="79.7"/>
	<polygon class="st1" points="513.8,299.5 510.2,298 486.2,328.3 497.2,335.6 	"/>
	<polygon class="st17" points="512.2,298.5 479.3,311.8 486.3,328.6 	"/>
	<polygon class="st0" points="512.1,298.7 514.8,335.4 497.1,335.5 	"/>
	<rect x="239.8" y="193.2" class="st12" width="93" height="9.6"/>
	<rect x="284.7" y="153.8" class="st5" width="7.7" height="30"/>
	<polygon class="st18" points="292.4,153.9 284.6,153.9 292.4,146.7 	"/>
	<rect x="292.4" y="146.7" class="st5" width="13.4" height="7.1"/>
	<polygon class="st19" points="402.8,119 365.4,119 360.6,122 355.3,131.5 311.2,131.5 305.4,134.6 305.3,164.8 310.9,167.9 
		403.2,167.7 411.1,162.5 411.1,160.2 411.1,131.5 411.1,124.5 	"/>
	<rect x="314.1" y="139.9" class="st14" width="35" height="18.7"/>
	<path class="st20" d="M385.3,162.5l-13.5-5.4l-4-13.8l4-12.5l13-5.4l14.3,5.4l3.6,12.1l-3.5,14.2L385.3,162.5z M374.5,154.7
		l10.8,4.3l11.2-4.3l2.9-11.7l-2.9-9.7l-11.6-4.4l-10.5,4.3l-3.3,10.1L374.5,154.7z"/>
	
		<rect x="355.2" y="140.3" transform="matrix(0.7071 -0.7071 0.7071 0.7071 3.7085 295.0134)" class="st10" width="5.5" height="5.5"/>
	
		<rect x="355.3" y="152.1" transform="matrix(0.7071 -0.7071 0.7071 0.7071 -4.6294 298.506)" class="st1" width="5.5" height="5.5"/>
	<polygon class="st21" points="365.4,119 360.6,122 359.1,124.7 402.5,167.7 403.2,167.7 411.1,162.5 411.1,160.2 411.1,131.5 
		411.1,124.5 402.8,119 	"/>
	<polygon class="st22" points="399.2,130.8 384.9,125.4 371.9,130.8 370.3,135.8 372.9,138.4 373.4,136.6 374.5,133.2 385,128.9 
		396.6,133.2 399.5,143 396.5,154.7 393,156.1 391.4,156.7 393.9,159.2 399.3,157.1 402.8,142.9 	"/>
	<rect x="370.2" y="172.4" class="st18" width="33.5" height="1.2"/>
	<rect x="370.2" y="178.9" class="st18" width="33.5" height="1.2"/>
	<polygon class="st23" points="536.5,96.7 529.4,116.1 529.4,212.1 535.3,231.2 550.6,238.1 584.4,238.1 597.5,231 603.4,212.1 
		603.4,116.1 595.7,96.1 581.5,90.2 550.1,90.2 	"/>
	<polygon class="st24" points="556.4,238.1 552.9,238.4 543.9,228.7 541,218.3 540.6,116.7 544.4,97.8 550.3,90.8 554.6,90.8 
		549.8,98.3 545.5,117.8 546,216.8 549.3,226.9 	"/>
	<rect x="528.7" y="124.3" class="st25" width="75.8" height="23.6"/>
	<rect x="535.5" y="241.8" class="st25" width="62.5" height="6.8"/>
	<rect x="550.8" y="237.9" class="st25" width="33.8" height="4"/>
	<polygon class="st26" points="347.1,110.3 314.9,110.3 320.3,113.9 342.4,113.9 	"/>
	<rect x="550.4" y="86.8" class="st25" width="31.4" height="4"/>
	<polygon class="st23" points="612.6,267.2 523.3,267.2 536,248.1 598,248.1 	"/>
	<polygon class="st27" points="612.6,267.2 598,248.1 598,241.8 584.7,241.8 584.7,237.9 597.5,231 603.4,212.1 603.4,147.9 
		604.5,147.9 604.5,124.3 603.4,124.3 603.4,119.7 529.4,197.4 529.4,212.1 535.3,231.2 550.6,238.1 550.8,238.1 550.8,241.8 
		535.5,241.8 535.5,248.6 535.7,248.6 523.3,267.2 	"/>
	<path class="st28" d="M583.3,184.4l-16.6-5.7l-15,5.7l-4.7,13.2l4.7,14.6l15.5,5.7l16.1-5.7l4.1-15.1L583.3,184.4z M569.8,195.1
		l-1.7-0.6l0.3-12.1l11.8,4L569.8,195.1z M566.4,194.5L565,195l-10.3-8.6l10.9-4.1L566.4,194.5z M563.8,196l-0.6,1.6l-12.7-0.7
		l2.9-8.1L563.8,196z M563.2,199.1l0.6,1.9l-10.3,7.2l-2.8-8.9L563.2,199.1z M565.2,201.8l1.1,0.4l-0.8,12.1l-10.5-3.9L565.2,201.8z
		 M567.9,202.4l1.4-0.5l10.4,8.7l-11.5,4.1L567.9,202.4z M570.8,201.1l0.5-1.8l12.5,0.3l-2.4,8.8L570.8,201.1z M571.5,197.9
		l-0.6-1.8l10.6-7.4l2.7,8.4L571.5,197.9z"/>
	<rect x="484.1" y="74.1" class="st25" width="8.6" height="6.2"/>
	<rect x="490.8" y="67.1" class="st25" width="20.7" height="18.3"/>
	<polygon class="st25" points="484.9,91.6 478.7,96.6 470.8,96.6 463.3,91.2 463.3,57.8 469.7,53.1 478.4,53.1 484.9,57.8 	"/>
	<rect x="473" y="57.8" class="st29" width="2.2" height="33.5"/>
	<rect x="473.2" y="44.1" class="st30" width="1.8" height="17.3"/>
	
		<rect x="469.9" y="35.5" transform="matrix(0.7071 -0.7071 0.7071 0.7071 110.8185 346.8607)" class="st11" width="8.4" height="8.4"/>
	
		<rect x="370.9" y="36.3" transform="matrix(0.7071 -0.7071 0.7071 0.7071 79.7199 280.6543)" class="st22" width="15.5" height="15.5"/>
	<rect x="316.7" y="85.2" class="st26" width="28.6" height="16.6"/>
	<rect x="351.5" y="55.7" class="st5" width="34.8" height="11.7"/>
	<polygon class="st18" points="397.8,67.4 386.1,67.4 386.1,55.5 	"/>
	<rect x="351.5" y="70.1" class="st5" width="22.7" height="10.1"/>
	<polygon class="st18" points="383.8,80.2 374.1,80.2 374.1,70.1 	"/>
	<polygon class="st19" points="360.9,110.4 303.2,110.4 316.4,101.4 345.1,101.4 	"/>
	<polygon class="st19" points="364.9,94 293.9,94 293.9,48.3 301.2,38.3 364.9,38.3 	"/>
	<rect x="303.3" y="47.1" class="st5" width="53.8" height="38.2"/>
	<rect x="364.9" y="55.2" class="st22" width="1.8" height="12.7"/>
	<rect x="374.3" y="55" class="st22" width="9" height="12.7"/>
	<rect x="364.8" y="69.4" class="st22" width="1.8" height="11.1"/>
	
		<rect x="373.6" y="39" transform="matrix(0.7071 -0.7071 0.7071 0.7071 79.72 280.6543)" class="st31" width="10.1" height="10.1"/>
	<rect x="415.4" y="138.6" class="st13" width="5.4" height="5.5"/>
	
		<rect x="411.9" y="129.8" transform="matrix(0.7869 -0.617 0.617 0.7869 6.7343 283.9911)" class="st13" width="5.4" height="4.9"/>
	
		<rect x="412.6" y="148.6" transform="matrix(0.4599 -0.888 0.888 0.4599 89.8765 450.2849)" class="st13" width="4.9" height="5.4"/>
	<rect x="385.5" y="76.1" class="st22" width="12.7" height="10.8"/>
	<rect x="434.5" y="127.2" class="st1" width="23.9" height="6.8"/>
	<rect x="495.6" y="129.8" class="st25" width="40.3" height="9.4"/>
	<rect x="495.6" y="129.8" class="st25" width="10.8" height="64.8"/>
	<polygon class="st25" points="498.9,224.5 485.9,211.5 501.3,196.2 516.6,211.5 503.7,224.4 503.7,231.9 524.2,211.5 501.3,188.6 
		478.4,211.5 498.9,232.1 	"/>
	<ellipse class="st25" cx="501.3" cy="196.8" rx="5.1" ry="6.4"/>
	<rect x="283.3" y="48.5" class="st19" width="17.4" height="45.5"/>
	<polygon class="st17" points="366.3,221.9 366.3,217.6 363.1,217.6 362.1,214.5 364.2,212.8 361.9,209.8 359.1,212 355.5,210.6 
		355.5,208 351.7,208 351.7,210.4 347.5,212.2 345.1,210.3 342.8,213.3 344.9,215 343.9,218.1 340.7,218.1 340.7,222.3 343.8,222.3 
		344.8,226 342.5,227.2 344.2,230.5 347,229.1 352,231.1 352,233.5 355.7,233.5 355.7,230.8 360.7,228.9 362.8,230 364.5,226.7 
		362.4,225.6 363.4,221.9 	"/>
	<polygon class="st17" points="443,222.6 443,218.4 439.8,218.4 438.9,215.2 441,213.6 438.6,210.6 435.9,212.8 432.2,211.4 
		432.2,208.8 428.4,208.8 428.4,211.2 424.2,212.9 421.8,211.1 419.5,214.1 421.6,215.8 420.7,218.9 417.5,218.9 417.5,223.1 
		420.5,223.1 421.6,226.7 419.2,227.9 421,231.3 423.7,229.9 428.7,231.9 428.7,234.3 432.5,234.3 432.5,231.6 437.4,229.7 
		439.5,230.8 441.2,227.5 439.1,226.4 440.1,222.6 	"/>
	<polygon class="st17" points="545,318.4 545,314.2 541.8,314.2 540.9,311 543,309.4 540.6,306.4 537.9,308.6 534.2,307.2 
		534.2,304.6 530.4,304.6 530.4,307 526.2,308.8 523.8,306.9 521.5,309.9 523.7,311.5 522.7,314.6 519.5,314.6 519.5,318.9 
		522.5,318.9 523.6,322.5 521.2,323.8 523,327.1 525.7,325.7 530.7,327.7 530.7,330.1 534.4,330.1 534.4,327.4 539.4,325.5 
		541.5,326.6 543.3,323.3 541.1,322.2 542.1,318.4 	"/>
	<polygon class="st17" points="628.3,318.7 628.3,314.4 625.1,314.4 624.2,311.3 626.3,309.6 624,306.6 621.2,308.8 617.5,307.5 
		617.5,304.9 613.7,304.9 613.7,307.3 609.5,309 607.1,307.1 604.8,310.1 607,311.8 606,314.9 602.8,314.9 602.8,319.2 605.8,319.2 
		606.9,322.8 604.5,324 606.3,327.4 609,325.9 614,327.9 614,330.4 617.8,330.4 617.8,327.7 622.7,325.8 624.8,326.9 626.6,323.5 
		624.5,322.4 625.4,318.7 	"/>
	<polygon class="st1" points="361.1,219.4 356.9,215.3 353.3,218.8 350,215.4 345.8,219.6 349.2,223 349.2,223 353.3,227.2 
		357.5,223 357.5,223 	"/>
	<polygon class="st1" points="438.2,220 434.1,215.8 430.5,219.3 427.1,216 423,220.1 426.4,223.5 426.3,223.6 430.5,227.7 
		434.7,223.6 434.7,223.5 	"/>
	<polygon class="st1" points="540.2,316.6 536.1,312.4 532.5,316 529.1,312.6 525,316.7 528.4,320.1 528.3,320.2 532.5,324.3 
		536.7,320.2 536.7,320.1 	"/>
	<polygon class="st1" points="623.7,316.3 619.5,312.1 616,315.6 612.6,312.2 608.4,316.4 611.8,319.8 611.8,319.9 615.9,324 
		620.1,319.9 620.1,319.8 	"/>
	<polygon class="st11" points="454,311 452.9,307.4 340.5,307.4 319.3,377.6 342.8,405.1 361.5,405.2 	"/>
	<polygon class="st12" points="382.4,358.2 367.7,364.1 353.5,358.2 349.2,343 353.5,329.3 367.2,323.4 382.4,329.3 386.2,342.5 	
		"/>
	<polygon class="st32" points="378.2,353.8 367.7,357.9 357.5,353.8 354.5,343.3 357.5,333.7 367.4,329.7 378.2,333.7 381,342.9 	
		"/>
	<polygon class="st12" points="422.6,322.9 408.9,328.8 404.6,342.5 408.7,357.1 436.8,328.4 	"/>
	<polygon class="st32" points="422.7,329.2 412.9,333.2 409.8,342.8 412.8,353 432.5,332.8 	"/>
	<polygon class="st12" points="386.3,380.2 319.1,380.1 319.1,375.6 390.6,375.7 	"/>
</g>
<path class="st33" d="M135.7,246.7l-22,50.3l50.3,22l22-50.3L135.7,246.7z M126.3,292.1l14.4-32.9l32.9,14.4l-14.4,32.9L126.3,292.1
	z"/>
<path class="st33" d="M47,0L30,38.8l38.8,16.9l16.9-38.8L47,0z M39.7,35L50.8,9.6l25.3,11.1L65,46.1L39.7,35z"/>
<path class="st33" d="M20.4,289.8L8.8,316.3l26.5,11.6L47,301.4L20.4,289.8z M15.4,313.7l7.6-17.3l17.4,7.6l-7.6,17.3L15.4,313.7z"
	/>
<path class="st33" d="M670.4,261.8l-11.6,26.5l26.5,11.6l11.6-26.5L670.4,261.8z M665.4,285.7l7.6-17.3l17.4,7.6l-7.6,17.3
	L665.4,285.7z"/>
<path class="st33" d="M808.4,393.1l-11.6,26.5l26.5,11.6l11.6-26.5L808.4,393.1z M803.4,417.1l7.6-17.4l17.3,7.6l-7.6,17.4
	L803.4,417.1z"/>
<path class="st33" d="M787.3,481.8l-14.9,34l34,14.9l14.9-34L787.3,481.8z M780.9,512.5l9.7-22.2l22.2,9.8l-9.7,22.2L780.9,512.5z"
	/>
<path class="st33" d="M95.4,485.8l-11.6,26.5l26.6,11.6l11.6-26.5L95.4,485.8z M90.4,509.7l7.6-17.3l17.4,7.6l-7.6,17.3L90.4,509.7z
	"/>
<path class="st33" d="M793,148.8l-34.2,43l43,34.2l34.2-43L793,148.8z M772.2,190.2l22.3-28.1l28.1,22.3l-22.3,28.1L772.2,190.2z"/>
<path class="st33" d="M681.2,14l-38.8-3.7l-28.6,21.4l-2,33l18.8,31l36.6,4.3L698,78l-0.3-37L681.2,14z M658.6,46.1l-3.9-0.4
	L648,17.6l27.5,2.6L658.6,46.1z M651.1,46.6l-2.7,2l-27.2-14L642,19L651.1,46.6z M646.4,51.4l-0.2,4.1l-27.4,5.4l1.2-20.3
	L646.4,51.4z M647.1,58.9l2.5,4.1L632,85.3l-11.4-18.8L647.1,58.9z M653,64l2.5,0.3l5.5,28.2l-24.8-2.9L653,64z M659,63.7l2.8-2
	l27.5,14.1l-22,15.8L659,63.7z M664.3,59.3V55l26.8-6.4l0.2,21.7L664.3,59.3z M663.9,51.4l-2.3-3.8l18.1-23l11,17.9L663.9,51.4z"/>
<path class="st33" d="M859.5,289.6l-18-1.7l-13.3,10l-0.9,15.3l8.7,14.4l17,2l14.3-10.2l-0.1-17.2L859.5,289.6z M849.1,304.6
	l-1.8-0.2l-3.1-13l12.8,1.2L849.1,304.6z M845.6,304.8l-1.3,0.9l-12.6-6.5l9.6-7.2L845.6,304.8z M843.4,307l-0.1,1.9l-12.7,2.5
	l0.5-9.4L843.4,307z M843.7,310.5l1.2,1.9l-8.2,10.4l-5.3-8.7L843.7,310.5z M846.5,312.9l1.2,0.1l2.6,13.1l-11.5-1.4L846.5,312.9z
	 M849.2,312.7l1.3-0.9l12.8,6.6l-10.3,7.4L849.2,312.7z M851.7,310.7v-2l12.4-3l0.1,10.1L851.7,310.7z M851.5,307l-1.1-1.8l8.4-10.7
	l5.1,8.3L851.5,307z"/>
<path class="st33" d="M152.5,385.6l-22.3-9.6l-21.1,7.2l-7.5,19.2l5.2,22l20.9,9.6l22.5-7.2l6.9-22L152.5,385.6z M133,400.4l-2.3-1
	l1.5-17.9l15.8,6.8L133,400.4z M128.5,399.2l-2,0.7L113,386.4l15.3-5.2L128.5,399.2z M124.7,401.2l-0.9,2.4l-17.3-2l4.6-11.8
	L124.7,401.2z M123.7,405.8l0.7,2.9l-14.7,9.9l-3.2-13.3L123.7,405.8z M126.2,410l1.4,0.7l-2.1,17.8l-14.2-6.5L126.2,410z
	 M129.9,411l2-0.6l13.6,13.6l-16.1,5L129.9,411z M133.9,409.4l0.8-2.6l17.1,1.4l-4.1,12.9L133.9,409.4z M135.1,404.6l-0.7-2.7
	l15.1-10.1l3.1,12.7L135.1,404.6z"/>
<path class="st33" d="M99.5,143.3l-21-8.2l-19.1,8.2l-5.9,19.1l5.9,21.1l19.7,8.2l20.4-8.2l5.3-21.8L99.5,143.3z M93.7,177.4
	L79.1,183l-14.2-5.7l-4.2-14.6l4.2-13.2l13.7-5.7l15.1,5.7l3.8,12.8L93.7,177.4z"/>
<path class="st33" d="M782.5,282.3l-21-8.2l-19.1,8.2l-5.9,19.1l5.9,21.1l19.7,8.2l20.4-8.2l5.3-21.8L782.5,282.3z M776.7,316.4
	l-14.6,5.6l-14.2-5.7l-4.2-14.6l4.2-13.2l13.7-5.7l15.1,5.7l3.8,12.8L776.7,316.4z"/>
<path class="st33" d="M734.3,177.8v-9.3h-7l-2-6.8l4.6-3.6l-5.1-6.5l-6.1,4.8l-8-3v-5.7h-8.2v5.2l-9.1,3.8l-5.2-4.1l-5.1,6.5
	l4.7,3.7l-2.2,6.7h-7v9.3h6.6l2.3,7.9l-5.1,2.6l3.8,7.3l6-3.1l10.8,4.3v5.3h8.2v-5.9l10.7-4.1l4.6,2.4l3.8-7.3l-4.6-2.4l2-8.1
	L734.3,177.8z M716.4,180.3L716.4,180.3l-9.1,9.1l-9.1-9.1l0.1-0.1l-7.3-7.4l9.1-9.1l7.4,7.4l7.7-7.7l9.1,9.1L716.4,180.3z"/>
<path class="st33" d="M71.7,433.8v-12h-9.1L60,413l6-4.7l-6.6-8.3l-7.8,6.1l-10.3-3.9V395H30.8v6.8L19,406.6l-6.7-5.2l-6.5,8.4
	l6.1,4.8L9,423.2H0v12h8.6l2.9,10.2l-6.6,3.4l4.9,9.4l7.7-4l13.9,5.6v6.9H42V459l13.8-5.4l6,3.1l4.9-9.4l-5.9-3.1l2.6-10.5
	L71.7,433.8z M48.6,437L48.6,437L37,448.7L25.3,437l0.1-0.1l-9.5-9.5l11.7-11.7l9.5,9.5l9.9-9.9L58.6,427L48.6,437z"/>
<path class="st33" d="M203.7,95.9v-7h-5.3l-1.5-5.2l3.5-2.8l-3.8-4.9l-4.6,3.6l-6-2.3V73h-6.2v4l-7,2.9l-3.9-3.1l-3.9,4.9l3.6,2.8
	l-1.6,5.1h-5.3v7h5l1.7,6l-3.9,2l2.9,5.5l4.6-2.4l8.2,3.3v4h6.2v-4.4l8.1-3.2l3.5,1.8l2.9-5.5l-3.5-1.8l1.5-6.2L203.7,95.9z
	 M190.1,97.8L190.1,97.8l-6.9,6.9l-6.9-6.9l0,0l-5.6-5.6l6.9-6.9l5.6,5.6l5.8-5.8l6.9,6.9L190.1,97.8z"/>
<path class="st33" d="M764.7,410.8v-12h-9.1L753,390l6-4.7l-6.6-8.3l-7.8,6.1l-10.3-3.9V372h-10.6v6.8l-11.8,4.8l-6.7-5.2l-6.5,8.4
	l6.1,4.8l-2.8,8.7h-9v12h8.6l3,10.2l-6.6,3.4l4.9,9.4l7.8-4l13.9,5.6v6.9h10.5V436l13.8-5.4l6,3.1l4.9-9.4l-5.9-3.1l2.6-10.5
	L764.7,410.8z M741.6,414L741.6,414L730,425.7L718.3,414l0.1-0.1l-9.5-9.5l11.7-11.7l9.5,9.5l9.9-9.9l11.7,11.8L741.6,414z"/>
<text transform="matrix(1 0 0 1 237.2753 474.18)" class="st31 st34 st35">STRENGTHS</text>
<text transform="matrix(1 0 0 1 203.4916 517)" class="st31 st36 st37">A LIFE LONG ADVENTURE</text>
</svg>
