<!-- Generator: Adobe Illustrator 21.1.0, SVG Export Plug-In  -->
<svg version="1.1"
	 xmlns="http://www.w3.org/2000/svg" xmlns:xlink="http://www.w3.org/1999/xlink" xmlns:a="http://ns.adobe.com/AdobeSVGViewerExtensions/3.0/"
	 x="0px" y="0px" width="406.031px" height="389.93px" viewBox="0 0 406.031 389.93"
	 style="enable-background:new 0 0 406.031 389.93;" xml:space="preserve">
<style type="text/css">
	.st0{fill:#DA8C27;}
	.st1{fill:#FFC626;}
	.st2{fill:#AED253;}
	.st3{fill:#F26B36;}
	.st4{fill:#D2DF43;}
	.st5{fill:#9ADBF8;}
	.st6{fill:#8DC63F;}
	.st7{fill:#CEDE53;}
	.st8{fill:#941A1D;}
	.st9{fill:#6C0C1F;}
	.st10{fill:#BE1E2D;}
	.st11{fill:#F0484A;}
	.st12{fill:#DC2129;}
	.st13{fill:#A4DEF2;}
	.st14{fill:#112E35;}
	.st15{fill:#ED1C24;}
	.st16{fill:#D1EDF6;}
	.st17{fill:#FBE624;}
	.st18{fill:#72C8F1;}
	.st19{fill:#27AAE1;}
	.st20{fill:#1B85C7;}
	.st21{fill:#199BD7;}
	.st22{fill:#0A69B3;}
	.st23{fill:#39B54A;}
	.st24{fill:#8CC63F;}
	.st25{fill:#009444;}
	.st26{fill:#0584C6;}
	.st27{opacity:0.14;fill:#006838;}
	.st28{fill:#016434;}
	.st29{fill:#073D20;}
	.st30{fill:#D1D3D4;}
	.st31{fill:#FFFFFF;}
	.st32{opacity:0.4;}
	.st33{fill:#295961;}
</style>
<defs>
</defs>
<rect x="175.221" y="154.288" class="st0" width="24.192" height="151.404"/>
<rect x="174.134" y="149.046" class="st1" width="23.394" height="5.757"/>
<rect x="213.899" y="134.249" class="st1" width="25.281" height="5.79"/>
<rect x="196.089" y="116.709" class="st0" width="20.868" height="189.928"/>
<rect x="216.688" y="139.84" class="st0" width="20.868" height="167.792"/>
<polygon class="st0" points="316.441,327.325 316.441,318.15 279.742,318.15 279.742,327.325 287.199,327.325 287.199,380.755 
	279.742,380.755 279.742,389.93 316.441,389.93 316.441,380.755 308.774,380.755 308.774,327.325 "/>
<polygon class="st0" points="387.141,327.325 387.141,318.15 350.442,318.15 350.442,327.325 357.899,327.325 357.899,380.755 
	350.442,380.755 350.442,389.93 387.141,389.93 387.141,380.755 379.474,380.755 379.474,327.325 "/>
<rect x="312.663" y="383.993" class="st0" width="42.096" height="5.937"/>
<rect x="222.534" y="331.912" class="st2" width="48.033" height="17.81"/>
<polygon class="st3" points="86.198,24.556 74.68,24.556 71.21,9.954 80.41,0.27 90.094,9.712 "/>
<polygon class="st4" points="108.596,24.286 97.077,24.286 93.608,9.684 102.808,0 112.491,9.442 "/>
<rect x="146.343" y="50.571" class="st5" width="11.295" height="52.265"/>
<rect x="134.322" y="63.472" class="st5" width="9.442" height="39.392"/>
<polygon class="st6" points="294.673,164.877 294.673,181.068 272.817,181.068 272.817,163.798 272.817,40.027 277.763,36.294 
	286.949,40.027 286.949,164.877 "/>
<path class="st2" d="M286.938,40.072l-5.712-10.119l-11.828-6.476l-11.064,5.847l-6.117,10.704v300.79h18.35V58.145v-14.25
	l7.691-4.812l8.68,11.244V40.072z"/>
<g>
	<polygon class="st7" points="255.321,40.972 261.437,30.268 271.8,24.792 269.398,23.477 258.334,29.323 252.217,40.027 
		252.217,331.643 255.456,331.103 	"/>
</g>
<rect x="130.921" y="149.361" class="st5" width="32.382" height="18.509"/>
<rect x="84.784" y="225.575" class="st8" width="61.877" height="18.033"/>
<rect x="146.651" y="243.575" class="st8" width="18.405" height="48.154"/>
<polygon class="st9" points="165.109,243.607 146.637,243.607 146.637,225.575 "/>
<polygon class="st0" points="221.995,321.658 216.328,307.356 237.646,307.356 "/>
<rect x="1.629" y="170.833" class="st10" width="90.313" height="132.914"/>
<polygon class="st10" points="213.675,389.39 102.942,388.392 79.499,360.959 100.622,290.661 213.075,290.661 234.624,362.455 "/>
<rect x="90.566" y="221.887" class="st9" width="4.667" height="24.537"/>
<polygon class="st11" points="1.629,276.639 91.943,193.071 91.943,170.833 1.629,170.833 "/>
<rect x="143.895" y="287.502" class="st9" width="23.59" height="3.689"/>
<rect y="176.546" class="st8" width="93.007" height="9.601"/>
<rect y="288.155" class="st8" width="93.007" height="9.601"/>
<polygon class="st8" points="67.795,252.179 47.404,260.366 27.67,252.179 21.75,231.027 27.67,211.923 46.746,203.735 
	67.795,211.923 73.057,230.345 "/>
<polygon class="st12" points="67.795,211.923 46.746,203.735 27.67,211.923 21.75,231.027 27.67,252.179 27.942,252.291 
	68.584,214.685 "/>
<polygon class="st13" points="175.053,136.026 164.518,140.104 154.322,136.026 151.263,125.491 154.322,115.975 164.178,111.897 
	175.053,115.975 177.772,125.151 "/>
<polygon class="st8" points="142.55,341.565 127.874,347.457 113.671,341.565 109.411,326.341 113.671,312.591 127.401,306.698 
	142.55,312.591 146.338,325.85 "/>
<polygon class="st14" points="138.413,337.107 127.874,341.187 117.675,337.107 114.615,326.568 117.675,317.049 127.534,312.969 
	138.413,317.049 141.133,326.228 "/>
<polygon class="st8" points="197.917,341.066 183.24,346.959 169.038,341.066 164.777,325.842 169.038,312.092 182.767,306.199 
	197.917,312.092 201.704,325.351 "/>
<polygon class="st5" points="61.736,245.793 47.143,251.442 33.02,245.793 28.784,231.2 33.02,218.019 46.672,212.37 
	61.736,218.019 65.502,230.729 "/>
<polygon class="st15" points="84.966,21.858 76.007,21.858 73.309,10.5 80.464,2.968 87.996,10.312 "/>
<polygon class="st6" points="107.363,21.588 98.404,21.588 95.706,10.23 102.861,2.698 110.393,10.042 "/>
<polygon class="st14" points="193.78,336.608 183.24,340.688 173.041,336.608 169.982,326.069 173.041,316.55 182.9,312.47 
	193.78,316.55 196.499,325.729 "/>
<polygon class="st16" points="62.047,218.116 46.931,212.448 33.233,218.116 28.982,231.342 33.233,245.985 33.383,246.045 
	62.603,219.993 "/>
<rect x="28.784" y="167.036" class="st10" width="38.858" height="4.318"/>
<rect x="79.303" y="358.963" class="st8" width="155.48" height="4.489"/>
<rect x="94.627" y="186.141" class="st1" width="114.285" height="35.412"/>
<polygon class="st1" points="406.031,307.743 406.031,295.078 384.595,282.389 272.317,282.389 272.317,318.672 391.24,318.672 "/>
<polygon class="st1" points="210.419,222.696 207.643,219.919 226.751,186.276 237.693,193.789 "/>
<polygon class="st17" points="208.922,221.607 208.84,186.14 227.05,186.276 "/>
<polygon class="st0" points="209.043,221.474 242.963,211.111 237.472,193.748 "/>
<rect x="200.79" y="233.974" transform="matrix(0.3764 0.9264 -0.9264 0.3764 383.2205 -65.9961)" class="st1" width="79.693" height="35.412"/>
<polygon class="st1" points="273.964,282.827 270.348,281.296 246.341,311.638 257.413,318.959 "/>
<polygon class="st17" points="272.393,281.848 239.49,295.09 246.454,311.916 "/>
<polygon class="st0" points="272.315,282.011 274.93,318.672 257.292,318.77 "/>
<rect y="176.546" class="st12" width="93.007" height="9.601"/>
<rect x="44.87" y="137.077" class="st5" width="7.657" height="29.958"/>
<polygon class="st18" points="52.587,137.172 44.795,137.172 52.587,130.024 "/>
<rect x="52.53" y="130.024" class="st5" width="13.388" height="7.148"/>
<polygon class="st19" points="162.988,102.272 125.569,102.272 120.757,105.33 115.482,114.788 71.375,114.775 65.573,117.875 
	65.438,148.104 71.105,151.205 163.348,151.025 171.263,145.808 171.263,143.469 171.263,114.804 171.263,107.849 "/>
<rect x="74.251" y="123.237" class="st14" width="34.994" height="18.695"/>
<path class="st20" d="M145.511,145.814l-13.476-5.39l-4.003-13.79l4.026-12.526l13.029-5.391l14.313,5.368l3.595,12.132
	l-3.551,14.204L145.511,145.814z M134.704,138.004l10.826,4.331l11.179-4.328l2.929-11.717l-2.886-9.739l-11.608-4.353l-10.463,4.33
	l-3.264,10.155L134.704,138.004z"/>
<rect x="115.345" y="123.563" transform="matrix(0.7071 0.7071 -0.7071 0.7071 123.9145 -46.5129)" class="st10" width="5.517" height="5.517"/>
<rect x="115.434" y="135.436" transform="matrix(0.7071 0.7071 -0.7071 0.7071 132.3365 -43.0989)" class="st1" width="5.517" height="5.517"/>
<polygon class="st21" points="125.569,102.272 120.757,105.33 119.281,107.976 162.641,151.026 163.348,151.025 171.263,145.808 
	171.263,143.469 171.263,114.804 171.263,107.849 162.988,102.272 "/>
<polygon class="st22" points="159.4,114.085 145.087,108.717 132.058,114.108 130.471,119.126 133.035,121.656 133.596,119.906 
	134.682,116.528 145.145,112.198 156.753,116.551 159.639,126.29 156.709,138.007 153.196,139.367 151.587,140.006 154.049,142.536 
	159.443,140.421 162.995,126.217 "/>
<rect x="130.381" y="155.702" class="st18" width="33.461" height="1.214"/>
<rect x="130.381" y="162.178" class="st18" width="33.461" height="1.214"/>
<polygon class="st23" points="296.648,79.965 289.541,99.394 289.541,195.46 295.463,214.484 310.713,221.365 344.618,221.365 
	357.647,214.349 363.57,195.46 363.57,99.394 355.871,79.425 341.657,73.488 310.269,73.488 "/>
<polygon class="st24" points="316.621,221.365 313.023,221.725 304.028,212.01 301.15,201.576 300.79,99.978 304.568,81.089 
	310.505,74.073 314.822,74.073 309.965,81.629 305.647,101.058 306.187,200.137 309.425,210.211 "/>
<rect x="288.861" y="107.588" class="st25" width="75.773" height="23.569"/>
<rect x="295.682" y="225.098" class="st25" width="62.469" height="6.809"/>
<rect x="310.99" y="221.164" class="st25" width="33.835" height="3.997"/>
<polygon class="st26" points="107.278,93.634 75.094,93.634 80.424,97.181 102.564,97.181 "/>
<rect x="310.528" y="70.084" class="st25" width="31.414" height="3.962"/>
<polygon class="st23" points="372.749,250.508 283.52,250.508 296.154,231.439 358.141,231.439 "/>
<polygon class="st27" points="372.749,250.508 358.151,231.452 358.151,225.098 344.825,225.098 344.825,221.253 357.647,214.349 
	363.57,195.46 363.57,131.157 364.634,131.157 364.634,107.588 363.57,107.588 363.57,103.003 289.541,180.72 289.541,195.46 
	295.463,214.484 310.713,221.365 310.99,221.365 310.99,225.098 295.682,225.098 295.682,231.907 295.844,231.907 283.52,250.508 
	"/>
<path class="st28" d="M343.513,167.744l-16.587-5.668l-15.032,5.668l-4.665,13.226l4.665,14.643l15.55,5.668l16.069-5.668
	l4.147-15.116L343.513,167.744z M329.918,178.398l-1.686-0.576l0.342-12.14l11.753,4.016L329.918,178.398z M326.593,177.794
	l-1.417,0.534l-10.299-8.608l10.881-4.103L326.593,177.794z M323.95,179.26l-0.574,1.627l-12.652-0.737l2.867-8.129L323.95,179.26z
	 M323.416,182.363l0.621,1.948l-10.316,7.208l-2.829-8.88L323.416,182.363z M325.398,185.098l1.078,0.393l-0.828,12.066
	l-10.554-3.847L325.398,185.098z M328.076,185.621l1.429-0.504l10.406,8.697l-11.491,4.053L328.076,185.621z M330.926,184.391
	l0.482-1.757l12.475,0.275l-2.425,8.841L330.926,184.391z M331.647,181.145l-0.583-1.792l10.591-7.4l2.747,8.45L331.647,181.145z"/>
<rect x="244.302" y="57.417" class="st25" width="8.635" height="6.153"/>
<g>
	<rect x="250.964" y="50.451" class="st25" width="20.683" height="18.35"/>
	<polygon class="st25" points="245.022,74.918 238.905,79.955 230.989,79.955 223.434,74.558 223.434,41.097 229.91,36.386 
		238.544,36.386 245.022,41.097 	"/>
	<rect x="233.148" y="41.097" class="st29" width="2.159" height="33.461"/>
	<rect x="233.36" y="27.424" class="st30" width="1.758" height="17.27"/>
	
		<rect x="230.031" y="18.774" transform="matrix(0.7071 0.7071 -0.7071 0.7071 84.851 -158.8976)" class="st11" width="8.403" height="8.403"/>
</g>
<rect x="131.107" y="19.635" transform="matrix(0.7071 0.7071 -0.7071 0.7071 60.0427 -90.1695)" class="st22" width="15.516" height="15.516"/>
<rect x="76.823" y="68.545" class="st26" width="28.604" height="16.594"/>
<rect x="111.637" y="38.965" class="st5" width="34.777" height="11.725"/>
<polygon class="st18" points="157.961,50.69 146.26,50.69 146.26,38.858 "/>
<rect x="111.624" y="53.362" class="st5" width="22.667" height="10.134"/>
<polygon class="st18" points="143.97,63.477 134.237,63.477 134.237,53.362 "/>
<polygon class="st19" points="121.072,93.687 63.324,93.687 76.566,84.675 105.255,84.675 "/>
<polygon class="st19" points="125.08,77.266 54.086,77.266 54.086,31.601 61.358,21.588 125.08,21.588 "/>
<rect x="63.47" y="30.447" class="st5" width="53.757" height="38.254"/>
<rect x="125.074" y="38.463" class="st22" width="1.825" height="12.72"/>
<rect x="134.429" y="38.283" class="st22" width="8.981" height="12.72"/>
<rect x="124.984" y="52.749" class="st22" width="1.801" height="11.127"/>
<rect x="133.796" y="22.323" transform="matrix(0.7071 0.7071 -0.7071 0.7071 60.0427 -90.1695)" class="st31" width="10.14" height="10.14"/>
<rect x="175.535" y="121.971" transform="matrix(-1.836970e-16 1 -1 -1.836970e-16 302.9488 -53.6097)" class="st13" width="5.488" height="5.397"/>
<rect x="172.299" y="112.806" transform="matrix(0.6171 0.7869 -0.7869 0.6171 157.8041 -93.2675)" class="st13" width="4.865" height="5.397"/>
<rect x="172.772" y="131.86" transform="matrix(-0.4599 0.888 -0.888 -0.4599 375.2654 40.8663)" class="st13" width="4.865" height="5.397"/>
<rect x="145.628" y="59.366" class="st22" width="12.683" height="10.794"/>
<rect x="194.705" y="110.548" class="st1" width="23.908" height="6.801"/>
<rect x="255.815" y="113.066" class="st25" width="40.297" height="9.355"/>
<rect x="255.815" y="113.066" class="st25" width="10.794" height="64.763"/>
<polygon class="st25" points="259.054,207.832 246.063,194.841 261.432,179.472 276.8,194.841 263.911,207.73 263.911,215.259 
	284.329,194.841 261.432,171.944 238.534,194.841 259.054,215.36 "/>
<ellipse class="st25" cx="261.482" cy="180.078" rx="5.127" ry="6.386"/>
<rect x="43.463" y="31.759" class="st19" width="17.437" height="45.547"/>
<polygon class="st17" points="126.459,205.16 126.459,200.897 123.226,200.897 122.299,197.767 124.422,196.103 122.09,193.129 
	119.301,195.316 115.638,193.943 115.638,191.335 111.859,191.335 111.859,193.748 107.657,195.487 105.273,193.618 
	102.941,196.592 105.106,198.289 104.111,201.386 100.905,201.386 100.905,205.649 103.953,205.649 105.005,209.27 102.659,210.485 
	104.397,213.841 107.157,212.411 112.123,214.397 112.123,216.842 115.902,216.842 115.902,214.155 120.832,212.246 
	122.967,213.352 124.705,209.996 122.594,208.902 123.529,205.16 "/>
<polygon class="st17" points="203.175,205.929 203.175,201.667 199.943,201.667 199.016,198.537 201.139,196.872 198.807,193.898 
	196.017,196.086 192.355,194.712 192.355,192.105 188.575,192.105 188.575,194.518 184.373,196.257 181.99,194.387 179.658,197.361 
	181.822,199.059 180.827,202.156 177.621,202.156 177.621,206.418 180.67,206.418 181.721,210.04 179.375,211.255 181.113,214.61 
	183.874,213.181 188.839,215.167 188.839,217.612 192.619,217.612 192.619,214.924 197.549,213.016 199.683,214.121 
	201.421,210.765 199.31,209.672 200.246,205.929 "/>
<polygon class="st17" points="305.177,301.73 305.177,297.467 301.944,297.467 301.017,294.338 303.14,292.673 300.808,289.699 
	298.019,291.886 294.356,290.513 294.356,287.905 290.577,287.905 290.577,290.318 286.375,292.057 283.991,290.188 
	281.659,293.162 283.824,294.859 282.829,297.956 279.623,297.956 279.623,302.219 282.671,302.219 283.723,305.84 281.377,307.055 
	283.115,310.411 285.875,308.981 290.841,310.968 290.841,313.412 294.62,313.412 294.62,310.725 299.551,308.816 301.685,309.922 
	303.423,306.566 301.312,305.472 302.247,301.73 "/>
<polygon class="st17" points="388.495,301.989 388.495,297.726 385.263,297.726 384.335,294.597 386.459,292.932 384.127,289.958 
	381.337,292.145 377.675,290.772 377.675,288.164 373.895,288.164 373.895,290.578 369.693,292.316 367.31,290.447 364.978,293.421 
	367.142,295.119 366.147,298.215 362.941,298.215 362.941,302.478 365.99,302.478 367.041,306.099 364.695,307.314 366.433,310.67 
	369.193,309.241 374.159,311.227 374.159,313.672 377.938,313.672 377.938,310.984 382.869,309.076 385.003,310.181 
	386.741,306.825 384.63,305.732 385.566,301.989 "/>
<polygon class="st1" points="121.216,202.744 117.052,198.58 113.516,202.116 110.136,198.736 105.971,202.9 109.369,206.298 
	109.34,206.327 113.505,210.492 117.669,206.327 117.651,206.309 "/>
<polygon class="st1" points="198.393,203.284 194.228,199.12 190.692,202.655 187.312,199.275 183.148,203.44 186.545,206.838 
	186.516,206.867 190.681,211.031 194.846,206.867 194.828,206.849 "/>
<polygon class="st1" points="300.395,299.89 296.23,295.725 292.695,299.261 289.315,295.881 285.15,300.045 288.548,303.443 
	288.519,303.472 292.683,307.637 296.848,303.472 296.83,303.454 "/>
<polygon class="st1" points="383.828,299.574 379.663,295.409 376.127,298.945 372.747,295.565 368.582,299.73 371.98,303.127 
	371.951,303.156 376.116,307.321 380.28,303.156 380.263,303.139 "/>
<g class="st32">
	<polygon class="st11" points="214.157,294.265 213.075,290.661 100.622,290.661 79.499,360.959 102.942,388.392 121.632,388.561 	
		"/>
	<polygon class="st12" points="142.55,341.565 127.874,347.457 113.671,341.565 109.411,326.341 113.671,312.591 127.401,306.698 
		142.55,312.591 146.338,325.85 	"/>
	<polygon class="st33" points="138.413,337.107 127.874,341.187 117.675,337.107 114.615,326.568 117.675,317.049 127.534,312.969 
		138.413,317.049 141.133,326.228 	"/>
	<polygon class="st12" points="182.767,306.199 169.038,312.092 164.777,325.842 168.86,340.429 197.01,311.74 	"/>
	<polygon class="st33" points="182.901,312.47 173.041,316.55 169.982,326.069 172.943,336.268 192.691,316.142 	"/>
	<polygon class="st12" points="146.437,363.485 79.303,363.453 79.303,358.963 150.755,358.987 	"/>
</g>
</svg>