<?xml version="1.0" encoding="utf-8"?>
<!-- Generator: Adobe Illustrator 22.0.0, SVG Export Plug-In . SVG Version: 6.00 Build 0)  -->
<svg version="1.1" id="Layer_1" xmlns="http://www.w3.org/2000/svg" xmlns:xlink="http://www.w3.org/1999/xlink" x="0px" y="0px"
	 viewBox="0 0 165.5 128.2" style="enable-background:new 0 0 165.5 128.2;" xml:space="preserve">
<style type="text/css">
	.st0{fill:#1C84C7;}
	.st1{fill:#27A8E0;}
	.st2{opacity:0.88;fill:#25A9E0;enable-background:new    ;}
	.st3{opacity:0.87;fill:#D9F0FA;enable-background:new    ;}
</style>
<g>
	<polygon class="st0" points="159.7,48.5 127.6,15.5 88.1,0 39.5,4.1 0,32.5 0.3,70.3 1.1,69.9 0.6,70.5 25.3,86.8 56.7,87.7 
		93.9,123.1 133,128.2 165.5,96 	"/>
	<g>
		<polygon class="st1" points="3.6,72.5 25.3,86.8 47.5,87.4 56.1,87.4 45.6,72.7 46,72.5 45.8,72.5 57.6,55.8 19,55.8 19,55.7 
			18.9,55.8 8.6,44.8 8.8,44.7 8.5,44.5 19,32.7 19.1,32.8 102.5,32.8 102.5,37.8 21,37.8 15,45.4 20.9,51.7 118,51.7 128.3,37.2 
			117.6,22.1 14.4,22.1 0,32.5 0.3,68.4 38.3,68.4 38.3,72.5 		"/>
		<polygon class="st1" points="129.9,67.1 129.8,67.1 119.3,55.9 119.4,55.8 63.6,55.8 64.3,56.1 52.5,72.7 62.8,87.3 164.5,87.3 
			163.2,77.3 78.3,77.3 78.3,73.2 162.7,73.2 162,67.1 129.9,67.1 		"/>
		<polygon class="st1" points="143,103.6 134.3,91.3 60.6,91.3 70.4,100.7 121.2,100.7 121.2,104.1 74,104.1 86.3,115.9 
			134.3,115.9 		"/>
		<polygon class="st1" points="159.1,47.9 130.9,47.9 124.9,55.5 131.9,62.9 161.5,62.9 159.7,48.5 		"/>
		<polygon class="st1" points="140.1,91.3 148.6,103.4 148.5,103.4 148.8,103.6 137.6,119.4 137.3,119.3 90,119.3 93.9,123.1 
			133,128.2 165.5,96 165,91.3 		"/>
		<polygon class="st1" points="121.5,18 121.5,18.2 121.6,18.1 134.9,36.9 134.8,37 135.1,37.1 130.5,43.7 155,43.7 127.6,15.5 
			88.1,0 39.5,4.1 20.1,18 		"/>
	</g>
	<polygon class="st2" points="108.1,119.1 70.9,83.8 39.5,82.9 14.8,66.6 15.4,66 14.6,66.4 14.2,28.6 49.4,3.3 39.5,4.1 0,32.5 
		0.3,70.3 1.1,69.9 0.6,70.5 25.3,86.8 56.7,87.7 93.9,123.1 133,128.2 138.2,123.1 	"/>
	<polygon class="st3" points="159.7,48.5 127.6,15.5 88.1,0 68.8,1.7 119.5,19.6 149.7,49 165.5,96 	"/>
</g>
</svg>
