<!-- Generator: Adobe Illustrator 21.1.0, SVG Export Plug-In  -->
<svg version="1.1"
	 xmlns="http://www.w3.org/2000/svg" xmlns:xlink="http://www.w3.org/1999/xlink" xmlns:a="http://ns.adobe.com/AdobeSVGViewerExtensions/3.0/"
	 x="0px" y="0px" width="154.847px" height="131.438px" viewBox="0 0 154.847 131.438"
	 style="enable-background:new 0 0 154.847 131.438;" xml:space="preserve">
<style type="text/css">
	.st0{fill:#FFD72D;}
	.st1{fill:#ECA521;}
	.st2{fill:#FEF494;}
</style>
<defs>
</defs>
<g>
	<polygon class="st0" points="145.523,14.535 121.475,0.111 98.631,5.096 85.904,18.616 77.985,34.034 76.871,34.032 68.992,18.594 
		56.299,5.042 33.468,0 9.384,14.363 0,37.834 3.755,60.037 77.2,131.437 77.305,131.336 77.41,131.438 151.036,60.223 
		154.847,38.03 	"/>
	<g>
		<polygon class="st1" points="84.037,36.603 93.321,20.821 104.276,10.794 127.671,3.738 121.475,0.111 98.631,5.096 
			85.904,18.616 78.033,33.942 		"/>
		<polygon class="st1" points="17.123,65.607 13.368,43.404 22.752,19.933 46.836,5.57 59.39,8.342 56.299,5.042 33.468,0 
			9.384,14.363 0,37.834 3.755,60.037 77.2,131.437 77.305,131.336 77.41,131.438 81.134,127.836 		"/>
	</g>
	<polygon class="st2" points="145.395,37.817 133.993,24.593 116.556,18.672 118.25,13.661 127.415,10.567 140.81,20.046 	"/>
</g>
</svg>