<!-- Generator: Adobe Illustrator 21.1.0, SVG Export Plug-In  -->
<svg version="1.1"
	 xmlns="http://www.w3.org/2000/svg" xmlns:xlink="http://www.w3.org/1999/xlink" xmlns:a="http://ns.adobe.com/AdobeSVGViewerExtensions/3.0/"
	 x="0px" y="0px" width="25.554px" height="25.507px" viewBox="0 0 25.554 25.507"
	 style="enable-background:new 0 0 25.554 25.507;" xml:space="preserve">
<style type="text/css">
	.st0{fill:#FFFFFF;}
</style>
<defs>
</defs>
<path class="st0" d="M25.554,13.824V9.562h-3.233l-0.927-3.129l2.123-1.665l-2.332-2.974l-2.789,2.187l-3.662-1.373V0h-3.779v2.413
	L6.752,4.152L4.369,2.283L2.037,5.257l2.165,1.697l-0.995,3.097H0v4.263h3.049L4.1,17.935L1.754,19.15l1.738,3.356l2.76-1.43
	l4.966,1.986v2.445h3.779V22.82l4.93-1.909l2.134,1.105l1.738-3.356l-2.111-1.093l0.936-3.743H25.554z M17.322,14.974l0.018,0.018
	l-4.165,4.165L9.01,14.992l0.029-0.029l-3.398-3.398l4.165-4.165l3.38,3.38l3.536-3.536l4.165,4.165L17.322,14.974z"/>
</svg>