<?xml version="1.0" encoding="utf-8"?>
<!-- Generator: Adobe Illustrator 22.0.0, SVG Export Plug-In . SVG Version: 6.00 Build 0)  -->
<svg version="1.1" id="Layer_1" xmlns="http://www.w3.org/2000/svg" xmlns:xlink="http://www.w3.org/1999/xlink" x="0px" y="0px"
	 viewBox="0 0 168.9 155.4" style="enable-background:new 0 0 168.9 155.4;" xml:space="preserve">
<style type="text/css">
	.st0{fill:#771216;}
	.st1{fill:#EF484A;}
	.st2{fill:#BE202E;}
	.st3{fill:#941B1E;}
</style>
<g>
	<polygon class="st0" points="114.7,125 94.2,96.9 86.9,102.2 102.6,124.2 70,140.6 52,116.5 44.7,121.9 65.2,150.4 	"/>
	<polygon class="st1" points="165.4,86.6 30.6,148.5 7.3,120.9 90.4,4.2 	"/>
	<polygon class="st2" points="30.6,148.5 163.9,87.3 97.3,14.2 14.9,129.9 	"/>
	
		<rect x="12.5" y="115.4" transform="matrix(0.7451 -0.667 0.667 0.7451 -86.3282 46.6717)" class="st3" width="10.7" height="41.7"/>
	
		<rect x="120.6" y="-11.3" transform="matrix(0.7451 -0.667 0.667 0.7451 0.6848 96.0258)" class="st3" width="10.7" height="116.9"/>
	<polygon class="st2" points="16.9,127.1 8,117.2 0,124.3 10.5,136 	"/>
	<polygon class="st2" points="91,0 83,7.1 93.7,19.2 100.3,10.4 	"/>
</g>
</svg>
