<!-- Generator: Adobe Illustrator 21.1.0, SVG Export Plug-In  -->
<svg version="1.1"
	 xmlns="http://www.w3.org/2000/svg" xmlns:xlink="http://www.w3.org/1999/xlink" xmlns:a="http://ns.adobe.com/AdobeSVGViewerExtensions/3.0/"
	 x="0px" y="0px" width="165.546px" height="128.249px" viewBox="0 0 165.546 128.249"
	 style="enable-background:new 0 0 165.546 128.249;" xml:space="preserve">
<style type="text/css">
	.st0{fill:#1C84C7;}
	.st1{fill:#27A8E0;}
	.st2{opacity:0.88;fill:#25A9E0;}
	.st3{opacity:0.87;fill:#D9F0FA;}
</style>
<defs>
</defs>
<polygon class="st0" points="159.689,48.48 127.595,15.486 88.117,0 39.478,4.144 0,32.499 0.34,70.314 1.131,69.95 0.605,70.545 
	25.301,86.808 56.709,87.681 93.904,123.06 133.048,128.249 165.546,95.969 "/>
<g>
	<polygon class="st1" points="3.592,72.512 25.301,86.808 47.51,87.425 56.076,87.425 45.64,72.684 45.952,72.537 45.825,72.477 
		57.641,55.787 18.981,55.787 18.981,55.729 18.924,55.771 8.645,44.8 8.772,44.707 8.506,44.495 18.976,32.717 19.076,32.818 
		102.491,32.818 102.491,37.836 21.016,37.836 14.98,45.355 20.931,51.707 117.97,51.707 128.269,37.159 117.628,22.129 
		14.438,22.129 0,32.499 0.323,68.433 38.346,68.433 38.346,72.512 	"/>
	<polygon class="st1" points="129.895,67.07 129.837,67.113 119.307,55.874 119.426,55.787 63.589,55.787 64.251,56.099 
		52.49,72.711 62.79,87.259 164.472,87.259 163.246,77.317 78.269,77.317 78.269,73.237 162.743,73.237 161.989,67.129 
		129.895,67.129 	"/>
	<polygon class="st1" points="143.005,103.575 134.343,91.339 60.555,91.339 70.395,100.699 121.22,100.699 121.22,104.147 
		74.02,104.147 86.344,115.87 134.301,115.87 	"/>
	<polygon class="st1" points="159.092,47.867 130.867,47.867 124.942,55.53 131.893,62.949 161.474,62.949 159.689,48.48 	"/>
	<polygon class="st1" points="140.116,91.339 148.639,103.377 148.531,103.428 148.795,103.553 137.553,119.433 137.309,119.318 
		89.969,119.318 93.904,123.06 133.048,128.249 165.546,95.969 164.975,91.339 	"/>
	<polygon class="st1" points="121.452,18.049 121.452,18.219 121.632,18.134 134.935,36.925 134.807,36.985 135.12,37.132 
		130.479,43.688 155.027,43.688 127.595,15.486 88.117,0 39.478,4.144 20.118,18.049 	"/>
</g>
<polygon class="st2" points="108.135,119.135 70.94,83.755 39.532,82.882 14.836,66.62 15.362,66.024 14.571,66.388 14.231,28.573 
	49.423,3.297 39.478,4.144 0,32.499 0.34,70.314 1.131,69.95 0.605,70.545 25.301,86.808 56.709,87.681 93.904,123.06 
	133.048,128.249 138.21,123.121 "/>
<polygon class="st3" points="159.689,48.48 127.595,15.486 88.117,0 68.819,1.743 119.543,19.604 149.687,48.957 165.546,95.969 "/>
</svg>