<?xml version="1.0" encoding="utf-8"?>
<!-- Generator: Adobe Illustrator 22.0.0, SVG Export Plug-In . SVG Version: 6.00 Build 0)  -->
<svg version="1.1" id="Layer_1" xmlns="http://www.w3.org/2000/svg" xmlns:xlink="http://www.w3.org/1999/xlink" x="0px" y="0px"
	 viewBox="0 0 151.6 169.2" style="enable-background:new 0 0 151.6 169.2;" xml:space="preserve">
<style type="text/css">
	.st0{fill:#8DC63F;}
	.st1{fill:#39B54A;}
	.st2{fill:#009444;}
	.st3{opacity:0.21;fill:#006838;enable-background:new    ;}
	.st4{fill:#BED967;}
</style>
<g>
	<rect x="100.1" y="46" transform="matrix(0.5186 -0.855 0.855 0.5186 8.2717 136.7198)" class="st0" width="51" height="30"/>
	<polygon class="st0" points="80.2,81.1 54.7,66.2 67.7,42.9 60.3,26.7 37.1,19.9 16.7,21.5 31.9,5.6 57.6,0 88.6,9.4 114.3,24.9 	
		"/>
	<polygon class="st1" points="103,69.3 99.9,61.9 91.6,62.4 110.3,31.5 113.5,39.5 121.7,38.4 	"/>
	<polygon class="st2" points="27,169.2 11.1,165.7 0,151.1 0.9,143 51.6,68.2 78.8,84.8 36.5,163.3 	"/>
	
		<rect x="60.3" y="55.1" transform="matrix(0.5186 -0.855 0.855 0.5186 -33.3518 92.3543)" class="st2" width="10.1" height="41.4"/>
	<polygon class="st3" points="86.7,59.4 20.9,167.8 27,169.2 36.5,163.3 44.3,148.9 48.5,141 68,104.9 76.7,88.6 80.4,90.9 
		85.7,82.2 81.2,79.5 91.6,62.4 100.2,61.9 103,69.5 99.7,75 101.3,76.1 125.2,90.5 127,87.6 102.9,73.2 103.8,69.5 104.5,66.8 
		101.3,59.4 	"/>
	<polygon class="st4" points="57.6,0 31.9,5.6 17,21.1 17.4,21.3 36,12.6 59.9,8.1 86.3,14.1 110.6,31 114.3,24.9 88.6,9.4 	"/>
	<rect x="133.3" y="27.3" transform="matrix(0.5186 -0.855 0.855 0.5186 29.758 137.4259)" class="st4" width="7.1" height="30"/>
</g>
</svg>
