<!-- Generator: Adobe Illustrator 21.1.0, SVG Export Plug-In  -->
<svg version="1.1"
	 xmlns="http://www.w3.org/2000/svg" xmlns:xlink="http://www.w3.org/1999/xlink" xmlns:a="http://ns.adobe.com/AdobeSVGViewerExtensions/3.0/"
	 x="0px" y="0px" width="151.599px" height="169.168px" viewBox="0 0 151.599 169.168"
	 style="enable-background:new 0 0 151.599 169.168;" xml:space="preserve">
<style type="text/css">
	.st0{fill:#8DC63F;}
	.st1{fill:#39B54A;}
	.st2{fill:#009444;}
	.st3{opacity:0.21;fill:#006838;}
	.st4{fill:#BED967;}
</style>
<defs>
</defs>
<g>
	
		<rect x="110.555" y="35.532" transform="matrix(0.855 0.5186 -0.5186 0.855 49.8409 -56.2657)" class="st0" width="30.005" height="50.961"/>
	<polygon class="st0" points="80.21,81.136 54.715,66.23 67.731,42.931 60.294,26.723 37.129,19.915 16.701,21.451 31.888,5.596 
		57.562,0 88.638,9.378 114.294,24.938 	"/>
	<polygon class="st1" points="102.974,69.318 99.944,61.871 91.571,62.403 110.342,31.453 113.513,39.497 121.745,38.369 	"/>
	<polygon class="st2" points="26.959,169.168 11.114,165.674 0,151.088 0.915,142.998 51.573,68.247 78.812,84.767 36.512,163.29 	
		"/>
	
		<rect x="44.627" y="70.748" transform="matrix(0.855 0.5186 -0.5186 0.855 48.7785 -22.8983)" class="st2" width="41.436" height="10.097"/>
	<polygon class="st3" points="86.685,59.439 20.94,167.84 26.959,169.168 36.512,163.29 44.269,148.891 48.514,141.01 
		67.965,104.903 76.741,88.612 80.442,90.856 85.678,82.223 81.198,79.507 91.571,62.403 100.211,61.934 103.014,69.482 
		99.68,74.98 101.349,76.131 125.233,90.478 126.962,87.627 102.874,73.157 103.81,69.547 104.518,66.773 101.326,59.407 	"/>
	<polygon class="st4" points="57.562,0 31.888,5.596 16.998,21.141 17.355,21.291 36.02,12.558 59.892,8.098 86.329,14.104 
		110.62,30.995 114.294,24.938 88.638,9.378 	"/>
	
		<rect x="133.347" y="27.278" transform="matrix(0.5186 -0.855 0.855 0.5186 29.7656 137.4251)" class="st4" width="7.144" height="30.005"/>
</g>
</svg>