<!-- Generator: Adobe Illustrator 21.1.0, SVG Export Plug-In  -->
<svg version="1.1"
	 xmlns="http://www.w3.org/2000/svg" xmlns:xlink="http://www.w3.org/1999/xlink" xmlns:a="http://ns.adobe.com/AdobeSVGViewerExtensions/3.0/"
	 x="0px" y="0px" width="168.93px" height="155.364px" viewBox="0 0 168.93 155.364"
	 style="enable-background:new 0 0 168.93 155.364;" xml:space="preserve">
<style type="text/css">
	.st0{fill:#771216;}
	.st1{fill:#EF484A;}
	.st2{fill:#BE202E;}
	.st3{fill:#941B1E;}
</style>
<defs>
</defs>
<polygon class="st0" points="114.668,124.977 94.24,96.884 86.882,102.234 102.607,124.151 70.003,140.565 52.018,116.502 
	44.66,121.853 65.19,150.356 "/>
<polygon class="st1" points="165.416,86.614 30.631,148.529 7.293,120.905 90.369,4.17 "/>
<polygon class="st2" points="30.631,148.529 163.866,87.326 97.275,14.172 14.905,129.915 "/>
<rect x="12.532" y="115.428" transform="matrix(0.7451 -0.667 0.667 0.7451 -86.327 46.6715)" class="st3" width="10.716" height="41.674"/>
<rect x="120.6" y="-11.325" transform="matrix(0.7451 -0.667 0.667 0.7451 0.6852 96.0249)" class="st3" width="10.716" height="116.882"/>
<polygon class="st2" points="16.911,127.138 7.984,117.166 0,124.314 10.495,136.037 "/>
<polygon class="st2" points="90.971,0 82.987,7.148 93.707,19.161 100.286,10.41 "/>
</svg>