<!-- Generator: Adobe Illustrator 21.1.0, SVG Export Plug-In  -->
<svg version="1.1"
	 xmlns="http://www.w3.org/2000/svg" xmlns:xlink="http://www.w3.org/1999/xlink" xmlns:a="http://ns.adobe.com/AdobeSVGViewerExtensions/3.0/"
	 x="0px" y="0px" width="37.52px" height="39.206px" viewBox="0 0 37.52 39.206" style="enable-background:new 0 0 37.52 39.206;"
	 xml:space="preserve">
<style type="text/css">
	.st0{fill:#FFFFFF;}
</style>
<defs>
</defs>
<path class="st0" d="M33.672,5.668L18.279,0L4.329,5.668L0,18.894l4.329,14.643l14.431,5.668l14.912-5.668l3.848-15.116
	L33.672,5.668z M21.056,16.322l-1.565-0.576l0.317-12.14l10.907,4.016L21.056,16.322z M17.97,15.718l-1.315,0.534L7.097,7.645
	l10.098-4.103L17.97,15.718z M15.517,17.184l-0.533,1.627L3.243,18.074l2.661-8.129L15.517,17.184z M15.021,20.287l0.576,1.948
	l-9.573,7.208l-2.625-8.88L15.021,20.287z M16.861,23.021l1,0.393l-0.768,12.066l-9.794-3.847L16.861,23.021z M19.346,23.545
	l1.327-0.504l9.657,8.697l-10.664,4.053L19.346,23.545z M21.991,22.315l0.447-1.757l11.576,0.275l-2.251,8.841L21.991,22.315z
	 M22.66,19.069l-0.541-1.792l9.828-7.4l2.549,8.45L22.66,19.069z"/>
</svg>