<svg xmlns="http://www.w3.org/2000/svg" xmlns:xlink="http://www.w3.org/1999/xlink" viewBox="0 0 225 288"><defs><style>.cls-1{isolation:isolate;}.cls-2{fill:url(#linear-gradient);}.cls-3{fill:#f1f2f2;}.cls-4{fill:#da8c27;}.cls-5{fill:#ffc626;}.cls-6{fill:#aed253;}.cls-7{fill:#f26b36;}.cls-8{fill:#d2df43;}.cls-9{fill:#9adbf8;}.cls-10{fill:#8dc63f;}.cls-11{fill:#cede53;}.cls-12{fill:#941a1d;}.cls-13{fill:#6c0c1f;}.cls-14{fill:#be1e2d;}.cls-15{fill:#f0484a;}.cls-16{fill:#dc2129;}.cls-17{fill:#a4def2;}.cls-18{fill:#112e35;}.cls-19{fill:#ed1c24;}.cls-20{fill:#d1edf6;}.cls-21{fill:#fbe624;}.cls-22{fill:#72c8f1;}.cls-23{fill:#27aae1;}.cls-24{fill:#1b85c7;}.cls-25{fill:#199bd7;}.cls-26{fill:#0a69b3;}.cls-27{fill:#39b54a;}.cls-28{fill:#8cc63f;}.cls-29{fill:#009444;}.cls-30{fill:#0584c6;}.cls-31{fill:#006838;opacity:0.14;mix-blend-mode:multiply;}.cls-32{fill:#016434;}.cls-33{fill:#073d20;}.cls-34{fill:#d1d3d4;}.cls-35{fill:#fff;}</style><linearGradient id="linear-gradient" y1="144" x2="225" y2="144" gradientUnits="userSpaceOnUse"><stop offset="0" stop-color="#1c4380"/><stop offset="1" stop-color="#243067"/></linearGradient></defs><title>Strength_formula</title><g class="cls-1"><g id="Layer_2" data-name="Layer 2"><g id="Layer_2-2" data-name="Layer 2"><rect class="cls-2" width="225" height="288" rx="12.59" ry="12.59"/><path class="cls-3" d="M38.52,32.65a9.15,9.15,0,0,0,6.33,2.53C46,35.18,47,34.8,47,34s-.82-1.15-2.77-1.5c-3.24-.59-8.18-1.35-8.18-6.27,0-3.33,2.77-6.36,8.15-6.36a13,13,0,0,1,8.33,2.74l-3.18,4.21a9.77,9.77,0,0,0-5.47-1.94c-1.47,0-1.79.53-1.79,1,0,.77.79,1,2.88,1.38,3.24.56,8,1.5,8,6,0,4.33-3.21,6.83-8.48,6.83-4.18,0-7-1.24-9.12-3.12Z"/><path class="cls-3" d="M59.18,25.38H53.91V20.2H70.37v5.18H65.13V39.83H59.18Z"/><path class="cls-3" d="M80.58,33.54H78.43v6.3H72.49V20.2H83c4.59,0,7.06,3.06,7.06,6.74a6.33,6.33,0,0,1-3.53,5.95l3.56,6.95H83.29Zm1.47-8.39H78.43v3.44h3.62a1.73,1.73,0,1,0,0-3.44Z"/><path class="cls-3" d="M92.44,20.2h14.89v4.95H98.39v2.3h8.74v4.94H98.39v2.5h8.95v4.95H92.44Z"/><path class="cls-3" d="M115.93,29.3V39.83H110V20.2h6.12l6.83,9.89V20.2h5.95V39.83h-5.71Z"/><path class="cls-3" d="M141.8,19.88a9.23,9.23,0,0,1,8.63,4.83l-5,2.56a4.07,4.07,0,0,0-3.62-2.15A4.69,4.69,0,0,0,137,30a4.69,4.69,0,0,0,4.77,4.92,5.59,5.59,0,0,0,3.21-.88v-.85h-3.8V28.33h9.57v7.89a11.65,11.65,0,0,1-9,4C135.85,40.19,131,36.3,131,30S135.85,19.88,141.8,19.88Z"/><path class="cls-3" d="M157.34,25.38h-5.27V20.2h16.45v5.18h-5.24V39.83h-5.95Z"/><path class="cls-3" d="M183.63,32.33h-7v7.51h-5.95V20.2h5.95v6.95h7V20.2h5.95V39.83h-5.95Z"/><path class="cls-3" d="M31.2,50.73H27.6v-.48h7.73v.48H31.71v10.2H31.2Z"/><path class="cls-3" d="M42.53,55.5c0-1.62-.8-2.07-2-2.07a3.66,3.66,0,0,0-2.74,1.46v6h-.48V50.25h.48v4.16A4,4,0,0,1,40.59,53c1.54,0,2.42.67,2.42,2.5v5.43h-.48Z"/><path class="cls-3" d="M49,53c2.37,0,3.58,1.9,3.58,4v.16H45.88a3.31,3.31,0,0,0,3.25,3.47,3.52,3.52,0,0,0,2.69-1.17l.29.3a3.86,3.86,0,0,1-3,1.3A4.07,4.07,0,0,1,49,53Zm-3.09,3.78H52A3.17,3.17,0,0,0,49,53.44,3.26,3.26,0,0,0,45.88,56.78Z"/><path class="cls-3" d="M64,60a3.41,3.41,0,0,1-2.67,1.14,2.58,2.58,0,1,1,0-5.15A3.41,3.41,0,0,1,64,57.1V55.36a2,2,0,0,0-2.18-1.92,3,3,0,0,0-2.48,1.22L59,54.33A3.39,3.39,0,0,1,61.87,53c1.52,0,2.66.77,2.66,2.34v5.59H64Zm0-2.4A3.12,3.12,0,0,0,61.5,56.4a2.15,2.15,0,1,0,0,4.29A3.12,3.12,0,0,0,64,59.5Z"/><path class="cls-3" d="M67.27,50.25h.48v4.27A3.38,3.38,0,0,1,70.54,53C72.62,53,74,54.64,74,57.07s-1.38,4-3.46,4a3.41,3.41,0,0,1-2.79-1.49v1.3h-.48Zm3.27,10.44c1.89,0,2.93-1.58,2.93-3.62s-1-3.63-2.93-3.63A3.39,3.39,0,0,0,67.75,55v4.15A3.36,3.36,0,0,0,70.54,60.69Z"/><path class="cls-3" d="M76.11,51.41a.47.47,0,0,1,.46-.46.46.46,0,1,1,0,.93A.47.47,0,0,1,76.11,51.41Zm.22,1.79h.48v7.73h-.48Z"/><path class="cls-3" d="M79.56,50.25H80V60.93h-.48Z"/><path class="cls-3" d="M82.57,51.41a.47.47,0,0,1,.46-.46.46.46,0,1,1,0,.93A.47.47,0,0,1,82.57,51.41Zm.22,1.79h.48v7.73h-.48Z"/><path class="cls-3" d="M86.12,59.57V53.63H84.84V53.2h1.28V51.09h.48V53.2h1.57v.43H86.6v5.94c0,.66.26,1.12.83,1.12a1.23,1.23,0,0,0,.91-.42l.29.37a1.57,1.57,0,0,1-1.2.48C86.54,61.12,86.12,60.53,86.12,59.57Z"/><path class="cls-3" d="M90.31,63.63c.51,0,.86-.22,1.22-1.06l.7-1.6L88.92,53.2h.56l3,7.17,3-7.17h.56L92,62.75a1.86,1.86,0,0,1-1.7,1.31,2.67,2.67,0,0,1-.77-.11l.1-.45A1.92,1.92,0,0,0,90.31,63.63Z"/><path class="cls-3" d="M101.92,59.57V53.63h-1.28V53.2h1.28V51.09h.48V53.2H104v.43h-1.57v5.94c0,.66.26,1.12.83,1.12a1.23,1.23,0,0,0,.91-.42l.29.37a1.57,1.57,0,0,1-1.2.48C102.33,61.12,101.92,60.53,101.92,59.57Z"/><path class="cls-3" d="M105.5,57.06c0-2.27,1.42-4,3.6-4s3.6,1.78,3.6,4-1.41,4.07-3.6,4.07S105.5,59.33,105.5,57.06Zm6.67,0c0-1.87-1.09-3.62-3.07-3.62S106,55.18,106,57.06s1.1,3.63,3.07,3.63S112.17,58.95,112.17,57.06Z"/><path class="cls-3" d="M122.43,53a3.07,3.07,0,0,1,2.64,1.3l-.35.29a2.6,2.6,0,0,0-2.26-1.15c-2,0-3.15,1.6-3.15,3.62s1.17,3.63,3.15,3.63a2.61,2.61,0,0,0,2.26-1.17l.35.3a3.07,3.07,0,0,1-2.64,1.3c-2.24,0-3.65-1.84-3.65-4.07S120.19,53,122.43,53Z"/><path class="cls-3" d="M126.67,57.06c0-2.27,1.42-4,3.6-4s3.6,1.78,3.6,4-1.41,4.07-3.6,4.07S126.67,59.33,126.67,57.06Zm6.67,0c0-1.87-1.09-3.62-3.07-3.62s-3.07,1.75-3.07,3.62,1.1,3.63,3.07,3.63S133.34,58.95,133.34,57.06Z"/><path class="cls-3" d="M141.42,55.54c0-1.62-.8-2.1-2-2.1a3.66,3.66,0,0,0-2.74,1.46v6h-.48V53.2h.48v1.22a4,4,0,0,1,2.8-1.41c1.54,0,2.42.7,2.42,2.53v5.39h-.48Z"/><path class="cls-3" d="M144.36,59.54a3,3,0,0,0,2.45,1.15c1.42,0,2.29-.77,2.29-1.79s-1.15-1.44-2.34-1.76-2.62-.67-2.62-2.08c0-1.14,1-2,2.63-2a3.18,3.18,0,0,1,2.66,1.17l-.35.32a2.73,2.73,0,0,0-2.3-1.06c-1.34,0-2.14.71-2.14,1.62s1.07,1.26,2.21,1.57c1.33.34,2.75.7,2.75,2.27,0,1.2-.9,2.22-2.77,2.22A3.41,3.41,0,0,1,144,59.89Z"/><path class="cls-3" d="M151.69,51.41a.47.47,0,0,1,.46-.46.46.46,0,1,1,0,.93A.47.47,0,0,1,151.69,51.41Zm.22,1.79h.48v7.73h-.48Z"/><path class="cls-3" d="M154.86,59.54a3,3,0,0,0,2.45,1.15c1.42,0,2.29-.77,2.29-1.79s-1.15-1.44-2.34-1.76-2.62-.67-2.62-2.08c0-1.14,1-2,2.63-2a3.18,3.18,0,0,1,2.66,1.17l-.35.32a2.73,2.73,0,0,0-2.31-1.06c-1.34,0-2.14.71-2.14,1.62s1.07,1.26,2.21,1.57c1.33.34,2.75.7,2.75,2.27,0,1.2-.9,2.22-2.77,2.22a3.41,3.41,0,0,1-2.83-1.23Z"/><path class="cls-3" d="M162.51,59.57V53.63h-1.28V53.2h1.28V51.09H163V53.2h1.57v.43H163v5.94c0,.66.26,1.12.83,1.12a1.23,1.23,0,0,0,.91-.42l.29.37a1.57,1.57,0,0,1-1.2.48C162.92,61.12,162.51,60.53,162.51,59.57Z"/><path class="cls-3" d="M169.72,53c2.37,0,3.58,1.9,3.58,4v.16h-6.67a3.31,3.31,0,0,0,3.25,3.47,3.52,3.52,0,0,0,2.69-1.17l.29.3a3.86,3.86,0,0,1-3,1.3,4.07,4.07,0,0,1-.16-8.12Zm-3.09,3.78h6.16a3.17,3.17,0,0,0-3.09-3.35A3.26,3.26,0,0,0,166.63,56.78Z"/><path class="cls-3" d="M180.86,55.54c0-1.62-.8-2.1-2-2.1a3.66,3.66,0,0,0-2.74,1.46v6h-.48V53.2h.48v1.22a4,4,0,0,1,2.8-1.41c1.54,0,2.42.7,2.42,2.53v5.39h-.48Z"/><path class="cls-3" d="M184.19,59.57V53.63h-1.28V53.2h1.28V51.09h.48V53.2h1.57v.43h-1.57v5.94c0,.66.26,1.12.83,1.12a1.23,1.23,0,0,0,.91-.42l.29.37a1.57,1.57,0,0,1-1.2.48C184.6,61.12,184.19,60.53,184.19,59.57Z"/><path class="cls-3" d="M188.19,50.25h.48V60.93h-.48Z"/><path class="cls-3" d="M191.61,63.63c.51,0,.86-.22,1.22-1.06l.7-1.6-3.31-7.78h.56l3,7.17,3-7.17h.56l-4.1,9.56a1.86,1.86,0,0,1-1.7,1.31,2.67,2.67,0,0,1-.77-.11l.1-.45A1.93,1.93,0,0,0,191.61,63.63Z"/><path class="cls-3" d="M44.11,83.08V72.4h.48v1.3a3.41,3.41,0,0,1,2.79-1.49c2.08,0,3.46,1.6,3.46,4s-1.38,4.07-3.46,4.07a3.38,3.38,0,0,1-2.79-1.52v4.27Zm3.27-10.44a3.37,3.37,0,0,0-2.79,1.54v4.15a3.39,3.39,0,0,0,2.79,1.57c1.89,0,2.93-1.6,2.93-3.63S49.26,72.64,47.37,72.64Z"/><path class="cls-3" d="M53.16,72.4h.48v1.41a3.33,3.33,0,0,1,2.66-1.55v.58l-.38,0a3.07,3.07,0,0,0-2.27,1.52v5.79h-.48Z"/><path class="cls-3" d="M57.61,76.26c0-2.27,1.42-4,3.6-4s3.6,1.78,3.6,4-1.41,4.07-3.6,4.07S57.61,78.53,57.61,76.26Zm6.67,0c0-1.87-1.09-3.62-3.07-3.62s-3.07,1.75-3.07,3.62,1.1,3.63,3.07,3.63S64.29,78.15,64.29,76.26Z"/><path class="cls-3" d="M65.95,72.4h.56l3,7.17,3-7.17h.56l-3.31,7.73h-.56Z"/><path class="cls-3" d="M74.46,70.61a.47.47,0,0,1,.46-.46.46.46,0,1,1,0,.93A.47.47,0,0,1,74.46,70.61Zm.22,1.79h.48v7.73h-.48Z"/><path class="cls-3" d="M83.74,78.83A3.41,3.41,0,0,1,81,80.32c-2.08,0-3.46-1.6-3.46-4s1.38-4.07,3.46-4.07a3.38,3.38,0,0,1,2.79,1.52V69.45h.48V80.13h-.48Zm0-4.63A3.39,3.39,0,0,0,81,72.64c-1.89,0-2.93,1.6-2.93,3.63s1,3.62,2.93,3.62a3.36,3.36,0,0,0,2.79-1.54Z"/><path class="cls-3" d="M90.19,72.21c2.37,0,3.58,1.9,3.58,4v.16H87.1a3.31,3.31,0,0,0,3.25,3.47A3.52,3.52,0,0,0,93,78.72l.29.3a3.86,3.86,0,0,1-3,1.3,4.07,4.07,0,0,1-.16-8.12ZM87.1,76h6.16a3.17,3.17,0,0,0-3.09-3.35A3.26,3.26,0,0,0,87.1,76Z"/><path class="cls-3" d="M105.49,74.74c0-1.62-.8-2.1-2-2.1a3.66,3.66,0,0,0-2.74,1.46v6h-.48V72.4h.48v1.22a4,4,0,0,1,2.8-1.41c1.54,0,2.42.7,2.42,2.53v5.39h-.48Z"/><path class="cls-3" d="M111.93,72.21c2.37,0,3.58,1.9,3.58,4v.16h-6.67a3.31,3.31,0,0,0,3.25,3.47,3.52,3.52,0,0,0,2.69-1.17l.29.3a3.86,3.86,0,0,1-3,1.3,4.07,4.07,0,0,1-.16-8.12ZM108.84,76H115a3.17,3.17,0,0,0-3.09-3.35A3.26,3.26,0,0,0,108.84,76Z"/><path class="cls-3" d="M122.84,79.19a3.41,3.41,0,0,1-2.67,1.14,2.58,2.58,0,1,1,0-5.15,3.41,3.41,0,0,1,2.67,1.14V74.56a2,2,0,0,0-2.18-1.92,3,3,0,0,0-2.48,1.22l-.37-.32a3.39,3.39,0,0,1,2.85-1.33c1.52,0,2.66.77,2.66,2.34v5.59h-.48Zm0-2.4a3.12,3.12,0,0,0-2.54-1.18,2.15,2.15,0,1,0,0,4.29,3.12,3.12,0,0,0,2.54-1.18Z"/><path class="cls-3" d="M126.07,72.4h.48v1.41a3.33,3.33,0,0,1,2.66-1.55v.58l-.38,0a3.07,3.07,0,0,0-2.27,1.52v5.79h-.48Z"/><path class="cls-3" d="M135.1,83.08V72.4h.48v1.3a3.41,3.41,0,0,1,2.79-1.49c2.08,0,3.46,1.6,3.46,4s-1.38,4.07-3.46,4.07a3.38,3.38,0,0,1-2.79-1.52v4.27Zm3.27-10.44a3.37,3.37,0,0,0-2.79,1.54v4.15a3.39,3.39,0,0,0,2.79,1.57c1.89,0,2.93-1.6,2.93-3.63S140.25,72.64,138.36,72.64Z"/><path class="cls-3" d="M147.37,72.21c2.37,0,3.58,1.9,3.58,4v.16h-6.67a3.31,3.31,0,0,0,3.25,3.47,3.52,3.52,0,0,0,2.69-1.17l.29.3a3.86,3.86,0,0,1-3,1.3,4.07,4.07,0,0,1-.16-8.12ZM144.28,76h6.16a3.17,3.17,0,0,0-3.09-3.35A3.26,3.26,0,0,0,144.28,76Z"/><path class="cls-3" d="M153.29,72.4h.48v1.41a3.33,3.33,0,0,1,2.66-1.55v.58l-.38,0a3.07,3.07,0,0,0-2.27,1.52v5.79h-.48Z"/><path class="cls-3" d="M158.38,72.83H157.1V72.4h1.28v-.82c0-1.44.72-2.29,1.94-2.29a1.74,1.74,0,0,1,.91.21l-.21.42a1.31,1.31,0,0,0-.7-.19c-1,0-1.46.69-1.46,1.86v.82h1.57v.43h-1.57v7.3h-.48Z"/><path class="cls-3" d="M165.31,72.21c2.37,0,3.58,1.9,3.58,4v.16h-6.67a3.31,3.31,0,0,0,3.25,3.47,3.52,3.52,0,0,0,2.69-1.17l.29.3a3.86,3.86,0,0,1-3,1.3,4.07,4.07,0,0,1-.16-8.12ZM162.22,76h6.16a3.17,3.17,0,0,0-3.09-3.35A3.26,3.26,0,0,0,162.22,76Z"/><path class="cls-3" d="M174.46,72.21a3.07,3.07,0,0,1,2.64,1.3l-.35.29a2.6,2.6,0,0,0-2.26-1.15c-2,0-3.15,1.6-3.15,3.62s1.17,3.63,3.15,3.63a2.61,2.61,0,0,0,2.26-1.17l.35.3a3.07,3.07,0,0,1-2.64,1.3c-2.24,0-3.65-1.84-3.65-4.07S172.22,72.21,174.46,72.21Z"/><path class="cls-3" d="M179.21,78.77V72.83h-1.28V72.4h1.28V70.29h.48V72.4h1.57v.43h-1.57v5.94c0,.66.26,1.12.83,1.12a1.23,1.23,0,0,0,.91-.42l.29.37a1.57,1.57,0,0,1-1.2.48C179.63,80.32,179.21,79.73,179.21,78.77Z"/><path class="cls-3" d="M70.16,102.28V91.6h.48v1.3a3.41,3.41,0,0,1,2.79-1.49c2.08,0,3.46,1.6,3.46,4s-1.38,4.07-3.46,4.07A3.38,3.38,0,0,1,70.64,98v4.27Zm3.27-10.44a3.37,3.37,0,0,0-2.79,1.54v4.15a3.39,3.39,0,0,0,2.79,1.57c1.89,0,2.93-1.6,2.93-3.63S75.32,91.84,73.43,91.84Z"/><path class="cls-3" d="M82.44,91.41c2.37,0,3.58,1.91,3.58,4v.16H79.35a3.31,3.31,0,0,0,3.25,3.47,3.52,3.52,0,0,0,2.69-1.17l.29.3a3.86,3.86,0,0,1-3,1.3,4.07,4.07,0,0,1-.16-8.12Zm-3.09,3.78h6.16a3.17,3.17,0,0,0-3.09-3.35A3.26,3.26,0,0,0,79.35,95.18Z"/><path class="cls-3" d="M88.35,91.6h.48V93a3.33,3.33,0,0,1,2.66-1.55V92a3,3,0,0,0-.38,0,3.07,3.07,0,0,0-2.27,1.52v5.79h-.48Z"/><path class="cls-3" d="M93.44,92H92.16V91.6h1.28v-.82c0-1.44.72-2.29,1.94-2.29a1.74,1.74,0,0,1,.91.21l-.21.42a1.31,1.31,0,0,0-.7-.19c-1,0-1.46.69-1.46,1.86v.82h1.57V92H93.92v7.3h-.48Z"/><path class="cls-3" d="M96.74,95.46c0-2.27,1.42-4,3.6-4s3.6,1.78,3.6,4-1.41,4.07-3.6,4.07S96.74,97.73,96.74,95.46Zm6.67,0c0-1.87-1.09-3.62-3.07-3.62s-3.07,1.75-3.07,3.62,1.1,3.63,3.07,3.63S103.41,97.34,103.41,95.46Z"/><path class="cls-3" d="M106.27,91.6h.48V93a3.33,3.33,0,0,1,2.66-1.55V92a3,3,0,0,0-.38,0,3.07,3.07,0,0,0-2.27,1.52v5.79h-.48Z"/><path class="cls-3" d="M120.23,93.76c0-1.2-.5-1.92-1.67-1.92a3.16,3.16,0,0,0-2.4,1.44v6.05h-.48V93.76c0-1.2-.5-1.92-1.67-1.92a3.24,3.24,0,0,0-2.4,1.46v6h-.48V91.6h.48v1.22a3.37,3.37,0,0,1,2.48-1.41,1.91,1.91,0,0,1,2,1.47,3.22,3.22,0,0,1,2.54-1.47c1.41,0,2.06.82,2.06,2.35v5.57h-.48Z"/><path class="cls-3" d="M128.45,98.39a3.41,3.41,0,0,1-2.67,1.14,2.58,2.58,0,1,1,0-5.15,3.41,3.41,0,0,1,2.67,1.14V93.76a2,2,0,0,0-2.18-1.92,3,3,0,0,0-2.48,1.22l-.37-.32a3.39,3.39,0,0,1,2.85-1.33c1.52,0,2.66.77,2.66,2.34v5.59h-.48Zm0-2.4a3.13,3.13,0,0,0-2.54-1.18,2.15,2.15,0,1,0,0,4.29,3.13,3.13,0,0,0,2.54-1.18Z"/><path class="cls-3" d="M136.9,93.94c0-1.62-.8-2.1-2-2.1a3.66,3.66,0,0,0-2.74,1.46v6h-.48V91.6h.48v1.22a4,4,0,0,1,2.8-1.41c1.54,0,2.42.71,2.42,2.53v5.39h-.48Z"/><path class="cls-3" d="M143.36,91.41A3.07,3.07,0,0,1,146,92.7l-.35.29a2.59,2.59,0,0,0-2.26-1.15c-2,0-3.15,1.6-3.15,3.62s1.17,3.63,3.15,3.63a2.61,2.61,0,0,0,2.26-1.17l.35.3a3.07,3.07,0,0,1-2.64,1.3c-2.24,0-3.65-1.84-3.65-4.07S141.12,91.41,143.36,91.41Z"/><path class="cls-3" d="M151.24,91.41c2.37,0,3.58,1.91,3.58,4v.16h-6.67a3.31,3.31,0,0,0,3.25,3.47,3.52,3.52,0,0,0,2.69-1.17l.29.3a3.86,3.86,0,0,1-3,1.3,4.07,4.07,0,0,1-.16-8.12Zm-3.09,3.78h6.16a3.17,3.17,0,0,0-3.09-3.35A3.26,3.26,0,0,0,148.15,95.18Z"/><rect class="cls-4" x="104.02" y="171.54" width="8.6" height="53.81"/><rect class="cls-5" x="103.63" y="169.68" width="8.31" height="2.05"/><rect class="cls-5" x="117.76" y="164.42" width="8.98" height="2.06"/><rect class="cls-4" x="111.44" y="158.19" width="7.42" height="67.5"/><rect class="cls-4" x="118.76" y="166.41" width="7.42" height="59.63"/><polygon class="cls-4" points="154.21 233.04 154.21 229.78 141.16 229.78 141.16 233.04 143.81 233.04 143.81 252.02 141.16 252.02 141.16 255.28 154.21 255.28 154.21 252.02 151.48 252.02 151.48 233.04 154.21 233.04"/><polygon class="cls-4" points="179.33 233.04 179.33 229.78 166.29 229.78 166.29 233.04 168.94 233.04 168.94 252.02 166.29 252.02 166.29 255.28 179.33 255.28 179.33 252.02 176.61 252.02 176.61 233.04 179.33 233.04"/><rect class="cls-4" x="152.86" y="253.17" width="14.96" height="2.11"/><rect class="cls-6" x="120.83" y="234.67" width="17.07" height="6.33"/><polygon class="cls-7" points="72.38 125.44 68.29 125.44 67.06 120.25 70.33 116.81 73.77 120.16 72.38 125.44"/><polygon class="cls-8" points="80.34 125.34 76.25 125.34 75.02 120.15 78.28 116.71 81.73 120.06 80.34 125.34"/><rect class="cls-9" x="93.76" y="134.68" width="4.01" height="18.57"/><rect class="cls-9" x="89.48" y="139.27" width="3.36" height="14"/><polygon class="cls-10" points="146.47 175.3 146.47 181.06 138.7 181.06 138.7 174.92 138.7 130.94 140.46 129.61 143.73 130.94 143.73 175.3 146.47 175.3"/><path class="cls-6" d="M143.72,131l-2-3.6-4.2-2.3-3.93,2.08-2.17,3.8v106.9h6.52V132.31l2.73-1.71,3.08,4Z"/><polygon class="cls-11" points="132.49 131.27 134.66 127.47 138.34 125.52 137.49 125.05 133.56 127.13 131.38 130.94 131.38 234.57 132.53 234.38 132.49 131.27"/><rect class="cls-9" x="88.28" y="169.79" width="11.51" height="6.58"/><rect class="cls-12" x="71.88" y="196.88" width="21.99" height="6.41"/><rect class="cls-12" x="93.87" y="203.27" width="6.54" height="17.11"/><polygon class="cls-13" points="100.43 203.28 93.86 203.28 93.86 196.88 100.43 203.28"/><polygon class="cls-4" points="120.64 231.02 118.63 225.94 126.2 225.94 120.64 231.02"/><rect class="cls-14" x="42.33" y="177.42" width="32.1" height="47.24"/><polygon class="cls-14" points="117.69 255.09 78.33 254.74 70 244.99 77.51 220.01 117.47 220.01 125.13 245.52 117.69 255.09"/><rect class="cls-13" x="73.93" y="195.56" width="1.66" height="8.72"/><polygon class="cls-15" points="42.33 215.02 74.42 185.32 74.42 177.42 42.33 177.42 42.33 215.02"/><rect class="cls-13" x="92.89" y="218.88" width="8.38" height="1.31"/><rect class="cls-12" x="41.75" y="179.45" width="33.05" height="3.41"/><rect class="cls-12" x="41.75" y="219.12" width="33.05" height="3.41"/><polygon class="cls-12" points="65.84 206.33 58.59 209.24 51.58 206.33 49.48 198.81 51.58 192.02 58.36 189.11 65.84 192.02 67.71 198.57 65.84 206.33"/><polygon class="cls-16" points="65.84 192.02 58.36 189.11 51.58 192.02 49.48 198.81 51.58 206.33 51.68 206.37 66.12 193 65.84 192.02"/><polygon class="cls-17" points="103.96 165.05 100.22 166.5 96.59 165.05 95.5 161.31 96.59 157.93 100.09 156.48 103.96 157.93 104.93 161.19 103.96 165.05"/><polygon class="cls-12" points="92.41 238.1 87.19 240.19 82.15 238.1 80.63 232.69 82.15 227.8 87.03 225.71 92.41 227.8 93.75 232.51 92.41 238.1"/><polygon class="cls-18" points="90.94 236.51 87.19 237.96 83.57 236.51 82.48 232.77 83.57 229.38 87.07 227.93 90.94 229.38 91.91 232.65 90.94 236.51"/><polygon class="cls-12" points="112.08 237.92 106.87 240.01 101.82 237.92 100.31 232.51 101.82 227.62 106.7 225.53 112.08 227.62 113.43 232.33 112.08 237.92"/><polygon class="cls-9" points="63.69 204.06 58.5 206.07 53.48 204.06 51.98 198.87 53.48 194.19 58.34 192.18 63.69 194.19 65.03 198.71 63.69 204.06"/><polygon class="cls-19" points="71.94 124.48 68.76 124.48 67.8 120.44 70.34 117.77 73.02 120.37 71.94 124.48"/><polygon class="cls-10" points="79.9 124.38 76.72 124.38 75.76 120.34 78.3 117.67 80.98 120.28 79.9 124.38"/><polygon class="cls-18" points="110.61 236.34 106.87 237.78 103.25 236.34 102.16 232.59 103.25 229.21 106.75 227.76 110.61 229.21 111.58 232.47 110.61 236.34"/><polygon class="cls-20" points="63.8 194.22 58.43 192.21 53.56 194.22 52.05 198.93 53.56 204.13 53.61 204.15 64 194.89 63.8 194.22"/><rect class="cls-14" x="51.98" y="176.07" width="13.81" height="1.53"/><rect class="cls-12" x="69.93" y="244.28" width="55.26" height="1.6"/><rect class="cls-5" x="75.38" y="182.86" width="40.62" height="12.58"/><polygon class="cls-5" points="186.04 226.08 186.04 221.58 178.43 217.07 138.53 217.07 138.53 229.96 180.79 229.96 186.04 226.08"/><polygon class="cls-5" points="116.53 195.85 115.54 194.87 122.33 182.91 126.22 185.58 116.53 195.85"/><polygon class="cls-21" points="116 195.47 115.97 182.86 122.44 182.91 116 195.47"/><polygon class="cls-4" points="116.04 195.42 128.09 191.74 126.14 185.56 116.04 195.42"/><rect class="cls-5" x="113.11" y="199.86" width="28.32" height="12.58" transform="translate(270.35 10.64) rotate(67.89)"/><polygon class="cls-5" points="139.11 217.22 137.83 216.68 129.29 227.46 133.23 230.06 139.11 217.22"/><polygon class="cls-21" points="138.55 216.87 126.86 221.58 129.33 227.56 138.55 216.87"/><polygon class="cls-4" points="138.53 216.93 139.45 229.96 133.19 230 138.53 216.93"/><rect class="cls-16" x="41.75" y="179.45" width="33.05" height="3.41"/><rect class="cls-9" x="57.69" y="165.42" width="2.72" height="10.65"/><polygon class="cls-22" points="60.44 165.46 57.67 165.46 60.44 162.92 60.44 165.46"/><rect class="cls-9" x="60.42" y="162.92" width="4.76" height="2.54"/><polygon class="cls-23" points="99.67 153.06 86.37 153.06 84.66 154.14 82.79 157.5 67.11 157.5 65.05 158.6 65 169.34 67.02 170.44 99.8 170.38 102.61 168.53 102.61 167.7 102.61 157.51 102.61 155.04 99.67 153.06"/><rect class="cls-18" x="68.14" y="160.51" width="12.44" height="6.64"/><path class="cls-24" d="M93.46,168.53l-4.79-1.92-1.42-4.9,1.43-4.45,4.63-1.92,5.09,1.91,1.28,4.31-1.26,5Zm-3.84-2.78,3.85,1.54,4-1.54,1-4.16-1-3.46-4.13-1.55-3.72,1.54-1.16,3.61Z"/><rect class="cls-14" x="82.74" y="160.62" width="1.96" height="1.96" transform="translate(138.79 -11.87) rotate(45)"/><rect class="cls-5" x="82.77" y="164.84" width="1.96" height="1.96" transform="translate(141.78 -10.65) rotate(45)"/><polygon class="cls-25" points="86.37 153.06 84.66 154.14 84.14 155.08 99.55 170.38 99.8 170.38 102.61 168.53 102.61 167.7 102.61 157.51 102.61 155.04 99.67 153.06 86.37 153.06"/><polygon class="cls-26" points="98.4 157.25 93.31 155.35 88.68 157.26 88.12 159.04 89.03 159.94 89.23 159.32 89.61 158.12 93.33 156.58 97.46 158.13 98.48 161.59 97.44 165.75 96.19 166.24 95.62 166.47 96.5 167.37 98.41 166.61 99.67 161.56 98.4 157.25"/><rect class="cls-22" x="88.08" y="172.04" width="11.89" height="0.43"/><rect class="cls-22" x="88.08" y="174.35" width="11.89" height="0.43"/><polygon class="cls-27" points="147.17 145.13 144.65 152.03 144.65 186.17 146.75 192.93 152.17 195.38 164.22 195.38 168.85 192.89 170.96 186.17 170.96 152.03 168.22 144.94 163.17 142.83 152.01 142.83 147.17 145.13"/><polygon class="cls-28" points="154.27 195.38 152.99 195.51 149.79 192.06 148.77 188.35 148.65 152.24 149.99 145.53 152.1 143.03 153.63 143.03 151.91 145.72 150.37 152.62 150.56 187.84 151.71 191.41 154.27 195.38"/><rect class="cls-29" x="144.41" y="154.94" width="26.93" height="8.38"/><rect class="cls-29" x="146.83" y="196.71" width="22.2" height="2.42"/><rect class="cls-29" x="152.27" y="195.31" width="12.02" height="1.42"/><polygon class="cls-30" points="79.87 149.99 68.44 149.99 70.33 151.25 78.2 151.25 79.87 149.99"/><rect class="cls-29" x="152.11" y="141.62" width="11.16" height="1.41"/><polygon class="cls-27" points="174.22 205.74 142.51 205.74 147 198.96 169.03 198.96 174.22 205.74"/><polygon class="cls-31" points="174.22 205.74 169.03 198.96 169.03 196.71 164.29 196.71 164.29 195.34 168.85 192.89 170.96 186.17 170.96 163.32 171.33 163.32 171.33 154.94 170.96 154.94 170.96 153.31 144.65 180.94 144.65 186.17 146.75 192.93 152.17 195.38 152.27 195.38 152.27 196.71 146.83 196.71 146.83 199.13 146.89 199.13 142.51 205.74 174.22 205.74"/><path class="cls-32" d="M163.83,176.32l-5.89-2-5.34,2-1.66,4.7,1.66,5.2,5.53,2,5.71-2,1.47-5.37ZM159,180.11l-.6-.2.12-4.31L162.7,177Zm-1.18-.21-.5.19L153.65,177l3.87-1.46Zm-.94.52-.2.58-4.5-.26,1-2.89Zm-.19,1.1.22.69-3.67,2.56-1-3.16Zm.7,1,.38.14-.29,4.29-3.75-1.37Zm1,.19.51-.18,3.7,3.09L158.46,187Zm1-.44.17-.62,4.43.1-.86,3.14Zm.26-1.15-.21-.64,3.76-2.63,1,3Z"/><rect class="cls-29" x="128.57" y="137.11" width="3.07" height="2.19"/><rect class="cls-29" x="130.94" y="134.64" width="7.35" height="6.52"/><polygon class="cls-29" points="128.82 143.33 126.65 145.12 123.84 145.12 121.15 143.21 121.15 131.31 123.45 129.64 126.52 129.64 128.82 131.31 128.82 143.33"/><rect class="cls-33" x="124.61" y="131.31" width="0.77" height="11.89"/><rect class="cls-34" x="124.68" y="126.46" width="0.62" height="6.14"/><rect class="cls-15" x="123.5" y="123.38" width="2.99" height="2.99" transform="translate(124.91 -51.81) rotate(45)"/><rect class="cls-26" x="88.34" y="123.69" width="5.51" height="5.51" transform="translate(116.09 -27.38) rotate(45)"/><rect class="cls-30" x="69.05" y="141.07" width="10.17" height="5.9"/><rect class="cls-9" x="81.42" y="130.56" width="12.36" height="4.17"/><polygon class="cls-22" points="97.89 134.72 93.73 134.72 93.73 130.52 97.89 134.72"/><rect class="cls-9" x="81.42" y="135.67" width="8.06" height="3.6"/><polygon class="cls-22" points="92.91 139.27 89.45 139.27 89.45 135.67 92.91 139.27"/><polygon class="cls-23" points="84.78 150 64.25 150 68.96 146.8 79.16 146.8 84.78 150"/><polygon class="cls-23" points="86.2 144.17 60.97 144.17 60.97 127.94 63.55 124.38 86.2 124.38 86.2 144.17"/><rect class="cls-9" x="64.3" y="127.53" width="19.1" height="13.59"/><rect class="cls-26" x="86.2" y="130.38" width="0.65" height="4.52"/><rect class="cls-26" x="89.52" y="130.31" width="3.19" height="4.52"/><rect class="cls-26" x="86.17" y="135.46" width="0.64" height="3.95"/><rect class="cls-35" x="89.3" y="124.64" width="3.6" height="3.6" transform="translate(116.09 -27.38) rotate(45)"/><rect class="cls-17" x="104.13" y="160.06" width="1.95" height="1.92" transform="translate(266.12 55.91) rotate(90)"/><rect class="cls-17" x="102.98" y="156.8" width="1.73" height="1.92" transform="matrix(0.62, 0.79, -0.79, 0.62, 163.91, -21.31)"/><rect class="cls-17" x="103.15" y="163.57" width="1.73" height="1.92" transform="translate(297.95 147.84) rotate(117.38)"/><rect class="cls-26" x="93.5" y="137.81" width="4.51" height="3.84"/><rect class="cls-5" x="110.94" y="156" width="8.5" height="2.42"/><rect class="cls-29" x="132.66" y="156.89" width="14.32" height="3.32"/><rect class="cls-29" x="132.66" y="156.89" width="3.84" height="23.02"/><polygon class="cls-29" points="133.81 190.57 129.19 185.95 134.66 180.49 140.12 185.95 135.54 190.53 135.54 193.21 142.79 185.95 134.66 177.82 126.52 185.95 133.81 193.25 133.81 190.57"/><ellipse class="cls-29" cx="134.68" cy="180.71" rx="1.82" ry="2.27"/><rect class="cls-23" x="57.19" y="128" width="6.2" height="16.19"/></g></g></g></svg>