<svg xmlns="http://www.w3.org/2000/svg" xmlns:xlink="http://www.w3.org/1999/xlink" viewBox="0 0 247.68 311.99"><defs><style>.cls-1{fill:#a4def2;}.cls-2{fill:#ed1c24;}.cls-3{fill:#8dc63f;}.cls-4{fill:url(#linear-gradient);}.cls-5{fill:#f1f2f2;}.cls-6{fill:#a7a9ac;}.cls-7{fill:#d1d3d4;}.cls-8{fill:#ffc626;}.cls-9{fill:#be202e;}.cls-10{fill:#fff;}.cls-11{fill:#3bb54a;}.cls-12{fill:#da8c27;}.cls-13{fill:#6c0e21;}.cls-14{fill:#4e121d;}.cls-15{fill:#414042;}.cls-16{fill:#58595b;}.cls-17{fill:#231f20;}</style><linearGradient id="linear-gradient" y1="167.99" x2="225" y2="167.99" gradientUnits="userSpaceOnUse"><stop offset="0" stop-color="#1c4380"/><stop offset="1" stop-color="#243067"/></linearGradient></defs><title>Talent_formula</title><g id="Layer_2" data-name="Layer 2"><g id="Layer_2-2" data-name="Layer 2"><polygon class="cls-1" points="229.82 121.08 198.05 133.38 167.31 121.08 158.09 89.32 167.31 60.63 197.03 48.33 229.82 60.63 238.01 88.29 229.82 121.08"/><rect class="cls-1" x="231.27" y="78.7" width="16.55" height="16.27" transform="translate(326.38 -152.71) rotate(90)"/><rect class="cls-1" x="221.51" y="51.07" width="14.67" height="16.27" transform="translate(134.22 -157.41) rotate(51.9)"/><rect class="cls-1" x="222.94" y="108.52" width="14.67" height="16.27" transform="translate(439.76 -34.17) rotate(117.38)"/><polygon class="cls-2" points="99.22 32.5 83.89 32.5 79.27 13.06 91.52 0.18 104.41 12.74 99.22 32.5"/><polygon class="cls-3" points="140.11 32.32 124.78 32.32 120.17 12.89 132.41 0 145.3 12.57 140.11 32.32"/><rect class="cls-4" y="23.99" width="225" height="288" rx="12.59" ry="12.59"/><path class="cls-5" d="M63.52,46.66H58.25V41.48H74.71v5.18H69.47V61.11H63.52Z"/><path class="cls-5" d="M87.69,58.58H80.15l-.77,2.53H72.94l7.24-19.63h7.48L94.9,61.11H88.45Zm-6-4.94h4.47l-2.24-6.92Z"/><path class="cls-5" d="M96,41.48h5.95V55.93h7.45v5.18H96Z"/><path class="cls-5" d="M111.73,41.48h14.89v4.95h-8.95v2.3h8.74v4.94h-8.74v2.5h8.95v4.94H111.73Z"/><path class="cls-5" d="M135.22,50.58V61.11h-5.95V41.48h6.12l6.83,9.89V41.48h5.95V61.11h-5.71Z"/><path class="cls-5" d="M155.56,46.66h-5.27V41.48h16.45v5.18h-5.24V61.11h-5.95Z"/><path class="cls-5" d="M36.6,79.34h-6l-1.18,2.87h-.59l4.45-10.68h.61l4.45,10.68h-.59Zm-5.76-.48h5.57l-2.79-6.74Z"/><path class="cls-5" d="M49.46,76.82c0-1.62-.8-2.1-2-2.1a3.66,3.66,0,0,0-2.74,1.46v6h-.48V74.48h.48v1.22a4,4,0,0,1,2.8-1.41c1.54,0,2.42.7,2.42,2.53v5.39h-.48Z"/><path class="cls-5" d="M57.69,81.27A3.41,3.41,0,0,1,55,82.4a2.58,2.58,0,1,1,0-5.15,3.41,3.41,0,0,1,2.67,1.14V76.64a2,2,0,0,0-2.18-1.92A3,3,0,0,0,53,75.94l-.37-.32a3.39,3.39,0,0,1,2.85-1.33c1.52,0,2.66.77,2.66,2.34v5.59h-.48Zm0-2.4a3.13,3.13,0,0,0-2.54-1.18,2.15,2.15,0,1,0,0,4.29,3.13,3.13,0,0,0,2.54-1.18Z"/><path class="cls-5" d="M61,80.85V74.91H59.73v-.43H61V72.37h.48v2.11h1.57v.43H61.49v5.94c0,.66.26,1.12.83,1.12a1.23,1.23,0,0,0,.91-.42l.29.37a1.57,1.57,0,0,1-1.2.48C61.43,82.4,61,81.81,61,80.85Z"/><path class="cls-5" d="M70.23,81a4,4,0,0,1-2.8,1.38c-1.54,0-2.42-.67-2.42-2.5V74.48h.48V79.9c0,1.62.8,2.06,2,2.06a3.61,3.61,0,0,0,2.74-1.41V74.48h.48v7.73h-.48Z"/><path class="cls-5" d="M73.46,74.48h.48v1.41a3.33,3.33,0,0,1,2.66-1.55v.58a2.59,2.59,0,0,0-2.66,1.5v5.79h-.48Z"/><path class="cls-5" d="M83.32,81.27a3.41,3.41,0,0,1-2.67,1.14,2.58,2.58,0,1,1,0-5.15,3.41,3.41,0,0,1,2.67,1.14V76.64a2,2,0,0,0-2.18-1.92,3,3,0,0,0-2.48,1.22l-.37-.32a3.39,3.39,0,0,1,2.85-1.33c1.52,0,2.66.77,2.66,2.34v5.59h-.48Zm0-2.4a3.13,3.13,0,0,0-2.54-1.18,2.15,2.15,0,1,0,0,4.29,3.13,3.13,0,0,0,2.54-1.18Z"/><path class="cls-5" d="M86.55,71.53H87V82.21h-.48Z"/><path class="cls-5" d="M98.2,75.2l-2.34,7h-.38l-2.56-7.73h.53l2.24,7,2.32-7h.38l2.32,7,2.24-7h.53l-2.56,7.73h-.38Z"/><path class="cls-5" d="M110.2,81.27a3.41,3.41,0,0,1-2.67,1.14,2.58,2.58,0,1,1,0-5.15,3.41,3.41,0,0,1,2.67,1.14V76.64A2,2,0,0,0,108,74.72a3,3,0,0,0-2.48,1.22l-.37-.32A3.39,3.39,0,0,1,108,74.29c1.52,0,2.66.77,2.66,2.34v5.59h-.48Zm0-2.4a3.13,3.13,0,0,0-2.54-1.18,2.15,2.15,0,1,0,0,4.29,3.13,3.13,0,0,0,2.54-1.18Z"/><path class="cls-5" d="M113.62,84.91c.51,0,.86-.22,1.22-1.06l.7-1.6-3.31-7.78h.56l3,7.17,3-7.17h.56L115.32,84a1.86,1.86,0,0,1-1.7,1.31,2.69,2.69,0,0,1-.77-.11l.1-.45A1.92,1.92,0,0,0,113.62,84.91Z"/><path class="cls-5" d="M124.71,78.34c0-2.27,1.42-4,3.6-4s3.6,1.78,3.6,4-1.41,4.07-3.6,4.07S124.71,80.61,124.71,78.34Zm6.67,0c0-1.87-1.09-3.62-3.07-3.62s-3.07,1.75-3.07,3.62,1.1,3.63,3.07,3.63S131.38,80.22,131.38,78.34Z"/><path class="cls-5" d="M134.47,74.91h-1.28v-.43h1.28v-.82c0-1.44.72-2.29,1.94-2.29a1.74,1.74,0,0,1,.91.21l-.21.42a1.31,1.31,0,0,0-.7-.19c-1,0-1.46.69-1.46,1.86v.82h1.57v.43h-1.57v7.3h-.48Z"/><path class="cls-5" d="M142.44,80.85V74.91h-1.28v-.43h1.28V72.37h.48v2.11h1.57v.43h-1.57v5.94c0,.66.26,1.12.83,1.12a1.23,1.23,0,0,0,.91-.42l.29.37a1.57,1.57,0,0,1-1.2.48C142.85,82.4,142.44,81.81,142.44,80.85Z"/><path class="cls-5" d="M151.65,76.78c0-1.62-.8-2.06-2-2.06a3.66,3.66,0,0,0-2.74,1.46v6h-.48V71.53h.48v4.16a4,4,0,0,1,2.8-1.41c1.54,0,2.42.67,2.42,2.5v5.43h-.48Z"/><path class="cls-5" d="M154.66,72.69a.48.48,0,0,1,.46-.46.46.46,0,1,1,0,.93A.48.48,0,0,1,154.66,72.69Zm.22,1.79h.48v7.73h-.48Z"/><path class="cls-5" d="M163.33,76.82c0-1.62-.8-2.1-2-2.1a3.66,3.66,0,0,0-2.74,1.46v6h-.48V74.48h.48v1.22a4,4,0,0,1,2.8-1.41c1.54,0,2.42.7,2.42,2.53v5.39h-.48Z"/><path class="cls-5" d="M168.64,78.32,167,79.79v2.42h-.48V71.53H167v7.65l5-4.71h.69L169,78l3.71,4.24H172Z"/><path class="cls-5" d="M174.28,72.69a.48.48,0,0,1,.46-.46.46.46,0,1,1,0,.93A.48.48,0,0,1,174.28,72.69Zm.22,1.79H175v7.73h-.48Z"/><path class="cls-5" d="M182.95,76.82c0-1.62-.8-2.1-2-2.1a3.66,3.66,0,0,0-2.74,1.46v6h-.48V74.48h.48v1.22a4,4,0,0,1,2.8-1.41c1.54,0,2.42.7,2.42,2.53v5.39h-.48Z"/><path class="cls-5" d="M186.61,83.78a2.93,2.93,0,0,0,2.61,1.14A2.5,2.5,0,0,0,192,82.26V80.91a3.44,3.44,0,0,1-2.79,1.52c-2.08,0-3.46-1.62-3.46-4.07s1.38-4.08,3.46-4.08A3.38,3.38,0,0,1,192,75.81V74.48h.48v7.78c0,2.21-1.39,3.09-3.27,3.09a3.49,3.49,0,0,1-3-1.17ZM192,76.29a3.39,3.39,0,0,0-2.79-1.57c-1.89,0-2.93,1.62-2.93,3.65s1,3.63,2.93,3.63A3.39,3.39,0,0,0,192,80.43Z"/><path class="cls-5" d="M194.79,83.81a2,2,0,0,0,.85-1.47l-.13,0a.52.52,0,0,1,0-1c.34,0,.62.3.62.85a2.53,2.53,0,0,1-1,1.94Z"/><path class="cls-5" d="M47,94.11H45.71v-.43H47v-.82c0-1.44.72-2.29,1.94-2.29a1.74,1.74,0,0,1,.91.21l-.21.42a1.31,1.31,0,0,0-.7-.19c-1,0-1.46.69-1.46,1.86v.82H49v.43H47.47v7.3H47Z"/><path class="cls-5" d="M53.92,93.49c2.37,0,3.59,1.9,3.59,4v.16H50.83a3.31,3.31,0,0,0,3.25,3.47A3.52,3.52,0,0,0,56.77,100l.29.3a3.86,3.86,0,0,1-3,1.3,4.07,4.07,0,0,1-.16-8.12Zm-3.09,3.78H57a3.17,3.17,0,0,0-3.09-3.35A3.26,3.26,0,0,0,50.83,97.26Z"/><path class="cls-5" d="M63.05,93.49c2.37,0,3.59,1.9,3.59,4v.16H60a3.31,3.31,0,0,0,3.25,3.47A3.52,3.52,0,0,0,65.9,100l.29.3a3.86,3.86,0,0,1-3,1.3,4.07,4.07,0,0,1-.16-8.12ZM60,97.26h6.16A3.17,3.17,0,0,0,63,93.92,3.26,3.26,0,0,0,60,97.26Z"/><path class="cls-5" d="M69,90.73h.48v10.68H69Z"/><path class="cls-5" d="M72,91.89a.48.48,0,0,1,.46-.46.46.46,0,1,1,0,.93A.48.48,0,0,1,72,91.89Zm.22,1.79h.48v7.73H72.2Z"/><path class="cls-5" d="M80.65,96c0-1.62-.8-2.1-2-2.1a3.66,3.66,0,0,0-2.74,1.46v6h-.48V93.68h.48V94.9a4,4,0,0,1,2.8-1.41c1.54,0,2.42.7,2.42,2.53v5.39h-.48Z"/><path class="cls-5" d="M84.32,103a2.93,2.93,0,0,0,2.61,1.14,2.5,2.5,0,0,0,2.79-2.66v-1.34a3.44,3.44,0,0,1-2.79,1.52c-2.08,0-3.46-1.62-3.46-4.07s1.38-4.08,3.46-4.08A3.38,3.38,0,0,1,89.71,95V93.68h.48v7.78c0,2.21-1.39,3.09-3.27,3.09a3.49,3.49,0,0,1-3-1.17Zm5.39-7.49a3.39,3.39,0,0,0-2.79-1.57C85,93.92,84,95.54,84,97.57s1,3.63,2.93,3.63a3.39,3.39,0,0,0,2.79-1.57Z"/><path class="cls-5" d="M92.49,103a2,2,0,0,0,.85-1.47l-.13,0a.52.52,0,0,1,0-1c.34,0,.62.3.62.85a2.53,2.53,0,0,1-1,1.94Z"/><path class="cls-5" d="M100,97.54c0-2.27,1.42-4,3.6-4s3.6,1.78,3.6,4-1.41,4.07-3.6,4.07S100,99.81,100,97.54Zm6.67,0c0-1.87-1.09-3.62-3.07-3.62s-3.07,1.75-3.07,3.62,1.1,3.63,3.07,3.63S106.69,99.42,106.69,97.54Z"/><path class="cls-5" d="M109.55,93.68H110v1.41a3.33,3.33,0,0,1,2.66-1.55v.58a2.59,2.59,0,0,0-2.66,1.5v5.79h-.48Z"/><path class="cls-5" d="M118.57,90.73h.48V95a3.38,3.38,0,0,1,2.79-1.52c2.08,0,3.46,1.63,3.46,4.07s-1.38,4-3.46,4a3.41,3.41,0,0,1-2.79-1.49v1.3h-.48Zm3.27,10.44c1.89,0,2.93-1.58,2.93-3.62s-1-3.63-2.93-3.63a3.39,3.39,0,0,0-2.79,1.57v4.15A3.36,3.36,0,0,0,121.84,101.17Z"/><path class="cls-5" d="M130.84,93.49c2.37,0,3.59,1.9,3.59,4v.16h-6.67a3.31,3.31,0,0,0,3.25,3.47,3.52,3.52,0,0,0,2.69-1.17l.29.3a3.86,3.86,0,0,1-3,1.3,4.07,4.07,0,0,1-.16-8.12Zm-3.09,3.78h6.16a3.17,3.17,0,0,0-3.09-3.35A3.26,3.26,0,0,0,127.76,97.26Z"/><path class="cls-5" d="M142,96c0-1.62-.8-2.06-2-2.06a3.66,3.66,0,0,0-2.74,1.46v6h-.48V90.73h.48V94.9a4,4,0,0,1,2.8-1.41c1.54,0,2.42.67,2.42,2.5v5.43H142Z"/><path class="cls-5" d="M150.21,100.47a3.41,3.41,0,0,1-2.67,1.14,2.58,2.58,0,1,1,0-5.15,3.41,3.41,0,0,1,2.67,1.14V95.84A2,2,0,0,0,148,93.92a3,3,0,0,0-2.48,1.22l-.37-.32A3.39,3.39,0,0,1,148,93.49c1.52,0,2.66.77,2.66,2.34v5.59h-.48Zm0-2.4a3.13,3.13,0,0,0-2.54-1.18,2.15,2.15,0,1,0,0,4.29,3.13,3.13,0,0,0,2.54-1.18Z"/><path class="cls-5" d="M152.23,93.68h.56l3,7.17,3-7.17h.56l-3.31,7.73h-.56Z"/><path class="cls-5" d="M160.75,91.89a.48.48,0,0,1,.46-.46.46.46,0,1,1,0,.93A.48.48,0,0,1,160.75,91.89Zm.22,1.79h.48v7.73H161Z"/><path class="cls-5" d="M169.42,96c0-1.62-.8-2.1-2-2.1a3.66,3.66,0,0,0-2.74,1.46v6h-.48V93.68h.48V94.9a4,4,0,0,1,2.8-1.41c1.54,0,2.42.7,2.42,2.53v5.39h-.48Z"/><path class="cls-5" d="M173.08,103a2.93,2.93,0,0,0,2.61,1.14,2.5,2.5,0,0,0,2.79-2.66v-1.34a3.44,3.44,0,0,1-2.79,1.52c-2.08,0-3.46-1.62-3.46-4.07s1.38-4.08,3.46-4.08A3.38,3.38,0,0,1,178.48,95V93.68H179v7.78c0,2.21-1.39,3.09-3.27,3.09a3.49,3.49,0,0,1-3-1.17Zm5.39-7.49a3.39,3.39,0,0,0-2.79-1.57c-1.89,0-2.93,1.62-2.93,3.65s1,3.63,2.93,3.63a3.39,3.39,0,0,0,2.79-1.57Z"/><polygon class="cls-6" points="54.71 202.78 73.88 268.3 79.33 274.57 81.88 273.82 82.85 265.65 63.81 200.08 54.71 202.78"/><polygon class="cls-7" points="56.19 202.21 75.2 268.23 80.26 274.3 81.35 273.98 76.16 267.76 57.13 201.94 56.19 202.21"/><rect class="cls-8" x="39.96" y="165.61" width="28.92" height="37.79" transform="translate(158.3 346.4) rotate(163.75)"/><rect class="cls-8" x="49.77" y="213.14" width="28.92" height="8.53" transform="translate(186.73 408.15) rotate(163.75)"/><polygon class="cls-9" points="63.02 162.32 56.74 155.03 36.42 160.95 35.25 170.41 44.69 167.66 53.16 196.26 56.53 198.43 60.75 197.25 62.23 193.44 53.8 165 63.02 162.32"/><path class="cls-10" d="M56.74,155,63,162.32l10.66,36-.84,6.2,4.08,4.75,2.39,8.19-9.64,2.81,13.18,45.39-1,8.17-.54.16-1.09.32-.93.28-5.45-6.27L60.6,222.9l-9.06,2.64-2.39-8.19.75-6L46,206.63,35.25,170.41l1.17-9.46L56.74,155m.77-2.58-1.4.41-20.32,5.92-1.43.42-.18,1.48L33,170.13l-.06.47.14.45,10.78,36.22.13.44.29.35L47.54,212l-.63,5.08-.06.46L47,218l2.39,8.19.63,2.17,2.17-.63,6.89-2,12.65,43.23.14.47.32.37,5.45,6.27,1,1.1,1.4-.41.93-.28,1.09-.32.54-.16,1.43-.42.18-1.48,1-8.17.05-.46L85,265,72.47,221.8l7.46-2.18,2.17-.63-.63-2.17-2.39-8.19-.14-.47-.32-.37-3.42-4,.7-5.2.07-.48-.14-.47-10.66-36-.14-.47-.32-.37-6.27-7.29-1-1.1Z"/><polygon class="cls-11" points="59.77 202.62 73.59 198.59 63.02 162.32 50.89 165.85 59.77 202.62"/><polygon class="cls-12" points="59.76 202.56 73.71 198.36 63 162.26 50.87 165.79 59.76 202.56"/><polygon class="cls-12" points="48.83 157.33 58.62 197.84 60.75 197.25 62.23 193.44 53.8 165 63.02 162.32 56.74 155.03 48.83 157.33"/><polygon class="cls-13" points="51.03 166.31 63.15 162.78 56.88 155.49 48.97 157.79 51.03 166.31"/><polygon class="cls-9" points="73.67 198.31 45.98 206.64 49.9 211.31 49.16 217.35 76.92 209.26 72.83 204.52 73.67 198.31"/><polygon class="cls-12" points="64.4 221.79 79.31 217.45 76.92 209.26 62.4 213.5 64.4 221.79"/><polygon class="cls-13" points="59.74 202.5 62.4 213.5 76.92 209.26 72.83 204.52 73.67 198.31 59.74 202.5"/><polygon class="cls-6" points="107.34 161.55 93.81 156.28 85.52 156.75 84.55 159.23 90.42 165 103.95 170.26 107.34 161.55"/><polygon class="cls-7" points="106.51 162.62 93.06 157.37 85.17 157.65 84.76 158.71 92.85 158.41 106.13 163.59 106.51 162.62"/><rect class="cls-14" x="95.4" y="161.84" width="15.93" height="5.84" transform="translate(294.38 128.18) rotate(111.26)"/><rect class="cls-12" x="103.77" y="163.5" width="36.61" height="17.51" transform="translate(326.88 120.95) rotate(111.26)"/><polygon class="cls-13" points="100.85 178.51 110.57 153.54 120.56 152.02 107.28 186.14 100.85 178.51"/><polygon class="cls-13" points="106.27 165.33 108.97 158.39 103.53 156.28 101.74 160.88 106.27 165.33"/><polygon class="cls-8" points="126.47 185.13 136.88 158.37 120.56 152.02 112.86 171.79 126.47 185.13"/><polygon class="cls-9" points="112.86 171.79 120.56 152.02 110.57 153.54 106.06 165.13 112.86 171.79"/><polygon class="cls-9" points="139.44 237.35 148.99 223.82 152.34 224.34 171.76 191.55 186.86 197.03 176.08 232.8 167 248.07 139.44 237.35"/><polygon class="cls-13" points="171.17 208.17 163.88 204.86 152.34 224.34 163.23 228.58 171.17 208.17"/><polygon class="cls-8" points="119.11 194.96 135.13 153.79 152.47 158.58 204.39 186.22 196.01 217.83 136.2 202.39 119.11 194.96"/><polygon class="cls-9" points="119.11 194.96 135.53 202.1 152.47 158.58 135.13 153.79 119.11 194.96"/><polygon class="cls-9" points="196.01 217.83 204.39 186.22 196.96 182.27 189.28 208.94 172.23 205.44 170.02 211.12 196.01 217.83"/><polygon class="cls-12" points="199.06 206.31 130.24 166.36 119.11 194.96 136.2 202.39 196.01 217.83 199.06 206.31"/><polygon class="cls-13" points="196.01 217.83 199.06 206.31 191.33 201.82 189.28 208.94 172.23 205.44 170.02 211.12 196.01 217.83"/><polygon class="cls-13" points="130.24 166.36 119.11 194.96 135.53 202.1 145.9 175.45 130.24 166.36"/><path class="cls-10" d="M120.56,152l13.26,5.16,1.32-3.38,17.33,4.79L197,182.27l7.43,4-5.33,20.08L196,217.83l-14.3-3.69-5.63,18.66L167,248.07l-27.56-10.72L149,223.82l3.35.52,9.14-15.43-25.28-6.52-.67-.29L119.11,195l1.43-3.66-13.26-5.16-6.43-7.63,2.09-5.37-5.19-2,1.11-2.84L90.42,165l-5.87-5.77.2-.52.41-1.05.35-.91,8.3-.47,8.44,3.28,1.28-3.29,5.19,2,1.85-4.76,10-1.52m.26-2.33-.6.09-10,1.52-1.29.2-.47,1.22-1,2.65-3.08-1.2-2.11-.82-.82,2.11-.46,1.18-6.33-2.46-.46-.18-.49,0-8.29.47-1.45.08-.53,1.36-.35.91-.41,1.05-.2.52-.54,1.39,1.06,1,5.87,5.77.33.33.43.17,6.33,2.46-.28.73-.82,2.11,2.11.82,3.08,1.2-1.27,3.26-.49,1.25.87,1,6.43,7.63.37.44.54.21,11.15,4.34-.6,1.55-.79,2,2,.87,16.42,7.14.67.29.16.07.17,0L158,210.36l-6.82,11.51-1.83-.29-1.39-.22-.81,1.15L137.6,236l-1.67,2.36,2.7,1,27.56,10.72,1.79.7,1-1.65L178,234l.14-.24.08-.27,5-16.58,12.2,3.15,2.18.56.58-2.17,3.05-11.52,5.33-20.08.46-1.73-1.58-.84-7.43-4-44.5-23.69-.22-.12-.24-.07-17.33-4.79-2-.54L133,153l-.5,1.28-11.15-4.34-.56-.22Z"/><polygon class="cls-14" points="159.5 212.25 157.87 215 162.91 216.97 164.06 214.02 159.5 212.25"/><polygon class="cls-14" points="156.11 217.98 154.48 220.74 160.31 223 161.45 220.06 156.11 217.98"/><polygon class="cls-15" points="122.57 269.21 118.94 271.6 115.24 269.2 115.89 264.89 110.35 261.3 109.7 262.32 110.58 262.89 112.22 270.94 112.32 271.01 106.13 280.58 106.16 280.6 106.56 286.69 112.47 284.68 112.51 284.7 118.71 275.12 126.64 273.48 127.55 274.07 128.3 272.91 122.57 269.21"/><polygon class="cls-16" points="115.36 273.29 115.4 273.31 116.86 270.25 115.24 269.2 115.89 264.89 110.35 261.3 109.7 262.32 110.58 262.89 112.22 270.94 112.32 271.01 106.13 280.58 106.16 280.6 106.56 286.69 106.72 286.64 115.36 273.29"/><rect class="cls-17" x="111.07" y="273.06" width="8.42" height="0.91" transform="translate(167.05 -18.75) rotate(32.9)"/><rect class="cls-17" x="109.22" y="275.91" width="8.42" height="0.91" transform="translate(77.78 -20.24) rotate(15.46)"/><rect class="cls-17" x="107.42" y="278.7" width="8.42" height="0.91" transform="translate(78.46 -19.66) rotate(15.46)"/><rect class="cls-17" x="105.8" y="281.31" width="8.42" height="0.91" transform="translate(79.1 -19.13) rotate(15.46)"/><rect class="cls-15" x="113.03" y="270.28" width="0.91" height="4.15" transform="translate(-176.84 219.71) rotate(-57.1)"/><polygon class="cls-15" points="113.63 275.95 109.5 274.8 109.25 275.68 113.11 276.75 113.63 275.95"/><polygon class="cls-15" points="111.82 278.74 107.69 277.6 107.45 278.48 111.3 279.55 111.82 278.74"/><polygon class="cls-15" points="110.15 281.33 106.08 280.21 105.83 281.09 109.63 282.14 110.15 281.33"/><path class="cls-10" d="M110.35,261.3l5.54,3.59-.66,4.31,1.62,1,2.09,1.35,3.63-2.39,5.73,3.7-.75,1.16-.91-.59-7.92,1.64,0,.05.38.25-.5.77-.38-.25-.69,1.07.13,0-.24.88-.4-.11-1.29,2,.13,0-.24.88-.4-.11L114,282.4l.19.05-.24.88-.47-.13-1,1.5,0,0-5.75,2h0l-.17.06-.36-5.5-.37-.1.24-.88.24.07,1.16-1.79h0l.24-.88.31.09,1.29-2h0l.24-.88.31.09,2-3.08-.3-.2.5-.77.3.2,0,0-.1-.07-1.63-8.05-.89-.57.66-1m-.45-2.09-.82,1.27-.66,1-.82,1.27,1.27.82.35.23,1.32,6.49-.32.49-.82,1.27.3.2-.57.88-.7-.19-.4,1.45-.21.76-.5.77-.7-.19-.4,1.45L106,278l-.37.57-.63-.17-.4,1.45-.24.88-.4,1.45.79.22.29,4.43.13,2,1.86-.63.17-.06,5.05-1.72.65.42.86-1.24.37-.57.86.24.4-1.45.24-.88.11-.39.07-.1.79.22.4-1.45.24-.88.05-.18.32-.49.79.22.4-1.45,0-.15.15.09.82-1.27.43-.67,6.07-1.25.39.25,1.27.82.82-1.27.75-1.16.82-1.27-1.27-.82-5.73-3.7-.83-.53-.82.54-2.81,1.85-1.26-.81-.8-.52.51-3.35.15-1-.82-.53L111.17,260l-1.27-.82Z"/><polygon class="cls-15" points="36.07 267.19 37.96 271.1 35.1 274.46 30.91 273.25 26.63 278.27 27.55 279.05 28.23 278.25 36.43 277.69 36.51 277.59 45.19 284.98 45.22 284.95 51.31 285.35 50.09 279.23 50.12 279.19 41.42 271.79 40.83 263.72 41.54 262.89 40.48 262 36.07 267.19"/><polygon class="cls-16" points="39.17 274.87 39.2 274.84 36.35 272.99 35.1 274.46 30.91 273.25 26.63 278.27 27.55 279.05 28.23 278.25 36.43 277.69 36.51 277.59 45.19 284.98 45.22 284.95 51.31 285.35 51.27 285.18 39.17 274.87"/><rect class="cls-17" x="35.17" y="274.53" width="8.42" height="0.91" transform="translate(-195.54 126.72) rotate(-49.59)"/><rect class="cls-17" x="37.76" y="276.73" width="8.42" height="0.91" transform="translate(-229.62 207.65) rotate(-67.03)"/><rect class="cls-17" x="40.29" y="278.89" width="8.42" height="0.91" transform="translate(-230.06 211.3) rotate(-67.03)"/><rect class="cls-17" x="42.67" y="280.83" width="8.42" height="0.91" transform="translate(-230.39 214.67) rotate(-67.03)"/><rect class="cls-15" x="35.93" y="276.16" width="4.15" height="0.91" transform="translate(-197.26 126.24) rotate(-49.59)"/><polygon class="cls-15" points="41.58 276.94 39.91 280.88 40.75 281.24 42.31 277.56 41.58 276.94"/><polygon class="cls-15" points="44.11 279.09 42.44 283.04 43.28 283.4 44.84 279.71 44.11 279.09"/><polygon class="cls-15" points="46.46 281.09 44.82 284.98 45.66 285.34 47.19 281.71 46.46 281.09"/><path class="cls-10" d="M40.48,262l1.05.9-.71.83.59,8.07,0,0,.3-.35.7.59-.3.35,1,.83.05-.12.84.36-.16.39,1.81,1.54.05-.12.84.36-.16.39L48,277.41l.08-.19.84.36-.19.45,1.36,1.16,0,0,1.19,6h0l0,.17-5.5-.37-.15.35-.84-.36.1-.23-1.62-1.38v0l-.84-.36.13-.3-1.81-1.54v0l-.84-.36.13-.3-2.79-2.38-.24.28-.7-.59.24-.28,0,0-.08.09-8.19.57-.68.8-.92-.78,4.28-5,4.19,1.21L36.35,273,38,271.1l-1.9-3.91L40.48,262m-.17-2.13-1,1.15-4.42,5.19-.64.75.43.89,1.47,3-1,1.14-.62.73-3.25-.94-.94-.27-.63.74-4.28,5-1,1.15,1.15,1,.92.78,1.15,1,1-1.15.27-.32,6.61-.46.45.38,1.15,1,.24-.28.8.68-.28.67,1.39.59.73.31.7.59-.28.67,1.39.59.73.31.52.44-.26.6,1.39.59.84.36,1.39.59.32-.75,4.43.29,2,.13-.39-1.93,0-.17-1-5.24.5-.59-1.12-1-.52-.44.35-.82-1.39-.59-.84-.36-.38-.16-.09-.08.32-.76-1.39-.59-.84-.36-.18-.07-.45-.38.32-.76-1.39-.59-.14-.06.11-.13-1.15-1-.61-.52-.45-6.18.3-.36,1-1.15-1.15-1-1.05-.9-1.15-1Z"/></g></g></svg>