<svg xmlns="http://www.w3.org/2000/svg" xmlns:xlink="http://www.w3.org/1999/xlink" viewBox="0 0 37.69 37.67"><defs><style>.cls-1{fill:url(#linear-gradient);}</style><linearGradient id="linear-gradient" y1="18.83" x2="37.69" y2="18.83" gradientUnits="userSpaceOnUse"><stop offset="0" stop-color="#1c4380"/><stop offset="1" stop-color="#243067"/></linearGradient></defs><title>times_formula</title><g id="Layer_2" data-name="Layer 2"><g id="Layer_2-2" data-name="Layer 2"><path class="cls-1" d="M10.69,18.48,10,17.79l-7.5-7.51A5.5,5.5,0,1,1,10.3,2.5c2.68,2.68,5.36,5.38,8.09,8.12.23-.21.42-.37.59-.55,2.8-2.8,5.59-5.62,8.41-8.4a5.5,5.5,0,0,1,9.23,2.24A5.31,5.31,0,0,1,35.2,9.47c-2.77,2.8-5.57,5.57-8.35,8.36l-.57.6c.2.21.37.4.55.58L36,28.17A5.52,5.52,0,1,1,28.2,36Q23.62,31.4,19,26.81a3.73,3.73,0,0,1-.43-.66h-.34a3.55,3.55,0,0,1-.42.66c-2.79,2.81-5.58,5.63-8.41,8.41a5.49,5.49,0,0,1-9.2-2.32,5.33,5.33,0,0,1,1.47-5.55Q5.83,23.19,10,19.08C10.17,18.88,10.41,18.72,10.69,18.48Z"/></g></g></svg>