<svg xmlns="http://www.w3.org/2000/svg" viewBox="0 0 626.15 678.32"><defs><style>.cls-1{fill:#90a0cb;}.cls-2{fill:#e84b36;}.cls-3{fill:#f7bc57;}.cls-4{fill:#fff;}.cls-5{fill:#231f20;}.cls-6{fill:#81cec8;}.cls-7{fill:#2da3db;}.cls-8{fill:#5b4c91;}</style></defs><title>Cinthy</title><g id="Layer_2" data-name="Layer 2"><g id="Layer_1-2" data-name="Layer 1"><path class="cls-1" d="M431,496.79c105.13-36.5,140.27-173.92,83.35-208.61-25-15.26-117.84,30.44-117.84,30.44Z"/><path class="cls-2" d="M518.06,103.8c-109.87,2.27-180.69,41.38-150.85,133.36L396.1,322s124.75-31.49,135.13-68.39c2.63-9.36-14.79-34.08-10.51-47.69,6.07-19.33,33.69-26.81,33.69-26.81Z"/><path class="cls-3" d="M621.62,222.76c10.31-54.12,8.08-105.51-61.76-118.75-11.4-2.16-44-1.84-46.13,1.11-29.38,41.58-38.39,104.88-.48,168.31,3.87,6.48,62.87-49.66,62.87-49.66l-18.37,6.74c-21.43,7.86-16.58-28.5-15.1-26,5.65,9.66,22.74,3.11,43.64,3.21C609.7,207.88,621.62,222.76,621.62,222.76Z"/><path class="cls-4" d="M444.32,234.31c30.48-31.17,29.12-59-2.36-77.15l-57.9,39.67Z"/><path class="cls-5" d="M442,157.16l-2.77,1.9c-8.14,7.66-13.46,20.69-13.38,35.46.09,17.76,8,32.92,19.06,39.22C474.77,202.81,473.25,175.2,442,157.16Z"/><path class="cls-5" d="M392.59,159.34c1.05,1.15-3.29-21.88,6.66-34.41,8.46-10.66,25.55-16.45,25.55-16.45s4.79-7.64-.39-7.4c-7,.33-15.64,5.44-25.22,15.05C385,130.32,390.64,157.2,392.59,159.34Z"/><rect class="cls-5" x="443.47" y="142.45" width="5.51" height="20.37" transform="translate(64.72 -124.61) rotate(17.12)"/><rect class="cls-5" x="453.21" y="146.39" width="5.51" height="20.37" transform="translate(167.38 -229.61) rotate(34.28)"/><path class="cls-6" d="M279.9,629.79c60.82,60.55,138.31,67.31,201.42,3.92L432.07,496.07Z"/><path class="cls-7" d="M406.47,324.88,56.25,136.72c-17,128.17,78.11,288.36,192.26,296.89C388.46,444.07,407.74,330.25,406.47,324.88Z"/><path class="cls-8" d="M238.31,234.53,56.25,136.72c-15,112.87,57,250.55,152.36,287.64Z"/><path class="cls-7" d="M395.9,320.87,126.79,613.52c120,48.24,298.72-4.19,335.28-112.67C506.91,367.87,401.42,321,395.9,320.87Z"/><path class="cls-8" d="M266.69,461.39,126.79,613.52c105.64,42.49,256.86,6.88,316.43-76.3Z"/><path class="cls-7" d="M397,319.51,0,340C51.87,458.46,216.21,546.19,318.27,494.35,443.39,430.79,400.91,323.45,397,319.51Z"/><path class="cls-8" d="M206.4,329.36,0,340c45.68,104.3,178.57,184.76,279.35,167.08Z"/><path class="cls-7" d="M398.73,323.78,168,0C96,107.4,110.39,293.13,209,351.33,329.81,422.68,397.5,329.17,398.73,323.78Z"/><path class="cls-8" d="M288,168.32,168,0c-63.4,94.58-59.83,249.89,9.25,325.37Z"/></g></g></svg>